<svg width="420" height="174" viewBox="0 0 420 174" fill="none" xmlns="http://www.w3.org/2000/svg">
<path d="M5.03159 64.3822V5.67188H27.1578C44.4307 5.67188 52.3966 8.69044 52.3966 18.0815C52.3966 22.1863 50.5449 24.6297 47.1126 26.0511C54.4881 27.9836 58.7664 32.344 58.7664 41.655C58.7664 57.0035 47.3681 64.3024 27.6684 64.3822V39.3873C36.1295 39.3873 39.4819 37.1194 39.4819 34.1008C39.4819 31.5773 37.7259 27.9836 33.2718 27.9836H24.3001V58.6006L8.54366 64.3822H5.01562H5.03159ZM27.7484 24.6297C31.3561 24.6297 33.1123 20.6051 33.1123 16.2448C33.1123 10.9583 30.6856 9.02584 26.8223 9.02584H24.316V24.6297H27.7484Z" fill="#151515"/>
<path d="M63.7969 43.4117C63.7969 30.0759 72.2577 21.1797 84.9171 21.1797C97.5765 21.1797 106.038 28.4786 106.038 35.5219C106.038 40.3932 98.5823 42.4854 90.6961 43.4117L82.5705 44.4179C83.2408 48.6982 85.0768 52.212 89.9459 52.212C93.7133 52.212 96.3154 51.2058 101.759 48.3468L108.975 60.0059C101.52 65.0369 96.2357 65.6278 88.7804 65.6278C72.7686 65.6278 63.7969 56.7318 63.7969 43.3958V43.4117ZM84.0712 40.7286C86.8329 40.3134 87.5992 37.6301 87.5992 33.6055C87.5992 29.5807 86.769 24.5497 84.9171 24.5497C82.2352 24.5497 82.2352 33.6853 82.2352 38.3809C82.2352 39.2274 82.2352 40.1377 82.3152 40.984L84.0712 40.7286Z" fill="#151515"/>
<path d="M129.342 84.4256C122.222 84.4256 118.279 83.5791 112.739 80.4008L118.439 68.7419C122.637 70.4188 129.166 71.0097 133.03 71.0097C138.809 71.0097 142.927 67.9113 144.604 64.3018C133.461 63.6311 127.251 60.6924 122.717 49.6241L116.347 34.0204C114.416 29.2448 112.58 25.4598 107.711 21.1953C123.132 21.1953 128.576 21.371 133.189 32.5988L137.132 42.2456C139.735 48.5381 143.677 50.1354 153.56 50.1354V64.5572C153.56 75.7053 143.917 84.4256 129.326 84.4256H129.342Z" fill="#151515"/>
<path d="M146.86 21.1953C152.64 21.1953 156.504 25.1403 156.504 30.8419C156.504 36.5438 152.64 40.4886 146.86 40.4886C141.082 40.4886 137.219 36.6236 137.219 30.8419C137.219 25.0603 141.161 21.1953 146.86 21.1953Z" fill="#151515"/>
<path d="M252.322 64.382H233.882V48.1073C233.882 34.6915 232.878 25.2046 230.946 25.2046C228.68 25.2046 227.083 30.3154 226.922 40.2175V64.3661H208.484V22.4416H211.837L225.997 27.8878C228.008 22.4416 231.281 21.1797 234.713 21.1797C246.782 21.1797 252.322 30.8263 252.322 44.9929V64.3661V64.382Z" fill="#151515"/>
<path d="M285.09 59.021C283.077 64.4672 279.391 65.6491 273.946 65.6491C262.963 65.6491 257.344 56.7531 257.344 43.4171C257.344 30.0811 262.963 21.1851 273.946 21.1851C278.56 21.1851 281.913 22.1115 284.004 25.7209V1.47656H302.443V64.3713H299.088L285.09 59.0051V59.021ZM279.981 52.2331C282.327 52.2331 284.004 46.7871 284.004 38.8972C284.004 31.0074 282.327 25.6411 279.981 25.6411C277.457 25.6411 275.783 31.0074 275.783 38.9771C275.783 46.9467 277.457 52.2331 279.981 52.2331Z" fill="#151515"/>
<path d="M1.29688 80.469H46.8102V97.2389H28.0366C25.1789 100.593 24.7639 102.43 24.7639 107.301C24.7639 111.246 27.7812 115.43 32.1392 115.43C35.2363 115.43 36.7529 114.679 39.9298 112.156L44.5433 134.708C38.3493 139.068 36.2419 140.409 28.8668 140.409C14.531 140.409 5.57522 130.092 5.57522 117.682C5.57522 102.925 18.6497 97.2228 24.7639 97.2228H1.29688V80.4531V80.469Z" fill="#151515"/>
<path d="M141.014 139.163H122.576V117.953C122.576 104.537 121.73 100.017 120.229 100.017C118.473 100.017 117.292 105.463 117.212 115.941V139.163H98.7734V97.2383H102.126L116.126 102.605C117.883 97.2382 120.979 95.9766 125.098 95.9766C132.394 95.9766 136.832 98.5799 139.178 104.617C140.6 97.5738 143.616 95.9766 148.644 95.9766C157.776 95.9766 164.816 100.592 164.816 116.436V139.163H146.378V117.953C146.378 104.537 145.549 100.017 144.032 100.017C142.099 100.017 140.935 106.214 141.014 118.209V139.179V139.163Z" fill="#151515"/>
<path d="M235.219 103.02V139.163H216.781V97.2383H220.134L235.219 103.02ZM247.384 95.9766C253.162 95.9766 257.025 99.9216 257.025 105.623C257.025 111.325 253.162 115.27 247.384 115.27C241.604 115.27 237.742 111.405 237.742 105.623C237.742 99.8416 241.685 95.9766 247.384 95.9766Z" fill="#151515"/>
<path d="M278.805 103.02V139.163H260.367V97.2383H263.72L278.805 103.02ZM290.97 95.9766C296.75 95.9766 300.613 99.9216 300.613 105.623C300.613 111.325 296.75 115.27 290.97 115.27C285.192 115.27 281.326 111.405 281.326 105.623C281.326 99.8416 285.271 95.9766 290.97 95.9766Z" fill="#151515"/>
<path d="M363.044 128.766L355.843 110.734C353.673 105.192 351.565 101.008 346.281 95.9766C362.293 95.9766 367.994 96.1522 372.765 108.131L379.726 125.651C381.992 131.353 386.255 137.055 393.471 140.409C376.629 140.409 367.577 140.073 363.044 128.75V128.766Z" fill="#591CBC"/>
<path d="M385.669 128.766L378.468 110.734C376.298 105.192 374.19 101.008 368.906 95.9766C384.918 95.9766 390.617 96.1522 395.39 108.131L399.492 118.448C402.686 126.322 408.05 125.987 414.755 125.987L417.691 140.409C400.85 140.409 390.202 140.073 385.669 128.75V128.766Z" fill="#11A24A"/>
<path d="M408.714 95.9766C414.494 95.9766 418.355 99.9216 418.355 105.623C418.355 111.325 414.494 115.27 408.714 115.27C402.935 115.27 399.07 111.405 399.07 105.623C399.07 99.8416 403.015 95.9766 408.714 95.9766Z" fill="#F15A29"/>
<path d="M324.906 95.9766C312.327 95.9766 303.945 104.857 303.945 118.193C303.945 131.529 312.327 140.409 324.906 140.409C337.486 140.409 345.853 131.513 345.853 118.193C345.853 104.873 337.471 95.9766 324.906 95.9766ZM324.189 127.839C318.49 127.839 314.547 123.974 314.547 118.193C314.547 112.411 318.49 108.546 324.189 108.546C329.887 108.546 333.83 112.491 333.83 118.193C333.83 123.894 329.967 127.839 324.189 127.839Z" fill="#151515"/>
<path d="M182.492 21.1953C169.913 21.1953 161.531 30.0915 161.531 43.4273C161.531 56.7635 169.913 65.6593 182.492 65.6593C195.071 65.6593 203.452 56.7635 203.452 43.4273C203.452 30.0915 195.071 21.1953 182.492 21.1953ZM182.492 53.058C176.793 53.058 172.85 49.193 172.85 43.4114C172.85 37.6298 176.793 33.7648 182.492 33.7648C188.192 33.7648 192.134 37.7096 192.134 43.4114C192.134 49.1132 188.271 53.058 182.492 53.058Z" fill="#151515"/>
<path d="M72.7889 95.9766C60.2093 95.9766 51.8281 104.856 51.8281 118.192C51.8281 131.529 60.2093 140.409 72.7889 140.409C85.3685 140.409 93.7336 131.513 93.7336 118.192C93.7336 104.873 85.3525 95.9766 72.7889 95.9766ZM72.7889 127.839C67.0899 127.839 63.1467 123.974 63.1467 118.192C63.1467 112.411 67.0899 108.546 72.7889 108.546C78.4879 108.546 82.4311 112.491 82.4311 118.192C82.4311 123.894 78.5679 127.839 72.7889 127.839Z" fill="#151515"/>
<path d="M190.812 95.9766C178.233 95.9766 169.852 104.857 169.852 118.193C169.852 131.529 178.233 140.409 190.812 140.409C203.394 140.409 211.758 131.513 211.758 118.193C211.758 104.873 203.377 95.9766 190.812 95.9766ZM190.812 127.839C185.113 127.839 181.17 123.974 181.17 118.193C181.17 112.411 185.113 108.546 190.812 108.546C196.513 108.546 200.455 112.491 200.455 118.193C200.455 123.894 196.592 127.839 190.812 127.839Z" fill="#151515"/>
<path d="M8.15563 169.393C7.1994 169.393 6.36578 169.24 5.65473 168.932C4.94369 168.626 4.39204 168.198 3.99972 167.645C3.6197 167.094 3.42969 166.444 3.42969 165.695V165.235C3.42969 165.174 3.44808 165.125 3.48484 165.088C3.53387 165.039 3.58905 165.014 3.65034 165.014H5.28696C5.34825 165.014 5.39729 165.039 5.43407 165.088C5.4831 165.125 5.50761 165.174 5.50761 165.235V165.585C5.50761 166.149 5.75895 166.622 6.26156 167.002C6.76419 167.369 7.45072 167.553 8.32113 167.553C9.06894 167.553 9.63287 167.394 10.0129 167.076C10.3929 166.755 10.583 166.345 10.583 165.842C10.583 165.498 10.4787 165.21 10.2703 164.978C10.062 164.733 9.76158 164.511 9.36928 164.315C8.98925 164.119 8.41307 163.874 7.64073 163.579C6.77033 163.26 6.06542 162.959 5.52601 162.678C4.98659 162.396 4.53301 162.016 4.16522 161.537C3.8097 161.047 3.63195 160.44 3.63195 159.716C3.63195 158.637 4.02426 157.784 4.80884 157.159C5.59345 156.533 6.6416 156.221 7.95335 156.221C8.87278 156.221 9.6819 156.38 10.3807 156.698C11.0917 157.017 11.6434 157.465 12.0357 158.042C12.428 158.607 12.6241 159.262 12.6241 160.01V160.323C12.6241 160.384 12.5996 160.44 12.5506 160.489C12.5138 160.525 12.4648 160.544 12.4035 160.544H10.7485C10.6872 160.544 10.632 160.525 10.583 160.489C10.5462 160.44 10.5278 160.384 10.5278 160.323V160.121C10.5278 159.545 10.2887 159.06 9.81062 158.668C9.34477 158.263 8.69503 158.06 7.86139 158.06C7.18715 158.06 6.65999 158.202 6.27995 158.483C5.91218 158.765 5.72829 159.164 5.72829 159.679C5.72829 160.047 5.82637 160.348 6.02251 160.581C6.21865 160.813 6.51289 161.029 6.90518 161.225C7.29748 161.409 7.9043 161.648 8.72568 161.942C9.59608 162.273 10.2887 162.574 10.8036 162.844C11.3308 163.114 11.7782 163.494 12.146 163.984C12.5261 164.463 12.7161 165.064 12.7161 165.787C12.7161 166.89 12.3054 167.767 11.484 168.417C10.6749 169.068 9.56544 169.393 8.15563 169.393ZM19.1673 159.698C20.1603 159.698 20.9511 159.992 21.5394 160.581C22.1402 161.169 22.4405 161.973 22.4405 162.99V169.024C22.4405 169.087 22.4161 169.141 22.3668 169.19C22.3302 169.228 22.2812 169.246 22.2197 169.246H20.5281C20.4667 169.246 20.4115 169.228 20.3625 169.19C20.3259 169.141 20.3074 169.087 20.3074 169.024V163.433C20.3074 162.868 20.1479 162.414 19.8293 162.071C19.5107 161.715 19.0877 161.537 18.5604 161.537C18.0333 161.537 17.6042 161.71 17.2731 162.052C16.9545 162.396 16.7951 162.849 16.7951 163.413V169.024C16.7951 169.087 16.7706 169.141 16.7215 169.19C16.6847 169.228 16.6358 169.246 16.5744 169.246H14.8827C14.8213 169.246 14.7662 169.228 14.7172 169.19C14.6804 169.141 14.662 169.087 14.662 169.024V156.588C14.662 156.527 14.6804 156.478 14.7172 156.441C14.7662 156.392 14.8213 156.367 14.8827 156.367H16.5744C16.6358 156.367 16.6847 156.392 16.7215 156.441C16.7706 156.478 16.7951 156.527 16.7951 156.588V160.654C16.7951 160.691 16.8073 160.716 16.8318 160.728C16.8564 160.741 16.8748 160.728 16.887 160.691C17.3896 160.029 18.1497 159.698 19.1673 159.698ZM28.2504 159.698C29.0226 159.698 29.7031 159.833 30.2915 160.102C30.8801 160.372 31.3336 160.746 31.6524 161.225C31.9711 161.69 32.1305 162.224 32.1305 162.826V169.024C32.1305 169.087 32.1058 169.141 32.0568 169.19C32.02 169.228 31.9711 169.246 31.9097 169.246H30.2181C30.1566 169.246 30.1015 169.228 30.0525 169.19C30.0156 169.141 29.9973 169.087 29.9973 169.024V168.437C29.9973 168.399 29.9851 168.381 29.9605 168.381C29.9359 168.369 29.9115 168.376 29.8871 168.399C29.2863 169.062 28.4159 169.393 27.2757 169.393C26.3563 169.393 25.5962 169.159 24.9956 168.695C24.4071 168.228 24.1129 167.535 24.1129 166.615C24.1129 165.659 24.4439 164.917 25.1059 164.389C25.7801 163.849 26.7241 163.579 27.9377 163.579H29.9054C29.9668 163.579 29.9973 163.548 29.9973 163.487V163.046C29.9973 162.567 29.8563 162.2 29.5744 161.942C29.2924 161.672 28.8694 161.537 28.3057 161.537C27.8396 161.537 27.4596 161.623 27.1654 161.794C26.8834 161.954 26.7056 162.181 26.6322 162.475C26.5953 162.623 26.5095 162.684 26.3746 162.66L24.591 162.439C24.5297 162.426 24.4744 162.408 24.4256 162.383C24.3886 162.347 24.3764 162.304 24.3886 162.255C24.4868 161.506 24.8852 160.894 25.584 160.415C26.295 159.938 27.1839 159.698 28.2504 159.698ZM27.8091 167.7C28.4098 167.7 28.9246 167.541 29.3536 167.222C29.7827 166.903 29.9973 166.498 29.9973 166.008V165.143C29.9973 165.082 29.9668 165.052 29.9054 165.052H28.3606C27.711 165.052 27.1961 165.174 26.8161 165.419C26.4482 165.664 26.2643 166.013 26.2643 166.467C26.2643 166.86 26.4055 167.167 26.6873 167.387C26.9817 167.596 27.3554 167.7 27.8091 167.7ZM42.2343 162.273C42.4551 162.898 42.5653 163.665 42.5653 164.573C42.5653 165.444 42.4612 166.192 42.2528 166.818C41.9831 167.627 41.5479 168.259 40.9471 168.712C40.3588 169.166 39.6109 169.393 38.7037 169.393C37.8332 169.393 37.1346 169.08 36.6074 168.455C36.5828 168.43 36.5584 168.424 36.534 168.437C36.5094 168.448 36.497 168.473 36.497 168.509V172.502C36.497 172.563 36.4725 172.613 36.4235 172.649C36.3867 172.698 36.3377 172.723 36.2764 172.723H34.5846C34.5233 172.723 34.4682 172.698 34.4192 172.649C34.3824 172.613 34.364 172.563 34.364 172.502V160.066C34.364 160.004 34.3824 159.956 34.4192 159.918C34.4682 159.869 34.5233 159.844 34.5846 159.844H36.2764C36.3377 159.844 36.3867 159.869 36.4235 159.918C36.4725 159.956 36.497 160.004 36.497 160.066V160.618C36.497 160.654 36.5094 160.679 36.534 160.691C36.5584 160.703 36.5828 160.691 36.6074 160.654C37.1468 160.017 37.8517 159.698 38.722 159.698C39.5926 159.698 40.328 159.925 40.9288 160.379C41.5296 160.832 41.9647 161.463 42.2343 162.273ZM39.8438 166.781C40.2117 166.217 40.3954 165.468 40.3954 164.537C40.3954 163.64 40.2485 162.936 39.9541 162.421C39.6109 161.819 39.0899 161.519 38.391 161.519C37.7536 161.519 37.2755 161.814 36.9568 162.403C36.6748 162.88 36.534 163.591 36.534 164.537C36.534 165.505 36.6872 166.24 36.9936 166.744C37.3124 167.283 37.7721 167.553 38.3727 167.553C39.0225 167.553 39.5128 167.295 39.8438 166.781ZM45.8472 158.557C45.4674 158.557 45.1547 158.434 44.9096 158.189C44.6644 157.944 44.5419 157.631 44.5419 157.251C44.5419 156.871 44.6644 156.558 44.9096 156.313C45.1547 156.068 45.4674 155.945 45.8472 155.945C46.2275 155.945 46.5402 156.068 46.7853 156.313C47.0305 156.558 47.1529 156.871 47.1529 157.251C47.1529 157.631 47.0305 157.944 46.7853 158.189C46.5402 158.434 46.2275 158.557 45.8472 158.557ZM44.9647 169.246C44.9034 169.246 44.8481 169.228 44.7993 169.19C44.7625 169.141 44.744 169.087 44.744 169.024V160.047C44.744 159.986 44.7625 159.938 44.7993 159.9C44.8481 159.851 44.9034 159.826 44.9647 159.826H46.6565C46.7178 159.826 46.7668 159.851 46.8036 159.9C46.8527 159.938 46.8773 159.986 46.8773 160.047V169.024C46.8773 169.087 46.8527 169.141 46.8036 169.19C46.7668 169.228 46.7178 169.246 46.6565 169.246H44.9647ZM53.8259 159.698C54.819 159.698 55.6097 159.992 56.1981 160.581C56.7989 161.169 57.0992 161.973 57.0992 162.99V169.024C57.0992 169.087 57.0748 169.141 57.0257 169.19C56.9889 169.228 56.9399 169.246 56.8784 169.246H55.1868C55.1255 169.246 55.0704 169.228 55.0214 169.19C54.9846 169.141 54.9661 169.087 54.9661 169.024V163.433C54.9661 162.868 54.8068 162.414 54.488 162.071C54.1694 161.715 53.7464 161.537 53.2191 161.537C52.6921 161.537 52.2631 161.71 51.9321 162.052C51.6133 162.396 51.4538 162.849 51.4538 163.413V169.024C51.4538 169.087 51.4294 169.141 51.3803 169.19C51.3435 169.228 51.2945 169.246 51.2332 169.246H49.5414C49.4802 169.246 49.4248 169.228 49.376 169.19C49.339 169.141 49.3207 169.087 49.3207 169.024V160.066C49.3207 160.004 49.339 159.956 49.376 159.918C49.4248 159.869 49.4802 159.844 49.5414 159.844H51.2332C51.2945 159.844 51.3435 159.869 51.3803 159.918C51.4294 159.956 51.4538 160.004 51.4538 160.066V160.654C51.4538 160.691 51.4662 160.716 51.4906 160.728C51.5152 160.741 51.5335 160.728 51.5457 160.691C52.0484 160.029 52.8085 159.698 53.8259 159.698ZM65.079 160.066C65.079 160.004 65.0973 159.956 65.1343 159.918C65.1832 159.869 65.2385 159.844 65.2997 159.844H66.9914C67.0528 159.844 67.1018 159.869 67.1387 159.918C67.1877 159.956 67.2121 160.004 67.2121 160.066V168.621C67.2121 170.153 66.7708 171.245 65.8881 171.895C65.0177 172.557 63.8715 172.888 62.4493 172.888C62.0694 172.888 61.6955 172.87 61.3277 172.833C61.1928 172.822 61.1252 172.741 61.1252 172.595L61.1806 171.086C61.1806 170.951 61.2664 170.883 61.4379 170.883C61.7936 170.92 62.1122 170.938 62.3943 170.938C63.3137 170.938 63.9879 170.755 64.417 170.387C64.8583 170.031 65.079 169.424 65.079 168.565V168.417C65.079 168.381 65.0668 168.363 65.0424 168.363C65.0177 168.351 64.9931 168.356 64.9687 168.381C64.4662 168.921 63.755 169.19 62.8356 169.19C62.0387 169.19 61.3094 168.988 60.6473 168.583C59.9853 168.179 59.5256 167.56 59.2682 166.725C59.1087 166.149 59.0291 165.406 59.0291 164.499C59.0291 163.481 59.127 162.702 59.3233 162.163C59.5685 161.414 59.9914 160.82 60.5922 160.379C61.1928 159.925 61.8977 159.698 62.7068 159.698C63.6752 159.698 64.4292 159.979 64.9687 160.544C64.9931 160.581 65.0177 160.593 65.0424 160.581C65.0668 160.568 65.079 160.544 65.079 160.507V160.066ZM64.9502 166.118C64.9992 165.934 65.03 165.738 65.0424 165.529C65.0668 165.309 65.079 164.96 65.079 164.481C65.079 164.015 65.0668 163.683 65.0424 163.487C65.03 163.28 64.9931 163.076 64.9319 162.88C64.8338 162.475 64.6316 162.151 64.325 161.906C64.0308 161.659 63.6508 161.537 63.1849 161.537C62.7436 161.537 62.3697 161.659 62.0633 161.906C61.7567 162.151 61.536 162.475 61.4013 162.88C61.2542 163.224 61.1806 163.764 61.1806 164.499C61.1806 165.259 61.2418 165.794 61.3645 166.1C61.4872 166.492 61.7077 166.818 62.0265 167.076C62.3575 167.32 62.7497 167.443 63.2032 167.443C63.6813 167.443 64.0677 167.32 64.3618 167.076C64.656 166.829 64.8522 166.51 64.9502 166.118ZM73.4969 169.246C73.4366 169.246 73.3822 169.228 73.3339 169.191C73.2977 169.143 73.2795 169.088 73.2795 169.028V156.773C73.2795 156.714 73.2977 156.665 73.3339 156.629C73.3822 156.581 73.4366 156.556 73.4969 156.556H75.164C75.2243 156.556 75.2728 156.581 75.3089 156.629C75.3571 156.665 75.3814 156.714 75.3814 156.773V162.194C75.3814 162.23 75.3934 162.255 75.4176 162.266C75.4417 162.279 75.4659 162.273 75.49 162.248L80.201 156.683C80.2736 156.599 80.364 156.556 80.4728 156.556H82.3573C82.4779 156.556 82.5386 156.599 82.5386 156.683C82.5386 156.719 82.5203 156.768 82.4842 156.829L78.3349 161.922C78.2986 161.971 78.2925 162.013 78.3168 162.049L82.7741 168.992C82.7982 169.065 82.8102 169.106 82.8102 169.119C82.8102 169.204 82.7499 169.246 82.6291 169.246H80.7265C80.6179 169.246 80.5333 169.197 80.4728 169.101L76.8852 163.518C76.837 163.445 76.7948 163.438 76.7585 163.5L75.4176 165.058C75.3934 165.107 75.3814 165.149 75.3814 165.185V169.028C75.3814 169.088 75.3571 169.143 75.3089 169.191C75.2728 169.228 75.2243 169.246 75.164 169.246H73.4969ZM91.6124 163.572C91.6607 163.874 91.685 164.212 91.685 164.587L91.6668 165.149C91.6668 165.294 91.5943 165.366 91.4494 165.366H85.7781C85.7178 165.366 85.6875 165.397 85.6875 165.457C85.7237 165.856 85.7781 166.128 85.8507 166.272C86.1404 167.142 86.847 167.584 87.9705 167.596C88.792 167.596 89.4442 167.258 89.9274 166.581C89.9757 166.509 90.0361 166.473 90.1086 166.473C90.1569 166.473 90.1991 166.491 90.2353 166.527L91.3588 167.451C91.4676 167.536 91.4855 167.632 91.4132 167.741C91.0387 168.273 90.5375 168.683 89.9091 168.974C89.2932 169.264 88.6047 169.408 87.8437 169.408C86.9016 169.408 86.0982 169.197 85.4338 168.775C84.7814 168.352 84.3044 167.759 84.0023 166.998C83.7246 166.345 83.5856 165.439 83.5856 164.279C83.5856 163.577 83.6582 163.01 83.803 162.575C84.0447 161.729 84.4976 161.065 85.162 160.581C85.8385 160.085 86.6479 159.837 87.5899 159.837C89.9696 159.837 91.3105 161.083 91.6124 163.572ZM87.5899 161.651C87.143 161.651 86.7686 161.765 86.4666 161.995C86.1767 162.212 85.9713 162.521 85.8507 162.919C85.7781 163.125 85.7297 163.391 85.7056 163.717C85.6814 163.778 85.7056 163.807 85.7781 163.807H89.4564C89.5167 163.807 89.5469 163.778 89.5469 163.717C89.5226 163.415 89.4865 163.185 89.4382 163.028C89.3295 162.593 89.1119 162.255 88.7859 162.013C88.4719 161.771 88.0732 161.651 87.5899 161.651ZM97.9182 159.873C98.3047 159.873 98.6429 159.953 98.9328 160.11C99.0294 160.157 99.0657 160.249 99.0416 160.382L98.7336 162.013C98.7214 162.158 98.6368 162.201 98.4799 162.14C98.2986 162.08 98.0873 162.049 97.8456 162.049C97.6886 162.049 97.5679 162.055 97.4834 162.067C96.976 162.091 96.5531 162.273 96.2149 162.611C95.8766 162.937 95.7077 163.366 95.7077 163.898V169.028C95.7077 169.088 95.6835 169.143 95.6352 169.191C95.5989 169.228 95.5506 169.246 95.4901 169.246H93.8233C93.7628 169.246 93.7086 169.228 93.6601 169.191C93.624 169.143 93.6059 169.088 93.6059 169.028V160.201C93.6059 160.139 93.624 160.092 93.6601 160.056C93.7086 160.007 93.7628 159.983 93.8233 159.983H95.4901C95.5506 159.983 95.5989 160.007 95.6352 160.056C95.6835 160.092 95.7077 160.139 95.7077 160.201V161.016C95.7077 161.065 95.7136 161.094 95.7257 161.107C95.7499 161.107 95.774 161.089 95.7982 161.052C96.3055 160.267 97.0121 159.873 97.9182 159.873ZM103.863 159.837C104.624 159.837 105.294 159.971 105.874 160.237C106.454 160.503 106.901 160.872 107.215 161.342C107.529 161.801 107.686 162.327 107.686 162.919V169.028C107.686 169.088 107.662 169.143 107.614 169.191C107.577 169.228 107.529 169.246 107.469 169.246H105.802C105.741 169.246 105.687 169.228 105.639 169.191C105.602 169.143 105.584 169.088 105.584 169.028V168.448C105.584 168.412 105.572 168.394 105.548 168.394C105.524 168.381 105.5 168.388 105.475 168.412C104.884 169.065 104.026 169.39 102.903 169.39C101.997 169.39 101.248 169.161 100.656 168.701C100.076 168.243 99.7862 167.56 99.7862 166.654C99.7862 165.711 100.112 164.979 100.765 164.46C101.429 163.928 102.359 163.662 103.555 163.662H105.494C105.554 163.662 105.584 163.632 105.584 163.572V163.136C105.584 162.666 105.445 162.302 105.168 162.049C104.89 161.783 104.473 161.651 103.917 161.651C103.458 161.651 103.084 161.735 102.794 161.904C102.516 162.062 102.341 162.284 102.268 162.575C102.232 162.72 102.148 162.78 102.015 162.756L100.257 162.539C100.197 162.527 100.143 162.508 100.094 162.485C100.058 162.449 100.046 162.406 100.058 162.357C100.155 161.62 100.547 161.016 101.236 160.544C101.936 160.074 102.812 159.837 103.863 159.837ZM103.428 167.723C104.02 167.723 104.527 167.566 104.95 167.252C105.373 166.938 105.584 166.538 105.584 166.055V165.203C105.584 165.143 105.554 165.113 105.494 165.113H103.972C103.331 165.113 102.824 165.234 102.45 165.475C102.087 165.717 101.906 166.061 101.906 166.509C101.906 166.895 102.045 167.198 102.323 167.415C102.613 167.62 102.981 167.723 103.428 167.723ZM110.014 169.246C109.953 169.246 109.899 169.228 109.851 169.191C109.814 169.143 109.796 169.088 109.796 169.028V156.773C109.796 156.714 109.814 156.665 109.851 156.629C109.899 156.581 109.953 156.556 110.014 156.556H111.681C111.741 156.556 111.789 156.581 111.826 156.629C111.874 156.665 111.898 156.714 111.898 156.773V169.028C111.898 169.088 111.874 169.143 111.826 169.191C111.789 169.228 111.741 169.246 111.681 169.246H110.014ZM117.664 159.837C118.426 159.837 119.096 159.971 119.676 160.237C120.256 160.503 120.703 160.872 121.017 161.342C121.331 161.801 121.488 162.327 121.488 162.919V169.028C121.488 169.088 121.464 169.143 121.415 169.191C121.379 169.228 121.331 169.246 121.27 169.246H119.603C119.543 169.246 119.489 169.228 119.44 169.191C119.404 169.143 119.386 169.088 119.386 169.028V168.448C119.386 168.412 119.374 168.394 119.35 168.394C119.326 168.381 119.301 168.388 119.277 168.412C118.685 169.065 117.828 169.39 116.704 169.39C115.798 169.39 115.049 169.161 114.457 168.701C113.878 168.243 113.588 167.56 113.588 166.654C113.588 165.711 113.914 164.979 114.566 164.46C115.231 163.928 116.161 163.662 117.357 163.662H119.295C119.356 163.662 119.386 163.632 119.386 163.572V163.136C119.386 162.666 119.247 162.302 118.969 162.049C118.691 161.783 118.275 161.651 117.719 161.651C117.26 161.651 116.886 161.735 116.596 161.904C116.318 162.062 116.142 162.284 116.07 162.575C116.034 162.72 115.949 162.78 115.816 162.756L114.059 162.539C113.998 162.527 113.944 162.508 113.896 162.485C113.86 162.449 113.847 162.406 113.86 162.357C113.956 161.62 114.349 161.016 115.037 160.544C115.738 160.074 116.614 159.837 117.664 159.837ZM117.23 167.723C117.822 167.723 118.329 167.566 118.752 167.252C119.175 166.938 119.386 166.538 119.386 166.055V165.203C119.386 165.143 119.356 165.113 119.295 165.113H117.773C117.133 165.113 116.626 165.234 116.251 165.475C115.889 165.717 115.708 166.061 115.708 166.509C115.708 166.895 115.847 167.198 116.125 167.415C116.414 167.62 116.783 167.723 117.23 167.723ZM125.182 156.556C125.266 156.556 125.32 156.581 125.345 156.629C125.369 156.677 125.369 156.737 125.345 156.811L123.913 160.345C123.877 160.454 123.792 160.508 123.66 160.508H122.427C122.355 160.508 122.301 160.49 122.264 160.454C122.24 160.405 122.234 160.345 122.246 160.273L123.261 156.737C123.297 156.618 123.382 156.556 123.514 156.556H125.182ZM128.775 169.354C128.013 169.354 127.343 169.246 126.763 169.028C126.196 168.799 125.755 168.49 125.441 168.104C125.127 167.705 124.969 167.263 124.969 166.781V166.618C124.969 166.556 124.988 166.509 125.024 166.473C125.072 166.424 125.127 166.4 125.187 166.4H126.782C126.842 166.4 126.89 166.424 126.926 166.473C126.975 166.509 126.999 166.556 126.999 166.618V166.654C126.999 166.956 127.162 167.222 127.488 167.451C127.826 167.668 128.249 167.777 128.757 167.777C129.24 167.777 129.632 167.681 129.934 167.488C130.236 167.282 130.387 167.028 130.387 166.726C130.387 166.448 130.26 166.243 130.007 166.11C129.765 165.965 129.367 165.813 128.811 165.657L128.122 165.438C127.506 165.258 126.987 165.064 126.564 164.859C126.141 164.653 125.785 164.375 125.495 164.026C125.205 163.662 125.06 163.203 125.06 162.648C125.06 161.801 125.392 161.13 126.057 160.635C126.721 160.128 127.597 159.873 128.684 159.873C129.421 159.873 130.067 159.995 130.623 160.237C131.178 160.466 131.607 160.792 131.909 161.215C132.211 161.626 132.362 162.098 132.362 162.63C132.362 162.689 132.338 162.744 132.29 162.792C132.253 162.829 132.205 162.847 132.145 162.847H130.605C130.544 162.847 130.49 162.829 130.442 162.792C130.405 162.744 130.387 162.689 130.387 162.63C130.387 162.315 130.23 162.055 129.916 161.85C129.614 161.633 129.197 161.523 128.666 161.523C128.195 161.523 127.808 161.615 127.506 161.796C127.216 161.964 127.072 162.206 127.072 162.521C127.072 162.811 127.21 163.035 127.488 163.192C127.778 163.337 128.255 163.5 128.92 163.681L129.318 163.789C129.958 163.983 130.496 164.182 130.931 164.388C131.366 164.581 131.734 164.859 132.036 165.221C132.338 165.572 132.489 166.032 132.489 166.599C132.489 167.457 132.151 168.133 131.474 168.629C130.798 169.113 129.898 169.354 128.775 169.354ZM142.335 169.39C141.429 169.39 140.632 169.215 139.942 168.866C139.254 168.502 138.723 168.001 138.348 167.361C137.974 166.721 137.786 165.977 137.786 165.131V160.653C137.786 159.808 137.974 159.065 138.348 158.424C138.723 157.783 139.254 157.287 139.942 156.938C140.632 156.587 141.429 156.412 142.335 156.412C143.228 156.412 144.02 156.581 144.708 156.92C145.397 157.258 145.928 157.735 146.303 158.351C146.677 158.967 146.864 159.68 146.864 160.49C146.864 160.551 146.84 160.606 146.791 160.653C146.755 160.689 146.708 160.707 146.646 160.707L144.98 160.799C144.835 160.799 144.762 160.732 144.762 160.599C144.762 159.886 144.539 159.312 144.092 158.877C143.656 158.442 143.071 158.224 142.335 158.224C141.597 158.224 141.006 158.442 140.559 158.877C140.112 159.312 139.888 159.886 139.888 160.599V165.221C139.888 165.923 140.112 166.491 140.559 166.925C141.006 167.361 141.597 167.578 142.335 167.578C143.071 167.578 143.656 167.367 144.092 166.943C144.539 166.509 144.762 165.934 144.762 165.221C144.762 165.089 144.835 165.022 144.98 165.022L146.646 165.095C146.708 165.095 146.755 165.113 146.791 165.149C146.84 165.185 146.864 165.227 146.864 165.276C146.864 166.097 146.677 166.822 146.303 167.451C145.928 168.068 145.397 168.546 144.708 168.884C144.02 169.222 143.228 169.39 142.335 169.39ZM154.391 160.201C154.391 160.139 154.409 160.092 154.445 160.056C154.494 160.007 154.548 159.983 154.608 159.983H156.257C156.318 159.983 156.365 160.007 156.403 160.056C156.45 160.092 156.475 160.139 156.475 160.201V169.028C156.475 169.088 156.45 169.143 156.403 169.191C156.365 169.228 156.318 169.246 156.257 169.246H154.608C154.548 169.246 154.494 169.228 154.445 169.191C154.409 169.143 154.391 169.088 154.391 169.028V168.448C154.391 168.412 154.378 168.388 154.355 168.376C154.331 168.363 154.306 168.376 154.282 168.412C153.787 169.052 153.044 169.372 152.053 169.372C151.135 169.372 150.363 169.106 149.734 168.575C149.117 168.043 148.81 167.288 148.81 166.308V160.201C148.81 160.139 148.828 160.092 148.864 160.056C148.913 160.007 148.967 159.983 149.027 159.983H150.694C150.755 159.983 150.804 160.007 150.84 160.056C150.887 160.092 150.912 160.139 150.912 160.201V165.711C150.912 166.279 151.057 166.732 151.346 167.07C151.648 167.408 152.066 167.578 152.597 167.578C153.14 167.578 153.575 167.408 153.901 167.07C154.228 166.732 154.391 166.279 154.391 165.711V160.201ZM158.939 169.246C158.878 169.246 158.824 169.228 158.776 169.191C158.74 169.143 158.722 169.088 158.722 169.028V156.773C158.722 156.714 158.74 156.665 158.776 156.629C158.824 156.581 158.878 156.556 158.939 156.556H160.606C160.666 156.556 160.714 156.581 160.751 156.629C160.799 156.665 160.823 156.714 160.823 156.773V169.028C160.823 169.088 160.799 169.143 160.751 169.191C160.714 169.228 160.666 169.246 160.606 169.246H158.939ZM167.968 161.469C167.968 161.53 167.942 161.584 167.894 161.633C167.858 161.669 167.81 161.687 167.749 161.687H165.901C165.841 161.687 165.811 161.716 165.811 161.778V166.146C165.811 166.605 165.907 166.938 166.1 167.142C166.306 167.348 166.626 167.451 167.06 167.451H167.604C167.664 167.451 167.713 167.475 167.749 167.524C167.798 167.56 167.821 167.609 167.821 167.668V169.028C167.821 169.161 167.749 169.24 167.604 169.264L166.662 169.282C165.708 169.282 164.995 169.119 164.524 168.793C164.054 168.466 163.812 167.85 163.799 166.943V161.778C163.799 161.716 163.77 161.687 163.708 161.687H162.676C162.615 161.687 162.561 161.669 162.513 161.633C162.477 161.584 162.459 161.53 162.459 161.469V160.201C162.459 160.139 162.477 160.092 162.513 160.056C162.561 160.007 162.615 159.983 162.676 159.983H163.708C163.77 159.983 163.799 159.953 163.799 159.892V157.772C163.799 157.71 163.817 157.663 163.853 157.627C163.902 157.578 163.956 157.553 164.017 157.553H165.594C165.654 157.553 165.702 157.578 165.739 157.627C165.786 157.663 165.811 157.71 165.811 157.772V159.892C165.811 159.953 165.841 159.983 165.901 159.983H167.749C167.81 159.983 167.858 160.007 167.894 160.056C167.942 160.092 167.968 160.139 167.968 160.201V161.469ZM175.305 160.201C175.305 160.139 175.324 160.092 175.36 160.056C175.408 160.007 175.463 159.983 175.523 159.983H177.171C177.232 159.983 177.28 160.007 177.317 160.056C177.365 160.092 177.39 160.139 177.39 160.201V169.028C177.39 169.088 177.365 169.143 177.317 169.191C177.28 169.228 177.232 169.246 177.171 169.246H175.523C175.463 169.246 175.408 169.228 175.36 169.191C175.324 169.143 175.305 169.088 175.305 169.028V168.448C175.305 168.412 175.293 168.388 175.269 168.376C175.246 168.363 175.221 168.376 175.197 168.412C174.702 169.052 173.959 169.372 172.968 169.372C172.05 169.372 171.278 169.106 170.649 168.575C170.032 168.043 169.725 167.288 169.725 166.308V160.201C169.725 160.139 169.743 160.092 169.779 160.056C169.828 160.007 169.882 159.983 169.942 159.983H171.609C171.67 159.983 171.718 160.007 171.755 160.056C171.802 160.092 171.827 160.139 171.827 160.201V165.711C171.827 166.279 171.972 166.732 172.261 167.07C172.563 167.408 172.98 167.578 173.512 167.578C174.055 167.578 174.49 167.408 174.816 167.07C175.143 166.732 175.305 166.279 175.305 165.711V160.201ZM183.949 159.873C184.335 159.873 184.674 159.953 184.963 160.11C185.061 160.157 185.096 160.249 185.072 160.382L184.764 162.013C184.751 162.158 184.668 162.201 184.511 162.14C184.33 162.08 184.118 162.049 183.876 162.049C183.719 162.049 183.598 162.055 183.513 162.067C183.007 162.091 182.584 162.273 182.245 162.611C181.907 162.937 181.738 163.366 181.738 163.898V169.028C181.738 169.088 181.714 169.143 181.665 169.191C181.629 169.228 181.581 169.246 181.521 169.246H179.854C179.794 169.246 179.738 169.228 179.691 169.191C179.655 169.143 179.637 169.088 179.637 169.028V160.201C179.637 160.139 179.655 160.092 179.691 160.056C179.738 160.007 179.794 159.983 179.854 159.983H181.521C181.581 159.983 181.629 160.007 181.665 160.056C181.714 160.092 181.738 160.139 181.738 160.201V161.016C181.738 161.065 181.745 161.094 181.756 161.107C181.781 161.107 181.804 161.089 181.828 161.052C182.336 160.267 183.043 159.873 183.949 159.873ZM189.894 159.837C190.654 159.837 191.324 159.971 191.905 160.237C192.484 160.503 192.932 160.872 193.245 161.342C193.559 161.801 193.716 162.327 193.716 162.919V169.028C193.716 169.088 193.692 169.143 193.644 169.191C193.607 169.228 193.559 169.246 193.498 169.246H191.831C191.772 169.246 191.718 169.228 191.668 169.191C191.633 169.143 191.615 169.088 191.615 169.028V168.448C191.615 168.412 191.602 168.394 191.579 168.394C191.554 168.381 191.53 168.388 191.505 168.412C190.913 169.065 190.057 169.39 188.934 169.39C188.027 169.39 187.278 169.161 186.687 168.701C186.107 168.243 185.818 167.56 185.818 166.654C185.818 165.711 186.144 164.979 186.795 164.46C187.459 163.928 188.39 163.662 189.585 163.662H191.524C191.585 163.662 191.615 163.632 191.615 163.572V163.136C191.615 162.666 191.476 162.302 191.198 162.049C190.921 161.783 190.503 161.651 189.948 161.651C189.489 161.651 189.115 161.735 188.824 161.904C188.547 162.062 188.371 162.284 188.299 162.575C188.264 162.72 188.179 162.78 188.046 162.756L186.288 162.539C186.227 162.527 186.173 162.508 186.125 162.485C186.088 162.449 186.075 162.406 186.088 162.357C186.184 161.62 186.578 161.016 187.265 160.544C187.966 160.074 188.841 159.837 189.894 159.837ZM189.459 167.723C190.051 167.723 190.558 167.566 190.98 167.252C191.404 166.938 191.615 166.538 191.615 166.055V165.203C191.615 165.143 191.585 165.113 191.524 165.113H190.003C189.363 165.113 188.854 165.234 188.48 165.475C188.118 165.717 187.936 166.061 187.936 166.509C187.936 166.895 188.075 167.198 188.353 167.415C188.643 167.62 189.011 167.723 189.459 167.723ZM196.044 169.246C195.983 169.246 195.929 169.228 195.881 169.191C195.844 169.143 195.826 169.088 195.826 169.028V156.773C195.826 156.714 195.844 156.665 195.881 156.629C195.929 156.581 195.983 156.556 196.044 156.556H197.711C197.772 156.556 197.82 156.581 197.857 156.629C197.904 156.665 197.929 156.714 197.929 156.773V169.028C197.929 169.088 197.904 169.143 197.857 169.191C197.82 169.228 197.772 169.246 197.711 169.246H196.044ZM208.23 169.39C207.321 169.39 206.524 169.215 205.837 168.866C205.149 168.502 204.618 168.001 204.242 167.361C203.867 166.721 203.68 165.977 203.68 165.131V160.653C203.68 159.808 203.867 159.065 204.242 158.424C204.618 157.783 205.149 157.287 205.837 156.938C206.524 156.587 207.321 156.412 208.23 156.412C209.121 156.412 209.913 156.581 210.602 156.92C211.29 157.258 211.821 157.735 212.196 158.351C212.572 158.967 212.757 159.68 212.757 160.49C212.757 160.551 212.735 160.606 212.685 160.653C212.65 160.689 212.6 160.707 212.541 160.707L210.874 160.799C210.729 160.799 210.657 160.732 210.657 160.599C210.657 159.886 210.433 159.312 209.985 158.877C209.551 158.442 208.964 158.224 208.23 158.224C207.491 158.224 206.901 158.442 206.452 158.877C206.006 159.312 205.782 159.886 205.782 160.599V165.221C205.782 165.923 206.006 166.491 206.452 166.925C206.901 167.361 207.491 167.578 208.23 167.578C208.964 167.578 209.551 167.367 209.985 166.943C210.433 166.509 210.657 165.934 210.657 165.221C210.657 165.089 210.729 165.022 210.874 165.022L212.541 165.095C212.6 165.095 212.65 165.113 212.685 165.149C212.735 165.185 212.757 165.227 212.757 165.276C212.757 166.097 212.572 166.822 212.196 167.451C211.821 168.068 211.29 168.546 210.602 168.884C209.913 169.222 209.121 169.39 208.23 169.39ZM219.126 159.873C219.512 159.873 219.849 159.953 220.139 160.11C220.236 160.157 220.273 160.249 220.249 160.382L219.94 162.013C219.929 162.158 219.843 162.201 219.686 162.14C219.507 162.08 219.294 162.049 219.052 162.049C218.894 162.049 218.776 162.055 218.691 162.067C218.182 162.091 217.76 162.273 217.421 162.611C217.083 162.937 216.915 163.366 216.915 163.898V169.028C216.915 169.088 216.89 169.143 216.842 169.191C216.805 169.228 216.757 169.246 216.696 169.246H215.029C214.97 169.246 214.916 169.228 214.866 169.191C214.831 169.143 214.813 169.088 214.813 169.028V160.201C214.813 160.139 214.831 160.092 214.866 160.056C214.916 160.007 214.97 159.983 215.029 159.983H216.696C216.757 159.983 216.805 160.007 216.842 160.056C216.89 160.092 216.915 160.139 216.915 160.201V161.016C216.915 161.065 216.92 161.094 216.933 161.107C216.957 161.107 216.981 161.089 217.005 161.052C217.512 160.267 218.219 159.873 219.126 159.873ZM229.257 163.572C229.305 163.874 229.33 164.212 229.33 164.587L229.313 165.149C229.313 165.294 229.241 165.366 229.095 165.366H223.422C223.363 165.366 223.333 165.397 223.333 165.457C223.368 165.856 223.422 166.128 223.496 166.272C223.786 167.142 224.493 167.584 225.616 167.596C226.438 167.596 227.089 167.258 227.574 166.581C227.62 166.509 227.681 166.473 227.753 166.473C227.803 166.473 227.844 166.491 227.881 166.527L229.004 167.451C229.113 167.536 229.132 167.632 229.059 167.741C228.684 168.273 228.182 168.683 227.555 168.974C226.939 169.264 226.249 169.408 225.488 169.408C224.547 169.408 223.744 169.197 223.079 168.775C222.426 168.352 221.949 167.759 221.647 166.998C221.37 166.345 221.231 165.439 221.231 164.279C221.231 163.577 221.303 163.01 221.448 162.575C221.69 161.729 222.143 161.065 222.807 160.581C223.485 160.085 224.293 159.837 225.235 159.837C227.614 159.837 228.956 161.083 229.257 163.572ZM225.235 161.651C224.789 161.651 224.413 161.765 224.112 161.995C223.821 162.212 223.616 162.521 223.496 162.919C223.422 163.125 223.375 163.391 223.35 163.717C223.327 163.778 223.35 163.807 223.422 163.807H227.102C227.161 163.807 227.193 163.778 227.193 163.717C227.168 163.415 227.131 163.185 227.083 163.028C226.974 162.593 226.758 162.255 226.43 162.013C226.118 161.771 225.718 161.651 225.235 161.651ZM234.695 159.837C235.456 159.837 236.127 159.971 236.706 160.237C237.287 160.503 237.733 160.872 238.048 161.342C238.362 161.801 238.52 162.327 238.52 162.919V169.028C238.52 169.088 238.495 169.143 238.446 169.191C238.41 169.228 238.362 169.246 238.301 169.246H236.634C236.573 169.246 236.519 169.228 236.471 169.191C236.434 169.143 236.416 169.088 236.416 169.028V168.448C236.416 168.412 236.405 168.394 236.381 168.394C236.357 168.381 236.333 168.388 236.309 168.412C235.716 169.065 234.86 169.39 233.735 169.39C232.83 169.39 232.081 169.161 231.489 168.701C230.91 168.243 230.619 167.56 230.619 166.654C230.619 165.711 230.945 164.979 231.596 164.46C232.262 163.928 233.191 163.662 234.388 163.662H236.325C236.386 163.662 236.416 163.632 236.416 163.572V163.136C236.416 162.666 236.279 162.302 236 162.049C235.722 161.783 235.306 161.651 234.749 161.651C234.29 161.651 233.916 161.735 233.628 161.904C233.348 162.062 233.172 162.284 233.1 162.575C233.065 162.72 232.98 162.78 232.847 162.756L231.091 162.539C231.03 162.527 230.974 162.508 230.928 162.485C230.891 162.449 230.878 162.406 230.891 162.357C230.987 161.62 231.38 161.016 232.068 160.544C232.769 160.074 233.644 159.837 234.695 159.837ZM234.26 167.723C234.852 167.723 235.361 167.566 235.783 167.252C236.207 166.938 236.416 166.538 236.416 166.055V165.203C236.416 165.143 236.386 165.113 236.325 165.113H234.804C234.164 165.113 233.657 165.234 233.283 165.475C232.921 165.717 232.739 166.061 232.739 166.509C232.739 166.895 232.878 167.198 233.156 167.415C233.446 167.62 233.814 167.723 234.26 167.723ZM245.397 161.469C245.397 161.53 245.375 161.584 245.325 161.633C245.29 161.669 245.24 161.687 245.18 161.687H243.332C243.271 161.687 243.241 161.716 243.241 161.778V166.146C243.241 166.605 243.338 166.938 243.532 167.142C243.737 167.348 244.055 167.451 244.492 167.451H245.036C245.095 167.451 245.145 167.475 245.18 167.524C245.228 167.56 245.253 167.609 245.253 167.668V169.028C245.253 169.161 245.18 169.24 245.036 169.264L244.092 169.282C243.14 169.282 242.425 169.119 241.955 168.793C241.484 168.466 241.243 167.85 241.23 166.943V161.778C241.23 161.716 241.201 161.687 241.139 161.687H240.107C240.046 161.687 239.992 161.669 239.944 161.633C239.907 161.584 239.889 161.53 239.889 161.469V160.201C239.889 160.139 239.907 160.092 239.944 160.056C239.992 160.007 240.046 159.983 240.107 159.983H241.139C241.201 159.983 241.23 159.953 241.23 159.892V157.772C241.23 157.71 241.249 157.663 241.286 157.627C241.334 157.578 241.387 157.553 241.447 157.553H243.023C243.086 157.553 243.132 157.578 243.169 157.627C243.217 157.663 243.241 157.71 243.241 157.772V159.892C243.241 159.953 243.271 159.983 243.332 159.983H245.18C245.24 159.983 245.29 160.007 245.325 160.056C245.375 160.092 245.397 160.139 245.397 160.201V161.469ZM248.461 158.714C248.085 158.714 247.778 158.593 247.536 158.351C247.293 158.11 247.175 157.801 247.175 157.426C247.175 157.052 247.293 156.744 247.536 156.502C247.778 156.261 248.085 156.14 248.461 156.14C248.835 156.14 249.144 156.261 249.384 156.502C249.626 156.744 249.747 157.052 249.747 157.426C249.747 157.801 249.626 158.11 249.384 158.351C249.144 158.593 248.835 158.714 248.461 158.714ZM247.591 169.246C247.53 169.246 247.476 169.228 247.428 169.191C247.391 169.143 247.373 169.088 247.373 169.028V160.182C247.373 160.121 247.391 160.074 247.428 160.038C247.476 159.989 247.53 159.964 247.591 159.964H249.256C249.319 159.964 249.366 159.989 249.403 160.038C249.451 160.074 249.475 160.121 249.475 160.182V169.028C249.475 169.088 249.451 169.143 249.403 169.191C249.366 169.228 249.319 169.246 249.256 169.246H247.591ZM254.383 169.246C254.261 169.246 254.184 169.186 254.148 169.065L251.231 160.219C251.219 160.194 251.212 160.164 251.212 160.128C251.212 160.02 251.279 159.964 251.412 159.964H253.26C253.392 159.964 253.477 160.025 253.514 160.146L255.271 166.2C255.283 166.236 255.301 166.254 255.325 166.254C255.349 166.254 255.368 166.236 255.379 166.2L257.138 160.146C257.173 160.025 257.257 159.964 257.392 159.964L259.238 160.002C259.31 160.002 259.366 160.025 259.401 160.074C259.438 160.11 259.446 160.17 259.42 160.255L256.522 169.065C256.485 169.186 256.406 169.246 256.285 169.246H254.383ZM268.327 163.572C268.377 163.874 268.399 164.212 268.399 164.587L268.382 165.149C268.382 165.294 268.308 165.366 268.164 165.366H262.493C262.432 165.366 262.4 165.397 262.4 165.457C262.439 165.856 262.493 166.128 262.565 166.272C262.856 167.142 263.562 167.584 264.685 167.596C265.507 167.596 266.16 167.258 266.643 166.581C266.691 166.509 266.75 166.473 266.822 166.473C266.872 166.473 266.913 166.491 266.95 166.527L268.073 167.451C268.182 167.536 268.201 167.632 268.129 167.741C267.753 168.273 267.252 168.683 266.624 168.974C266.008 169.264 265.318 169.408 264.558 169.408C263.616 169.408 262.813 169.197 262.149 168.775C261.496 168.352 261.018 167.759 260.717 166.998C260.439 166.345 260.3 165.439 260.3 164.279C260.3 163.577 260.373 163.01 260.517 162.575C260.759 161.729 261.213 161.065 261.877 160.581C262.552 160.085 263.362 159.837 264.304 159.837C266.684 159.837 268.025 161.083 268.327 163.572ZM264.304 161.651C263.858 161.651 263.485 161.765 263.181 161.995C262.891 162.212 262.687 162.521 262.565 162.919C262.493 163.125 262.445 163.391 262.421 163.717C262.395 163.778 262.421 163.807 262.493 163.807H266.171C266.232 163.807 266.262 163.778 266.262 163.717C266.238 163.415 266.201 163.185 266.153 163.028C266.043 162.593 265.827 162.255 265.499 162.013C265.187 161.771 264.787 161.651 264.304 161.651ZM282.736 158.152C282.736 158.213 282.71 158.267 282.664 158.314C282.627 158.351 282.579 158.369 282.518 158.369H276.34C276.279 158.369 276.249 158.399 276.249 158.461V161.85C276.249 161.91 276.279 161.941 276.34 161.941H280.488C280.549 161.941 280.597 161.964 280.634 162.013C280.682 162.049 280.706 162.098 280.706 162.158V163.536C280.706 163.596 280.682 163.65 280.634 163.699C280.597 163.735 280.549 163.753 280.488 163.753H276.34C276.279 163.753 276.249 163.783 276.249 163.843V167.343C276.249 167.403 276.279 167.433 276.34 167.433H282.518C282.579 167.433 282.627 167.457 282.664 167.506C282.71 167.542 282.736 167.591 282.736 167.651V169.028C282.736 169.088 282.71 169.143 282.664 169.191C282.627 169.228 282.579 169.246 282.518 169.246H274.364C274.305 169.246 274.249 169.228 274.201 169.191C274.166 169.143 274.147 169.088 274.147 169.028V156.773C274.147 156.714 274.166 156.665 274.201 156.629C274.249 156.581 274.305 156.556 274.364 156.556H282.518C282.579 156.556 282.627 156.581 282.664 156.629C282.71 156.665 282.736 156.714 282.736 156.773V158.152ZM288.529 169.39C287.6 169.39 286.796 169.155 286.12 168.683C285.443 168.2 284.973 167.554 284.707 166.744C284.514 166.2 284.416 165.475 284.416 164.568C284.416 163.699 284.514 162.986 284.707 162.431C284.96 161.633 285.424 161.004 286.102 160.544C286.79 160.074 287.6 159.837 288.529 159.837C289.471 159.837 290.294 160.074 290.994 160.544C291.695 161.016 292.159 161.608 292.389 162.321C292.45 162.514 292.492 162.707 292.516 162.901V162.937C292.516 163.058 292.45 163.131 292.317 163.154L290.687 163.391H290.65C290.542 163.391 290.468 163.33 290.433 163.21C290.433 163.149 290.426 163.1 290.415 163.064C290.39 162.968 290.366 162.883 290.342 162.811C290.233 162.472 290.015 162.194 289.689 161.977C289.364 161.76 288.977 161.651 288.529 161.651C288.07 161.651 287.678 161.771 287.352 162.013C287.038 162.243 286.827 162.563 286.718 162.973C286.598 163.36 286.536 163.898 286.536 164.587C286.536 165.252 286.592 165.789 286.699 166.2C286.821 166.623 287.038 166.961 287.352 167.216C287.667 167.457 288.059 167.578 288.529 167.578C288.988 167.578 289.38 167.464 289.708 167.234C290.046 166.992 290.263 166.672 290.361 166.272C290.372 166.249 290.379 166.218 290.379 166.182C290.39 166.171 290.396 166.153 290.396 166.128C290.433 165.983 290.516 165.923 290.65 165.947L292.281 166.2C292.341 166.213 292.389 166.243 292.426 166.291C292.474 166.327 292.492 166.382 292.479 166.455C292.444 166.648 292.415 166.786 292.389 166.871C292.159 167.645 291.695 168.262 290.994 168.72C290.294 169.168 289.471 169.39 288.529 169.39ZM298.139 169.39C297.184 169.39 296.365 169.15 295.675 168.665C294.999 168.182 294.522 167.511 294.244 166.654C294.039 166.001 293.936 165.312 293.936 164.587C293.936 163.814 294.032 163.125 294.226 162.521C294.504 161.675 294.986 161.016 295.675 160.544C296.365 160.074 297.192 159.837 298.158 159.837C299.075 159.837 299.867 160.074 300.532 160.544C301.207 161.016 301.684 161.669 301.964 162.503C302.18 163.082 302.289 163.771 302.289 164.568C302.289 165.33 302.186 166.019 301.98 166.636C301.703 167.493 301.225 168.17 300.55 168.665C299.873 169.15 299.07 169.39 298.139 169.39ZM298.139 167.578C298.587 167.578 298.968 167.451 299.283 167.198C299.606 166.943 299.843 166.587 299.988 166.128C300.108 165.729 300.169 165.221 300.169 164.605C300.169 163.952 300.108 163.445 299.988 163.082C299.854 162.623 299.625 162.273 299.299 162.031C298.974 161.778 298.576 161.651 298.104 161.651C297.656 161.651 297.27 161.778 296.944 162.031C296.616 162.273 296.381 162.623 296.237 163.082C296.117 163.505 296.056 164.013 296.056 164.605C296.056 165.198 296.117 165.704 296.237 166.128C296.37 166.587 296.6 166.943 296.925 167.198C297.264 167.451 297.669 167.578 298.139 167.578ZM308.715 159.837C309.694 159.837 310.473 160.128 311.052 160.707C311.644 161.288 311.94 162.08 311.94 163.082V169.028C311.94 169.088 311.916 169.143 311.868 169.191C311.833 169.228 311.783 169.246 311.724 169.246H310.056C309.995 169.246 309.942 169.228 309.892 169.191C309.857 169.143 309.838 169.088 309.838 169.028V163.518C309.838 162.962 309.683 162.514 309.368 162.176C309.054 161.825 308.637 161.651 308.117 161.651C307.598 161.651 307.176 161.819 306.85 162.158C306.536 162.496 306.378 162.944 306.378 163.5V169.028C306.378 169.088 306.354 169.143 306.306 169.191C306.269 169.228 306.221 169.246 306.16 169.246H304.493C304.432 169.246 304.378 169.228 304.33 169.191C304.293 169.143 304.275 169.088 304.275 169.028V160.201C304.275 160.139 304.293 160.092 304.33 160.056C304.378 160.007 304.432 159.983 304.493 159.983H306.16C306.221 159.983 306.269 160.007 306.306 160.056C306.354 160.092 306.378 160.139 306.378 160.201V160.781C306.378 160.817 306.389 160.841 306.413 160.853C306.437 160.865 306.456 160.853 306.469 160.817C306.963 160.164 307.712 159.837 308.715 159.837ZM317.992 169.39C317.037 169.39 316.218 169.15 315.529 168.665C314.852 168.182 314.375 167.511 314.097 166.654C313.892 166.001 313.79 165.312 313.79 164.587C313.79 163.814 313.885 163.125 314.079 162.521C314.356 161.675 314.839 161.016 315.529 160.544C316.218 160.074 317.045 159.837 318.011 159.837C318.928 159.837 319.72 160.074 320.384 160.544C321.06 161.016 321.537 161.669 321.816 162.503C322.033 163.082 322.142 163.771 322.142 164.568C322.142 165.33 322.039 166.019 321.835 166.636C321.556 167.493 321.078 168.17 320.403 168.665C319.726 169.15 318.923 169.39 317.992 169.39ZM317.992 167.578C318.44 167.578 318.821 167.451 319.136 167.198C319.461 166.943 319.696 166.587 319.84 166.128C319.961 165.729 320.022 165.221 320.022 164.605C320.022 163.952 319.961 163.445 319.84 163.082C319.709 162.623 319.478 162.273 319.152 162.031C318.827 161.778 318.429 161.651 317.957 161.651C317.509 161.651 317.122 161.778 316.797 162.031C316.471 162.273 316.236 162.623 316.09 163.082C315.97 163.505 315.909 164.013 315.909 164.605C315.909 165.198 315.97 165.704 316.09 166.128C316.223 166.587 316.453 166.943 316.78 167.198C317.117 167.451 317.522 167.578 317.992 167.578ZM334.041 159.837C334.97 159.837 335.695 160.121 336.215 160.689C336.746 161.246 337.012 162.026 337.012 163.028V169.028C337.012 169.088 336.988 169.143 336.938 169.191C336.903 169.228 336.855 169.246 336.794 169.246H335.145C335.086 169.246 335.031 169.228 334.983 169.191C334.946 169.143 334.929 169.088 334.929 169.028V163.463C334.929 162.907 334.777 162.467 334.474 162.14C334.185 161.814 333.793 161.651 333.297 161.651C332.803 161.651 332.398 161.814 332.083 162.14C331.771 162.467 331.613 162.901 331.613 163.445V169.028C331.613 169.088 331.587 169.143 331.539 169.191C331.504 169.228 331.456 169.246 331.395 169.246H329.745C329.685 169.246 329.632 169.228 329.582 169.191C329.547 169.143 329.528 169.088 329.528 169.028V163.463C329.528 162.907 329.378 162.467 329.077 162.14C328.775 161.814 328.376 161.651 327.88 161.651C327.421 161.651 327.041 161.783 326.738 162.049C326.448 162.315 326.279 162.678 326.231 163.136V169.028C326.231 169.088 326.207 169.143 326.159 169.191C326.122 169.228 326.074 169.246 326.015 169.246H324.348C324.287 169.246 324.231 169.228 324.183 169.191C324.146 169.143 324.129 169.088 324.129 169.028V160.201C324.129 160.139 324.146 160.092 324.183 160.056C324.231 160.007 324.287 159.983 324.348 159.983H326.015C326.074 159.983 326.122 160.007 326.159 160.056C326.207 160.092 326.231 160.139 326.231 160.201V160.799C326.231 160.835 326.244 160.859 326.266 160.872C326.29 160.883 326.316 160.872 326.34 160.835C326.605 160.496 326.932 160.249 327.317 160.092C327.717 159.922 328.157 159.837 328.64 159.837C329.232 159.837 329.752 159.958 330.2 160.201C330.646 160.441 330.99 160.792 331.232 161.252C331.267 161.3 331.31 161.3 331.358 161.252C331.624 160.768 331.993 160.412 332.464 160.182C332.934 159.953 333.46 159.837 334.041 159.837ZM338.652 172.854C338.615 172.854 338.587 172.829 338.561 172.781C338.537 172.744 338.524 172.696 338.524 172.635V171.331C338.524 171.27 338.542 171.215 338.579 171.167C338.628 171.13 338.681 171.112 338.744 171.112H338.761C339.255 171.101 339.641 171.047 339.921 170.949C340.198 170.865 340.428 170.696 340.609 170.443C340.79 170.188 340.953 169.808 341.098 169.3C341.111 169.276 341.111 169.24 341.098 169.191L338.11 160.219C338.097 160.194 338.091 160.164 338.091 160.128C338.091 160.02 338.15 159.964 338.272 159.964H340.047C340.18 159.964 340.263 160.025 340.3 160.146L342.113 166.527C342.125 166.563 342.143 166.581 342.167 166.581C342.191 166.581 342.21 166.563 342.223 166.527L344.034 160.146C344.069 160.025 344.154 159.964 344.286 159.964H346.008C346.082 159.964 346.128 159.989 346.154 160.038C346.189 160.074 346.195 160.134 346.171 160.219L342.983 169.754C342.681 170.611 342.384 171.252 342.095 171.675C341.804 172.098 341.407 172.4 340.898 172.581C340.404 172.762 339.697 172.854 338.779 172.854H338.652Z" fill="#151515"/>
<path d="M359.86 166.065C359.821 166.105 359.81 166.145 359.83 166.185C359.851 166.225 359.889 166.245 359.951 166.245H368.067C368.167 166.245 368.247 166.285 368.306 166.365C368.386 166.425 368.426 166.505 368.426 166.605V169.511C368.426 169.611 368.386 169.701 368.306 169.781C368.247 169.841 368.167 169.871 368.067 169.871H354.589C354.489 169.871 354.4 169.841 354.32 169.781C354.259 169.701 354.23 169.611 354.23 169.511V166.754C354.23 166.575 354.289 166.425 354.409 166.305C355.388 165.346 356.385 164.307 357.405 163.189C358.422 162.05 359.062 161.341 359.321 161.061C359.88 160.402 360.45 159.773 361.029 159.174C362.846 157.156 363.755 155.658 363.755 154.679C363.755 153.98 363.505 153.411 363.005 152.971C362.506 152.512 361.856 152.282 361.059 152.282C360.26 152.282 359.61 152.512 359.112 152.971C358.613 153.411 358.363 154 358.363 154.739V155.488C358.363 155.588 358.322 155.678 358.243 155.758C358.184 155.818 358.104 155.848 358.004 155.848H354.468C354.37 155.848 354.28 155.818 354.2 155.758C354.139 155.678 354.109 155.588 354.109 155.488V154.08C354.17 153.001 354.509 152.052 355.129 151.233C355.747 150.394 356.566 149.755 357.584 149.316C358.622 148.876 359.78 148.656 361.059 148.656C362.476 148.656 363.705 148.926 364.743 149.465C365.801 149.985 366.609 150.694 367.168 151.593C367.747 152.492 368.036 153.49 368.036 154.589C368.036 155.428 367.827 156.287 367.407 157.166C366.989 158.045 366.36 158.994 365.522 160.013C364.902 160.792 364.234 161.561 363.514 162.32C362.796 163.079 361.727 164.178 360.309 165.616L359.86 166.065Z" fill="#151515"/>
<path d="M378.145 170.2C375.948 170.2 374.211 169.591 372.932 168.372C371.654 167.134 371.016 165.456 371.016 163.339V155.428C371.016 153.351 371.654 151.703 372.932 150.484C374.211 149.266 375.948 148.656 378.145 148.656C380.341 148.656 382.078 149.266 383.355 150.484C384.654 151.703 385.303 153.351 385.303 155.428V163.339C385.303 165.456 384.654 167.134 383.355 168.372C382.078 169.591 380.341 170.2 378.145 170.2ZM378.145 166.575C379.042 166.575 379.751 166.305 380.27 165.766C380.809 165.206 381.079 164.467 381.079 163.548V155.308C381.079 154.389 380.809 153.66 380.27 153.121C379.751 152.562 379.042 152.282 378.145 152.282C377.266 152.282 376.557 152.562 376.017 153.121C375.499 153.66 375.24 154.389 375.24 155.308V163.548C375.24 164.467 375.499 165.206 376.017 165.766C376.557 166.305 377.266 166.575 378.145 166.575Z" fill="#151515"/>
<path d="M393.696 166.065C393.655 166.105 393.646 166.145 393.666 166.185C393.687 166.225 393.725 166.245 393.786 166.245H401.902C402.001 166.245 402.083 166.285 402.142 166.365C402.222 166.425 402.262 166.505 402.262 166.605V169.511C402.262 169.611 402.222 169.701 402.142 169.781C402.083 169.841 402.001 169.871 401.902 169.871H388.425C388.325 169.871 388.236 169.841 388.154 169.781C388.095 169.701 388.066 169.611 388.066 169.511V166.754C388.066 166.575 388.125 166.425 388.245 166.305C389.224 165.346 390.221 164.307 391.241 163.189C392.258 162.05 392.897 161.341 393.157 161.061C393.716 160.402 394.284 159.773 394.863 159.174C396.68 157.156 397.589 155.658 397.589 154.679C397.589 153.98 397.341 153.411 396.841 152.971C396.342 152.512 395.692 152.282 394.895 152.282C394.095 152.282 393.446 152.512 392.946 152.971C392.449 153.411 392.199 154 392.199 154.739V155.488C392.199 155.588 392.158 155.678 392.079 155.758C392.02 155.818 391.938 155.848 391.838 155.848H388.304C388.204 155.848 388.116 155.818 388.036 155.758C387.975 155.678 387.945 155.588 387.945 155.488V154.08C388.005 153.001 388.345 152.052 388.963 151.233C389.583 150.394 390.401 149.755 391.42 149.316C392.458 148.876 393.616 148.656 394.895 148.656C396.312 148.656 397.539 148.926 398.579 149.465C399.637 149.985 400.445 150.694 401.004 151.593C401.583 152.492 401.872 153.49 401.872 154.589C401.872 155.428 401.663 156.287 401.243 157.166C400.825 158.045 400.196 158.994 399.357 160.013C398.738 160.792 398.068 161.561 397.35 162.32C396.63 163.079 395.563 164.178 394.145 165.616L393.696 166.065Z" fill="#151515"/>
<path d="M417.843 159.83C418.323 160.73 418.563 161.88 418.563 163.28C418.563 164.44 418.373 165.48 417.993 166.4C417.473 167.58 416.663 168.51 415.563 169.19C414.463 169.87 413.163 170.21 411.663 170.21C410.123 170.21 408.793 169.86 407.673 169.16C406.553 168.44 405.743 167.45 405.243 166.19C404.883 165.31 404.703 164.33 404.703 163.25V154.22C404.703 153.14 404.983 152.19 405.543 151.37C406.123 150.53 406.923 149.89 407.943 149.45C408.963 148.99 410.133 148.76 411.453 148.76C412.753 148.76 413.903 148.99 414.903 149.45C415.903 149.89 416.673 150.52 417.213 151.34C417.773 152.14 418.053 153.07 418.053 154.13V154.97C418.053 155.07 418.013 155.16 417.933 155.24C417.873 155.3 417.793 155.33 417.693 155.33H414.183C414.083 155.33 413.993 155.3 413.913 155.24C413.853 155.16 413.823 155.07 413.823 154.97V154.7C413.823 154.04 413.603 153.49 413.163 153.05C412.723 152.61 412.153 152.39 411.453 152.39C410.713 152.39 410.103 152.62 409.623 153.08C409.163 153.52 408.933 154.09 408.933 154.79V157.61C408.933 157.67 408.953 157.71 408.993 157.73C409.033 157.73 409.073 157.71 409.113 157.67C409.933 156.97 411.023 156.62 412.383 156.62C413.583 156.62 414.653 156.9 415.593 157.46C416.553 158 417.303 158.79 417.843 159.83ZM413.883 165.23C414.183 164.71 414.333 164.08 414.333 163.34C414.333 162.54 414.173 161.88 413.853 161.36C413.353 160.56 412.623 160.16 411.663 160.16C410.583 160.16 409.833 160.57 409.413 161.39C409.113 161.91 408.963 162.58 408.963 163.4C408.963 164.12 409.093 164.73 409.353 165.23C409.793 166.11 410.553 166.55 411.633 166.55C412.673 166.55 413.423 166.11 413.883 165.23Z" fill="black"/>
</svg>
