<svg width="262" height="107" viewBox="0 0 262 107" fill="none" xmlns="http://www.w3.org/2000/svg">
<path d="M2.34008 39.678V2.91797H16.2001C27.0201 2.91797 32.0101 4.80797 32.0101 10.688C32.0101 13.258 30.8501 14.788 28.7001 15.678C33.3201 16.888 36.0001 19.618 36.0001 25.448C36.0001 35.058 28.8601 39.628 16.5201 39.678V24.028C21.8201 24.028 23.9201 22.608 23.9201 20.718C23.9201 19.138 22.8201 16.888 20.0301 16.888H14.4101V36.058L4.54008 39.678H2.33008H2.34008ZM16.5701 14.788C18.8301 14.788 19.9301 12.268 19.9301 9.53797C19.9301 6.22797 18.4101 5.01797 15.9901 5.01797H14.4201V14.788H16.5701Z" fill="white"/>
<path d="M39.1504 26.5489C39.1504 18.1989 44.4504 12.6289 52.3804 12.6289C60.3104 12.6289 65.6104 17.1989 65.6104 21.6089C65.6104 24.6589 60.9404 25.9689 56.0004 26.5489L50.9104 27.1789C51.3304 29.8589 52.4804 32.0589 55.5304 32.0589C57.8904 32.0589 59.5204 31.4289 62.9304 29.6389L67.4504 36.9389C62.7804 40.0889 59.4704 40.4589 54.8004 40.4589C44.7704 40.4589 39.1504 34.8889 39.1504 26.5389V26.5489ZM51.8504 24.8689C53.5804 24.6089 54.0604 22.9289 54.0604 20.4089C54.0604 17.8889 53.5404 14.7389 52.3804 14.7389C50.7004 14.7389 50.7004 20.4589 50.7004 23.3989C50.7004 23.9289 50.7004 24.4989 50.7504 25.0289L51.8504 24.8689Z" fill="white"/>
<path d="M80.2102 52.2306C75.7502 52.2306 73.2802 51.7006 69.8102 49.7106L73.3801 42.4106C76.0101 43.4606 80.1001 43.8306 82.5201 43.8306C86.1401 43.8306 88.7201 41.8906 89.7701 39.6306C82.7901 39.2106 78.9002 37.3706 76.0602 30.4406L72.0702 20.6706C70.8602 17.6806 69.7102 15.3106 66.6602 12.6406C76.3202 12.6406 79.7302 12.7506 82.6202 19.7806L85.0901 25.8206C86.7201 29.7606 89.1901 30.7606 95.3801 30.7606V39.7906C95.3801 46.7706 89.3401 52.2306 80.2001 52.2306H80.2102Z" fill="white"/>
<path d="M91.1796 12.6406C94.7996 12.6406 97.2197 15.1106 97.2197 18.6806C97.2197 22.2506 94.7996 24.7206 91.1796 24.7206C87.5596 24.7206 85.1396 22.3006 85.1396 18.6806C85.1396 15.0606 87.6096 12.6406 91.1796 12.6406Z" fill="white"/>
<path d="M157.24 39.6789H145.69V29.4889C145.69 21.0889 145.06 15.1489 143.85 15.1489C142.43 15.1489 141.43 18.3489 141.33 24.5489V39.6689H129.78V13.4189H131.88L140.75 16.8289C142.01 13.4189 144.06 12.6289 146.21 12.6289C153.77 12.6289 157.24 18.6689 157.24 27.5389V39.6689V39.6789Z" fill="white"/>
<path d="M177.77 36.319C176.51 39.729 174.2 40.469 170.79 40.469C163.91 40.469 160.39 34.899 160.39 26.549C160.39 18.199 163.91 12.629 170.79 12.629C173.68 12.629 175.78 13.209 177.09 15.469V0.289062H188.64V39.669H186.54L177.77 36.309V36.319ZM174.57 32.069C176.04 32.069 177.09 28.659 177.09 23.719C177.09 18.779 176.04 15.419 174.57 15.419C172.99 15.419 171.94 18.779 171.94 23.769C171.94 28.759 172.99 32.069 174.57 32.069Z" fill="white"/>
<path d="M0 49.7483H28.51V60.2483H16.75C14.96 62.3483 14.7 63.4983 14.7 66.5483C14.7 69.0183 16.59 71.6383 19.32 71.6383C21.26 71.6383 22.21 71.1683 24.2 69.5883L27.09 83.7083C23.21 86.4383 21.89 87.2783 17.27 87.2783C8.29 87.2783 2.68 80.8183 2.68 73.0483C2.68 63.8083 10.87 60.2383 14.7 60.2383H0V49.7383V49.7483Z" fill="white"/>
<path d="M87.5196 86.5009H75.9696V73.2209C75.9696 64.8209 75.4396 61.9909 74.4996 61.9909C73.3996 61.9909 72.6596 65.4009 72.6096 71.9609V86.5009H61.0596V60.2509H63.1596L71.9296 63.6109C73.0296 60.2509 74.9696 59.4609 77.5496 59.4609C82.1196 59.4609 84.8996 61.0909 86.3696 64.8709C87.2596 60.4609 89.1496 59.4609 92.2996 59.4609C98.0196 59.4609 102.43 62.3509 102.43 72.2709V86.5009H90.8796V73.2209C90.8796 64.8209 90.3596 61.9909 89.4096 61.9909C88.1996 61.9909 87.4696 65.8709 87.5196 73.3809V86.5109V86.5009Z" fill="white"/>
<path d="M146.53 63.8709V86.5009H134.98V60.2509H137.08L146.53 63.8709ZM154.15 59.4609C157.77 59.4609 160.19 61.9309 160.19 65.5009C160.19 69.0709 157.77 71.5409 154.15 71.5409C150.53 71.5409 148.11 69.1209 148.11 65.5009C148.11 61.8809 150.58 59.4609 154.15 59.4609Z" fill="white"/>
<path d="M173.83 63.8709V86.5009H162.28V60.2509H164.38L173.83 63.8709ZM181.45 59.4609C185.07 59.4609 187.49 61.9309 187.49 65.5009C187.49 69.0709 185.07 71.5409 181.45 71.5409C177.83 71.5409 175.41 69.1209 175.41 65.5009C175.41 61.8809 177.88 59.4609 181.45 59.4609Z" fill="white"/>
<path d="M226.6 79.9909L222.09 68.7009C220.73 65.2309 219.41 62.6109 216.1 59.4609C226.13 59.4609 229.7 59.5709 232.69 67.0709L237.05 78.0409C238.47 81.6109 241.14 85.1809 245.66 87.2809C235.11 87.2809 229.44 87.0709 226.6 79.9809V79.9909Z" fill="#591CBC"/>
<path d="M240.77 79.9909L236.26 68.7009C234.9 65.2309 233.58 62.6109 230.27 59.4609C240.3 59.4609 243.87 59.5709 246.86 67.0709L249.43 73.5309C251.43 78.4609 254.79 78.2509 258.99 78.2509L260.83 87.2809C250.28 87.2809 243.61 87.0709 240.77 79.9809V79.9909Z" fill="#11A24A"/>
<path d="M255.21 59.4609C258.83 59.4609 261.25 61.9309 261.25 65.5009C261.25 69.0709 258.83 71.5409 255.21 71.5409C251.59 71.5409 249.17 69.1209 249.17 65.5009C249.17 61.8809 251.64 59.4609 255.21 59.4609Z" fill="#F15A29"/>
<path d="M202.71 59.4609C194.83 59.4609 189.58 65.0209 189.58 73.3709C189.58 81.7209 194.83 87.2809 202.71 87.2809C210.59 87.2809 215.83 81.7109 215.83 73.3709C215.83 65.0309 210.58 59.4609 202.71 59.4609ZM202.26 79.4109C198.69 79.4109 196.22 76.9909 196.22 73.3709C196.22 69.7509 198.69 67.3309 202.26 67.3309C205.83 67.3309 208.3 69.8009 208.3 73.3709C208.3 76.9409 205.88 79.4109 202.26 79.4109Z" fill="white"/>
<path d="M113.5 12.6406C105.62 12.6406 100.37 18.2106 100.37 26.5606C100.37 34.9106 105.62 40.4806 113.5 40.4806C121.38 40.4806 126.63 34.9106 126.63 26.5606C126.63 18.2106 121.38 12.6406 113.5 12.6406ZM113.5 32.5906C109.93 32.5906 107.46 30.1706 107.46 26.5506C107.46 22.9306 109.93 20.5106 113.5 20.5106C117.07 20.5106 119.54 22.9806 119.54 26.5506C119.54 30.1206 117.12 32.5906 113.5 32.5906Z" fill="white"/>
<path d="M44.7804 59.4609C36.9004 59.4609 31.6504 65.0209 31.6504 73.3709C31.6504 81.7209 36.9004 87.2809 44.7804 87.2809C52.6604 87.2809 57.9004 81.7109 57.9004 73.3709C57.9004 65.0309 52.6504 59.4609 44.7804 59.4609ZM44.7804 79.4109C41.2104 79.4109 38.7404 76.9909 38.7404 73.3709C38.7404 69.7509 41.2104 67.3309 44.7804 67.3309C48.3504 67.3309 50.8204 69.8009 50.8204 73.3709C50.8204 76.9409 48.4004 79.4109 44.7804 79.4109Z" fill="white"/>
<path d="M118.71 59.4609C110.83 59.4609 105.58 65.0209 105.58 73.3709C105.58 81.7209 110.83 87.2809 118.71 87.2809C126.59 87.2809 131.83 81.7109 131.83 73.3709C131.83 65.0309 126.58 59.4609 118.71 59.4609ZM118.71 79.4109C115.14 79.4109 112.67 76.9909 112.67 73.3709C112.67 69.7509 115.14 67.3309 118.71 67.3309C122.28 67.3309 124.75 69.8009 124.75 73.3709C124.75 76.9409 122.33 79.4109 118.71 79.4109Z" fill="white"/>
<path d="M4.29388 104.123C3.69489 104.123 3.1727 104.027 2.7273 103.835C2.28189 103.643 1.93632 103.375 1.69059 103.029C1.45253 102.684 1.3335 102.277 1.3335 101.808V101.52C1.3335 101.482 1.34502 101.451 1.36805 101.428C1.39877 101.397 1.43333 101.382 1.47172 101.382H2.49692C2.53531 101.382 2.56603 101.397 2.58907 101.428C2.61978 101.451 2.63514 101.482 2.63514 101.52V101.739C2.63514 102.092 2.79257 102.388 3.10742 102.626C3.42227 102.856 3.85232 102.972 4.39755 102.972C4.86599 102.972 5.21924 102.872 5.4573 102.672C5.69536 102.472 5.81438 102.215 5.81438 101.9C5.81438 101.685 5.74911 101.505 5.61856 101.359C5.48801 101.205 5.29987 101.067 5.05413 100.944C4.81607 100.821 4.45514 100.668 3.97135 100.483C3.42611 100.284 2.98455 100.096 2.64666 99.9191C2.30877 99.7421 2.02464 99.5041 1.79426 99.2051C1.57156 98.8981 1.46021 98.5181 1.46021 98.0641C1.46021 97.3891 1.70594 96.8551 2.19742 96.4631C2.6889 96.0721 3.34548 95.8761 4.16717 95.8761C4.74312 95.8761 5.24995 95.9761 5.68768 96.1751C6.13308 96.3751 6.47865 96.6551 6.72439 97.0161C6.97012 97.3691 7.09299 97.7801 7.09299 98.2491V98.4451C7.09299 98.4831 7.07763 98.5181 7.04692 98.5481C7.02388 98.5711 6.99316 98.5831 6.95477 98.5831H5.91806C5.87966 98.5831 5.8451 98.5711 5.81438 98.5481C5.79135 98.5181 5.77983 98.4831 5.77983 98.4451V98.3181C5.77983 97.9571 5.63008 97.6541 5.33059 97.4081C5.03877 97.1541 4.63177 97.0281 4.10957 97.0281C3.68721 97.0281 3.357 97.1161 3.11894 97.2931C2.88856 97.4691 2.77337 97.7191 2.77337 98.0411C2.77337 98.2721 2.83481 98.4601 2.95767 98.6061C3.08054 98.7521 3.26485 98.8861 3.51059 99.0091C3.75633 99.1241 4.13645 99.2741 4.65097 99.4581C5.1962 99.6661 5.63008 99.8541 5.95261 100.023C6.28282 100.192 6.56312 100.43 6.7935 100.737C7.03156 101.036 7.15059 101.413 7.15059 101.866C7.15059 102.557 6.89333 103.106 6.37882 103.513C5.87198 103.92 5.177 104.123 4.29388 104.123ZM11.1917 98.0531C11.8137 98.0531 12.309 98.2371 12.6776 98.6061C13.0539 98.9741 13.2421 99.4771 13.2421 100.115V103.893C13.2421 103.931 13.2267 103.966 13.196 103.997C13.173 104.02 13.1422 104.031 13.1038 104.031H12.0441C12.0057 104.031 11.9711 104.02 11.9404 103.997C11.9174 103.966 11.9059 103.931 11.9059 103.893V100.391C11.9059 100.038 11.806 99.7541 11.6064 99.5391C11.4067 99.3161 11.1418 99.2051 10.8116 99.2051C10.4814 99.2051 10.2126 99.3121 10.0052 99.5271C9.80557 99.7421 9.70573 100.027 9.70573 100.38V103.893C9.70573 103.931 9.69038 103.966 9.65966 103.997C9.63662 104.02 9.6059 104.031 9.56751 104.031H8.50776C8.46936 104.031 8.43481 104.02 8.40409 103.997C8.38105 103.966 8.36953 103.931 8.36953 103.893V96.1061C8.36953 96.0681 8.38105 96.0371 8.40409 96.0141C8.43481 95.9831 8.46936 95.9681 8.50776 95.9681H9.56751C9.6059 95.9681 9.63662 95.9831 9.65966 96.0141C9.69038 96.0371 9.70573 96.0681 9.70573 96.1061V98.6521C9.70573 98.6751 9.71341 98.6901 9.72877 98.6981C9.74413 98.7061 9.75565 98.6981 9.76333 98.6751C10.0782 98.2601 10.5543 98.0531 11.1917 98.0531ZM16.8814 98.0531C17.3652 98.0531 17.7914 98.1371 18.1601 98.3061C18.5287 98.4751 18.8128 98.7091 19.0125 99.0091C19.2121 99.3011 19.312 99.6351 19.312 100.011V103.893C19.312 103.931 19.2966 103.966 19.2659 103.997C19.2428 104.02 19.2121 104.031 19.1737 104.031H18.114C18.0756 104.031 18.041 104.02 18.0103 103.997C17.9873 103.966 17.9758 103.931 17.9758 103.893V103.524C17.9758 103.501 17.9681 103.49 17.9527 103.49C17.9374 103.482 17.922 103.486 17.9066 103.501C17.5303 103.916 16.9851 104.123 16.2709 104.123C15.695 104.123 15.2189 103.978 14.8426 103.686C14.474 103.394 14.2897 102.96 14.2897 102.384C14.2897 101.785 14.497 101.32 14.9117 100.99C15.3341 100.652 15.9254 100.483 16.6856 100.483H17.9182C17.9566 100.483 17.9758 100.464 17.9758 100.426V100.149C17.9758 99.8501 17.8874 99.6191 17.7108 99.4581C17.5342 99.2891 17.2693 99.2051 16.916 99.2051C16.6242 99.2051 16.3861 99.2591 16.2018 99.3661C16.0252 99.4661 15.9139 99.6081 15.8678 99.7921C15.8447 99.8841 15.791 99.9231 15.7065 99.9071L14.5892 99.7691C14.5508 99.7621 14.5162 99.7501 14.4855 99.7351C14.4625 99.7121 14.4548 99.6851 14.4625 99.6541C14.5239 99.1861 14.7735 98.8021 15.2112 98.5021C15.6566 98.2031 16.2133 98.0531 16.8814 98.0531ZM16.605 103.064C16.9813 103.064 17.3038 102.964 17.5726 102.764C17.8414 102.565 17.9758 102.311 17.9758 102.004V101.463C17.9758 101.424 17.9566 101.405 17.9182 101.405H16.9506C16.5436 101.405 16.221 101.482 15.983 101.635C15.7526 101.789 15.6374 102.008 15.6374 102.292C15.6374 102.538 15.7257 102.73 15.9023 102.868C16.0866 102.998 16.3209 103.064 16.605 103.064ZM25.6412 99.6661C25.7794 100.057 25.8485 100.537 25.8485 101.105C25.8485 101.651 25.7833 102.119 25.6527 102.511C25.4838 103.018 25.2111 103.413 24.8349 103.697C24.4663 103.981 23.9978 104.123 23.4295 104.123C22.8843 104.123 22.4466 103.928 22.1164 103.536C22.101 103.521 22.0857 103.517 22.0703 103.524C22.0549 103.532 22.0473 103.547 22.0473 103.571V106.07C22.0473 106.109 22.0319 106.139 22.0012 106.162C21.9781 106.193 21.9474 106.208 21.909 106.208H20.8493C20.8109 106.208 20.7763 106.193 20.7456 106.162C20.7226 106.139 20.7111 106.109 20.7111 106.07V98.2831C20.7111 98.2451 20.7226 98.2141 20.7456 98.1911C20.7763 98.1601 20.8109 98.1451 20.8493 98.1451H21.909C21.9474 98.1451 21.9781 98.1601 22.0012 98.1911C22.0319 98.2141 22.0473 98.2451 22.0473 98.2831V98.6291C22.0473 98.6521 22.0549 98.6671 22.0703 98.6751C22.0857 98.6831 22.101 98.6751 22.1164 98.6521C22.4543 98.2531 22.8958 98.0531 23.4411 98.0531C23.9863 98.0531 24.4471 98.1951 24.8233 98.4791C25.1996 98.7631 25.4722 99.1591 25.6412 99.6661ZM24.1437 102.488C24.3741 102.134 24.4893 101.666 24.4893 101.082C24.4893 100.522 24.3971 100.08 24.2128 99.7581C23.9978 99.3811 23.6714 99.1931 23.2337 99.1931C22.8344 99.1931 22.5349 99.3781 22.3352 99.7461C22.1586 100.046 22.0703 100.491 22.0703 101.082C22.0703 101.689 22.1663 102.15 22.3583 102.465C22.5579 102.803 22.8459 102.972 23.2222 102.972C23.6292 102.972 23.9364 102.81 24.1437 102.488ZM27.9044 97.3391C27.6663 97.3391 27.4705 97.2621 27.3169 97.1081C27.1633 96.9551 27.0866 96.7591 27.0866 96.5211C27.0866 96.2831 27.1633 96.0871 27.3169 95.9331C27.4705 95.7801 27.6663 95.7031 27.9044 95.7031C28.1425 95.7031 28.3383 95.7801 28.4919 95.9331C28.6455 96.0871 28.7223 96.2831 28.7223 96.5211C28.7223 96.7591 28.6455 96.9551 28.4919 97.1081C28.3383 97.2621 28.1425 97.3391 27.9044 97.3391ZM27.3515 104.031C27.3131 104.031 27.2785 104.02 27.2478 103.997C27.2248 103.966 27.2133 103.931 27.2133 103.893V98.2721C27.2133 98.2331 27.2248 98.2031 27.2478 98.1801C27.2785 98.1491 27.3131 98.1341 27.3515 98.1341H28.4112C28.4496 98.1341 28.4804 98.1491 28.5034 98.1801C28.5341 98.2031 28.5495 98.2331 28.5495 98.2721V103.893C28.5495 103.931 28.5341 103.966 28.5034 103.997C28.4804 104.02 28.4496 104.031 28.4112 104.031H27.3515ZM32.9023 98.0531C33.5243 98.0531 34.0196 98.2371 34.3882 98.6061C34.7645 98.9741 34.9527 99.4771 34.9527 100.115V103.893C34.9527 103.931 34.9373 103.966 34.9066 103.997C34.8836 104.02 34.8528 104.031 34.8144 104.031H33.7547C33.7163 104.031 33.6817 104.02 33.651 103.997C33.628 103.966 33.6165 103.931 33.6165 103.893V100.391C33.6165 100.038 33.5166 99.7541 33.317 99.5391C33.1173 99.3161 32.8524 99.2051 32.5222 99.2051C32.192 99.2051 31.9232 99.3121 31.7158 99.5271C31.5162 99.7421 31.4163 100.027 31.4163 100.38V103.893C31.4163 103.931 31.401 103.966 31.3703 103.997C31.3472 104.02 31.3165 104.031 31.2781 104.031H30.2184C30.18 104.031 30.1454 104.02 30.1147 103.997C30.0917 103.966 30.0801 103.931 30.0801 103.893V98.2831C30.0801 98.2451 30.0917 98.2141 30.1147 98.1911C30.1454 98.1601 30.18 98.1451 30.2184 98.1451H31.2781C31.3165 98.1451 31.3472 98.1601 31.3703 98.1911C31.401 98.2141 31.4163 98.2451 31.4163 98.2831V98.6521C31.4163 98.6751 31.424 98.6901 31.4394 98.6981C31.4547 98.7061 31.4663 98.6981 31.4739 98.6751C31.7888 98.2601 32.2649 98.0531 32.9023 98.0531ZM39.9513 98.2831C39.9513 98.2451 39.9628 98.2141 39.9858 98.1911C40.0166 98.1601 40.0511 98.1451 40.0895 98.1451H41.1493C41.1877 98.1451 41.2184 98.1601 41.2414 98.1911C41.2721 98.2141 41.2875 98.2451 41.2875 98.2831V103.64C41.2875 104.6 41.011 105.283 40.4581 105.69C39.9129 106.105 39.1949 106.312 38.3041 106.312C38.066 106.312 37.8318 106.301 37.6014 106.277C37.5169 106.27 37.4747 106.22 37.4747 106.128L37.5093 105.183C37.5093 105.099 37.563 105.056 37.6705 105.056C37.8932 105.08 38.0929 105.091 38.2695 105.091C38.8455 105.091 39.2678 104.976 39.5366 104.745C39.8131 104.523 39.9513 104.143 39.9513 103.605V103.513C39.9513 103.49 39.9436 103.478 39.9282 103.478C39.9129 103.471 39.8975 103.475 39.8822 103.49C39.5673 103.828 39.1219 103.997 38.546 103.997C38.0468 103.997 37.5899 103.87 37.1752 103.617C36.7605 103.363 36.4726 102.975 36.3113 102.453C36.2115 102.092 36.1615 101.628 36.1615 101.059C36.1615 100.422 36.223 99.9341 36.3458 99.5961C36.4994 99.1281 36.7644 98.7561 37.1407 98.4791C37.5169 98.1951 37.9585 98.0531 38.4653 98.0531C39.072 98.0531 39.5443 98.2301 39.8822 98.5831C39.8975 98.6061 39.9129 98.6141 39.9282 98.6061C39.9436 98.5981 39.9513 98.5831 39.9513 98.5601V98.2831ZM39.8707 102.073C39.9014 101.958 39.9206 101.835 39.9282 101.704C39.9436 101.566 39.9513 101.347 39.9513 101.048C39.9513 100.756 39.9436 100.549 39.9282 100.426C39.9206 100.295 39.8975 100.169 39.8591 100.046C39.7977 99.7921 39.671 99.5891 39.479 99.4351C39.2947 99.2821 39.0566 99.2051 38.7648 99.2051C38.4884 99.2051 38.2542 99.2821 38.0622 99.4351C37.8702 99.5891 37.732 99.7921 37.6475 100.046C37.5553 100.261 37.5093 100.599 37.5093 101.059C37.5093 101.535 37.5477 101.87 37.6245 102.062C37.7012 102.307 37.8395 102.511 38.0391 102.672C38.2465 102.826 38.4922 102.902 38.7763 102.902C39.0758 102.902 39.3177 102.826 39.502 102.672C39.6864 102.518 39.8092 102.319 39.8707 102.073ZM45.2244 104.031C45.1866 104.031 45.1525 104.02 45.1223 103.997C45.0996 103.967 45.0882 103.933 45.0882 103.895V96.2221C45.0882 96.1851 45.0996 96.1541 45.1223 96.1321C45.1525 96.1011 45.1866 96.0861 45.2244 96.0861H46.2686C46.3064 96.0861 46.3367 96.1011 46.3594 96.1321C46.3897 96.1541 46.4048 96.1851 46.4048 96.2221V99.6161C46.4048 99.6391 46.4124 99.6541 46.4275 99.6621C46.4426 99.6691 46.4578 99.6651 46.4729 99.6501L49.4239 96.1661C49.4693 96.1131 49.5261 96.0861 49.5942 96.0861H50.7746C50.8502 96.0861 50.8881 96.1131 50.8881 96.1661C50.8881 96.1881 50.8767 96.2191 50.854 96.2571L48.2549 99.4461C48.2322 99.4761 48.2284 99.5031 48.2435 99.5251L51.0356 103.872C51.0507 103.918 51.0583 103.944 51.0583 103.952C51.0583 104.005 51.0205 104.031 50.9448 104.031H49.7531C49.685 104.031 49.632 104.001 49.5942 103.94L47.3469 100.445C47.3166 100.399 47.2901 100.395 47.2674 100.433L46.4275 101.409C46.4124 101.44 46.4048 101.466 46.4048 101.489V103.895C46.4048 103.933 46.3897 103.967 46.3594 103.997C46.3367 104.02 46.3064 104.031 46.2686 104.031H45.2244ZM56.5721 100.479C56.6024 100.668 56.6175 100.88 56.6175 101.114L56.6062 101.466C56.6062 101.557 56.5608 101.602 56.47 101.602H52.9174C52.8796 101.602 52.8607 101.621 52.8607 101.659C52.8834 101.909 52.9174 102.079 52.9628 102.17C53.1444 102.715 53.5871 102.991 54.2908 102.998C54.8053 102.998 55.2139 102.787 55.5166 102.363C55.5468 102.317 55.5847 102.295 55.6301 102.295C55.6603 102.295 55.6868 102.306 55.7095 102.329L56.4132 102.908C56.4813 102.961 56.4927 103.021 56.4473 103.089C56.2127 103.422 55.8987 103.679 55.5052 103.861C55.1193 104.043 54.688 104.133 54.2113 104.133C53.6211 104.133 53.1179 104.001 52.7018 103.736C52.2932 103.471 51.9943 103.101 51.8051 102.624C51.6311 102.215 51.5441 101.648 51.5441 100.921C51.5441 100.483 51.5895 100.127 51.6803 99.8541C51.8316 99.3251 52.1153 98.9091 52.5315 98.6061C52.9552 98.2961 53.4622 98.1411 54.0524 98.1411C55.543 98.1411 56.3829 98.9201 56.5721 100.479ZM54.0524 99.2761C53.7724 99.2761 53.5379 99.3481 53.3487 99.4911C53.1671 99.6271 53.0385 99.8201 52.9628 100.07C52.9174 100.199 52.8871 100.365 52.872 100.57C52.8569 100.607 52.872 100.626 52.9174 100.626H55.2215C55.2593 100.626 55.2782 100.607 55.2782 100.57C55.2631 100.38 55.2404 100.237 55.2101 100.138C55.142 99.8661 55.0058 99.6541 54.8015 99.5031C54.6048 99.3511 54.3551 99.2761 54.0524 99.2761ZM60.5221 98.1631C60.7642 98.1631 60.9761 98.2131 61.1577 98.3111C61.2182 98.3411 61.2409 98.3981 61.2258 98.4811L61.0328 99.5031C61.0253 99.5931 60.9723 99.6201 60.8739 99.5821C60.7604 99.5441 60.628 99.5251 60.4767 99.5251C60.3783 99.5251 60.3026 99.5291 60.2497 99.5371C59.9319 99.5521 59.667 99.6651 59.4552 99.8771C59.2433 100.081 59.1374 100.35 59.1374 100.683V103.895C59.1374 103.933 59.1222 103.967 59.092 103.997C59.0693 104.02 59.039 104.031 59.0012 104.031H57.957C57.9191 104.031 57.8851 104.02 57.8548 103.997C57.8321 103.967 57.8208 103.933 57.8208 103.895V98.3681C57.8208 98.3301 57.8321 98.3001 57.8548 98.2771C57.8851 98.2471 57.9191 98.2311 57.957 98.2311H59.0012C59.039 98.2311 59.0693 98.2471 59.092 98.2771C59.1222 98.3001 59.1374 98.3301 59.1374 98.3681V98.8781C59.1374 98.9091 59.1412 98.9281 59.1487 98.9351C59.1639 98.9351 59.179 98.9241 59.1941 98.9011C59.5119 98.4091 59.9546 98.1631 60.5221 98.1631ZM64.2459 98.1411C64.7226 98.1411 65.1426 98.2241 65.5058 98.3901C65.869 98.5571 66.149 98.7881 66.3457 99.0831C66.5424 99.3701 66.6408 99.6991 66.6408 100.07V103.895C66.6408 103.933 66.6257 103.967 66.5954 103.997C66.5727 104.02 66.5424 104.031 66.5046 104.031H65.4604C65.4226 104.031 65.3885 104.02 65.3582 103.997C65.3355 103.967 65.3242 103.933 65.3242 103.895V103.532C65.3242 103.509 65.3166 103.498 65.3015 103.498C65.2864 103.49 65.2712 103.494 65.2561 103.509C64.8853 103.918 64.3481 104.122 63.6444 104.122C63.0769 104.122 62.6078 103.978 62.237 103.691C61.8738 103.403 61.6922 102.976 61.6922 102.408C61.6922 101.818 61.8965 101.36 62.3051 101.035C62.7213 100.702 63.3039 100.535 64.053 100.535H65.2674C65.3053 100.535 65.3242 100.517 65.3242 100.479V100.206C65.3242 99.9111 65.2372 99.6841 65.0631 99.5251C64.8891 99.3591 64.6281 99.2761 64.28 99.2761C63.9925 99.2761 63.7579 99.3291 63.5763 99.4351C63.4023 99.5331 63.2925 99.6731 63.2471 99.8541C63.2244 99.9451 63.1715 99.9831 63.0882 99.9681L61.9873 99.8321C61.9495 99.8241 61.9154 99.8131 61.8851 99.7981C61.8624 99.7751 61.8549 99.7491 61.8624 99.7181C61.923 99.2571 62.1689 98.8781 62.6002 98.5831C63.0391 98.2881 63.5876 98.1411 64.2459 98.1411ZM63.9735 103.078C64.3443 103.078 64.6621 102.98 64.9269 102.783C65.1918 102.586 65.3242 102.336 65.3242 102.034V101.5C65.3242 101.462 65.3053 101.443 65.2674 101.443H64.314C63.913 101.443 63.5952 101.519 63.3606 101.67C63.1336 101.822 63.0201 102.037 63.0201 102.317C63.0201 102.56 63.1072 102.749 63.2812 102.885C63.4628 103.014 63.6936 103.078 63.9735 103.078ZM68.0988 104.031C68.061 104.031 68.0269 104.02 67.9967 103.997C67.974 103.967 67.9626 103.933 67.9626 103.895V96.2221C67.9626 96.1851 67.974 96.1541 67.9967 96.1321C68.0269 96.1011 68.061 96.0861 68.0988 96.0861H69.143C69.1809 96.0861 69.2111 96.1011 69.2338 96.1321C69.2641 96.1541 69.2792 96.1851 69.2792 96.2221V103.895C69.2792 103.933 69.2641 103.967 69.2338 103.997C69.2111 104.02 69.1809 104.031 69.143 104.031H68.0988ZM72.8915 98.1411C73.3682 98.1411 73.7881 98.2241 74.1513 98.3901C74.5145 98.5571 74.7945 98.7881 74.9912 99.0831C75.1879 99.3701 75.2863 99.6991 75.2863 100.07V103.895C75.2863 103.933 75.2712 103.967 75.2409 103.997C75.2182 104.02 75.1879 104.031 75.1501 104.031H74.1059C74.0681 104.031 74.034 104.02 74.0038 103.997C73.9811 103.967 73.9697 103.933 73.9697 103.895V103.532C73.9697 103.509 73.9621 103.498 73.947 103.498C73.9319 103.49 73.9167 103.494 73.9016 103.509C73.5308 103.918 72.9936 104.122 72.2899 104.122C71.7224 104.122 71.2533 103.978 70.8825 103.691C70.5193 103.403 70.3377 102.976 70.3377 102.408C70.3377 101.818 70.542 101.36 70.9506 101.035C71.3668 100.702 71.9494 100.535 72.6985 100.535H73.913C73.9508 100.535 73.9697 100.517 73.9697 100.479V100.206C73.9697 99.9111 73.8827 99.6841 73.7087 99.5251C73.5346 99.3591 73.2736 99.2761 72.9255 99.2761C72.638 99.2761 72.4034 99.3291 72.2218 99.4351C72.0478 99.5331 71.9381 99.6731 71.8927 99.8541C71.87 99.9451 71.817 99.9831 71.7338 99.9681L70.6328 99.8321C70.595 99.8241 70.5609 99.8131 70.5307 99.7981C70.508 99.7751 70.5004 99.7491 70.508 99.7181C70.5685 99.2571 70.8144 98.8781 71.2457 98.5831C71.6846 98.2881 72.2332 98.1411 72.8915 98.1411ZM72.6191 103.078C72.9898 103.078 73.3076 102.98 73.5725 102.783C73.8373 102.586 73.9697 102.336 73.9697 102.034V101.5C73.9697 101.462 73.9508 101.443 73.913 101.443H72.9596C72.5585 101.443 72.2407 101.519 72.0062 101.67C71.7792 101.822 71.6657 102.037 71.6657 102.317C71.6657 102.56 71.7527 102.749 71.9267 102.885C72.1083 103.014 72.3391 103.078 72.6191 103.078ZM77.6001 96.0861C77.6531 96.0861 77.6871 96.1011 77.7023 96.1321C77.7174 96.1621 77.7174 96.2001 77.7023 96.2451L76.8056 98.4581C76.7829 98.5271 76.7299 98.5611 76.6467 98.5611H75.8749C75.8295 98.5611 75.7955 98.5491 75.7728 98.5271C75.7576 98.4961 75.7538 98.4581 75.7614 98.4131L76.397 96.2001C76.4197 96.1241 76.4727 96.0861 76.5559 96.0861H77.6001ZM79.8509 104.099C79.3742 104.099 78.9542 104.031 78.591 103.895C78.2354 103.751 77.9592 103.558 77.7625 103.316C77.5657 103.067 77.4674 102.79 77.4674 102.488V102.386C77.4674 102.348 77.4787 102.317 77.5014 102.295C77.5317 102.264 77.5657 102.249 77.6036 102.249H78.6024C78.6402 102.249 78.6705 102.264 78.6932 102.295C78.7234 102.317 78.7386 102.348 78.7386 102.386V102.408C78.7386 102.597 78.8407 102.764 79.045 102.908C79.2569 103.044 79.5217 103.112 79.8395 103.112C80.1422 103.112 80.3881 103.051 80.5773 102.93C80.7664 102.802 80.861 102.643 80.861 102.454C80.861 102.28 80.7816 102.151 80.6227 102.068C80.4713 101.977 80.2216 101.882 79.8736 101.784L79.4423 101.648C79.0564 101.534 78.731 101.413 78.4662 101.285C78.2013 101.156 77.9781 100.982 77.7965 100.762C77.6149 100.535 77.5241 100.248 77.5241 99.9001C77.5241 99.3701 77.7322 98.9501 78.1484 98.6401C78.5645 98.3221 79.1131 98.1631 79.7941 98.1631C80.2557 98.1631 80.6605 98.2391 81.0086 98.3901C81.3566 98.5341 81.6252 98.7381 81.8144 99.0031C82.0036 99.2601 82.0982 99.5561 82.0982 99.8891C82.0982 99.9261 82.083 99.9601 82.0528 99.9911C82.0301 100.013 81.9998 100.025 81.962 100.025H80.9972C80.9594 100.025 80.9253 100.013 80.8951 99.9911C80.8724 99.9601 80.861 99.9261 80.861 99.8891C80.861 99.6921 80.7626 99.5291 80.5659 99.4001C80.3767 99.2641 80.1157 99.1961 79.7828 99.1961C79.4877 99.1961 79.2455 99.2531 79.0564 99.3661C78.8748 99.4721 78.784 99.6241 78.784 99.8201C78.784 100.002 78.871 100.142 79.045 100.24C79.2266 100.331 79.5255 100.433 79.9417 100.547L80.1914 100.615C80.5924 100.736 80.9291 100.861 81.2015 100.989C81.4739 101.111 81.7047 101.285 81.8939 101.512C82.083 101.731 82.1776 102.019 82.1776 102.374C82.1776 102.911 81.9657 103.335 81.542 103.645C81.1183 103.948 80.5546 104.099 79.8509 104.099ZM88.3447 104.122C87.7772 104.122 87.2778 104.012 86.8465 103.793C86.4152 103.566 86.0823 103.252 85.8477 102.851C85.6132 102.45 85.4959 101.984 85.4959 101.455V98.6511C85.4959 98.1221 85.6132 97.6561 85.8477 97.2551C86.0823 96.8541 86.4152 96.5441 86.8465 96.3251C87.2778 96.1051 87.7772 95.9951 88.3447 95.9951C88.9047 95.9951 89.4003 96.1011 89.8316 96.3131C90.2629 96.5251 90.5958 96.8241 90.8304 97.2101C91.065 97.5961 91.1822 98.0421 91.1822 98.5491C91.1822 98.5871 91.1671 98.6211 91.1368 98.6511C91.1141 98.6741 91.0839 98.6851 91.046 98.6851L90.0018 98.7421C89.911 98.7421 89.8656 98.7011 89.8656 98.6171C89.8656 98.1711 89.7257 97.8111 89.4457 97.5391C89.1733 97.2671 88.8063 97.1301 88.3447 97.1301C87.8832 97.1301 87.5124 97.2671 87.2324 97.5391C86.9525 97.8111 86.8125 98.1711 86.8125 98.6171V101.512C86.8125 101.95 86.9525 102.306 87.2324 102.578C87.5124 102.851 87.8832 102.987 88.3447 102.987C88.8063 102.987 89.1733 102.855 89.4457 102.59C89.7257 102.317 89.8656 101.958 89.8656 101.512C89.8656 101.428 89.911 101.387 90.0018 101.387L91.046 101.432C91.0839 101.432 91.1141 101.443 91.1368 101.466C91.1671 101.489 91.1822 101.515 91.1822 101.546C91.1822 102.06 91.065 102.514 90.8304 102.908C90.5958 103.294 90.2629 103.592 89.8316 103.804C89.4003 104.016 88.9047 104.122 88.3447 104.122ZM95.897 98.3681C95.897 98.3301 95.9084 98.3001 95.9311 98.2771C95.9613 98.2471 95.9954 98.2311 96.0332 98.2311H97.0661C97.1039 98.2311 97.1342 98.2471 97.1569 98.2771C97.1871 98.3001 97.2023 98.3301 97.2023 98.3681V103.895C97.2023 103.933 97.1871 103.967 97.1569 103.997C97.1342 104.02 97.1039 104.031 97.0661 104.031H96.0332C95.9954 104.031 95.9613 104.02 95.9311 103.997C95.9084 103.967 95.897 103.933 95.897 103.895V103.532C95.897 103.509 95.8895 103.494 95.8743 103.486C95.8592 103.479 95.8441 103.486 95.8289 103.509C95.5187 103.91 95.0533 104.111 94.4329 104.111C93.8578 104.111 93.3735 103.944 92.9801 103.611C92.5942 103.278 92.4012 102.805 92.4012 102.193V98.3681C92.4012 98.3301 92.4126 98.3001 92.4353 98.2771C92.4655 98.2471 92.4996 98.2311 92.5374 98.2311H93.5816C93.6195 98.2311 93.6497 98.2471 93.6724 98.2771C93.7027 98.3001 93.7178 98.3301 93.7178 98.3681V101.818C93.7178 102.174 93.8086 102.457 93.9902 102.669C94.1794 102.881 94.4404 102.987 94.7734 102.987C95.1139 102.987 95.3863 102.881 95.5906 102.669C95.7949 102.457 95.897 102.174 95.897 101.818V98.3681ZM98.746 104.031C98.7082 104.031 98.6742 104.02 98.6439 103.997C98.6212 103.967 98.6098 103.933 98.6098 103.895V96.2221C98.6098 96.1851 98.6212 96.1541 98.6439 96.1321C98.6742 96.1011 98.7082 96.0861 98.746 96.0861H99.7902C99.8281 96.0861 99.8583 96.1011 99.881 96.1321C99.9113 96.1541 99.9264 96.1851 99.9264 96.2221V103.895C99.9264 103.933 99.9113 103.967 99.881 103.997C99.8583 104.02 99.8281 104.031 99.7902 104.031H98.746ZM104.401 99.1621C104.401 99.2001 104.386 99.2341 104.356 99.2641C104.333 99.2871 104.303 99.2981 104.265 99.2981H103.107C103.069 99.2981 103.051 99.3171 103.051 99.3551V102.09C103.051 102.378 103.111 102.586 103.232 102.715C103.361 102.843 103.561 102.908 103.834 102.908H104.174C104.212 102.908 104.242 102.923 104.265 102.953C104.295 102.976 104.31 103.006 104.31 103.044V103.895C104.31 103.978 104.265 104.027 104.174 104.043L103.584 104.054C102.986 104.054 102.54 103.952 102.245 103.748C101.95 103.543 101.798 103.157 101.791 102.59V99.3551C101.791 99.3171 101.772 99.2981 101.734 99.2981H101.087C101.049 99.2981 101.015 99.2871 100.985 99.2641C100.962 99.2341 100.951 99.2001 100.951 99.1621V98.3681C100.951 98.3301 100.962 98.3001 100.985 98.2771C101.015 98.2471 101.049 98.2311 101.087 98.2311H101.734C101.772 98.2311 101.791 98.2131 101.791 98.1751V96.8471C101.791 96.8091 101.802 96.7791 101.825 96.7561C101.855 96.7261 101.889 96.7111 101.927 96.7111H102.914C102.952 96.7111 102.982 96.7261 103.005 96.7561C103.035 96.7791 103.051 96.8091 103.051 96.8471V98.1751C103.051 98.2131 103.069 98.2311 103.107 98.2311H104.265C104.303 98.2311 104.333 98.2471 104.356 98.2771C104.386 98.3001 104.401 98.3301 104.401 98.3681V99.1621ZM108.998 98.3681C108.998 98.3301 109.01 98.3001 109.032 98.2771C109.063 98.2471 109.097 98.2311 109.134 98.2311H110.167C110.205 98.2311 110.235 98.2471 110.258 98.2771C110.288 98.3001 110.303 98.3301 110.303 98.3681V103.895C110.303 103.933 110.288 103.967 110.258 103.997C110.235 104.02 110.205 104.031 110.167 104.031H109.134C109.097 104.031 109.063 104.02 109.032 103.997C109.01 103.967 108.998 103.933 108.998 103.895V103.532C108.998 103.509 108.991 103.494 108.975 103.486C108.96 103.479 108.945 103.486 108.93 103.509C108.62 103.91 108.155 104.111 107.534 104.111C106.959 104.111 106.475 103.944 106.081 103.611C105.695 103.278 105.502 102.805 105.502 102.193V98.3681C105.502 98.3301 105.514 98.3001 105.536 98.2771C105.567 98.2471 105.601 98.2311 105.639 98.2311H106.683C106.721 98.2311 106.751 98.2471 106.774 98.2771C106.804 98.3001 106.819 98.3301 106.819 98.3681V101.818C106.819 102.174 106.91 102.457 107.091 102.669C107.281 102.881 107.542 102.987 107.875 102.987C108.215 102.987 108.487 102.881 108.692 102.669C108.896 102.457 108.998 102.174 108.998 101.818V98.3681ZM114.412 98.1631C114.654 98.1631 114.866 98.2131 115.048 98.3111C115.108 98.3411 115.131 98.3981 115.116 98.4811L114.923 99.5031C114.916 99.5931 114.863 99.6201 114.764 99.5821C114.651 99.5441 114.518 99.5251 114.367 99.5251C114.269 99.5251 114.193 99.5291 114.14 99.5371C113.822 99.5521 113.557 99.6651 113.345 99.8771C113.134 100.081 113.028 100.35 113.028 100.683V103.895C113.028 103.933 113.012 103.967 112.982 103.997C112.96 104.02 112.929 104.031 112.891 104.031H111.847C111.809 104.031 111.775 104.02 111.745 103.997C111.722 103.967 111.711 103.933 111.711 103.895V98.3681C111.711 98.3301 111.722 98.3001 111.745 98.2771C111.775 98.2471 111.809 98.2311 111.847 98.2311H112.891C112.929 98.2311 112.96 98.2471 112.982 98.2771C113.012 98.3001 113.028 98.3301 113.028 98.3681V98.8781C113.028 98.9091 113.031 98.9281 113.039 98.9351C113.054 98.9351 113.069 98.9241 113.084 98.9011C113.402 98.4091 113.845 98.1631 114.412 98.1631ZM118.136 98.1411C118.613 98.1411 119.033 98.2241 119.396 98.3901C119.759 98.5571 120.039 98.7881 120.236 99.0831C120.433 99.3701 120.531 99.6991 120.531 100.07V103.895C120.531 103.933 120.516 103.967 120.486 103.997C120.463 104.02 120.433 104.031 120.395 104.031H119.351C119.313 104.031 119.279 104.02 119.248 103.997C119.226 103.967 119.214 103.933 119.214 103.895V103.532C119.214 103.509 119.207 103.498 119.192 103.498C119.177 103.49 119.161 103.494 119.146 103.509C118.776 103.918 118.238 104.122 117.535 104.122C116.967 104.122 116.498 103.978 116.127 103.691C115.764 103.403 115.582 102.976 115.582 102.408C115.582 101.818 115.787 101.36 116.195 101.035C116.611 100.702 117.194 100.535 117.943 100.535H119.158C119.196 100.535 119.214 100.517 119.214 100.479V100.206C119.214 99.9111 119.127 99.6841 118.953 99.5251C118.779 99.3591 118.518 99.2761 118.17 99.2761C117.883 99.2761 117.648 99.3291 117.467 99.4351C117.292 99.5331 117.183 99.6731 117.137 99.8541C117.115 99.9451 117.062 99.9831 116.978 99.9681L115.878 99.8321C115.84 99.8241 115.806 99.8131 115.775 99.7981C115.753 99.7751 115.745 99.7491 115.753 99.7181C115.813 99.2571 116.059 98.8781 116.49 98.5831C116.929 98.2881 117.478 98.1411 118.136 98.1411ZM117.864 103.078C118.235 103.078 118.552 102.98 118.817 102.783C119.082 102.586 119.214 102.336 119.214 102.034V101.5C119.214 101.462 119.196 101.443 119.158 101.443H118.204C117.803 101.443 117.485 101.519 117.251 101.67C117.024 101.822 116.91 102.037 116.91 102.317C116.91 102.56 116.997 102.749 117.171 102.885C117.353 103.014 117.584 103.078 117.864 103.078ZM121.989 104.031C121.951 104.031 121.917 104.02 121.887 103.997C121.864 103.967 121.853 103.933 121.853 103.895V96.2221C121.853 96.1851 121.864 96.1541 121.887 96.1321C121.917 96.1011 121.951 96.0861 121.989 96.0861H123.033C123.071 96.0861 123.101 96.1011 123.124 96.1321C123.154 96.1541 123.169 96.1851 123.169 96.2221V103.895C123.169 103.933 123.154 103.967 123.124 103.997C123.101 104.02 123.071 104.031 123.033 104.031H121.989ZM129.621 104.122C129.054 104.122 128.555 104.012 128.123 103.793C127.692 103.566 127.359 103.252 127.124 102.851C126.89 102.45 126.773 101.984 126.773 101.455V98.6511C126.773 98.1221 126.89 97.6561 127.124 97.2551C127.359 96.8541 127.692 96.5441 128.123 96.3251C128.555 96.1051 129.054 95.9951 129.621 95.9951C130.181 95.9951 130.677 96.1011 131.108 96.3131C131.54 96.5251 131.872 96.8241 132.107 97.2101C132.342 97.5961 132.459 98.0421 132.459 98.5491C132.459 98.5871 132.444 98.6211 132.414 98.6511C132.391 98.6741 132.361 98.6851 132.323 98.6851L131.279 98.7421C131.188 98.7421 131.142 98.7011 131.142 98.6171C131.142 98.1711 131.002 97.8111 130.722 97.5391C130.45 97.2671 130.083 97.1301 129.621 97.1301C129.16 97.1301 128.789 97.2671 128.509 97.5391C128.229 97.8111 128.089 98.1711 128.089 98.6171V101.512C128.089 101.95 128.229 102.306 128.509 102.578C128.789 102.851 129.16 102.987 129.621 102.987C130.083 102.987 130.45 102.855 130.722 102.59C131.002 102.317 131.142 101.958 131.142 101.512C131.142 101.428 131.188 101.387 131.279 101.387L132.323 101.432C132.361 101.432 132.391 101.443 132.414 101.466C132.444 101.489 132.459 101.515 132.459 101.546C132.459 102.06 132.342 102.514 132.107 102.908C131.872 103.294 131.54 103.592 131.108 103.804C130.677 104.016 130.181 104.122 129.621 104.122ZM136.447 98.1631C136.689 98.1631 136.901 98.2131 137.083 98.3111C137.143 98.3411 137.166 98.3981 137.151 98.4811L136.958 99.5031C136.95 99.5931 136.897 99.6201 136.799 99.5821C136.686 99.5441 136.553 99.5251 136.402 99.5251C136.304 99.5251 136.228 99.5291 136.175 99.5371C135.857 99.5521 135.592 99.6651 135.38 99.8771C135.169 100.081 135.063 100.35 135.063 100.683V103.895C135.063 103.933 135.047 103.967 135.017 103.997C134.994 104.02 134.964 104.031 134.926 104.031H133.882C133.844 104.031 133.81 104.02 133.78 103.997C133.757 103.967 133.746 103.933 133.746 103.895V98.3681C133.746 98.3301 133.757 98.3001 133.78 98.2771C133.81 98.2471 133.844 98.2311 133.882 98.2311H134.926C134.964 98.2311 134.994 98.2471 135.017 98.2771C135.047 98.3001 135.063 98.3301 135.063 98.3681V98.8781C135.063 98.9091 135.066 98.9281 135.074 98.9351C135.089 98.9351 135.104 98.9241 135.119 98.9011C135.437 98.4091 135.88 98.1631 136.447 98.1631ZM142.794 100.479C142.825 100.668 142.84 100.88 142.84 101.114L142.828 101.466C142.828 101.557 142.783 101.602 142.692 101.602H139.14C139.102 101.602 139.083 101.621 139.083 101.659C139.106 101.909 139.14 102.079 139.185 102.17C139.367 102.715 139.809 102.991 140.513 102.998C141.028 102.998 141.436 102.787 141.739 102.363C141.769 102.317 141.807 102.295 141.852 102.295C141.883 102.295 141.909 102.306 141.932 102.329L142.635 102.908C142.704 102.961 142.715 103.021 142.669 103.089C142.435 103.422 142.121 103.679 141.727 103.861C141.342 104.043 140.91 104.133 140.434 104.133C139.843 104.133 139.34 104.001 138.924 103.736C138.515 103.471 138.216 103.101 138.027 102.624C137.853 102.215 137.766 101.648 137.766 100.921C137.766 100.483 137.812 100.127 137.902 99.8541C138.054 99.3251 138.338 98.9091 138.754 98.6061C139.177 98.2961 139.684 98.1411 140.275 98.1411C141.765 98.1411 142.605 98.9201 142.794 100.479ZM140.275 99.2761C139.995 99.2761 139.76 99.3481 139.571 99.4911C139.389 99.6271 139.261 99.8201 139.185 100.07C139.14 100.199 139.109 100.365 139.094 100.57C139.079 100.607 139.094 100.626 139.14 100.626H141.444C141.482 100.626 141.5 100.607 141.5 100.57C141.485 100.38 141.463 100.237 141.432 100.138C141.364 99.8661 141.228 99.6541 141.024 99.5031C140.827 99.3511 140.577 99.2761 140.275 99.2761ZM146.201 98.1411C146.678 98.1411 147.097 98.2241 147.461 98.3901C147.824 98.5571 148.104 98.7881 148.301 99.0831C148.497 99.3701 148.596 99.6991 148.596 100.07V103.895C148.596 103.933 148.581 103.967 148.55 103.997C148.528 104.02 148.497 104.031 148.459 104.031H147.415C147.377 104.031 147.343 104.02 147.313 103.997C147.29 103.967 147.279 103.933 147.279 103.895V103.532C147.279 103.509 147.272 103.498 147.256 103.498C147.241 103.49 147.226 103.494 147.211 103.509C146.84 103.918 146.303 104.122 145.599 104.122C145.032 104.122 144.563 103.978 144.192 103.691C143.829 103.403 143.647 102.976 143.647 102.408C143.647 101.818 143.851 101.36 144.26 101.035C144.676 100.702 145.259 100.535 146.008 100.535H147.222C147.26 100.535 147.279 100.517 147.279 100.479V100.206C147.279 99.9111 147.192 99.6841 147.018 99.5251C146.844 99.3591 146.583 99.2761 146.235 99.2761C145.947 99.2761 145.713 99.3291 145.531 99.4351C145.357 99.5331 145.247 99.6731 145.202 99.8541C145.179 99.9451 145.126 99.9831 145.043 99.9681L143.942 99.8321C143.904 99.8241 143.87 99.8131 143.84 99.7981C143.817 99.7751 143.81 99.7491 143.817 99.7181C143.878 99.2571 144.124 98.8781 144.555 98.5831C144.994 98.2881 145.543 98.1411 146.201 98.1411ZM145.928 103.078C146.299 103.078 146.617 102.98 146.882 102.783C147.147 102.586 147.279 102.336 147.279 102.034V101.5C147.279 101.462 147.26 101.443 147.222 101.443H146.269C145.868 101.443 145.55 101.519 145.316 101.67C145.089 101.822 144.975 102.037 144.975 102.317C144.975 102.56 145.062 102.749 145.236 102.885C145.418 103.014 145.648 103.078 145.928 103.078ZM152.905 99.1621C152.905 99.2001 152.89 99.2341 152.859 99.2641C152.837 99.2871 152.806 99.2981 152.768 99.2981H151.611C151.573 99.2981 151.554 99.3171 151.554 99.3551V102.09C151.554 102.378 151.615 102.586 151.736 102.715C151.864 102.843 152.065 102.908 152.337 102.908H152.678C152.716 102.908 152.746 102.923 152.768 102.953C152.799 102.976 152.814 103.006 152.814 103.044V103.895C152.814 103.978 152.768 104.027 152.678 104.043L152.087 104.054C151.49 104.054 151.043 103.952 150.748 103.748C150.453 103.543 150.302 103.157 150.294 102.59V99.3551C150.294 99.3171 150.275 99.2981 150.237 99.2981H149.59C149.553 99.2981 149.519 99.2871 149.488 99.2641C149.466 99.2341 149.454 99.2001 149.454 99.1621V98.3681C149.454 98.3301 149.466 98.3001 149.488 98.2771C149.519 98.2471 149.553 98.2311 149.59 98.2311H150.237C150.275 98.2311 150.294 98.2131 150.294 98.1751V96.8471C150.294 96.8091 150.306 96.7791 150.328 96.7561C150.359 96.7261 150.393 96.7111 150.43 96.7111H151.418C151.456 96.7111 151.486 96.7261 151.509 96.7561C151.539 96.7791 151.554 96.8091 151.554 96.8471V98.1751C151.554 98.2131 151.573 98.2311 151.611 98.2311H152.768C152.806 98.2311 152.837 98.2471 152.859 98.2771C152.89 98.3001 152.905 98.3301 152.905 98.3681V99.1621ZM154.823 97.4371C154.589 97.4371 154.396 97.3611 154.244 97.2101C154.093 97.0591 154.017 96.8661 154.017 96.6311C154.017 96.3971 154.093 96.2041 154.244 96.0521C154.396 95.9011 154.589 95.8251 154.823 95.8251C155.058 95.8251 155.251 95.9011 155.402 96.0521C155.553 96.2041 155.629 96.3971 155.629 96.6311C155.629 96.8661 155.553 97.0591 155.402 97.2101C155.251 97.3611 155.058 97.4371 154.823 97.4371ZM154.278 104.031C154.24 104.031 154.206 104.02 154.176 103.997C154.153 103.967 154.142 103.933 154.142 103.895V98.3561C154.142 98.3181 154.153 98.2881 154.176 98.2651C154.206 98.2351 154.24 98.2201 154.278 98.2201H155.323C155.36 98.2201 155.391 98.2351 155.413 98.2651C155.444 98.2881 155.459 98.3181 155.459 98.3561V103.895C155.459 103.933 155.444 103.967 155.413 103.997C155.391 104.02 155.36 104.031 155.323 104.031H154.278ZM158.533 104.031C158.458 104.031 158.408 103.993 158.386 103.918L156.558 98.3791C156.551 98.3641 156.547 98.3451 156.547 98.3221C156.547 98.2541 156.589 98.2201 156.672 98.2201H157.83C157.913 98.2201 157.966 98.2581 157.988 98.3341L159.089 102.124C159.097 102.147 159.108 102.159 159.123 102.159C159.139 102.159 159.15 102.147 159.157 102.124L160.258 98.3341C160.281 98.2581 160.334 98.2201 160.417 98.2201L161.575 98.2431C161.62 98.2431 161.654 98.2581 161.677 98.2881C161.7 98.3111 161.704 98.3491 161.689 98.4021L159.873 103.918C159.85 103.993 159.801 104.031 159.725 104.031H158.533ZM167.268 100.479C167.298 100.668 167.313 100.88 167.313 101.114L167.302 101.466C167.302 101.557 167.256 101.602 167.166 101.602H163.613C163.575 101.602 163.556 101.621 163.556 101.659C163.579 101.909 163.613 102.079 163.658 102.17C163.84 102.715 164.283 102.991 164.986 102.998C165.501 102.998 165.91 102.787 166.212 102.363C166.242 102.317 166.28 102.295 166.326 102.295C166.356 102.295 166.382 102.306 166.405 102.329L167.109 102.908C167.177 102.961 167.188 103.021 167.143 103.089C166.908 103.422 166.594 103.679 166.201 103.861C165.815 104.043 165.384 104.133 164.907 104.133C164.317 104.133 163.814 104.001 163.397 103.736C162.989 103.471 162.69 103.101 162.501 102.624C162.327 102.215 162.24 101.648 162.24 100.921C162.24 100.483 162.285 100.127 162.376 99.8541C162.527 99.3251 162.811 98.9091 163.227 98.6061C163.651 98.2961 164.158 98.1411 164.748 98.1411C166.239 98.1411 167.079 98.9201 167.268 100.479ZM164.748 99.2761C164.468 99.2761 164.234 99.3481 164.044 99.4911C163.863 99.6271 163.734 99.8201 163.658 100.07C163.613 100.199 163.583 100.365 163.568 100.57C163.553 100.607 163.568 100.626 163.613 100.626H165.917C165.955 100.626 165.974 100.607 165.974 100.57C165.959 100.38 165.936 100.237 165.906 100.138C165.838 99.8661 165.701 99.6541 165.497 99.5031C165.3 99.3511 165.051 99.2761 164.748 99.2761ZM176.293 97.0851C176.293 97.1231 176.278 97.1571 176.248 97.1871C176.225 97.2101 176.195 97.2211 176.157 97.2211H172.287C172.249 97.2211 172.23 97.2401 172.23 97.2781V99.4001C172.23 99.4381 172.249 99.4571 172.287 99.4571H174.886C174.924 99.4571 174.954 99.4721 174.977 99.5031C175.007 99.5251 175.022 99.5561 175.022 99.5931V100.456C175.022 100.494 175.007 100.528 174.977 100.558C174.954 100.581 174.924 100.592 174.886 100.592H172.287C172.249 100.592 172.23 100.611 172.23 100.649V102.84C172.23 102.877 172.249 102.896 172.287 102.896H176.157C176.195 102.896 176.225 102.911 176.248 102.942C176.278 102.964 176.293 102.995 176.293 103.032V103.895C176.293 103.933 176.278 103.967 176.248 103.997C176.225 104.02 176.195 104.031 176.157 104.031H171.05C171.012 104.031 170.978 104.02 170.948 103.997C170.925 103.967 170.914 103.933 170.914 103.895V96.2221C170.914 96.1851 170.925 96.1541 170.948 96.1321C170.978 96.1011 171.012 96.0861 171.05 96.0861H176.157C176.195 96.0861 176.225 96.1011 176.248 96.1321C176.278 96.1541 176.293 96.1851 176.293 96.2221V97.0851ZM179.923 104.122C179.34 104.122 178.837 103.975 178.414 103.679C177.99 103.377 177.695 102.972 177.528 102.465C177.407 102.124 177.347 101.67 177.347 101.103C177.347 100.558 177.407 100.112 177.528 99.7641C177.687 99.2641 177.978 98.8711 178.402 98.5831C178.833 98.2881 179.34 98.1411 179.923 98.1411C180.513 98.1411 181.028 98.2881 181.467 98.5831C181.906 98.8781 182.197 99.2491 182.341 99.6961C182.378 99.8171 182.405 99.9381 182.42 100.059V100.081C182.42 100.157 182.378 100.203 182.295 100.218L181.274 100.365H181.251C181.183 100.365 181.138 100.327 181.115 100.252C181.115 100.214 181.111 100.184 181.103 100.161C181.088 100.1 181.073 100.047 181.058 100.002C180.99 99.7901 180.854 99.6161 180.649 99.4801C180.445 99.3441 180.203 99.2761 179.923 99.2761C179.636 99.2761 179.39 99.3511 179.185 99.5031C178.989 99.6461 178.856 99.8471 178.788 100.104C178.712 100.346 178.675 100.683 178.675 101.114C178.675 101.53 178.709 101.867 178.777 102.124C178.852 102.389 178.989 102.601 179.185 102.76C179.382 102.911 179.628 102.987 179.923 102.987C180.211 102.987 180.457 102.915 180.661 102.771C180.873 102.62 181.009 102.42 181.069 102.17C181.077 102.155 181.081 102.136 181.081 102.113C181.088 102.106 181.092 102.094 181.092 102.079C181.115 101.988 181.168 101.95 181.251 101.966L182.273 102.124C182.31 102.132 182.341 102.151 182.363 102.181C182.394 102.204 182.405 102.238 182.397 102.283C182.375 102.404 182.356 102.491 182.341 102.544C182.197 103.029 181.906 103.415 181.467 103.702C181.028 103.982 180.513 104.122 179.923 104.122ZM185.943 104.122C185.345 104.122 184.83 103.971 184.399 103.668C183.975 103.365 183.677 102.945 183.503 102.408C183.374 102 183.31 101.568 183.31 101.114C183.31 100.63 183.37 100.199 183.491 99.8201C183.665 99.2911 183.968 98.8781 184.399 98.5831C184.83 98.2881 185.349 98.1411 185.954 98.1411C186.529 98.1411 187.025 98.2881 187.441 98.5831C187.865 98.8781 188.164 99.2871 188.338 99.8091C188.474 100.172 188.542 100.604 188.542 101.103C188.542 101.58 188.478 102.011 188.349 102.397C188.175 102.934 187.876 103.358 187.452 103.668C187.029 103.971 186.525 104.122 185.943 104.122ZM185.943 102.987C186.223 102.987 186.461 102.908 186.658 102.749C186.862 102.59 187.01 102.367 187.1 102.079C187.176 101.829 187.214 101.512 187.214 101.126C187.214 100.717 187.176 100.399 187.1 100.172C187.017 99.8851 186.873 99.6651 186.669 99.5141C186.465 99.3551 186.215 99.2761 185.92 99.2761C185.64 99.2761 185.398 99.3551 185.194 99.5141C184.989 99.6651 184.842 99.8851 184.751 100.172C184.675 100.437 184.638 100.755 184.638 101.126C184.638 101.496 184.675 101.814 184.751 102.079C184.834 102.367 184.978 102.59 185.182 102.749C185.394 102.908 185.648 102.987 185.943 102.987ZM192.567 98.1411C193.18 98.1411 193.668 98.3221 194.032 98.6851C194.402 99.0491 194.588 99.5441 194.588 100.172V103.895C194.588 103.933 194.573 103.967 194.542 103.997C194.52 104.02 194.489 104.031 194.451 104.031H193.407C193.369 104.031 193.335 104.02 193.305 103.997C193.282 103.967 193.271 103.933 193.271 103.895V100.445C193.271 100.097 193.173 99.8171 192.976 99.6051C192.779 99.3851 192.518 99.2761 192.193 99.2761C191.867 99.2761 191.603 99.3821 191.398 99.5931C191.202 99.8051 191.103 100.085 191.103 100.433V103.895C191.103 103.933 191.088 103.967 191.058 103.997C191.035 104.02 191.005 104.031 190.967 104.031H189.923C189.885 104.031 189.851 104.02 189.821 103.997C189.798 103.967 189.787 103.933 189.787 103.895V98.3681C189.787 98.3301 189.798 98.3001 189.821 98.2771C189.851 98.2471 189.885 98.2311 189.923 98.2311H190.967C191.005 98.2311 191.035 98.2471 191.058 98.2771C191.088 98.3001 191.103 98.3301 191.103 98.3681V98.7311C191.103 98.7541 191.111 98.7691 191.126 98.7761C191.141 98.7841 191.152 98.7761 191.16 98.7541C191.47 98.3451 191.939 98.1411 192.567 98.1411ZM198.379 104.122C197.781 104.122 197.267 103.971 196.835 103.668C196.412 103.365 196.113 102.945 195.939 102.408C195.81 102 195.746 101.568 195.746 101.114C195.746 100.63 195.806 100.199 195.927 99.8201C196.101 99.2911 196.404 98.8781 196.835 98.5831C197.267 98.2881 197.785 98.1411 198.39 98.1411C198.965 98.1411 199.461 98.2881 199.877 98.5831C200.301 98.8781 200.6 99.2871 200.774 99.8091C200.91 100.172 200.978 100.604 200.978 101.103C200.978 101.58 200.914 102.011 200.785 102.397C200.611 102.934 200.312 103.358 199.889 103.668C199.465 103.971 198.962 104.122 198.379 104.122ZM198.379 102.987C198.659 102.987 198.897 102.908 199.094 102.749C199.298 102.59 199.446 102.367 199.537 102.079C199.612 101.829 199.65 101.512 199.65 101.126C199.65 100.717 199.612 100.399 199.537 100.172C199.453 99.8851 199.31 99.6651 199.105 99.5141C198.901 99.3551 198.651 99.2761 198.356 99.2761C198.076 99.2761 197.834 99.3551 197.63 99.5141C197.426 99.6651 197.278 99.8851 197.187 100.172C197.112 100.437 197.074 100.755 197.074 101.126C197.074 101.496 197.112 101.814 197.187 102.079C197.27 102.367 197.414 102.59 197.619 102.749C197.83 102.908 198.084 102.987 198.379 102.987ZM208.431 98.1411C209.014 98.1411 209.468 98.3181 209.793 98.6741C210.126 99.0221 210.293 99.5101 210.293 100.138V103.895C210.293 103.933 210.278 103.967 210.247 103.997C210.225 104.02 210.194 104.031 210.156 104.031H209.124C209.086 104.031 209.052 104.02 209.021 103.997C208.999 103.967 208.987 103.933 208.987 103.895V100.411C208.987 100.063 208.893 99.7861 208.704 99.5821C208.522 99.3781 208.276 99.2761 207.966 99.2761C207.656 99.2761 207.402 99.3781 207.205 99.5821C207.009 99.7861 206.91 100.059 206.91 100.399V103.895C206.91 103.933 206.895 103.967 206.865 103.997C206.842 104.02 206.812 104.031 206.774 104.031H205.741C205.704 104.031 205.669 104.02 205.639 103.997C205.616 103.967 205.605 103.933 205.605 103.895V100.411C205.605 100.063 205.511 99.7861 205.321 99.5821C205.132 99.3781 204.883 99.2761 204.572 99.2761C204.285 99.2761 204.046 99.3591 203.857 99.5251C203.676 99.6921 203.57 99.9191 203.539 100.206V103.895C203.539 103.933 203.524 103.967 203.494 103.997C203.471 104.02 203.441 104.031 203.403 104.031H202.359C202.321 104.031 202.287 104.02 202.257 103.997C202.234 103.967 202.223 103.933 202.223 103.895V98.3681C202.223 98.3301 202.234 98.3001 202.257 98.2771C202.287 98.2471 202.321 98.2311 202.359 98.2311H203.403C203.441 98.2311 203.471 98.2471 203.494 98.2771C203.524 98.3001 203.539 98.3301 203.539 98.3681V98.7421C203.539 98.7651 203.547 98.7801 203.562 98.7881C203.577 98.7951 203.592 98.7881 203.608 98.7651C203.774 98.5531 203.978 98.3981 204.22 98.3001C204.47 98.1941 204.746 98.1411 205.049 98.1411C205.42 98.1411 205.745 98.2161 206.025 98.3681C206.305 98.5191 206.521 98.7381 206.672 99.0261C206.695 99.0561 206.721 99.0561 206.751 99.0261C206.918 98.7231 207.149 98.5001 207.444 98.3561C207.739 98.2131 208.068 98.1411 208.431 98.1411ZM211.32 106.29C211.297 106.29 211.279 106.275 211.263 106.245C211.248 106.222 211.241 106.192 211.241 106.154V105.337C211.241 105.299 211.252 105.265 211.275 105.234C211.305 105.212 211.339 105.2 211.377 105.2H211.388C211.698 105.193 211.941 105.159 212.115 105.098C212.289 105.045 212.432 104.939 212.546 104.78C212.659 104.621 212.762 104.383 212.852 104.065C212.86 104.05 212.86 104.027 212.852 103.997L210.98 98.3791C210.972 98.3641 210.968 98.3451 210.968 98.3221C210.968 98.2541 211.006 98.2201 211.082 98.2201H212.194C212.277 98.2201 212.33 98.2581 212.353 98.3341L213.488 102.329C213.496 102.351 213.507 102.363 213.522 102.363C213.537 102.363 213.549 102.351 213.556 102.329L214.691 98.3341C214.714 98.2581 214.767 98.2201 214.85 98.2201H215.928C215.974 98.2201 216.004 98.2351 216.019 98.2651C216.042 98.2881 216.046 98.3261 216.03 98.3791L214.033 104.349C213.844 104.886 213.658 105.287 213.477 105.552C213.295 105.817 213.045 106.006 212.728 106.12C212.417 106.233 211.975 106.29 211.4 106.29H211.32Z" fill="white"/>
<path d="M227.865 103.712C227.703 103.712 227.622 103.631 227.622 103.468V102.464C227.622 102.352 227.662 102.256 227.743 102.174C228.22 101.667 229.017 100.764 230.133 99.4646L231.108 98.3376C232.041 97.2516 232.508 96.4296 232.508 95.8716C232.508 95.4556 232.361 95.1156 232.067 94.8516C231.772 94.5876 231.392 94.4556 230.925 94.4556C230.458 94.4556 230.078 94.5876 229.783 94.8516C229.499 95.1156 229.357 95.4656 229.357 95.9016V96.2366C229.357 96.3996 229.276 96.4806 229.113 96.4806H227.819C227.657 96.4806 227.576 96.3996 227.576 96.2366V95.6436C227.596 95.0956 227.753 94.6186 228.048 94.2126C228.342 93.8066 228.738 93.4916 229.235 93.2686C229.743 93.0446 230.306 92.9336 230.925 92.9336C231.605 92.9336 232.199 93.0606 232.706 93.3136C233.214 93.5676 233.604 93.9176 233.878 94.3646C234.152 94.8006 234.289 95.2926 234.289 95.8406C234.289 96.6736 233.848 97.6326 232.965 98.7186C232.64 99.1346 232.254 99.5966 231.808 100.104C231.361 100.611 230.915 101.114 230.468 101.611L230.042 102.083C230.012 102.114 230.001 102.139 230.012 102.159C230.022 102.179 230.047 102.19 230.088 102.19H234.289C234.452 102.19 234.533 102.271 234.533 102.433V103.468C234.533 103.631 234.452 103.712 234.289 103.712H227.865ZM239.553 103.879C238.488 103.879 237.64 103.58 237.011 102.981C236.392 102.372 236.082 101.555 236.082 100.53V96.2366C236.082 95.2216 236.392 94.4206 237.011 93.8316C237.64 93.2326 238.488 92.9336 239.553 92.9336C240.619 92.9336 241.466 93.2326 242.096 93.8316C242.735 94.4206 243.055 95.2216 243.055 96.2366V100.53C243.055 101.555 242.735 102.372 242.096 102.981C241.466 103.58 240.619 103.879 239.553 103.879ZM239.553 102.342C240.081 102.342 240.502 102.19 240.817 101.885C241.131 101.571 241.289 101.149 241.289 100.622V96.1756C241.289 95.6486 241.131 95.2326 240.817 94.9276C240.502 94.6126 240.081 94.4556 239.553 94.4556C239.036 94.4556 238.62 94.6126 238.305 94.9276C238.001 95.2326 237.848 95.6486 237.848 96.1756V100.622C237.848 101.149 238.001 101.571 238.305 101.885C238.62 102.19 239.036 102.342 239.553 102.342ZM244.902 103.712C244.74 103.712 244.659 103.631 244.659 103.468V102.464C244.659 102.352 244.699 102.256 244.78 102.174C245.257 101.667 246.054 100.764 247.17 99.4646L248.145 98.3376C249.078 97.2516 249.545 96.4296 249.545 95.8716C249.545 95.4556 249.398 95.1156 249.104 94.8516C248.809 94.5876 248.429 94.4556 247.962 94.4556C247.495 94.4556 247.115 94.5876 246.82 94.8516C246.536 95.1156 246.394 95.4656 246.394 95.9016V96.2366C246.394 96.3996 246.313 96.4806 246.15 96.4806H244.856C244.694 96.4806 244.613 96.3996 244.613 96.2366V95.6436C244.633 95.0956 244.791 94.6186 245.085 94.2126C245.379 93.8066 245.775 93.4916 246.272 93.2686C246.78 93.0446 247.343 92.9336 247.962 92.9336C248.642 92.9336 249.236 93.0606 249.743 93.3136C250.251 93.5676 250.641 93.9176 250.915 94.3646C251.189 94.8006 251.326 95.2926 251.326 95.8406C251.326 96.6736 250.885 97.6326 250.002 98.7186C249.677 99.1346 249.292 99.5966 248.845 100.104C248.398 100.611 247.952 101.114 247.505 101.611L247.079 102.083C247.049 102.114 247.038 102.139 247.049 102.159C247.059 102.179 247.084 102.19 247.125 102.19H251.326C251.489 102.19 251.57 102.271 251.57 102.433V103.468C251.57 103.631 251.489 103.712 251.326 103.712H244.902ZM260.168 99.3276C260.33 99.3276 260.411 99.4086 260.411 99.5706V100.667C260.411 100.83 260.33 100.911 260.168 100.911H259.62C259.559 100.911 259.528 100.941 259.528 101.002V103.468C259.528 103.631 259.447 103.712 259.285 103.712H258.006C257.844 103.712 257.763 103.631 257.763 103.468V101.002C257.763 100.941 257.732 100.911 257.671 100.911H253.104C252.942 100.911 252.861 100.83 252.861 100.667V99.7836C252.861 99.6726 252.881 99.5756 252.922 99.4946L255.784 93.2376C255.834 93.1166 255.926 93.0556 256.058 93.0556H257.412C257.554 93.0556 257.626 93.1106 257.626 93.2226L257.595 93.3446L254.931 99.2206C254.901 99.2916 254.926 99.3276 255.007 99.3276H257.671C257.732 99.3276 257.763 99.2966 257.763 99.2356V97.2416C257.763 97.0796 257.844 96.9976 258.006 96.9976H259.285C259.447 96.9976 259.528 97.0796 259.528 97.2416V99.2356C259.528 99.2966 259.559 99.3276 259.62 99.3276H260.168Z" fill="white"/>
</svg>
