<svg width="262" height="107" viewBox="0 0 262 107" fill="none" xmlns="http://www.w3.org/2000/svg">
<path d="M2.34008 39.678V2.91797H16.2001C27.0201 2.91797 32.0101 4.80797 32.0101 10.688C32.0101 13.258 30.8501 14.788 28.7001 15.678C33.3201 16.888 36.0001 19.618 36.0001 25.448C36.0001 35.058 28.8601 39.628 16.5201 39.678V24.028C21.8201 24.028 23.9201 22.608 23.9201 20.718C23.9201 19.138 22.8201 16.888 20.0301 16.888H14.4101V36.058L4.54008 39.678H2.33008H2.34008ZM16.5701 14.788C18.8301 14.788 19.9301 12.268 19.9301 9.53797C19.9301 6.22797 18.4101 5.01797 15.9901 5.01797H14.4201V14.788H16.5701Z" fill="#151515"/>
<path d="M39.1504 26.5509C39.1504 18.2009 44.4504 12.6309 52.3804 12.6309C60.3104 12.6309 65.6104 17.2009 65.6104 21.6109C65.6104 24.6609 60.9404 25.9709 56.0004 26.5509L50.9104 27.1809C51.3304 29.8609 52.4804 32.0609 55.5304 32.0609C57.8904 32.0609 59.5204 31.4309 62.9304 29.6409L67.4504 36.9409C62.7804 40.0909 59.4704 40.4609 54.8004 40.4609C44.7704 40.4609 39.1504 34.8909 39.1504 26.5409V26.5509ZM51.8504 24.8709C53.5804 24.6109 54.0604 22.9309 54.0604 20.4109C54.0604 17.8909 53.5404 14.7409 52.3804 14.7409C50.7004 14.7409 50.7004 20.4609 50.7004 23.4009C50.7004 23.9309 50.7004 24.5009 50.7504 25.0309L51.8504 24.8709Z" fill="#151515"/>
<path d="M80.2102 52.2306C75.7502 52.2306 73.2802 51.7006 69.8102 49.7106L73.3801 42.4106C76.0101 43.4606 80.1001 43.8306 82.5201 43.8306C86.1401 43.8306 88.7201 41.8906 89.7701 39.6306C82.7901 39.2106 78.9002 37.3706 76.0602 30.4406L72.0702 20.6706C70.8602 17.6806 69.7102 15.3106 66.6602 12.6406C76.3202 12.6406 79.7302 12.7506 82.6202 19.7806L85.0901 25.8206C86.7201 29.7606 89.1901 30.7606 95.3801 30.7606V39.7906C95.3801 46.7706 89.3401 52.2306 80.2001 52.2306H80.2102Z" fill="#151515"/>
<path d="M91.1796 12.6406C94.7996 12.6406 97.2197 15.1106 97.2197 18.6806C97.2197 22.2506 94.7996 24.7206 91.1796 24.7206C87.5596 24.7206 85.1396 22.3006 85.1396 18.6806C85.1396 15.0606 87.6096 12.6406 91.1796 12.6406Z" fill="black"/>
<path d="M157.24 39.6809H145.69V29.4909C145.69 21.0909 145.06 15.1509 143.85 15.1509C142.43 15.1509 141.43 18.3509 141.33 24.5509V39.6709H129.78V13.4209H131.88L140.75 16.8309C142.01 13.4209 144.06 12.6309 146.21 12.6309C153.77 12.6309 157.24 18.6709 157.24 27.5409V39.6709V39.6809Z" fill="#151515"/>
<path d="M177.77 36.319C176.51 39.729 174.2 40.469 170.79 40.469C163.91 40.469 160.39 34.899 160.39 26.549C160.39 18.199 163.91 12.629 170.79 12.629C173.68 12.629 175.78 13.209 177.09 15.469V0.289062H188.64V39.669H186.54L177.77 36.309V36.319ZM174.57 32.069C176.04 32.069 177.09 28.659 177.09 23.719C177.09 18.779 176.04 15.419 174.57 15.419C172.99 15.419 171.94 18.779 171.94 23.769C171.94 28.759 172.99 32.069 174.57 32.069Z" fill="#151515"/>
<path d="M0 49.7502H28.51V60.2502H16.75C14.96 62.3502 14.7 63.5002 14.7 66.5502C14.7 69.0202 16.59 71.6402 19.32 71.6402C21.26 71.6402 22.21 71.1702 24.2 69.5902L27.09 83.7102C23.21 86.4402 21.89 87.2802 17.27 87.2802C8.29 87.2802 2.68 80.8202 2.68 73.0502C2.68 63.8102 10.87 60.2402 14.7 60.2402H0V49.7402V49.7502Z" fill="#151515"/>
<path d="M87.5196 86.5009H75.9696V73.2209C75.9696 64.8209 75.4396 61.9909 74.4996 61.9909C73.3996 61.9909 72.6596 65.4009 72.6096 71.9609V86.5009H61.0596V60.2509H63.1596L71.9296 63.6109C73.0296 60.2509 74.9696 59.4609 77.5496 59.4609C82.1196 59.4609 84.8996 61.0909 86.3696 64.8709C87.2596 60.4609 89.1496 59.4609 92.2996 59.4609C98.0196 59.4609 102.43 62.3509 102.43 72.2709V86.5009H90.8796V73.2209C90.8796 64.8209 90.3596 61.9909 89.4096 61.9909C88.1996 61.9909 87.4696 65.8709 87.5196 73.3809V86.5109V86.5009Z" fill="#151515"/>
<path d="M146.53 63.8709V86.5009H134.98V60.2509H137.08L146.53 63.8709ZM154.15 59.4609C157.77 59.4609 160.19 61.9309 160.19 65.5009C160.19 69.0709 157.77 71.5409 154.15 71.5409C150.53 71.5409 148.11 69.1209 148.11 65.5009C148.11 61.8809 150.58 59.4609 154.15 59.4609Z" fill="#151515"/>
<path d="M173.83 63.8709V86.5009H162.28V60.2509H164.38L173.83 63.8709ZM181.45 59.4609C185.07 59.4609 187.49 61.9309 187.49 65.5009C187.49 69.0709 185.07 71.5409 181.45 71.5409C177.83 71.5409 175.41 69.1209 175.41 65.5009C175.41 61.8809 177.88 59.4609 181.45 59.4609Z" fill="#151515"/>
<path d="M226.6 79.9909L222.09 68.7009C220.73 65.2309 219.41 62.6109 216.1 59.4609C226.13 59.4609 229.7 59.5709 232.69 67.0709L237.05 78.0409C238.47 81.6109 241.14 85.1809 245.66 87.2809C235.11 87.2809 229.44 87.0709 226.6 79.9809V79.9909Z" fill="#591CBC"/>
<path d="M240.77 79.9909L236.26 68.7009C234.9 65.2309 233.58 62.6109 230.27 59.4609C240.3 59.4609 243.87 59.5709 246.86 67.0709L249.43 73.5309C251.43 78.4609 254.79 78.2509 258.99 78.2509L260.83 87.2809C250.28 87.2809 243.61 87.0709 240.77 79.9809V79.9909Z" fill="#11A24A"/>
<path d="M255.21 59.4609C258.83 59.4609 261.25 61.9309 261.25 65.5009C261.25 69.0709 258.83 71.5409 255.21 71.5409C251.59 71.5409 249.17 69.1209 249.17 65.5009C249.17 61.8809 251.64 59.4609 255.21 59.4609Z" fill="#F15A29"/>
<path d="M202.71 59.4609C194.83 59.4609 189.58 65.0209 189.58 73.3709C189.58 81.7209 194.83 87.2809 202.71 87.2809C210.59 87.2809 215.83 81.7109 215.83 73.3709C215.83 65.0309 210.58 59.4609 202.71 59.4609ZM202.26 79.4109C198.69 79.4109 196.22 76.9909 196.22 73.3709C196.22 69.7509 198.69 67.3309 202.26 67.3309C205.83 67.3309 208.3 69.8009 208.3 73.3709C208.3 76.9409 205.88 79.4109 202.26 79.4109Z" fill="#151515"/>
<path d="M113.5 12.6406C105.62 12.6406 100.37 18.2106 100.37 26.5606C100.37 34.9106 105.62 40.4806 113.5 40.4806C121.38 40.4806 126.63 34.9106 126.63 26.5606C126.63 18.2106 121.38 12.6406 113.5 12.6406ZM113.5 32.5906C109.93 32.5906 107.46 30.1706 107.46 26.5506C107.46 22.9306 109.93 20.5106 113.5 20.5106C117.07 20.5106 119.54 22.9806 119.54 26.5506C119.54 30.1206 117.12 32.5906 113.5 32.5906Z" fill="#151515"/>
<path d="M44.7804 59.4609C36.9004 59.4609 31.6504 65.0209 31.6504 73.3709C31.6504 81.7209 36.9004 87.2809 44.7804 87.2809C52.6604 87.2809 57.9004 81.7109 57.9004 73.3709C57.9004 65.0309 52.6504 59.4609 44.7804 59.4609ZM44.7804 79.4109C41.2104 79.4109 38.7404 76.9909 38.7404 73.3709C38.7404 69.7509 41.2104 67.3309 44.7804 67.3309C48.3504 67.3309 50.8204 69.8009 50.8204 73.3709C50.8204 76.9409 48.4004 79.4109 44.7804 79.4109Z" fill="#151515"/>
<path d="M118.71 59.4609C110.83 59.4609 105.58 65.0209 105.58 73.3709C105.58 81.7209 110.83 87.2809 118.71 87.2809C126.59 87.2809 131.83 81.7109 131.83 73.3709C131.83 65.0309 126.58 59.4609 118.71 59.4609ZM118.71 79.4109C115.14 79.4109 112.67 76.9909 112.67 73.3709C112.67 69.7509 115.14 67.3309 118.71 67.3309C122.28 67.3309 124.75 69.8009 124.75 73.3709C124.75 76.9409 122.33 79.4109 118.71 79.4109Z" fill="#151515"/>
<path d="M4.29388 104.121C3.69489 104.121 3.1727 104.025 2.7273 103.833C2.28189 103.641 1.93632 103.373 1.69059 103.027C1.45253 102.682 1.3335 102.275 1.3335 101.806V101.518C1.3335 101.48 1.34502 101.449 1.36805 101.426C1.39877 101.395 1.43333 101.38 1.47172 101.38H2.49692C2.53531 101.38 2.56603 101.395 2.58907 101.426C2.61978 101.449 2.63514 101.48 2.63514 101.518V101.737C2.63514 102.09 2.79257 102.386 3.10742 102.624C3.42227 102.854 3.85232 102.97 4.39755 102.97C4.86599 102.97 5.21924 102.87 5.4573 102.67C5.69536 102.47 5.81438 102.213 5.81438 101.898C5.81438 101.683 5.74911 101.503 5.61856 101.357C5.48801 101.203 5.29987 101.065 5.05413 100.942C4.81607 100.819 4.45514 100.666 3.97135 100.481C3.42611 100.282 2.98455 100.094 2.64666 99.9172C2.30877 99.7402 2.02464 99.5022 1.79426 99.2032C1.57156 98.8962 1.46021 98.5162 1.46021 98.0622C1.46021 97.3872 1.70594 96.8532 2.19742 96.4612C2.6889 96.0702 3.34548 95.8742 4.16717 95.8742C4.74312 95.8742 5.24995 95.9742 5.68768 96.1732C6.13308 96.3732 6.47865 96.6532 6.72439 97.0142C6.97012 97.3672 7.09299 97.7782 7.09299 98.2472V98.4432C7.09299 98.4812 7.07763 98.5162 7.04692 98.5462C7.02388 98.5692 6.99316 98.5812 6.95477 98.5812H5.91806C5.87966 98.5812 5.8451 98.5692 5.81438 98.5462C5.79135 98.5162 5.77983 98.4812 5.77983 98.4432V98.3162C5.77983 97.9552 5.63008 97.6522 5.33059 97.4062C5.03877 97.1522 4.63177 97.0262 4.10957 97.0262C3.68721 97.0262 3.357 97.1142 3.11894 97.2912C2.88856 97.4672 2.77337 97.7172 2.77337 98.0392C2.77337 98.2702 2.83481 98.4582 2.95767 98.6042C3.08054 98.7502 3.26485 98.8842 3.51059 99.0072C3.75633 99.1222 4.13645 99.2722 4.65097 99.4562C5.1962 99.6642 5.63008 99.8522 5.95261 100.021C6.28282 100.19 6.56312 100.428 6.7935 100.735C7.03156 101.034 7.15059 101.411 7.15059 101.864C7.15059 102.555 6.89333 103.104 6.37882 103.511C5.87198 103.918 5.177 104.121 4.29388 104.121ZM11.1917 98.0512C11.8137 98.0512 12.309 98.2352 12.6776 98.6042C13.0539 98.9722 13.2421 99.4752 13.2421 100.113V103.891C13.2421 103.929 13.2267 103.964 13.196 103.995C13.173 104.018 13.1422 104.029 13.1038 104.029H12.0441C12.0057 104.029 11.9711 104.018 11.9404 103.995C11.9174 103.964 11.9059 103.929 11.9059 103.891V100.389C11.9059 100.036 11.806 99.7522 11.6064 99.5372C11.4067 99.3142 11.1418 99.2032 10.8116 99.2032C10.4814 99.2032 10.2126 99.3102 10.0052 99.5252C9.80557 99.7402 9.70573 100.025 9.70573 100.378V103.891C9.70573 103.929 9.69038 103.964 9.65966 103.995C9.63662 104.018 9.6059 104.029 9.56751 104.029H8.50776C8.46936 104.029 8.43481 104.018 8.40409 103.995C8.38105 103.964 8.36953 103.929 8.36953 103.891V96.1042C8.36953 96.0662 8.38105 96.0352 8.40409 96.0122C8.43481 95.9812 8.46936 95.9662 8.50776 95.9662H9.56751C9.6059 95.9662 9.63662 95.9812 9.65966 96.0122C9.69038 96.0352 9.70573 96.0662 9.70573 96.1042V98.6502C9.70573 98.6732 9.71341 98.6882 9.72877 98.6962C9.74413 98.7042 9.75565 98.6962 9.76333 98.6732C10.0782 98.2582 10.5543 98.0512 11.1917 98.0512ZM16.8814 98.0512C17.3652 98.0512 17.7914 98.1352 18.1601 98.3042C18.5287 98.4732 18.8128 98.7072 19.0125 99.0072C19.2121 99.2992 19.312 99.6332 19.312 100.009V103.891C19.312 103.929 19.2966 103.964 19.2659 103.995C19.2428 104.018 19.2121 104.029 19.1737 104.029H18.114C18.0756 104.029 18.041 104.018 18.0103 103.995C17.9873 103.964 17.9758 103.929 17.9758 103.891V103.522C17.9758 103.499 17.9681 103.488 17.9527 103.488C17.9374 103.48 17.922 103.484 17.9066 103.499C17.5303 103.914 16.9851 104.121 16.2709 104.121C15.695 104.121 15.2189 103.976 14.8426 103.684C14.474 103.392 14.2897 102.958 14.2897 102.382C14.2897 101.783 14.497 101.318 14.9117 100.988C15.3341 100.65 15.9254 100.481 16.6856 100.481H17.9182C17.9566 100.481 17.9758 100.462 17.9758 100.424V100.147C17.9758 99.8482 17.8874 99.6172 17.7108 99.4562C17.5342 99.2872 17.2693 99.2032 16.916 99.2032C16.6242 99.2032 16.3861 99.2572 16.2018 99.3642C16.0252 99.4642 15.9139 99.6062 15.8678 99.7902C15.8447 99.8822 15.791 99.9212 15.7065 99.9052L14.5892 99.7672C14.5508 99.7602 14.5162 99.7482 14.4855 99.7332C14.4625 99.7102 14.4548 99.6832 14.4625 99.6522C14.5239 99.1842 14.7735 98.8002 15.2112 98.5002C15.6566 98.2012 16.2133 98.0512 16.8814 98.0512ZM16.605 103.062C16.9813 103.062 17.3038 102.962 17.5726 102.762C17.8414 102.563 17.9758 102.309 17.9758 102.002V101.461C17.9758 101.422 17.9566 101.403 17.9182 101.403H16.9506C16.5436 101.403 16.221 101.48 15.983 101.633C15.7526 101.787 15.6374 102.006 15.6374 102.29C15.6374 102.536 15.7257 102.728 15.9023 102.866C16.0866 102.996 16.3209 103.062 16.605 103.062ZM25.6412 99.6642C25.7794 100.055 25.8485 100.535 25.8485 101.103C25.8485 101.649 25.7833 102.117 25.6527 102.509C25.4838 103.016 25.2111 103.411 24.8349 103.695C24.4663 103.979 23.9978 104.121 23.4295 104.121C22.8843 104.121 22.4466 103.926 22.1164 103.534C22.101 103.519 22.0857 103.515 22.0703 103.522C22.0549 103.53 22.0473 103.545 22.0473 103.569V106.068C22.0473 106.107 22.0319 106.137 22.0012 106.16C21.9781 106.191 21.9474 106.206 21.909 106.206H20.8493C20.8109 106.206 20.7763 106.191 20.7456 106.16C20.7226 106.137 20.7111 106.107 20.7111 106.068V98.2812C20.7111 98.2432 20.7226 98.2122 20.7456 98.1892C20.7763 98.1582 20.8109 98.1432 20.8493 98.1432H21.909C21.9474 98.1432 21.9781 98.1582 22.0012 98.1892C22.0319 98.2122 22.0473 98.2432 22.0473 98.2812V98.6272C22.0473 98.6502 22.0549 98.6652 22.0703 98.6732C22.0857 98.6812 22.101 98.6732 22.1164 98.6502C22.4543 98.2512 22.8958 98.0512 23.4411 98.0512C23.9863 98.0512 24.4471 98.1932 24.8233 98.4772C25.1996 98.7612 25.4722 99.1572 25.6412 99.6642ZM24.1437 102.486C24.3741 102.132 24.4893 101.664 24.4893 101.08C24.4893 100.52 24.3971 100.078 24.2128 99.7562C23.9978 99.3792 23.6714 99.1912 23.2337 99.1912C22.8344 99.1912 22.5349 99.3762 22.3352 99.7442C22.1586 100.044 22.0703 100.489 22.0703 101.08C22.0703 101.687 22.1663 102.148 22.3583 102.463C22.5579 102.801 22.8459 102.97 23.2222 102.97C23.6292 102.97 23.9364 102.808 24.1437 102.486ZM27.9044 97.3372C27.6663 97.3372 27.4705 97.2602 27.3169 97.1062C27.1633 96.9532 27.0866 96.7572 27.0866 96.5192C27.0866 96.2812 27.1633 96.0852 27.3169 95.9312C27.4705 95.7782 27.6663 95.7012 27.9044 95.7012C28.1425 95.7012 28.3383 95.7782 28.4919 95.9312C28.6455 96.0852 28.7223 96.2812 28.7223 96.5192C28.7223 96.7572 28.6455 96.9532 28.4919 97.1062C28.3383 97.2602 28.1425 97.3372 27.9044 97.3372ZM27.3515 104.029C27.3131 104.029 27.2785 104.018 27.2478 103.995C27.2248 103.964 27.2133 103.929 27.2133 103.891V98.2702C27.2133 98.2312 27.2248 98.2012 27.2478 98.1782C27.2785 98.1472 27.3131 98.1322 27.3515 98.1322H28.4112C28.4496 98.1322 28.4804 98.1472 28.5034 98.1782C28.5341 98.2012 28.5495 98.2312 28.5495 98.2702V103.891C28.5495 103.929 28.5341 103.964 28.5034 103.995C28.4804 104.018 28.4496 104.029 28.4112 104.029H27.3515ZM32.9023 98.0512C33.5243 98.0512 34.0196 98.2352 34.3882 98.6042C34.7645 98.9722 34.9527 99.4752 34.9527 100.113V103.891C34.9527 103.929 34.9373 103.964 34.9066 103.995C34.8836 104.018 34.8528 104.029 34.8144 104.029H33.7547C33.7163 104.029 33.6817 104.018 33.651 103.995C33.628 103.964 33.6165 103.929 33.6165 103.891V100.389C33.6165 100.036 33.5166 99.7522 33.317 99.5372C33.1173 99.3142 32.8524 99.2032 32.5222 99.2032C32.192 99.2032 31.9232 99.3102 31.7158 99.5252C31.5162 99.7402 31.4163 100.025 31.4163 100.378V103.891C31.4163 103.929 31.401 103.964 31.3703 103.995C31.3472 104.018 31.3165 104.029 31.2781 104.029H30.2184C30.18 104.029 30.1454 104.018 30.1147 103.995C30.0917 103.964 30.0801 103.929 30.0801 103.891V98.2812C30.0801 98.2432 30.0917 98.2122 30.1147 98.1892C30.1454 98.1582 30.18 98.1432 30.2184 98.1432H31.2781C31.3165 98.1432 31.3472 98.1582 31.3703 98.1892C31.401 98.2122 31.4163 98.2432 31.4163 98.2812V98.6502C31.4163 98.6732 31.424 98.6882 31.4394 98.6962C31.4547 98.7042 31.4663 98.6962 31.4739 98.6732C31.7888 98.2582 32.2649 98.0512 32.9023 98.0512ZM39.9513 98.2812C39.9513 98.2432 39.9628 98.2122 39.9858 98.1892C40.0166 98.1582 40.0511 98.1432 40.0895 98.1432H41.1493C41.1877 98.1432 41.2184 98.1582 41.2414 98.1892C41.2721 98.2122 41.2875 98.2432 41.2875 98.2812V103.638C41.2875 104.598 41.011 105.281 40.4581 105.688C39.9129 106.103 39.1949 106.31 38.3041 106.31C38.066 106.31 37.8318 106.299 37.6014 106.275C37.5169 106.268 37.4747 106.218 37.4747 106.126L37.5093 105.181C37.5093 105.097 37.563 105.054 37.6705 105.054C37.8932 105.078 38.0929 105.089 38.2695 105.089C38.8455 105.089 39.2678 104.974 39.5366 104.743C39.8131 104.521 39.9513 104.141 39.9513 103.603V103.511C39.9513 103.488 39.9436 103.476 39.9282 103.476C39.9129 103.469 39.8975 103.473 39.8822 103.488C39.5673 103.826 39.1219 103.995 38.546 103.995C38.0468 103.995 37.5899 103.868 37.1752 103.615C36.7605 103.361 36.4726 102.973 36.3113 102.451C36.2115 102.09 36.1615 101.626 36.1615 101.057C36.1615 100.42 36.223 99.9322 36.3458 99.5942C36.4994 99.1262 36.7644 98.7542 37.1407 98.4772C37.5169 98.1932 37.9585 98.0512 38.4653 98.0512C39.072 98.0512 39.5443 98.2282 39.8822 98.5812C39.8975 98.6042 39.9129 98.6122 39.9282 98.6042C39.9436 98.5962 39.9513 98.5812 39.9513 98.5582V98.2812ZM39.8707 102.071C39.9014 101.956 39.9206 101.833 39.9282 101.702C39.9436 101.564 39.9513 101.345 39.9513 101.046C39.9513 100.754 39.9436 100.547 39.9282 100.424C39.9206 100.293 39.8975 100.167 39.8591 100.044C39.7977 99.7902 39.671 99.5872 39.479 99.4332C39.2947 99.2802 39.0566 99.2032 38.7648 99.2032C38.4884 99.2032 38.2542 99.2802 38.0622 99.4332C37.8702 99.5872 37.732 99.7902 37.6475 100.044C37.5553 100.259 37.5093 100.597 37.5093 101.057C37.5093 101.533 37.5477 101.868 37.6245 102.06C37.7012 102.305 37.8395 102.509 38.0391 102.67C38.2465 102.824 38.4922 102.9 38.7763 102.9C39.0758 102.9 39.3177 102.824 39.502 102.67C39.6864 102.516 39.8092 102.317 39.8707 102.071ZM45.2244 104.029C45.1866 104.029 45.1525 104.018 45.1223 103.995C45.0996 103.965 45.0882 103.931 45.0882 103.893V96.2202C45.0882 96.1832 45.0996 96.1522 45.1223 96.1302C45.1525 96.0992 45.1866 96.0842 45.2244 96.0842H46.2686C46.3064 96.0842 46.3367 96.0992 46.3594 96.1302C46.3897 96.1522 46.4048 96.1832 46.4048 96.2202V99.6142C46.4048 99.6372 46.4124 99.6522 46.4275 99.6602C46.4426 99.6672 46.4578 99.6632 46.4729 99.6482L49.4239 96.1642C49.4693 96.1112 49.5261 96.0842 49.5942 96.0842H50.7746C50.8502 96.0842 50.8881 96.1112 50.8881 96.1642C50.8881 96.1862 50.8767 96.2172 50.854 96.2552L48.2549 99.4442C48.2322 99.4742 48.2284 99.5012 48.2435 99.5232L51.0356 103.87C51.0507 103.916 51.0583 103.942 51.0583 103.95C51.0583 104.003 51.0205 104.029 50.9448 104.029H49.7531C49.685 104.029 49.632 103.999 49.5942 103.938L47.3469 100.443C47.3166 100.397 47.2901 100.393 47.2674 100.431L46.4275 101.407C46.4124 101.438 46.4048 101.464 46.4048 101.487V103.893C46.4048 103.931 46.3897 103.965 46.3594 103.995C46.3367 104.018 46.3064 104.029 46.2686 104.029H45.2244ZM56.5721 100.477C56.6024 100.666 56.6175 100.878 56.6175 101.112L56.6062 101.464C56.6062 101.555 56.5608 101.6 56.47 101.6H52.9174C52.8796 101.6 52.8607 101.619 52.8607 101.657C52.8834 101.907 52.9174 102.077 52.9628 102.168C53.1444 102.713 53.5871 102.989 54.2908 102.996C54.8053 102.996 55.2139 102.785 55.5166 102.361C55.5468 102.315 55.5847 102.293 55.6301 102.293C55.6603 102.293 55.6868 102.304 55.7095 102.327L56.4132 102.906C56.4813 102.959 56.4927 103.019 56.4473 103.087C56.2127 103.42 55.8987 103.677 55.5052 103.859C55.1193 104.041 54.688 104.131 54.2113 104.131C53.6211 104.131 53.1179 103.999 52.7018 103.734C52.2932 103.469 51.9943 103.099 51.8051 102.622C51.6311 102.213 51.5441 101.646 51.5441 100.919C51.5441 100.481 51.5895 100.125 51.6803 99.8522C51.8316 99.3232 52.1153 98.9072 52.5315 98.6042C52.9552 98.2942 53.4622 98.1392 54.0524 98.1392C55.543 98.1392 56.3829 98.9182 56.5721 100.477ZM54.0524 99.2742C53.7724 99.2742 53.5379 99.3462 53.3487 99.4892C53.1671 99.6252 53.0385 99.8182 52.9628 100.068C52.9174 100.197 52.8871 100.363 52.872 100.568C52.8569 100.605 52.872 100.624 52.9174 100.624H55.2215C55.2593 100.624 55.2782 100.605 55.2782 100.568C55.2631 100.378 55.2404 100.235 55.2101 100.136C55.142 99.8642 55.0058 99.6522 54.8015 99.5012C54.6048 99.3492 54.3551 99.2742 54.0524 99.2742ZM60.5221 98.1612C60.7642 98.1612 60.9761 98.2112 61.1577 98.3092C61.2182 98.3392 61.2409 98.3962 61.2258 98.4792L61.0328 99.5012C61.0253 99.5912 60.9723 99.6182 60.8739 99.5802C60.7604 99.5422 60.628 99.5232 60.4767 99.5232C60.3783 99.5232 60.3026 99.5272 60.2497 99.5352C59.9319 99.5502 59.667 99.6632 59.4552 99.8752C59.2433 100.079 59.1374 100.348 59.1374 100.681V103.893C59.1374 103.931 59.1222 103.965 59.092 103.995C59.0693 104.018 59.039 104.029 59.0012 104.029H57.957C57.9191 104.029 57.8851 104.018 57.8548 103.995C57.8321 103.965 57.8208 103.931 57.8208 103.893V98.3662C57.8208 98.3282 57.8321 98.2982 57.8548 98.2752C57.8851 98.2452 57.9191 98.2292 57.957 98.2292H59.0012C59.039 98.2292 59.0693 98.2452 59.092 98.2752C59.1222 98.2982 59.1374 98.3282 59.1374 98.3662V98.8762C59.1374 98.9072 59.1412 98.9262 59.1487 98.9332C59.1639 98.9332 59.179 98.9222 59.1941 98.8992C59.5119 98.4072 59.9546 98.1612 60.5221 98.1612ZM64.2459 98.1392C64.7226 98.1392 65.1426 98.2222 65.5058 98.3882C65.869 98.5552 66.149 98.7862 66.3457 99.0812C66.5424 99.3682 66.6408 99.6972 66.6408 100.068V103.893C66.6408 103.931 66.6257 103.965 66.5954 103.995C66.5727 104.018 66.5424 104.029 66.5046 104.029H65.4604C65.4226 104.029 65.3885 104.018 65.3582 103.995C65.3355 103.965 65.3242 103.931 65.3242 103.893V103.53C65.3242 103.507 65.3166 103.496 65.3015 103.496C65.2864 103.488 65.2712 103.492 65.2561 103.507C64.8853 103.916 64.3481 104.12 63.6444 104.12C63.0769 104.12 62.6078 103.976 62.237 103.689C61.8738 103.401 61.6922 102.974 61.6922 102.406C61.6922 101.816 61.8965 101.358 62.3051 101.033C62.7213 100.7 63.3039 100.533 64.053 100.533H65.2674C65.3053 100.533 65.3242 100.515 65.3242 100.477V100.204C65.3242 99.9092 65.2372 99.6822 65.0631 99.5232C64.8891 99.3572 64.6281 99.2742 64.28 99.2742C63.9925 99.2742 63.7579 99.3272 63.5763 99.4332C63.4023 99.5312 63.2925 99.6712 63.2471 99.8522C63.2244 99.9432 63.1715 99.9812 63.0882 99.9662L61.9873 99.8302C61.9495 99.8222 61.9154 99.8112 61.8851 99.7962C61.8624 99.7732 61.8549 99.7472 61.8624 99.7162C61.923 99.2552 62.1689 98.8762 62.6002 98.5812C63.0391 98.2862 63.5876 98.1392 64.2459 98.1392ZM63.9735 103.076C64.3443 103.076 64.6621 102.978 64.9269 102.781C65.1918 102.584 65.3242 102.334 65.3242 102.032V101.498C65.3242 101.46 65.3053 101.441 65.2674 101.441H64.314C63.913 101.441 63.5952 101.517 63.3606 101.668C63.1336 101.82 63.0201 102.035 63.0201 102.315C63.0201 102.558 63.1072 102.747 63.2812 102.883C63.4628 103.012 63.6936 103.076 63.9735 103.076ZM68.0988 104.029C68.061 104.029 68.0269 104.018 67.9967 103.995C67.974 103.965 67.9626 103.931 67.9626 103.893V96.2202C67.9626 96.1832 67.974 96.1522 67.9967 96.1302C68.0269 96.0992 68.061 96.0842 68.0988 96.0842H69.143C69.1809 96.0842 69.2111 96.0992 69.2338 96.1302C69.2641 96.1522 69.2792 96.1832 69.2792 96.2202V103.893C69.2792 103.931 69.2641 103.965 69.2338 103.995C69.2111 104.018 69.1809 104.029 69.143 104.029H68.0988ZM72.8915 98.1392C73.3682 98.1392 73.7881 98.2222 74.1513 98.3882C74.5145 98.5552 74.7945 98.7862 74.9912 99.0812C75.1879 99.3682 75.2863 99.6972 75.2863 100.068V103.893C75.2863 103.931 75.2712 103.965 75.2409 103.995C75.2182 104.018 75.1879 104.029 75.1501 104.029H74.1059C74.0681 104.029 74.034 104.018 74.0038 103.995C73.9811 103.965 73.9697 103.931 73.9697 103.893V103.53C73.9697 103.507 73.9621 103.496 73.947 103.496C73.9319 103.488 73.9167 103.492 73.9016 103.507C73.5308 103.916 72.9936 104.12 72.2899 104.12C71.7224 104.12 71.2533 103.976 70.8825 103.689C70.5193 103.401 70.3377 102.974 70.3377 102.406C70.3377 101.816 70.542 101.358 70.9506 101.033C71.3668 100.7 71.9494 100.533 72.6985 100.533H73.913C73.9508 100.533 73.9697 100.515 73.9697 100.477V100.204C73.9697 99.9092 73.8827 99.6822 73.7087 99.5232C73.5346 99.3572 73.2736 99.2742 72.9255 99.2742C72.638 99.2742 72.4034 99.3272 72.2218 99.4332C72.0478 99.5312 71.9381 99.6712 71.8927 99.8522C71.87 99.9432 71.817 99.9812 71.7338 99.9662L70.6328 99.8302C70.595 99.8222 70.5609 99.8112 70.5307 99.7962C70.508 99.7732 70.5004 99.7472 70.508 99.7162C70.5685 99.2552 70.8144 98.8762 71.2457 98.5812C71.6846 98.2862 72.2332 98.1392 72.8915 98.1392ZM72.6191 103.076C72.9898 103.076 73.3076 102.978 73.5725 102.781C73.8373 102.584 73.9697 102.334 73.9697 102.032V101.498C73.9697 101.46 73.9508 101.441 73.913 101.441H72.9596C72.5585 101.441 72.2407 101.517 72.0062 101.668C71.7792 101.82 71.6657 102.035 71.6657 102.315C71.6657 102.558 71.7527 102.747 71.9267 102.883C72.1083 103.012 72.3391 103.076 72.6191 103.076ZM77.6001 96.0842C77.6531 96.0842 77.6871 96.0992 77.7023 96.1302C77.7174 96.1602 77.7174 96.1982 77.7023 96.2432L76.8056 98.4562C76.7829 98.5252 76.7299 98.5592 76.6467 98.5592H75.8749C75.8295 98.5592 75.7955 98.5472 75.7728 98.5252C75.7576 98.4942 75.7538 98.4562 75.7614 98.4112L76.397 96.1982C76.4197 96.1222 76.4727 96.0842 76.5559 96.0842H77.6001ZM79.8509 104.097C79.3742 104.097 78.9542 104.029 78.591 103.893C78.2354 103.749 77.9592 103.556 77.7625 103.314C77.5657 103.065 77.4674 102.788 77.4674 102.486V102.384C77.4674 102.346 77.4787 102.315 77.5014 102.293C77.5317 102.262 77.5657 102.247 77.6036 102.247H78.6024C78.6402 102.247 78.6705 102.262 78.6932 102.293C78.7234 102.315 78.7386 102.346 78.7386 102.384V102.406C78.7386 102.595 78.8407 102.762 79.045 102.906C79.2569 103.042 79.5217 103.11 79.8395 103.11C80.1422 103.11 80.3881 103.049 80.5773 102.928C80.7664 102.8 80.861 102.641 80.861 102.452C80.861 102.278 80.7816 102.149 80.6227 102.066C80.4713 101.975 80.2216 101.88 79.8736 101.782L79.4423 101.646C79.0564 101.532 78.731 101.411 78.4662 101.283C78.2013 101.154 77.9781 100.98 77.7965 100.76C77.6149 100.533 77.5241 100.246 77.5241 99.8982C77.5241 99.3682 77.7322 98.9482 78.1484 98.6382C78.5645 98.3202 79.1131 98.1612 79.7941 98.1612C80.2557 98.1612 80.6605 98.2372 81.0086 98.3882C81.3566 98.5322 81.6252 98.7362 81.8144 99.0012C82.0036 99.2582 82.0982 99.5542 82.0982 99.8872C82.0982 99.9242 82.083 99.9582 82.0528 99.9892C82.0301 100.011 81.9998 100.023 81.962 100.023H80.9972C80.9594 100.023 80.9253 100.011 80.8951 99.9892C80.8724 99.9582 80.861 99.9242 80.861 99.8872C80.861 99.6902 80.7626 99.5272 80.5659 99.3982C80.3767 99.2622 80.1157 99.1942 79.7828 99.1942C79.4877 99.1942 79.2455 99.2512 79.0564 99.3642C78.8748 99.4702 78.784 99.6222 78.784 99.8182C78.784 100 78.871 100.14 79.045 100.238C79.2266 100.329 79.5255 100.431 79.9417 100.545L80.1914 100.613C80.5924 100.734 80.9291 100.859 81.2015 100.987C81.4739 101.109 81.7047 101.283 81.8939 101.51C82.083 101.729 82.1776 102.017 82.1776 102.372C82.1776 102.909 81.9657 103.333 81.542 103.643C81.1183 103.946 80.5546 104.097 79.8509 104.097ZM88.3447 104.12C87.7772 104.12 87.2778 104.01 86.8465 103.791C86.4152 103.564 86.0823 103.25 85.8477 102.849C85.6132 102.448 85.4959 101.982 85.4959 101.453V98.6492C85.4959 98.1202 85.6132 97.6542 85.8477 97.2532C86.0823 96.8522 86.4152 96.5422 86.8465 96.3232C87.2778 96.1032 87.7772 95.9932 88.3447 95.9932C88.9047 95.9932 89.4003 96.0992 89.8316 96.3112C90.2629 96.5232 90.5958 96.8222 90.8304 97.2082C91.065 97.5942 91.1822 98.0402 91.1822 98.5472C91.1822 98.5852 91.1671 98.6192 91.1368 98.6492C91.1141 98.6722 91.0839 98.6832 91.046 98.6832L90.0018 98.7402C89.911 98.7402 89.8656 98.6992 89.8656 98.6152C89.8656 98.1692 89.7257 97.8092 89.4457 97.5372C89.1733 97.2652 88.8063 97.1282 88.3447 97.1282C87.8832 97.1282 87.5124 97.2652 87.2324 97.5372C86.9525 97.8092 86.8125 98.1692 86.8125 98.6152V101.51C86.8125 101.948 86.9525 102.304 87.2324 102.576C87.5124 102.849 87.8832 102.985 88.3447 102.985C88.8063 102.985 89.1733 102.853 89.4457 102.588C89.7257 102.315 89.8656 101.956 89.8656 101.51C89.8656 101.426 89.911 101.385 90.0018 101.385L91.046 101.43C91.0839 101.43 91.1141 101.441 91.1368 101.464C91.1671 101.487 91.1822 101.513 91.1822 101.544C91.1822 102.058 91.065 102.512 90.8304 102.906C90.5958 103.292 90.2629 103.59 89.8316 103.802C89.4003 104.014 88.9047 104.12 88.3447 104.12ZM95.897 98.3662C95.897 98.3282 95.9084 98.2982 95.9311 98.2752C95.9613 98.2452 95.9954 98.2292 96.0332 98.2292H97.0661C97.1039 98.2292 97.1342 98.2452 97.1569 98.2752C97.1871 98.2982 97.2023 98.3282 97.2023 98.3662V103.893C97.2023 103.931 97.1871 103.965 97.1569 103.995C97.1342 104.018 97.1039 104.029 97.0661 104.029H96.0332C95.9954 104.029 95.9613 104.018 95.9311 103.995C95.9084 103.965 95.897 103.931 95.897 103.893V103.53C95.897 103.507 95.8895 103.492 95.8743 103.484C95.8592 103.477 95.8441 103.484 95.8289 103.507C95.5187 103.908 95.0533 104.109 94.4329 104.109C93.8578 104.109 93.3735 103.942 92.9801 103.609C92.5942 103.276 92.4012 102.803 92.4012 102.191V98.3662C92.4012 98.3282 92.4126 98.2982 92.4353 98.2752C92.4655 98.2452 92.4996 98.2292 92.5374 98.2292H93.5816C93.6195 98.2292 93.6497 98.2452 93.6724 98.2752C93.7027 98.2982 93.7178 98.3282 93.7178 98.3662V101.816C93.7178 102.172 93.8086 102.455 93.9902 102.667C94.1794 102.879 94.4404 102.985 94.7734 102.985C95.1139 102.985 95.3863 102.879 95.5906 102.667C95.7949 102.455 95.897 102.172 95.897 101.816V98.3662ZM98.746 104.029C98.7082 104.029 98.6742 104.018 98.6439 103.995C98.6212 103.965 98.6098 103.931 98.6098 103.893V96.2202C98.6098 96.1832 98.6212 96.1522 98.6439 96.1302C98.6742 96.0992 98.7082 96.0842 98.746 96.0842H99.7902C99.8281 96.0842 99.8583 96.0992 99.881 96.1302C99.9113 96.1522 99.9264 96.1832 99.9264 96.2202V103.893C99.9264 103.931 99.9113 103.965 99.881 103.995C99.8583 104.018 99.8281 104.029 99.7902 104.029H98.746ZM104.401 99.1602C104.401 99.1982 104.386 99.2322 104.356 99.2622C104.333 99.2852 104.303 99.2962 104.265 99.2962H103.107C103.069 99.2962 103.051 99.3152 103.051 99.3532V102.088C103.051 102.376 103.111 102.584 103.232 102.713C103.361 102.841 103.561 102.906 103.834 102.906H104.174C104.212 102.906 104.242 102.921 104.265 102.951C104.295 102.974 104.31 103.004 104.31 103.042V103.893C104.31 103.976 104.265 104.025 104.174 104.041L103.584 104.052C102.986 104.052 102.54 103.95 102.245 103.746C101.95 103.541 101.798 103.155 101.791 102.588V99.3532C101.791 99.3152 101.772 99.2962 101.734 99.2962H101.087C101.049 99.2962 101.015 99.2852 100.985 99.2622C100.962 99.2322 100.951 99.1982 100.951 99.1602V98.3662C100.951 98.3282 100.962 98.2982 100.985 98.2752C101.015 98.2452 101.049 98.2292 101.087 98.2292H101.734C101.772 98.2292 101.791 98.2112 101.791 98.1732V96.8452C101.791 96.8072 101.802 96.7772 101.825 96.7542C101.855 96.7242 101.889 96.7092 101.927 96.7092H102.914C102.952 96.7092 102.982 96.7242 103.005 96.7542C103.035 96.7772 103.051 96.8072 103.051 96.8452V98.1732C103.051 98.2112 103.069 98.2292 103.107 98.2292H104.265C104.303 98.2292 104.333 98.2452 104.356 98.2752C104.386 98.2982 104.401 98.3282 104.401 98.3662V99.1602ZM108.998 98.3662C108.998 98.3282 109.01 98.2982 109.032 98.2752C109.063 98.2452 109.097 98.2292 109.134 98.2292H110.167C110.205 98.2292 110.235 98.2452 110.258 98.2752C110.288 98.2982 110.303 98.3282 110.303 98.3662V103.893C110.303 103.931 110.288 103.965 110.258 103.995C110.235 104.018 110.205 104.029 110.167 104.029H109.134C109.097 104.029 109.063 104.018 109.032 103.995C109.01 103.965 108.998 103.931 108.998 103.893V103.53C108.998 103.507 108.991 103.492 108.975 103.484C108.96 103.477 108.945 103.484 108.93 103.507C108.62 103.908 108.155 104.109 107.534 104.109C106.959 104.109 106.475 103.942 106.081 103.609C105.695 103.276 105.502 102.803 105.502 102.191V98.3662C105.502 98.3282 105.514 98.2982 105.536 98.2752C105.567 98.2452 105.601 98.2292 105.639 98.2292H106.683C106.721 98.2292 106.751 98.2452 106.774 98.2752C106.804 98.2982 106.819 98.3282 106.819 98.3662V101.816C106.819 102.172 106.91 102.455 107.091 102.667C107.281 102.879 107.542 102.985 107.875 102.985C108.215 102.985 108.487 102.879 108.692 102.667C108.896 102.455 108.998 102.172 108.998 101.816V98.3662ZM114.412 98.1612C114.654 98.1612 114.866 98.2112 115.048 98.3092C115.108 98.3392 115.131 98.3962 115.116 98.4792L114.923 99.5012C114.916 99.5912 114.863 99.6182 114.764 99.5802C114.651 99.5422 114.518 99.5232 114.367 99.5232C114.269 99.5232 114.193 99.5272 114.14 99.5352C113.822 99.5502 113.557 99.6632 113.345 99.8752C113.134 100.079 113.028 100.348 113.028 100.681V103.893C113.028 103.931 113.012 103.965 112.982 103.995C112.96 104.018 112.929 104.029 112.891 104.029H111.847C111.809 104.029 111.775 104.018 111.745 103.995C111.722 103.965 111.711 103.931 111.711 103.893V98.3662C111.711 98.3282 111.722 98.2982 111.745 98.2752C111.775 98.2452 111.809 98.2292 111.847 98.2292H112.891C112.929 98.2292 112.96 98.2452 112.982 98.2752C113.012 98.2982 113.028 98.3282 113.028 98.3662V98.8762C113.028 98.9072 113.031 98.9262 113.039 98.9332C113.054 98.9332 113.069 98.9222 113.084 98.8992C113.402 98.4072 113.845 98.1612 114.412 98.1612ZM118.136 98.1392C118.613 98.1392 119.033 98.2222 119.396 98.3882C119.759 98.5552 120.039 98.7862 120.236 99.0812C120.433 99.3682 120.531 99.6972 120.531 100.068V103.893C120.531 103.931 120.516 103.965 120.486 103.995C120.463 104.018 120.433 104.029 120.395 104.029H119.351C119.313 104.029 119.279 104.018 119.248 103.995C119.226 103.965 119.214 103.931 119.214 103.893V103.53C119.214 103.507 119.207 103.496 119.192 103.496C119.177 103.488 119.161 103.492 119.146 103.507C118.776 103.916 118.238 104.12 117.535 104.12C116.967 104.12 116.498 103.976 116.127 103.689C115.764 103.401 115.582 102.974 115.582 102.406C115.582 101.816 115.787 101.358 116.195 101.033C116.611 100.7 117.194 100.533 117.943 100.533H119.158C119.196 100.533 119.214 100.515 119.214 100.477V100.204C119.214 99.9092 119.127 99.6822 118.953 99.5232C118.779 99.3572 118.518 99.2742 118.17 99.2742C117.883 99.2742 117.648 99.3272 117.467 99.4332C117.292 99.5312 117.183 99.6712 117.137 99.8522C117.115 99.9432 117.062 99.9812 116.978 99.9662L115.878 99.8302C115.84 99.8222 115.806 99.8112 115.775 99.7962C115.753 99.7732 115.745 99.7472 115.753 99.7162C115.813 99.2552 116.059 98.8762 116.49 98.5812C116.929 98.2862 117.478 98.1392 118.136 98.1392ZM117.864 103.076C118.235 103.076 118.552 102.978 118.817 102.781C119.082 102.584 119.214 102.334 119.214 102.032V101.498C119.214 101.46 119.196 101.441 119.158 101.441H118.204C117.803 101.441 117.485 101.517 117.251 101.668C117.024 101.82 116.91 102.035 116.91 102.315C116.91 102.558 116.997 102.747 117.171 102.883C117.353 103.012 117.584 103.076 117.864 103.076ZM121.989 104.029C121.951 104.029 121.917 104.018 121.887 103.995C121.864 103.965 121.853 103.931 121.853 103.893V96.2202C121.853 96.1832 121.864 96.1522 121.887 96.1302C121.917 96.0992 121.951 96.0842 121.989 96.0842H123.033C123.071 96.0842 123.101 96.0992 123.124 96.1302C123.154 96.1522 123.169 96.1832 123.169 96.2202V103.893C123.169 103.931 123.154 103.965 123.124 103.995C123.101 104.018 123.071 104.029 123.033 104.029H121.989ZM129.621 104.12C129.054 104.12 128.555 104.01 128.123 103.791C127.692 103.564 127.359 103.25 127.124 102.849C126.89 102.448 126.773 101.982 126.773 101.453V98.6492C126.773 98.1202 126.89 97.6542 127.124 97.2532C127.359 96.8522 127.692 96.5422 128.123 96.3232C128.555 96.1032 129.054 95.9932 129.621 95.9932C130.181 95.9932 130.677 96.0992 131.108 96.3112C131.54 96.5232 131.872 96.8222 132.107 97.2082C132.342 97.5942 132.459 98.0402 132.459 98.5472C132.459 98.5852 132.444 98.6192 132.414 98.6492C132.391 98.6722 132.361 98.6832 132.323 98.6832L131.279 98.7402C131.188 98.7402 131.142 98.6992 131.142 98.6152C131.142 98.1692 131.002 97.8092 130.722 97.5372C130.45 97.2652 130.083 97.1282 129.621 97.1282C129.16 97.1282 128.789 97.2652 128.509 97.5372C128.229 97.8092 128.089 98.1692 128.089 98.6152V101.51C128.089 101.948 128.229 102.304 128.509 102.576C128.789 102.849 129.16 102.985 129.621 102.985C130.083 102.985 130.45 102.853 130.722 102.588C131.002 102.315 131.142 101.956 131.142 101.51C131.142 101.426 131.188 101.385 131.279 101.385L132.323 101.43C132.361 101.43 132.391 101.441 132.414 101.464C132.444 101.487 132.459 101.513 132.459 101.544C132.459 102.058 132.342 102.512 132.107 102.906C131.872 103.292 131.54 103.59 131.108 103.802C130.677 104.014 130.181 104.12 129.621 104.12ZM136.447 98.1612C136.689 98.1612 136.901 98.2112 137.083 98.3092C137.143 98.3392 137.166 98.3962 137.151 98.4792L136.958 99.5012C136.95 99.5912 136.897 99.6182 136.799 99.5802C136.686 99.5422 136.553 99.5232 136.402 99.5232C136.304 99.5232 136.228 99.5272 136.175 99.5352C135.857 99.5502 135.592 99.6632 135.38 99.8752C135.169 100.079 135.063 100.348 135.063 100.681V103.893C135.063 103.931 135.047 103.965 135.017 103.995C134.994 104.018 134.964 104.029 134.926 104.029H133.882C133.844 104.029 133.81 104.018 133.78 103.995C133.757 103.965 133.746 103.931 133.746 103.893V98.3662C133.746 98.3282 133.757 98.2982 133.78 98.2752C133.81 98.2452 133.844 98.2292 133.882 98.2292H134.926C134.964 98.2292 134.994 98.2452 135.017 98.2752C135.047 98.2982 135.063 98.3282 135.063 98.3662V98.8762C135.063 98.9072 135.066 98.9262 135.074 98.9332C135.089 98.9332 135.104 98.9222 135.119 98.8992C135.437 98.4072 135.88 98.1612 136.447 98.1612ZM142.794 100.477C142.825 100.666 142.84 100.878 142.84 101.112L142.828 101.464C142.828 101.555 142.783 101.6 142.692 101.6H139.14C139.102 101.6 139.083 101.619 139.083 101.657C139.106 101.907 139.14 102.077 139.185 102.168C139.367 102.713 139.809 102.989 140.513 102.996C141.028 102.996 141.436 102.785 141.739 102.361C141.769 102.315 141.807 102.293 141.852 102.293C141.883 102.293 141.909 102.304 141.932 102.327L142.635 102.906C142.704 102.959 142.715 103.019 142.669 103.087C142.435 103.42 142.121 103.677 141.727 103.859C141.342 104.041 140.91 104.131 140.434 104.131C139.843 104.131 139.34 103.999 138.924 103.734C138.515 103.469 138.216 103.099 138.027 102.622C137.853 102.213 137.766 101.646 137.766 100.919C137.766 100.481 137.812 100.125 137.902 99.8522C138.054 99.3232 138.338 98.9072 138.754 98.6042C139.177 98.2942 139.684 98.1392 140.275 98.1392C141.765 98.1392 142.605 98.9182 142.794 100.477ZM140.275 99.2742C139.995 99.2742 139.76 99.3462 139.571 99.4892C139.389 99.6252 139.261 99.8182 139.185 100.068C139.14 100.197 139.109 100.363 139.094 100.568C139.079 100.605 139.094 100.624 139.14 100.624H141.444C141.482 100.624 141.5 100.605 141.5 100.568C141.485 100.378 141.463 100.235 141.432 100.136C141.364 99.8642 141.228 99.6522 141.024 99.5012C140.827 99.3492 140.577 99.2742 140.275 99.2742ZM146.201 98.1392C146.678 98.1392 147.097 98.2222 147.461 98.3882C147.824 98.5552 148.104 98.7862 148.301 99.0812C148.497 99.3682 148.596 99.6972 148.596 100.068V103.893C148.596 103.931 148.581 103.965 148.55 103.995C148.528 104.018 148.497 104.029 148.459 104.029H147.415C147.377 104.029 147.343 104.018 147.313 103.995C147.29 103.965 147.279 103.931 147.279 103.893V103.53C147.279 103.507 147.272 103.496 147.256 103.496C147.241 103.488 147.226 103.492 147.211 103.507C146.84 103.916 146.303 104.12 145.599 104.12C145.032 104.12 144.563 103.976 144.192 103.689C143.829 103.401 143.647 102.974 143.647 102.406C143.647 101.816 143.851 101.358 144.26 101.033C144.676 100.7 145.259 100.533 146.008 100.533H147.222C147.26 100.533 147.279 100.515 147.279 100.477V100.204C147.279 99.9092 147.192 99.6822 147.018 99.5232C146.844 99.3572 146.583 99.2742 146.235 99.2742C145.947 99.2742 145.713 99.3272 145.531 99.4332C145.357 99.5312 145.247 99.6712 145.202 99.8522C145.179 99.9432 145.126 99.9812 145.043 99.9662L143.942 99.8302C143.904 99.8222 143.87 99.8112 143.84 99.7962C143.817 99.7732 143.81 99.7472 143.817 99.7162C143.878 99.2552 144.124 98.8762 144.555 98.5812C144.994 98.2862 145.543 98.1392 146.201 98.1392ZM145.928 103.076C146.299 103.076 146.617 102.978 146.882 102.781C147.147 102.584 147.279 102.334 147.279 102.032V101.498C147.279 101.46 147.26 101.441 147.222 101.441H146.269C145.868 101.441 145.55 101.517 145.316 101.668C145.089 101.82 144.975 102.035 144.975 102.315C144.975 102.558 145.062 102.747 145.236 102.883C145.418 103.012 145.648 103.076 145.928 103.076ZM152.905 99.1602C152.905 99.1982 152.89 99.2322 152.859 99.2622C152.837 99.2852 152.806 99.2962 152.768 99.2962H151.611C151.573 99.2962 151.554 99.3152 151.554 99.3532V102.088C151.554 102.376 151.615 102.584 151.736 102.713C151.864 102.841 152.065 102.906 152.337 102.906H152.678C152.716 102.906 152.746 102.921 152.768 102.951C152.799 102.974 152.814 103.004 152.814 103.042V103.893C152.814 103.976 152.768 104.025 152.678 104.041L152.087 104.052C151.49 104.052 151.043 103.95 150.748 103.746C150.453 103.541 150.302 103.155 150.294 102.588V99.3532C150.294 99.3152 150.275 99.2962 150.237 99.2962H149.59C149.553 99.2962 149.519 99.2852 149.488 99.2622C149.466 99.2322 149.454 99.1982 149.454 99.1602V98.3662C149.454 98.3282 149.466 98.2982 149.488 98.2752C149.519 98.2452 149.553 98.2292 149.59 98.2292H150.237C150.275 98.2292 150.294 98.2112 150.294 98.1732V96.8452C150.294 96.8072 150.306 96.7772 150.328 96.7542C150.359 96.7242 150.393 96.7092 150.43 96.7092H151.418C151.456 96.7092 151.486 96.7242 151.509 96.7542C151.539 96.7772 151.554 96.8072 151.554 96.8452V98.1732C151.554 98.2112 151.573 98.2292 151.611 98.2292H152.768C152.806 98.2292 152.837 98.2452 152.859 98.2752C152.89 98.2982 152.905 98.3282 152.905 98.3662V99.1602ZM154.823 97.4352C154.589 97.4352 154.396 97.3592 154.244 97.2082C154.093 97.0572 154.017 96.8642 154.017 96.6292C154.017 96.3952 154.093 96.2022 154.244 96.0502C154.396 95.8992 154.589 95.8232 154.823 95.8232C155.058 95.8232 155.251 95.8992 155.402 96.0502C155.553 96.2022 155.629 96.3952 155.629 96.6292C155.629 96.8642 155.553 97.0572 155.402 97.2082C155.251 97.3592 155.058 97.4352 154.823 97.4352ZM154.278 104.029C154.24 104.029 154.206 104.018 154.176 103.995C154.153 103.965 154.142 103.931 154.142 103.893V98.3542C154.142 98.3162 154.153 98.2862 154.176 98.2632C154.206 98.2332 154.24 98.2182 154.278 98.2182H155.323C155.36 98.2182 155.391 98.2332 155.413 98.2632C155.444 98.2862 155.459 98.3162 155.459 98.3542V103.893C155.459 103.931 155.444 103.965 155.413 103.995C155.391 104.018 155.36 104.029 155.323 104.029H154.278ZM158.533 104.029C158.458 104.029 158.408 103.991 158.386 103.916L156.558 98.3772C156.551 98.3622 156.547 98.3432 156.547 98.3202C156.547 98.2522 156.589 98.2182 156.672 98.2182H157.83C157.913 98.2182 157.966 98.2562 157.988 98.3322L159.089 102.122C159.097 102.145 159.108 102.157 159.123 102.157C159.139 102.157 159.15 102.145 159.157 102.122L160.258 98.3322C160.281 98.2562 160.334 98.2182 160.417 98.2182L161.575 98.2412C161.62 98.2412 161.654 98.2562 161.677 98.2862C161.7 98.3092 161.704 98.3472 161.689 98.4002L159.873 103.916C159.85 103.991 159.801 104.029 159.725 104.029H158.533ZM167.268 100.477C167.298 100.666 167.313 100.878 167.313 101.112L167.302 101.464C167.302 101.555 167.256 101.6 167.166 101.6H163.613C163.575 101.6 163.556 101.619 163.556 101.657C163.579 101.907 163.613 102.077 163.658 102.168C163.84 102.713 164.283 102.989 164.986 102.996C165.501 102.996 165.91 102.785 166.212 102.361C166.242 102.315 166.28 102.293 166.326 102.293C166.356 102.293 166.382 102.304 166.405 102.327L167.109 102.906C167.177 102.959 167.188 103.019 167.143 103.087C166.908 103.42 166.594 103.677 166.201 103.859C165.815 104.041 165.384 104.131 164.907 104.131C164.317 104.131 163.814 103.999 163.397 103.734C162.989 103.469 162.69 103.099 162.501 102.622C162.327 102.213 162.24 101.646 162.24 100.919C162.24 100.481 162.285 100.125 162.376 99.8522C162.527 99.3232 162.811 98.9072 163.227 98.6042C163.651 98.2942 164.158 98.1392 164.748 98.1392C166.239 98.1392 167.079 98.9182 167.268 100.477ZM164.748 99.2742C164.468 99.2742 164.234 99.3462 164.044 99.4892C163.863 99.6252 163.734 99.8182 163.658 100.068C163.613 100.197 163.583 100.363 163.568 100.568C163.553 100.605 163.568 100.624 163.613 100.624H165.917C165.955 100.624 165.974 100.605 165.974 100.568C165.959 100.378 165.936 100.235 165.906 100.136C165.838 99.8642 165.701 99.6522 165.497 99.5012C165.3 99.3492 165.051 99.2742 164.748 99.2742ZM176.293 97.0832C176.293 97.1212 176.278 97.1552 176.248 97.1852C176.225 97.2082 176.195 97.2192 176.157 97.2192H172.287C172.249 97.2192 172.23 97.2382 172.23 97.2762V99.3982C172.23 99.4362 172.249 99.4552 172.287 99.4552H174.886C174.924 99.4552 174.954 99.4702 174.977 99.5012C175.007 99.5232 175.022 99.5542 175.022 99.5912V100.454C175.022 100.492 175.007 100.526 174.977 100.556C174.954 100.579 174.924 100.59 174.886 100.59H172.287C172.249 100.59 172.23 100.609 172.23 100.647V102.838C172.23 102.875 172.249 102.894 172.287 102.894H176.157C176.195 102.894 176.225 102.909 176.248 102.94C176.278 102.962 176.293 102.993 176.293 103.03V103.893C176.293 103.931 176.278 103.965 176.248 103.995C176.225 104.018 176.195 104.029 176.157 104.029H171.05C171.012 104.029 170.978 104.018 170.948 103.995C170.925 103.965 170.914 103.931 170.914 103.893V96.2202C170.914 96.1832 170.925 96.1522 170.948 96.1302C170.978 96.0992 171.012 96.0842 171.05 96.0842H176.157C176.195 96.0842 176.225 96.0992 176.248 96.1302C176.278 96.1522 176.293 96.1832 176.293 96.2202V97.0832ZM179.923 104.12C179.34 104.12 178.837 103.973 178.414 103.677C177.99 103.375 177.695 102.97 177.528 102.463C177.407 102.122 177.347 101.668 177.347 101.101C177.347 100.556 177.407 100.11 177.528 99.7622C177.687 99.2622 177.978 98.8692 178.402 98.5812C178.833 98.2862 179.34 98.1392 179.923 98.1392C180.513 98.1392 181.028 98.2862 181.467 98.5812C181.906 98.8762 182.197 99.2472 182.341 99.6942C182.378 99.8152 182.405 99.9362 182.42 100.057V100.079C182.42 100.155 182.378 100.201 182.295 100.216L181.274 100.363H181.251C181.183 100.363 181.138 100.325 181.115 100.25C181.115 100.212 181.111 100.182 181.103 100.159C181.088 100.098 181.073 100.045 181.058 100C180.99 99.7882 180.854 99.6142 180.649 99.4782C180.445 99.3422 180.203 99.2742 179.923 99.2742C179.636 99.2742 179.39 99.3492 179.185 99.5012C178.989 99.6442 178.856 99.8452 178.788 100.102C178.712 100.344 178.675 100.681 178.675 101.112C178.675 101.528 178.709 101.865 178.777 102.122C178.852 102.387 178.989 102.599 179.185 102.758C179.382 102.909 179.628 102.985 179.923 102.985C180.211 102.985 180.457 102.913 180.661 102.769C180.873 102.618 181.009 102.418 181.069 102.168C181.077 102.153 181.081 102.134 181.081 102.111C181.088 102.104 181.092 102.092 181.092 102.077C181.115 101.986 181.168 101.948 181.251 101.964L182.273 102.122C182.31 102.13 182.341 102.149 182.363 102.179C182.394 102.202 182.405 102.236 182.397 102.281C182.375 102.402 182.356 102.489 182.341 102.542C182.197 103.027 181.906 103.413 181.467 103.7C181.028 103.98 180.513 104.12 179.923 104.12ZM185.943 104.12C185.345 104.12 184.83 103.969 184.399 103.666C183.975 103.363 183.677 102.943 183.503 102.406C183.374 101.998 183.31 101.566 183.31 101.112C183.31 100.628 183.37 100.197 183.491 99.8182C183.665 99.2892 183.968 98.8762 184.399 98.5812C184.83 98.2862 185.349 98.1392 185.954 98.1392C186.529 98.1392 187.025 98.2862 187.441 98.5812C187.865 98.8762 188.164 99.2852 188.338 99.8072C188.474 100.17 188.542 100.602 188.542 101.101C188.542 101.578 188.478 102.009 188.349 102.395C188.175 102.932 187.876 103.356 187.452 103.666C187.029 103.969 186.525 104.12 185.943 104.12ZM185.943 102.985C186.223 102.985 186.461 102.906 186.658 102.747C186.862 102.588 187.01 102.365 187.1 102.077C187.176 101.827 187.214 101.51 187.214 101.124C187.214 100.715 187.176 100.397 187.1 100.17C187.017 99.8832 186.873 99.6632 186.669 99.5122C186.465 99.3532 186.215 99.2742 185.92 99.2742C185.64 99.2742 185.398 99.3532 185.194 99.5122C184.989 99.6632 184.842 99.8832 184.751 100.17C184.675 100.435 184.638 100.753 184.638 101.124C184.638 101.494 184.675 101.812 184.751 102.077C184.834 102.365 184.978 102.588 185.182 102.747C185.394 102.906 185.648 102.985 185.943 102.985ZM192.567 98.1392C193.18 98.1392 193.668 98.3202 194.032 98.6832C194.402 99.0472 194.588 99.5422 194.588 100.17V103.893C194.588 103.931 194.573 103.965 194.542 103.995C194.52 104.018 194.489 104.029 194.451 104.029H193.407C193.369 104.029 193.335 104.018 193.305 103.995C193.282 103.965 193.271 103.931 193.271 103.893V100.443C193.271 100.095 193.173 99.8152 192.976 99.6032C192.779 99.3832 192.518 99.2742 192.193 99.2742C191.867 99.2742 191.603 99.3802 191.398 99.5912C191.202 99.8032 191.103 100.083 191.103 100.431V103.893C191.103 103.931 191.088 103.965 191.058 103.995C191.035 104.018 191.005 104.029 190.967 104.029H189.923C189.885 104.029 189.851 104.018 189.821 103.995C189.798 103.965 189.787 103.931 189.787 103.893V98.3662C189.787 98.3282 189.798 98.2982 189.821 98.2752C189.851 98.2452 189.885 98.2292 189.923 98.2292H190.967C191.005 98.2292 191.035 98.2452 191.058 98.2752C191.088 98.2982 191.103 98.3282 191.103 98.3662V98.7292C191.103 98.7522 191.111 98.7672 191.126 98.7742C191.141 98.7822 191.152 98.7742 191.16 98.7522C191.47 98.3432 191.939 98.1392 192.567 98.1392ZM198.379 104.12C197.781 104.12 197.267 103.969 196.835 103.666C196.412 103.363 196.113 102.943 195.939 102.406C195.81 101.998 195.746 101.566 195.746 101.112C195.746 100.628 195.806 100.197 195.927 99.8182C196.101 99.2892 196.404 98.8762 196.835 98.5812C197.267 98.2862 197.785 98.1392 198.39 98.1392C198.965 98.1392 199.461 98.2862 199.877 98.5812C200.301 98.8762 200.6 99.2852 200.774 99.8072C200.91 100.17 200.978 100.602 200.978 101.101C200.978 101.578 200.914 102.009 200.785 102.395C200.611 102.932 200.312 103.356 199.889 103.666C199.465 103.969 198.962 104.12 198.379 104.12ZM198.379 102.985C198.659 102.985 198.897 102.906 199.094 102.747C199.298 102.588 199.446 102.365 199.537 102.077C199.612 101.827 199.65 101.51 199.65 101.124C199.65 100.715 199.612 100.397 199.537 100.17C199.453 99.8832 199.31 99.6632 199.105 99.5122C198.901 99.3532 198.651 99.2742 198.356 99.2742C198.076 99.2742 197.834 99.3532 197.63 99.5122C197.426 99.6632 197.278 99.8832 197.187 100.17C197.112 100.435 197.074 100.753 197.074 101.124C197.074 101.494 197.112 101.812 197.187 102.077C197.27 102.365 197.414 102.588 197.619 102.747C197.83 102.906 198.084 102.985 198.379 102.985ZM208.431 98.1392C209.014 98.1392 209.468 98.3162 209.793 98.6722C210.126 99.0202 210.293 99.5082 210.293 100.136V103.893C210.293 103.931 210.278 103.965 210.247 103.995C210.225 104.018 210.194 104.029 210.156 104.029H209.124C209.086 104.029 209.052 104.018 209.021 103.995C208.999 103.965 208.987 103.931 208.987 103.893V100.409C208.987 100.061 208.893 99.7842 208.704 99.5802C208.522 99.3762 208.276 99.2742 207.966 99.2742C207.656 99.2742 207.402 99.3762 207.205 99.5802C207.009 99.7842 206.91 100.057 206.91 100.397V103.893C206.91 103.931 206.895 103.965 206.865 103.995C206.842 104.018 206.812 104.029 206.774 104.029H205.741C205.704 104.029 205.669 104.018 205.639 103.995C205.616 103.965 205.605 103.931 205.605 103.893V100.409C205.605 100.061 205.511 99.7842 205.321 99.5802C205.132 99.3762 204.883 99.2742 204.572 99.2742C204.285 99.2742 204.046 99.3572 203.857 99.5232C203.676 99.6902 203.57 99.9172 203.539 100.204V103.893C203.539 103.931 203.524 103.965 203.494 103.995C203.471 104.018 203.441 104.029 203.403 104.029H202.359C202.321 104.029 202.287 104.018 202.257 103.995C202.234 103.965 202.223 103.931 202.223 103.893V98.3662C202.223 98.3282 202.234 98.2982 202.257 98.2752C202.287 98.2452 202.321 98.2292 202.359 98.2292H203.403C203.441 98.2292 203.471 98.2452 203.494 98.2752C203.524 98.2982 203.539 98.3282 203.539 98.3662V98.7402C203.539 98.7632 203.547 98.7782 203.562 98.7862C203.577 98.7932 203.592 98.7862 203.608 98.7632C203.774 98.5512 203.978 98.3962 204.22 98.2982C204.47 98.1922 204.746 98.1392 205.049 98.1392C205.42 98.1392 205.745 98.2142 206.025 98.3662C206.305 98.5172 206.521 98.7362 206.672 99.0242C206.695 99.0542 206.721 99.0542 206.751 99.0242C206.918 98.7212 207.149 98.4982 207.444 98.3542C207.739 98.2112 208.068 98.1392 208.431 98.1392ZM211.32 106.288C211.297 106.288 211.279 106.273 211.263 106.243C211.248 106.22 211.241 106.19 211.241 106.152V105.335C211.241 105.297 211.252 105.263 211.275 105.232C211.305 105.21 211.339 105.198 211.377 105.198H211.388C211.698 105.191 211.941 105.157 212.115 105.096C212.289 105.043 212.432 104.937 212.546 104.778C212.659 104.619 212.762 104.381 212.852 104.063C212.86 104.048 212.86 104.025 212.852 103.995L210.98 98.3772C210.972 98.3622 210.968 98.3432 210.968 98.3202C210.968 98.2522 211.006 98.2182 211.082 98.2182H212.194C212.277 98.2182 212.33 98.2562 212.353 98.3322L213.488 102.327C213.496 102.349 213.507 102.361 213.522 102.361C213.537 102.361 213.549 102.349 213.556 102.327L214.691 98.3322C214.714 98.2562 214.767 98.2182 214.85 98.2182H215.928C215.974 98.2182 216.004 98.2332 216.019 98.2632C216.042 98.2862 216.046 98.3242 216.03 98.3772L214.033 104.347C213.844 104.884 213.658 105.285 213.477 105.55C213.295 105.815 213.045 106.004 212.728 106.118C212.417 106.231 211.975 106.288 211.4 106.288H211.32Z" fill="#231F20"/>
<path d="M227.865 103.71C227.703 103.71 227.622 103.629 227.622 103.466V102.462C227.622 102.35 227.662 102.254 227.743 102.172C228.22 101.665 229.017 100.762 230.133 99.4626L231.108 98.3356C232.041 97.2496 232.508 96.4276 232.508 95.8696C232.508 95.4536 232.361 95.1136 232.067 94.8496C231.772 94.5856 231.392 94.4536 230.925 94.4536C230.458 94.4536 230.078 94.5856 229.783 94.8496C229.499 95.1136 229.357 95.4636 229.357 95.8996V96.2346C229.357 96.3976 229.276 96.4786 229.113 96.4786H227.819C227.657 96.4786 227.576 96.3976 227.576 96.2346V95.6416C227.596 95.0936 227.753 94.6166 228.048 94.2106C228.342 93.8046 228.738 93.4896 229.235 93.2666C229.743 93.0426 230.306 92.9316 230.925 92.9316C231.605 92.9316 232.199 93.0586 232.706 93.3116C233.214 93.5656 233.604 93.9156 233.878 94.3626C234.152 94.7986 234.289 95.2906 234.289 95.8386C234.289 96.6716 233.848 97.6306 232.965 98.7166C232.64 99.1326 232.254 99.5946 231.808 100.102C231.361 100.609 230.915 101.112 230.468 101.609L230.042 102.081C230.012 102.112 230.001 102.137 230.012 102.157C230.022 102.177 230.047 102.188 230.088 102.188H234.289C234.452 102.188 234.533 102.269 234.533 102.431V103.466C234.533 103.629 234.452 103.71 234.289 103.71H227.865ZM239.553 103.877C238.488 103.877 237.64 103.578 237.011 102.979C236.392 102.37 236.082 101.553 236.082 100.528V96.2346C236.082 95.2196 236.392 94.4186 237.011 93.8296C237.64 93.2306 238.488 92.9316 239.553 92.9316C240.619 92.9316 241.466 93.2306 242.096 93.8296C242.735 94.4186 243.055 95.2196 243.055 96.2346V100.528C243.055 101.553 242.735 102.37 242.096 102.979C241.466 103.578 240.619 103.877 239.553 103.877ZM239.553 102.34C240.081 102.34 240.502 102.188 240.817 101.883C241.131 101.569 241.289 101.147 241.289 100.62V96.1736C241.289 95.6466 241.131 95.2306 240.817 94.9256C240.502 94.6106 240.081 94.4536 239.553 94.4536C239.036 94.4536 238.62 94.6106 238.305 94.9256C238.001 95.2306 237.848 95.6466 237.848 96.1736V100.62C237.848 101.147 238.001 101.569 238.305 101.883C238.62 102.188 239.036 102.34 239.553 102.34ZM244.902 103.71C244.74 103.71 244.659 103.629 244.659 103.466V102.462C244.659 102.35 244.699 102.254 244.78 102.172C245.257 101.665 246.054 100.762 247.17 99.4626L248.145 98.3356C249.078 97.2496 249.545 96.4276 249.545 95.8696C249.545 95.4536 249.398 95.1136 249.104 94.8496C248.809 94.5856 248.429 94.4536 247.962 94.4536C247.495 94.4536 247.115 94.5856 246.82 94.8496C246.536 95.1136 246.394 95.4636 246.394 95.8996V96.2346C246.394 96.3976 246.313 96.4786 246.15 96.4786H244.856C244.694 96.4786 244.613 96.3976 244.613 96.2346V95.6416C244.633 95.0936 244.791 94.6166 245.085 94.2106C245.379 93.8046 245.775 93.4896 246.272 93.2666C246.78 93.0426 247.343 92.9316 247.962 92.9316C248.642 92.9316 249.236 93.0586 249.743 93.3116C250.251 93.5656 250.641 93.9156 250.915 94.3626C251.189 94.7986 251.326 95.2906 251.326 95.8386C251.326 96.6716 250.885 97.6306 250.002 98.7166C249.677 99.1326 249.292 99.5946 248.845 100.102C248.398 100.609 247.952 101.112 247.505 101.609L247.079 102.081C247.049 102.112 247.038 102.137 247.049 102.157C247.059 102.177 247.084 102.188 247.125 102.188H251.326C251.489 102.188 251.57 102.269 251.57 102.431V103.466C251.57 103.629 251.489 103.71 251.326 103.71H244.902ZM260.168 99.3256C260.33 99.3256 260.411 99.4066 260.411 99.5686V100.665C260.411 100.828 260.33 100.909 260.168 100.909H259.62C259.559 100.909 259.528 100.939 259.528 101V103.466C259.528 103.629 259.447 103.71 259.285 103.71H258.006C257.844 103.71 257.763 103.629 257.763 103.466V101C257.763 100.939 257.732 100.909 257.671 100.909H253.104C252.942 100.909 252.861 100.828 252.861 100.665V99.7816C252.861 99.6706 252.881 99.5736 252.922 99.4926L255.784 93.2356C255.834 93.1146 255.926 93.0536 256.058 93.0536H257.412C257.554 93.0536 257.626 93.1086 257.626 93.2206L257.595 93.3426L254.931 99.2186C254.901 99.2896 254.926 99.3256 255.007 99.3256H257.671C257.732 99.3256 257.763 99.2946 257.763 99.2336V97.2396C257.763 97.0776 257.844 96.9956 258.006 96.9956H259.285C259.447 96.9956 259.528 97.0776 259.528 97.2396V99.2336C259.528 99.2946 259.559 99.3256 259.62 99.3256H260.168Z" fill="#151515"/>
</svg>
