<svg width="613" height="125" viewBox="0 0 613 125" fill="none" xmlns="http://www.w3.org/2000/svg">
<g clip-path="url(#clip0_4_131)">
<path d="M2.34008 48.6799V11.9199H16.2001C27.0201 11.9199 32.0101 13.8099 32.0101 19.6899C32.0101 22.2599 30.8501 23.7899 28.7001 24.6799C33.3201 25.8899 36.0001 28.6199 36.0001 34.4499C36.0001 44.0599 28.8601 48.6299 16.5201 48.6799V33.0299C21.8201 33.0299 23.9201 31.6099 23.9201 29.7199C23.9201 28.1399 22.8201 25.8899 20.0301 25.8899H14.4101V45.0599L4.54008 48.6799H2.33008H2.34008ZM16.5701 23.7899C18.8301 23.7899 19.9301 21.2699 19.9301 18.5399C19.9301 15.2299 18.4101 14.0199 15.9901 14.0199H14.4201V23.7899H16.5701Z" fill="#151515"/>
<path d="M39.1504 35.5499C39.1504 27.1999 44.4504 21.6299 52.3804 21.6299C60.3104 21.6299 65.6104 26.1999 65.6104 30.6099C65.6104 33.6599 60.9404 34.9699 56.0004 35.5499L50.9104 36.1799C51.3304 38.8599 52.4804 41.0599 55.5304 41.0599C57.8904 41.0599 59.5204 40.4299 62.9304 38.6399L67.4504 45.9399C62.7804 49.0899 59.4704 49.4599 54.8004 49.4599C44.7704 49.4599 39.1504 43.8899 39.1504 35.5399V35.5499ZM51.8504 33.8699C53.5804 33.6099 54.0604 31.9299 54.0604 29.4099C54.0604 26.8899 53.5404 23.7399 52.3804 23.7399C50.7004 23.7399 50.7004 29.4599 50.7004 32.3999C50.7004 32.9299 50.7004 33.4999 50.7504 34.0299L51.8504 33.8699Z" fill="#151515"/>
<path d="M80.2102 61.2301C75.7502 61.2301 73.2802 60.7001 69.8102 58.7101L73.3801 51.4101C76.0101 52.4601 80.1001 52.8301 82.5201 52.8301C86.1401 52.8301 88.7201 50.8901 89.7701 48.6301C82.7901 48.2101 78.9002 46.3701 76.0602 39.4401L72.0702 29.6701C70.8602 26.6801 69.7102 24.3101 66.6602 21.6401C76.3202 21.6401 79.7302 21.7501 82.6202 28.7801L85.0901 34.8201C86.7201 38.7601 89.1901 39.7601 95.3801 39.7601V48.7901C95.3801 55.7701 89.3401 61.2301 80.2001 61.2301H80.2102Z" fill="#151515"/>
<path d="M91.1796 21.6401C94.7996 21.6401 97.2197 24.1101 97.2197 27.6801C97.2197 31.2501 94.7996 33.7201 91.1796 33.7201C87.5596 33.7201 85.1396 31.3001 85.1396 27.6801C85.1396 24.0601 87.6096 21.6401 91.1796 21.6401Z" fill="black"/>
<path d="M157.24 48.6799H145.69V38.4899C145.69 30.0899 145.06 24.1499 143.85 24.1499C142.43 24.1499 141.43 27.3499 141.33 33.5499V48.6699H129.78V22.4199H131.88L140.75 25.8299C142.01 22.4199 144.06 21.6299 146.21 21.6299C153.77 21.6299 157.24 27.6699 157.24 36.5399V48.6699V48.6799Z" fill="#151515"/>
<path d="M177.77 45.32C176.51 48.73 174.2 49.47 170.79 49.47C163.91 49.47 160.39 43.9 160.39 35.55C160.39 27.2 163.91 21.63 170.79 21.63C173.68 21.63 175.78 22.21 177.09 24.47V9.29004H188.64V48.67H186.54L177.77 45.31V45.32ZM174.57 41.07C176.04 41.07 177.09 37.66 177.09 32.72C177.09 27.78 176.04 24.42 174.57 24.42C172.99 24.42 171.94 27.78 171.94 32.77C171.94 37.76 172.99 41.07 174.57 41.07Z" fill="#151515"/>
<path d="M0 58.7502H28.51V69.2502H16.75C14.96 71.3502 14.7 72.5002 14.7 75.5502C14.7 78.0202 16.59 80.6402 19.32 80.6402C21.26 80.6402 22.21 80.1702 24.2 78.5902L27.09 92.7102C23.21 95.4402 21.89 96.2802 17.27 96.2802C8.29 96.2802 2.68 89.8202 2.68 82.0502C2.68 72.8102 10.87 69.2402 14.7 69.2402H0V58.7402V58.7502Z" fill="#151515"/>
<path d="M87.5196 95.5H75.9696V82.22C75.9696 73.82 75.4396 70.99 74.4996 70.99C73.3996 70.99 72.6596 74.4 72.6096 80.96V95.5H61.0596V69.25H63.1596L71.9296 72.61C73.0296 69.25 74.9696 68.46 77.5496 68.46C82.1196 68.46 84.8996 70.09 86.3696 73.87C87.2596 69.46 89.1496 68.46 92.2996 68.46C98.0196 68.46 102.43 71.35 102.43 81.27V95.5H90.8796V82.22C90.8796 73.82 90.3596 70.99 89.4096 70.99C88.1996 70.99 87.4696 74.87 87.5196 82.38V95.51V95.5Z" fill="#151515"/>
<path d="M146.53 72.87V95.5H134.98V69.25H137.08L146.53 72.87ZM154.15 68.46C157.77 68.46 160.19 70.93 160.19 74.5C160.19 78.07 157.77 80.54 154.15 80.54C150.53 80.54 148.11 78.12 148.11 74.5C148.11 70.88 150.58 68.46 154.15 68.46Z" fill="#151515"/>
<path d="M173.83 72.87V95.5H162.28V69.25H164.38L173.83 72.87ZM181.45 68.46C185.07 68.46 187.49 70.93 187.49 74.5C187.49 78.07 185.07 80.54 181.45 80.54C177.83 80.54 175.41 78.12 175.41 74.5C175.41 70.88 177.88 68.46 181.45 68.46Z" fill="#151515"/>
<path d="M226.6 88.99L222.09 77.7C220.73 74.23 219.41 71.61 216.1 68.46C226.13 68.46 229.7 68.57 232.69 76.07L237.05 87.04C238.47 90.61 241.14 94.18 245.66 96.28C235.11 96.28 229.44 96.07 226.6 88.98V88.99Z" fill="#591CBC"/>
<path d="M240.77 88.99L236.26 77.7C234.9 74.23 233.58 71.61 230.27 68.46C240.3 68.46 243.87 68.57 246.86 76.07L249.43 82.53C251.43 87.46 254.79 87.25 258.99 87.25L260.83 96.28C250.28 96.28 243.61 96.07 240.77 88.98V88.99Z" fill="#11A24A"/>
<path d="M255.21 68.46C258.83 68.46 261.25 70.93 261.25 74.5C261.25 78.07 258.83 80.54 255.21 80.54C251.59 80.54 249.17 78.12 249.17 74.5C249.17 70.88 251.64 68.46 255.21 68.46Z" fill="#F15A29"/>
<path d="M202.71 68.46C194.83 68.46 189.58 74.02 189.58 82.37C189.58 90.72 194.83 96.28 202.71 96.28C210.59 96.28 215.83 90.71 215.83 82.37C215.83 74.03 210.58 68.46 202.71 68.46ZM202.26 88.41C198.69 88.41 196.22 85.99 196.22 82.37C196.22 78.75 198.69 76.33 202.26 76.33C205.83 76.33 208.3 78.8 208.3 82.37C208.3 85.94 205.88 88.41 202.26 88.41Z" fill="#151515"/>
<path d="M113.5 21.6401C105.62 21.6401 100.37 27.2101 100.37 35.5601C100.37 43.9101 105.62 49.4801 113.5 49.4801C121.38 49.4801 126.63 43.9101 126.63 35.5601C126.63 27.2101 121.38 21.6401 113.5 21.6401ZM113.5 41.5901C109.93 41.5901 107.46 39.1701 107.46 35.5501C107.46 31.9301 109.93 29.5101 113.5 29.5101C117.07 29.5101 119.54 31.9801 119.54 35.5501C119.54 39.1201 117.12 41.5901 113.5 41.5901Z" fill="#151515"/>
<path d="M44.7804 68.46C36.9004 68.46 31.6504 74.02 31.6504 82.37C31.6504 90.72 36.9004 96.28 44.7804 96.28C52.6604 96.28 57.9004 90.71 57.9004 82.37C57.9004 74.03 52.6504 68.46 44.7804 68.46ZM44.7804 88.41C41.2104 88.41 38.7404 85.99 38.7404 82.37C38.7404 78.75 41.2104 76.33 44.7804 76.33C48.3504 76.33 50.8204 78.8 50.8204 82.37C50.8204 85.94 48.4004 88.41 44.7804 88.41Z" fill="#151515"/>
<path d="M118.71 68.46C110.83 68.46 105.58 74.02 105.58 82.37C105.58 90.72 110.83 96.28 118.71 96.28C126.59 96.28 131.83 90.71 131.83 82.37C131.83 74.03 126.58 68.46 118.71 68.46ZM118.71 88.41C115.14 88.41 112.67 85.99 112.67 82.37C112.67 78.75 115.14 76.33 118.71 76.33C122.28 76.33 124.75 78.8 124.75 82.37C124.75 85.94 122.33 88.41 118.71 88.41Z" fill="#151515"/>
<path d="M4.29339 113.122C3.6944 113.122 3.17221 113.026 2.72681 112.834C2.2814 112.642 1.93583 112.374 1.6901 112.028C1.45204 111.683 1.33301 111.276 1.33301 110.807V110.519C1.33301 110.481 1.34453 110.45 1.36756 110.427C1.39828 110.396 1.43284 110.381 1.47123 110.381H2.49643C2.53482 110.381 2.56554 110.396 2.58858 110.427C2.61929 110.45 2.63465 110.481 2.63465 110.519V110.738C2.63465 111.091 2.79208 111.387 3.10693 111.625C3.42178 111.855 3.85183 111.971 4.39706 111.971C4.8655 111.971 5.21875 111.871 5.45681 111.671C5.69487 111.471 5.81389 111.214 5.81389 110.899C5.81389 110.684 5.74862 110.504 5.61807 110.358C5.48752 110.204 5.29938 110.066 5.05364 109.943C4.81558 109.82 4.45465 109.667 3.97086 109.482C3.42562 109.283 2.98406 109.095 2.64617 108.918C2.30828 108.741 2.02415 108.503 1.79377 108.204C1.57107 107.897 1.45972 107.517 1.45972 107.063C1.45972 106.388 1.70545 105.854 2.19693 105.462C2.68841 105.071 3.34499 104.875 4.16668 104.875C4.74263 104.875 5.24946 104.975 5.68719 105.174C6.13259 105.374 6.47816 105.654 6.7239 106.015C6.96963 106.368 7.0925 106.779 7.0925 107.248V107.444C7.0925 107.482 7.07714 107.517 7.04643 107.547C7.02339 107.57 6.99267 107.582 6.95428 107.582H5.91757C5.87917 107.582 5.84461 107.57 5.81389 107.547C5.79086 107.517 5.77934 107.482 5.77934 107.444V107.317C5.77934 106.956 5.62959 106.653 5.3301 106.407C5.03828 106.153 4.63128 106.027 4.10908 106.027C3.68672 106.027 3.35651 106.115 3.11845 106.292C2.88807 106.468 2.77288 106.718 2.77288 107.04C2.77288 107.271 2.83432 107.459 2.95718 107.605C3.08005 107.751 3.26436 107.885 3.5101 108.008C3.75584 108.123 4.13596 108.273 4.65048 108.457C5.19571 108.665 5.62959 108.853 5.95212 109.022C6.28233 109.191 6.56263 109.429 6.79301 109.736C7.03107 110.035 7.1501 110.412 7.1501 110.865C7.1501 111.556 6.89284 112.105 6.37833 112.512C5.87149 112.919 5.17651 113.122 4.29339 113.122ZM11.1912 107.052C11.8132 107.052 12.3085 107.236 12.6771 107.605C13.0534 107.973 13.2416 108.476 13.2416 109.114V112.892C13.2416 112.93 13.2262 112.965 13.1955 112.996C13.1725 113.019 13.1417 113.03 13.1033 113.03H12.0436C12.0052 113.03 11.9706 113.019 11.9399 112.996C11.9169 112.965 11.9054 112.93 11.9054 112.892V109.39C11.9054 109.037 11.8055 108.753 11.6059 108.538C11.4062 108.315 11.1413 108.204 10.8111 108.204C10.4809 108.204 10.2121 108.311 10.0047 108.526C9.80508 108.741 9.70524 109.026 9.70524 109.379V112.892C9.70524 112.93 9.68989 112.965 9.65917 112.996C9.63613 113.019 9.60541 113.03 9.56702 113.03H8.50727C8.46887 113.03 8.43432 113.019 8.4036 112.996C8.38056 112.965 8.36904 112.93 8.36904 112.892V105.105C8.36904 105.067 8.38056 105.036 8.4036 105.013C8.43432 104.982 8.46887 104.967 8.50727 104.967H9.56702C9.60541 104.967 9.63613 104.982 9.65917 105.013C9.68989 105.036 9.70524 105.067 9.70524 105.105V107.651C9.70524 107.674 9.71292 107.689 9.72828 107.697C9.74364 107.705 9.75516 107.697 9.76284 107.674C10.0777 107.259 10.5538 107.052 11.1912 107.052ZM16.8809 107.052C17.3647 107.052 17.7909 107.136 18.1596 107.305C18.5282 107.474 18.8123 107.708 19.012 108.008C19.2116 108.3 19.3115 108.634 19.3115 109.01V112.892C19.3115 112.93 19.2961 112.965 19.2654 112.996C19.2423 113.019 19.2116 113.03 19.1732 113.03H18.1135C18.0751 113.03 18.0405 113.019 18.0098 112.996C17.9868 112.965 17.9753 112.93 17.9753 112.892V112.523C17.9753 112.5 17.9676 112.489 17.9522 112.489C17.9369 112.481 17.9215 112.485 17.9061 112.5C17.5298 112.915 16.9846 113.122 16.2704 113.122C15.6945 113.122 15.2184 112.977 14.8421 112.685C14.4735 112.393 14.2892 111.959 14.2892 111.383C14.2892 110.784 14.4965 110.319 14.9112 109.989C15.3336 109.651 15.9249 109.482 16.6851 109.482H17.9177C17.9561 109.482 17.9753 109.463 17.9753 109.425V109.148C17.9753 108.849 17.8869 108.618 17.7103 108.457C17.5337 108.288 17.2688 108.204 16.9155 108.204C16.6237 108.204 16.3856 108.258 16.2013 108.365C16.0247 108.465 15.9134 108.607 15.8673 108.791C15.8442 108.883 15.7905 108.922 15.706 108.906L14.5887 108.768C14.5503 108.761 14.5157 108.749 14.485 108.734C14.462 108.711 14.4543 108.684 14.462 108.653C14.5234 108.185 14.773 107.801 15.2107 107.501C15.6561 107.202 16.2128 107.052 16.8809 107.052ZM16.6045 112.063C16.9808 112.063 17.3033 111.963 17.5721 111.763C17.8409 111.564 17.9753 111.31 17.9753 111.003V110.462C17.9753 110.423 17.9561 110.404 17.9177 110.404H16.9501C16.5431 110.404 16.2205 110.481 15.9825 110.634C15.7521 110.788 15.6369 111.007 15.6369 111.291C15.6369 111.537 15.7252 111.729 15.9018 111.867C16.0861 111.997 16.3204 112.063 16.6045 112.063ZM25.6407 108.665C25.7789 109.056 25.848 109.536 25.848 110.104C25.848 110.65 25.7828 111.118 25.6522 111.51C25.4833 112.017 25.2106 112.412 24.8344 112.696C24.4658 112.98 23.9973 113.122 23.429 113.122C22.8838 113.122 22.4461 112.927 22.1159 112.535C22.1005 112.52 22.0852 112.516 22.0698 112.523C22.0544 112.531 22.0468 112.546 22.0468 112.57V115.069C22.0468 115.108 22.0314 115.138 22.0007 115.161C21.9776 115.192 21.9469 115.207 21.9085 115.207H20.8488C20.8104 115.207 20.7758 115.192 20.7451 115.161C20.7221 115.138 20.7106 115.108 20.7106 115.069V107.282C20.7106 107.244 20.7221 107.213 20.7451 107.19C20.7758 107.159 20.8104 107.144 20.8488 107.144H21.9085C21.9469 107.144 21.9776 107.159 22.0007 107.19C22.0314 107.213 22.0468 107.244 22.0468 107.282V107.628C22.0468 107.651 22.0544 107.666 22.0698 107.674C22.0852 107.682 22.1005 107.674 22.1159 107.651C22.4538 107.252 22.8953 107.052 23.4406 107.052C23.9858 107.052 24.4466 107.194 24.8228 107.478C25.1991 107.762 25.4717 108.158 25.6407 108.665ZM24.1432 111.487C24.3736 111.133 24.4888 110.665 24.4888 110.081C24.4888 109.521 24.3966 109.079 24.2123 108.757C23.9973 108.38 23.6709 108.192 23.2332 108.192C22.8339 108.192 22.5344 108.377 22.3347 108.745C22.1581 109.045 22.0698 109.49 22.0698 110.081C22.0698 110.688 22.1658 111.149 22.3578 111.464C22.5574 111.802 22.8454 111.971 23.2217 111.971C23.6287 111.971 23.9359 111.809 24.1432 111.487ZM27.9039 106.338C27.6658 106.338 27.47 106.261 27.3164 106.107C27.1628 105.954 27.0861 105.758 27.0861 105.52C27.0861 105.282 27.1628 105.086 27.3164 104.932C27.47 104.779 27.6658 104.702 27.9039 104.702C28.142 104.702 28.3378 104.779 28.4914 104.932C28.645 105.086 28.7218 105.282 28.7218 105.52C28.7218 105.758 28.645 105.954 28.4914 106.107C28.3378 106.261 28.142 106.338 27.9039 106.338ZM27.351 113.03C27.3126 113.03 27.278 113.019 27.2473 112.996C27.2243 112.965 27.2128 112.93 27.2128 112.892V107.271C27.2128 107.232 27.2243 107.202 27.2473 107.179C27.278 107.148 27.3126 107.133 27.351 107.133H28.4107C28.4491 107.133 28.4799 107.148 28.5029 107.179C28.5336 107.202 28.549 107.232 28.549 107.271V112.892C28.549 112.93 28.5336 112.965 28.5029 112.996C28.4799 113.019 28.4491 113.03 28.4107 113.03H27.351ZM32.9018 107.052C33.5238 107.052 34.0191 107.236 34.3877 107.605C34.764 107.973 34.9522 108.476 34.9522 109.114V112.892C34.9522 112.93 34.9368 112.965 34.9061 112.996C34.8831 113.019 34.8523 113.03 34.8139 113.03H33.7542C33.7158 113.03 33.6812 113.019 33.6505 112.996C33.6275 112.965 33.616 112.93 33.616 112.892V109.39C33.616 109.037 33.5161 108.753 33.3165 108.538C33.1168 108.315 32.8519 108.204 32.5217 108.204C32.1915 108.204 31.9227 108.311 31.7153 108.526C31.5157 108.741 31.4158 109.026 31.4158 109.379V112.892C31.4158 112.93 31.4005 112.965 31.3698 112.996C31.3467 113.019 31.316 113.03 31.2776 113.03H30.2179C30.1795 113.03 30.1449 113.019 30.1142 112.996C30.0912 112.965 30.0796 112.93 30.0796 112.892V107.282C30.0796 107.244 30.0912 107.213 30.1142 107.19C30.1449 107.159 30.1795 107.144 30.2179 107.144H31.2776C31.316 107.144 31.3467 107.159 31.3698 107.19C31.4005 107.213 31.4158 107.244 31.4158 107.282V107.651C31.4158 107.674 31.4235 107.689 31.4389 107.697C31.4542 107.705 31.4658 107.697 31.4734 107.674C31.7883 107.259 32.2644 107.052 32.9018 107.052ZM39.9508 107.282C39.9508 107.244 39.9623 107.213 39.9853 107.19C40.0161 107.159 40.0506 107.144 40.089 107.144H41.1488C41.1872 107.144 41.2179 107.159 41.2409 107.19C41.2716 107.213 41.287 107.244 41.287 107.282V112.639C41.287 113.599 41.0105 114.282 40.4576 114.689C39.9124 115.104 39.1944 115.311 38.3036 115.311C38.0655 115.311 37.8313 115.3 37.6009 115.276C37.5164 115.269 37.4742 115.219 37.4742 115.127L37.5088 114.182C37.5088 114.098 37.5625 114.055 37.67 114.055C37.8927 114.079 38.0924 114.09 38.269 114.09C38.845 114.09 39.2673 113.975 39.5361 113.744C39.8126 113.522 39.9508 113.142 39.9508 112.604V112.512C39.9508 112.489 39.9431 112.477 39.9277 112.477C39.9124 112.47 39.897 112.474 39.8817 112.489C39.5668 112.827 39.1214 112.996 38.5455 112.996C38.0463 112.996 37.5894 112.869 37.1747 112.616C36.76 112.362 36.4721 111.974 36.3108 111.452C36.211 111.091 36.161 110.627 36.161 110.058C36.161 109.421 36.2225 108.933 36.3453 108.595C36.4989 108.127 36.7639 107.755 37.1402 107.478C37.5164 107.194 37.958 107.052 38.4648 107.052C39.0715 107.052 39.5438 107.229 39.8817 107.582C39.897 107.605 39.9124 107.613 39.9277 107.605C39.9431 107.597 39.9508 107.582 39.9508 107.559V107.282ZM39.8702 111.072C39.9009 110.957 39.9201 110.834 39.9277 110.703C39.9431 110.565 39.9508 110.346 39.9508 110.047C39.9508 109.755 39.9431 109.548 39.9277 109.425C39.9201 109.294 39.897 109.168 39.8586 109.045C39.7972 108.791 39.6705 108.588 39.4785 108.434C39.2942 108.281 39.0561 108.204 38.7643 108.204C38.4879 108.204 38.2537 108.281 38.0617 108.434C37.8697 108.588 37.7315 108.791 37.647 109.045C37.5548 109.26 37.5088 109.598 37.5088 110.058C37.5088 110.534 37.5472 110.869 37.624 111.061C37.7007 111.306 37.839 111.51 38.0386 111.671C38.246 111.825 38.4917 111.901 38.7758 111.901C39.0753 111.901 39.3172 111.825 39.5015 111.671C39.6859 111.517 39.8087 111.318 39.8702 111.072ZM45.2239 113.03C45.1861 113.03 45.152 113.019 45.1218 112.996C45.0991 112.966 45.0877 112.932 45.0877 112.894V105.221C45.0877 105.184 45.0991 105.153 45.1218 105.131C45.152 105.1 45.1861 105.085 45.2239 105.085H46.2681C46.3059 105.085 46.3362 105.1 46.3589 105.131C46.3892 105.153 46.4043 105.184 46.4043 105.221V108.615C46.4043 108.638 46.4119 108.653 46.427 108.661C46.4421 108.668 46.4573 108.664 46.4724 108.649L49.4234 105.165C49.4688 105.112 49.5256 105.085 49.5937 105.085H50.7741C50.8497 105.085 50.8876 105.112 50.8876 105.165C50.8876 105.187 50.8762 105.218 50.8535 105.256L48.2544 108.445C48.2317 108.475 48.2279 108.502 48.243 108.524L51.0351 112.871C51.0502 112.917 51.0578 112.943 51.0578 112.951C51.0578 113.004 51.02 113.03 50.9443 113.03H49.7526C49.6845 113.03 49.6315 113 49.5937 112.939L47.3464 109.444C47.3161 109.398 47.2896 109.394 47.2669 109.432L46.427 110.408C46.4119 110.439 46.4043 110.465 46.4043 110.488V112.894C46.4043 112.932 46.3892 112.966 46.3589 112.996C46.3362 113.019 46.3059 113.03 46.2681 113.03H45.2239ZM56.5716 109.478C56.6019 109.667 56.617 109.879 56.617 110.113L56.6057 110.465C56.6057 110.556 56.5603 110.601 56.4695 110.601H52.9169C52.8791 110.601 52.8602 110.62 52.8602 110.658C52.8829 110.908 52.9169 111.078 52.9623 111.169C53.1439 111.714 53.5866 111.99 54.2903 111.997C54.8048 111.997 55.2134 111.786 55.5161 111.362C55.5463 111.316 55.5842 111.294 55.6296 111.294C55.6598 111.294 55.6863 111.305 55.709 111.328L56.4127 111.907C56.4808 111.96 56.4922 112.02 56.4468 112.088C56.2122 112.421 55.8982 112.678 55.5047 112.86C55.1188 113.042 54.6875 113.132 54.2108 113.132C53.6206 113.132 53.1174 113 52.7013 112.735C52.2927 112.47 51.9938 112.1 51.8046 111.623C51.6306 111.214 51.5436 110.647 51.5436 109.92C51.5436 109.482 51.589 109.126 51.6798 108.853C51.8311 108.324 52.1148 107.908 52.531 107.605C52.9547 107.295 53.4617 107.14 54.0519 107.14C55.5425 107.14 56.3824 107.919 56.5716 109.478ZM54.0519 108.275C53.7719 108.275 53.5374 108.347 53.3482 108.49C53.1666 108.626 53.038 108.819 52.9623 109.069C52.9169 109.198 52.8866 109.364 52.8715 109.569C52.8564 109.606 52.8715 109.625 52.9169 109.625H55.221C55.2588 109.625 55.2777 109.606 55.2777 109.569C55.2626 109.379 55.2399 109.236 55.2096 109.137C55.1415 108.865 55.0053 108.653 54.801 108.502C54.6043 108.35 54.3546 108.275 54.0519 108.275ZM60.5216 107.162C60.7637 107.162 60.9756 107.212 61.1572 107.31C61.2177 107.34 61.2404 107.397 61.2253 107.48L61.0323 108.502C61.0248 108.592 60.9718 108.619 60.8734 108.581C60.7599 108.543 60.6275 108.524 60.4762 108.524C60.3778 108.524 60.3021 108.528 60.2492 108.536C59.9314 108.551 59.6665 108.664 59.4547 108.876C59.2428 109.08 59.1369 109.349 59.1369 109.682V112.894C59.1369 112.932 59.1217 112.966 59.0915 112.996C59.0688 113.019 59.0385 113.03 59.0007 113.03H57.9565C57.9186 113.03 57.8846 113.019 57.8543 112.996C57.8316 112.966 57.8203 112.932 57.8203 112.894V107.367C57.8203 107.329 57.8316 107.299 57.8543 107.276C57.8846 107.246 57.9186 107.23 57.9565 107.23H59.0007C59.0385 107.23 59.0688 107.246 59.0915 107.276C59.1217 107.299 59.1369 107.329 59.1369 107.367V107.877C59.1369 107.908 59.1407 107.927 59.1482 107.934C59.1634 107.934 59.1785 107.923 59.1936 107.9C59.5114 107.408 59.9541 107.162 60.5216 107.162ZM64.2454 107.14C64.7221 107.14 65.1421 107.223 65.5053 107.389C65.8685 107.556 66.1485 107.787 66.3452 108.082C66.5419 108.369 66.6403 108.698 66.6403 109.069V112.894C66.6403 112.932 66.6252 112.966 66.5949 112.996C66.5722 113.019 66.5419 113.03 66.5041 113.03H65.4599C65.4221 113.03 65.388 113.019 65.3577 112.996C65.335 112.966 65.3237 112.932 65.3237 112.894V112.531C65.3237 112.508 65.3161 112.497 65.301 112.497C65.2859 112.489 65.2707 112.493 65.2556 112.508C64.8848 112.917 64.3476 113.121 63.6439 113.121C63.0764 113.121 62.6073 112.977 62.2365 112.69C61.8733 112.402 61.6917 111.975 61.6917 111.407C61.6917 110.817 61.896 110.359 62.3046 110.034C62.7208 109.701 63.3034 109.534 64.0525 109.534H65.2669C65.3048 109.534 65.3237 109.516 65.3237 109.478V109.205C65.3237 108.91 65.2367 108.683 65.0626 108.524C64.8886 108.358 64.6276 108.275 64.2795 108.275C63.992 108.275 63.7574 108.328 63.5758 108.434C63.4018 108.532 63.292 108.672 63.2466 108.853C63.2239 108.944 63.171 108.982 63.0877 108.967L61.9868 108.831C61.949 108.823 61.9149 108.812 61.8846 108.797C61.8619 108.774 61.8544 108.748 61.8619 108.717C61.9225 108.256 62.1684 107.877 62.5997 107.582C63.0386 107.287 63.5871 107.14 64.2454 107.14ZM63.973 112.077C64.3438 112.077 64.6616 111.979 64.9264 111.782C65.1913 111.585 65.3237 111.335 65.3237 111.033V110.499C65.3237 110.461 65.3048 110.442 65.2669 110.442H64.3135C63.9125 110.442 63.5947 110.518 63.3601 110.669C63.1331 110.821 63.0196 111.036 63.0196 111.316C63.0196 111.559 63.1067 111.748 63.2807 111.884C63.4623 112.013 63.6931 112.077 63.973 112.077ZM68.0983 113.03C68.0605 113.03 68.0264 113.019 67.9962 112.996C67.9735 112.966 67.9621 112.932 67.9621 112.894V105.221C67.9621 105.184 67.9735 105.153 67.9962 105.131C68.0264 105.1 68.0605 105.085 68.0983 105.085H69.1425C69.1804 105.085 69.2106 105.1 69.2333 105.131C69.2636 105.153 69.2787 105.184 69.2787 105.221V112.894C69.2787 112.932 69.2636 112.966 69.2333 112.996C69.2106 113.019 69.1804 113.03 69.1425 113.03H68.0983ZM72.891 107.14C73.3677 107.14 73.7876 107.223 74.1508 107.389C74.514 107.556 74.794 107.787 74.9907 108.082C75.1874 108.369 75.2858 108.698 75.2858 109.069V112.894C75.2858 112.932 75.2707 112.966 75.2404 112.996C75.2177 113.019 75.1874 113.03 75.1496 113.03H74.1054C74.0676 113.03 74.0335 113.019 74.0033 112.996C73.9806 112.966 73.9692 112.932 73.9692 112.894V112.531C73.9692 112.508 73.9616 112.497 73.9465 112.497C73.9314 112.489 73.9162 112.493 73.9011 112.508C73.5303 112.917 72.9931 113.121 72.2894 113.121C71.7219 113.121 71.2528 112.977 70.882 112.69C70.5188 112.402 70.3372 111.975 70.3372 111.407C70.3372 110.817 70.5415 110.359 70.9501 110.034C71.3663 109.701 71.9489 109.534 72.698 109.534H73.9125C73.9503 109.534 73.9692 109.516 73.9692 109.478V109.205C73.9692 108.91 73.8822 108.683 73.7082 108.524C73.5341 108.358 73.2731 108.275 72.925 108.275C72.6375 108.275 72.4029 108.328 72.2213 108.434C72.0473 108.532 71.9376 108.672 71.8922 108.853C71.8695 108.944 71.8165 108.982 71.7333 108.967L70.6323 108.831C70.5945 108.823 70.5604 108.812 70.5302 108.797C70.5075 108.774 70.4999 108.748 70.5075 108.717C70.568 108.256 70.8139 107.877 71.2452 107.582C71.6841 107.287 72.2327 107.14 72.891 107.14ZM72.6186 112.077C72.9893 112.077 73.3071 111.979 73.572 111.782C73.8368 111.585 73.9692 111.335 73.9692 111.033V110.499C73.9692 110.461 73.9503 110.442 73.9125 110.442H72.9591C72.558 110.442 72.2402 110.518 72.0057 110.669C71.7787 110.821 71.6652 111.036 71.6652 111.316C71.6652 111.559 71.7522 111.748 71.9262 111.884C72.1078 112.013 72.3386 112.077 72.6186 112.077ZM77.5996 105.085C77.6526 105.085 77.6866 105.1 77.7018 105.131C77.7169 105.161 77.7169 105.199 77.7018 105.244L76.8051 107.457C76.7824 107.526 76.7294 107.56 76.6462 107.56H75.8744C75.829 107.56 75.795 107.548 75.7723 107.526C75.7571 107.495 75.7533 107.457 75.7609 107.412L76.3965 105.199C76.4192 105.123 76.4722 105.085 76.5554 105.085H77.5996ZM79.8504 113.098C79.3737 113.098 78.9537 113.03 78.5905 112.894C78.2349 112.75 77.9587 112.557 77.762 112.315C77.5652 112.066 77.4669 111.789 77.4669 111.487V111.385C77.4669 111.347 77.4782 111.316 77.5009 111.294C77.5312 111.263 77.5652 111.248 77.6031 111.248H78.6019C78.6397 111.248 78.67 111.263 78.6927 111.294C78.7229 111.316 78.7381 111.347 78.7381 111.385V111.407C78.7381 111.596 78.8402 111.763 79.0445 111.907C79.2564 112.043 79.5212 112.111 79.839 112.111C80.1417 112.111 80.3876 112.05 80.5768 111.929C80.7659 111.801 80.8605 111.642 80.8605 111.453C80.8605 111.279 80.7811 111.15 80.6222 111.067C80.4708 110.976 80.2211 110.881 79.8731 110.783L79.4418 110.647C79.0559 110.533 78.7305 110.412 78.4657 110.284C78.2008 110.155 77.9776 109.981 77.796 109.761C77.6144 109.534 77.5236 109.247 77.5236 108.899C77.5236 108.369 77.7317 107.949 78.1479 107.639C78.564 107.321 79.1126 107.162 79.7936 107.162C80.2552 107.162 80.66 107.238 81.0081 107.389C81.3561 107.533 81.6247 107.737 81.8139 108.002C82.0031 108.259 82.0977 108.555 82.0977 108.888C82.0977 108.925 82.0825 108.959 82.0523 108.99C82.0296 109.012 81.9993 109.024 81.9615 109.024H80.9967C80.9589 109.024 80.9248 109.012 80.8946 108.99C80.8719 108.959 80.8605 108.925 80.8605 108.888C80.8605 108.691 80.7621 108.528 80.5654 108.399C80.3762 108.263 80.1152 108.195 79.7823 108.195C79.4872 108.195 79.245 108.252 79.0559 108.365C78.8743 108.471 78.7835 108.623 78.7835 108.819C78.7835 109.001 78.8705 109.141 79.0445 109.239C79.2261 109.33 79.525 109.432 79.9412 109.546L80.1909 109.614C80.5919 109.735 80.9286 109.86 81.201 109.988C81.4734 110.11 81.7042 110.284 81.8934 110.511C82.0825 110.73 82.1771 111.018 82.1771 111.373C82.1771 111.91 81.9652 112.334 81.5415 112.644C81.1178 112.947 80.5541 113.098 79.8504 113.098ZM88.3442 113.121C87.7767 113.121 87.2773 113.011 86.846 112.792C86.4147 112.565 86.0818 112.251 85.8472 111.85C85.6127 111.449 85.4954 110.983 85.4954 110.454V107.65C85.4954 107.121 85.6127 106.655 85.8472 106.254C86.0818 105.853 86.4147 105.543 86.846 105.324C87.2773 105.104 87.7767 104.994 88.3442 104.994C88.9042 104.994 89.3998 105.1 89.8311 105.312C90.2624 105.524 90.5953 105.823 90.8299 106.209C91.0645 106.595 91.1817 107.041 91.1817 107.548C91.1817 107.586 91.1666 107.62 91.1363 107.65C91.1136 107.673 91.0834 107.684 91.0455 107.684L90.0013 107.741C89.9105 107.741 89.8651 107.7 89.8651 107.616C89.8651 107.17 89.7252 106.81 89.4452 106.538C89.1728 106.266 88.8058 106.129 88.3442 106.129C87.8827 106.129 87.5119 106.266 87.2319 106.538C86.952 106.81 86.812 107.17 86.812 107.616V110.511C86.812 110.949 86.952 111.305 87.2319 111.577C87.5119 111.85 87.8827 111.986 88.3442 111.986C88.8058 111.986 89.1728 111.854 89.4452 111.589C89.7252 111.316 89.8651 110.957 89.8651 110.511C89.8651 110.427 89.9105 110.386 90.0013 110.386L91.0455 110.431C91.0834 110.431 91.1136 110.442 91.1363 110.465C91.1666 110.488 91.1817 110.514 91.1817 110.545C91.1817 111.059 91.0645 111.513 90.8299 111.907C90.5953 112.293 90.2624 112.591 89.8311 112.803C89.3998 113.015 88.9042 113.121 88.3442 113.121ZM95.8965 107.367C95.8965 107.329 95.9079 107.299 95.9306 107.276C95.9608 107.246 95.9949 107.23 96.0327 107.23H97.0656C97.1034 107.23 97.1337 107.246 97.1564 107.276C97.1866 107.299 97.2018 107.329 97.2018 107.367V112.894C97.2018 112.932 97.1866 112.966 97.1564 112.996C97.1337 113.019 97.1034 113.03 97.0656 113.03H96.0327C95.9949 113.03 95.9608 113.019 95.9306 112.996C95.9079 112.966 95.8965 112.932 95.8965 112.894V112.531C95.8965 112.508 95.889 112.493 95.8738 112.485C95.8587 112.478 95.8436 112.485 95.8284 112.508C95.5182 112.909 95.0528 113.11 94.4324 113.11C93.8573 113.11 93.373 112.943 92.9796 112.61C92.5937 112.277 92.4007 111.804 92.4007 111.192V107.367C92.4007 107.329 92.4121 107.299 92.4348 107.276C92.465 107.246 92.4991 107.23 92.5369 107.23H93.5811C93.619 107.23 93.6492 107.246 93.6719 107.276C93.7022 107.299 93.7173 107.329 93.7173 107.367V110.817C93.7173 111.173 93.8081 111.456 93.9897 111.668C94.1789 111.88 94.4399 111.986 94.7729 111.986C95.1134 111.986 95.3858 111.88 95.5901 111.668C95.7944 111.456 95.8965 111.173 95.8965 110.817V107.367ZM98.7455 113.03C98.7077 113.03 98.6737 113.019 98.6434 112.996C98.6207 112.966 98.6093 112.932 98.6093 112.894V105.221C98.6093 105.184 98.6207 105.153 98.6434 105.131C98.6737 105.1 98.7077 105.085 98.7455 105.085H99.7897C99.8276 105.085 99.8578 105.1 99.8805 105.131C99.9108 105.153 99.9259 105.184 99.9259 105.221V112.894C99.9259 112.932 99.9108 112.966 99.8805 112.996C99.8578 113.019 99.8276 113.03 99.7897 113.03H98.7455ZM104.401 108.161C104.401 108.199 104.386 108.233 104.356 108.263C104.333 108.286 104.303 108.297 104.265 108.297H103.107C103.069 108.297 103.051 108.316 103.051 108.354V111.089C103.051 111.377 103.111 111.585 103.232 111.714C103.361 111.842 103.561 111.907 103.834 111.907H104.174C104.212 111.907 104.242 111.922 104.265 111.952C104.295 111.975 104.31 112.005 104.31 112.043V112.894C104.31 112.977 104.265 113.026 104.174 113.042L103.584 113.053C102.986 113.053 102.54 112.951 102.245 112.747C101.95 112.542 101.798 112.156 101.791 111.589V108.354C101.791 108.316 101.772 108.297 101.734 108.297H101.087C101.049 108.297 101.015 108.286 100.985 108.263C100.962 108.233 100.951 108.199 100.951 108.161V107.367C100.951 107.329 100.962 107.299 100.985 107.276C101.015 107.246 101.049 107.23 101.087 107.23H101.734C101.772 107.23 101.791 107.212 101.791 107.174V105.846C101.791 105.808 101.802 105.778 101.825 105.755C101.855 105.725 101.889 105.71 101.927 105.71H102.914C102.952 105.71 102.982 105.725 103.005 105.755C103.035 105.778 103.051 105.808 103.051 105.846V107.174C103.051 107.212 103.069 107.23 103.107 107.23H104.265C104.303 107.23 104.333 107.246 104.356 107.276C104.386 107.299 104.401 107.329 104.401 107.367V108.161ZM108.998 107.367C108.998 107.329 109.01 107.299 109.032 107.276C109.063 107.246 109.097 107.23 109.134 107.23H110.167C110.205 107.23 110.235 107.246 110.258 107.276C110.288 107.299 110.303 107.329 110.303 107.367V112.894C110.303 112.932 110.288 112.966 110.258 112.996C110.235 113.019 110.205 113.03 110.167 113.03H109.134C109.097 113.03 109.063 113.019 109.032 112.996C109.01 112.966 108.998 112.932 108.998 112.894V112.531C108.998 112.508 108.991 112.493 108.975 112.485C108.96 112.478 108.945 112.485 108.93 112.508C108.62 112.909 108.155 113.11 107.534 113.11C106.959 113.11 106.475 112.943 106.081 112.61C105.695 112.277 105.502 111.804 105.502 111.192V107.367C105.502 107.329 105.514 107.299 105.536 107.276C105.567 107.246 105.601 107.23 105.639 107.23H106.683C106.721 107.23 106.751 107.246 106.774 107.276C106.804 107.299 106.819 107.329 106.819 107.367V110.817C106.819 111.173 106.91 111.456 107.091 111.668C107.281 111.88 107.542 111.986 107.875 111.986C108.215 111.986 108.487 111.88 108.692 111.668C108.896 111.456 108.998 111.173 108.998 110.817V107.367ZM114.412 107.162C114.654 107.162 114.866 107.212 115.048 107.31C115.108 107.34 115.131 107.397 115.116 107.48L114.923 108.502C114.916 108.592 114.863 108.619 114.764 108.581C114.651 108.543 114.518 108.524 114.367 108.524C114.269 108.524 114.193 108.528 114.14 108.536C113.822 108.551 113.557 108.664 113.345 108.876C113.134 109.08 113.028 109.349 113.028 109.682V112.894C113.028 112.932 113.012 112.966 112.982 112.996C112.96 113.019 112.929 113.03 112.891 113.03H111.847C111.809 113.03 111.775 113.019 111.745 112.996C111.722 112.966 111.711 112.932 111.711 112.894V107.367C111.711 107.329 111.722 107.299 111.745 107.276C111.775 107.246 111.809 107.23 111.847 107.23H112.891C112.929 107.23 112.96 107.246 112.982 107.276C113.012 107.299 113.028 107.329 113.028 107.367V107.877C113.028 107.908 113.031 107.927 113.039 107.934C113.054 107.934 113.069 107.923 113.084 107.9C113.402 107.408 113.845 107.162 114.412 107.162ZM118.136 107.14C118.613 107.14 119.033 107.223 119.396 107.389C119.759 107.556 120.039 107.787 120.236 108.082C120.433 108.369 120.531 108.698 120.531 109.069V112.894C120.531 112.932 120.516 112.966 120.486 112.996C120.463 113.019 120.433 113.03 120.395 113.03H119.351C119.313 113.03 119.279 113.019 119.248 112.996C119.226 112.966 119.214 112.932 119.214 112.894V112.531C119.214 112.508 119.207 112.497 119.192 112.497C119.177 112.489 119.161 112.493 119.146 112.508C118.776 112.917 118.238 113.121 117.535 113.121C116.967 113.121 116.498 112.977 116.127 112.69C115.764 112.402 115.582 111.975 115.582 111.407C115.582 110.817 115.787 110.359 116.195 110.034C116.611 109.701 117.194 109.534 117.943 109.534H119.158C119.196 109.534 119.214 109.516 119.214 109.478V109.205C119.214 108.91 119.127 108.683 118.953 108.524C118.779 108.358 118.518 108.275 118.17 108.275C117.883 108.275 117.648 108.328 117.467 108.434C117.292 108.532 117.183 108.672 117.137 108.853C117.115 108.944 117.062 108.982 116.978 108.967L115.878 108.831C115.84 108.823 115.806 108.812 115.775 108.797C115.753 108.774 115.745 108.748 115.753 108.717C115.813 108.256 116.059 107.877 116.49 107.582C116.929 107.287 117.478 107.14 118.136 107.14ZM117.864 112.077C118.235 112.077 118.552 111.979 118.817 111.782C119.082 111.585 119.214 111.335 119.214 111.033V110.499C119.214 110.461 119.196 110.442 119.158 110.442H118.204C117.803 110.442 117.485 110.518 117.251 110.669C117.024 110.821 116.91 111.036 116.91 111.316C116.91 111.559 116.997 111.748 117.171 111.884C117.353 112.013 117.584 112.077 117.864 112.077ZM121.989 113.03C121.951 113.03 121.917 113.019 121.887 112.996C121.864 112.966 121.853 112.932 121.853 112.894V105.221C121.853 105.184 121.864 105.153 121.887 105.131C121.917 105.1 121.951 105.085 121.989 105.085H123.033C123.071 105.085 123.101 105.1 123.124 105.131C123.154 105.153 123.169 105.184 123.169 105.221V112.894C123.169 112.932 123.154 112.966 123.124 112.996C123.101 113.019 123.071 113.03 123.033 113.03H121.989ZM129.621 113.121C129.054 113.121 128.555 113.011 128.123 112.792C127.692 112.565 127.359 112.251 127.124 111.85C126.89 111.449 126.773 110.983 126.773 110.454V107.65C126.773 107.121 126.89 106.655 127.124 106.254C127.359 105.853 127.692 105.543 128.123 105.324C128.555 105.104 129.054 104.994 129.621 104.994C130.181 104.994 130.677 105.1 131.108 105.312C131.54 105.524 131.872 105.823 132.107 106.209C132.342 106.595 132.459 107.041 132.459 107.548C132.459 107.586 132.444 107.62 132.414 107.65C132.391 107.673 132.361 107.684 132.323 107.684L131.279 107.741C131.188 107.741 131.142 107.7 131.142 107.616C131.142 107.17 131.002 106.81 130.722 106.538C130.45 106.266 130.083 106.129 129.621 106.129C129.16 106.129 128.789 106.266 128.509 106.538C128.229 106.81 128.089 107.17 128.089 107.616V110.511C128.089 110.949 128.229 111.305 128.509 111.577C128.789 111.85 129.16 111.986 129.621 111.986C130.083 111.986 130.45 111.854 130.722 111.589C131.002 111.316 131.142 110.957 131.142 110.511C131.142 110.427 131.188 110.386 131.279 110.386L132.323 110.431C132.361 110.431 132.391 110.442 132.414 110.465C132.444 110.488 132.459 110.514 132.459 110.545C132.459 111.059 132.342 111.513 132.107 111.907C131.872 112.293 131.54 112.591 131.108 112.803C130.677 113.015 130.181 113.121 129.621 113.121ZM136.447 107.162C136.689 107.162 136.901 107.212 137.083 107.31C137.143 107.34 137.166 107.397 137.151 107.48L136.958 108.502C136.95 108.592 136.897 108.619 136.799 108.581C136.686 108.543 136.553 108.524 136.402 108.524C136.304 108.524 136.228 108.528 136.175 108.536C135.857 108.551 135.592 108.664 135.38 108.876C135.169 109.08 135.063 109.349 135.063 109.682V112.894C135.063 112.932 135.047 112.966 135.017 112.996C134.994 113.019 134.964 113.03 134.926 113.03H133.882C133.844 113.03 133.81 113.019 133.78 112.996C133.757 112.966 133.746 112.932 133.746 112.894V107.367C133.746 107.329 133.757 107.299 133.78 107.276C133.81 107.246 133.844 107.23 133.882 107.23H134.926C134.964 107.23 134.994 107.246 135.017 107.276C135.047 107.299 135.063 107.329 135.063 107.367V107.877C135.063 107.908 135.066 107.927 135.074 107.934C135.089 107.934 135.104 107.923 135.119 107.9C135.437 107.408 135.88 107.162 136.447 107.162ZM142.794 109.478C142.825 109.667 142.84 109.879 142.84 110.113L142.828 110.465C142.828 110.556 142.783 110.601 142.692 110.601H139.14C139.102 110.601 139.083 110.62 139.083 110.658C139.106 110.908 139.14 111.078 139.185 111.169C139.367 111.714 139.809 111.99 140.513 111.997C141.028 111.997 141.436 111.786 141.739 111.362C141.769 111.316 141.807 111.294 141.852 111.294C141.883 111.294 141.909 111.305 141.932 111.328L142.635 111.907C142.704 111.96 142.715 112.02 142.669 112.088C142.435 112.421 142.121 112.678 141.727 112.86C141.342 113.042 140.91 113.132 140.434 113.132C139.843 113.132 139.34 113 138.924 112.735C138.515 112.47 138.216 112.1 138.027 111.623C137.853 111.214 137.766 110.647 137.766 109.92C137.766 109.482 137.812 109.126 137.902 108.853C138.054 108.324 138.338 107.908 138.754 107.605C139.177 107.295 139.684 107.14 140.275 107.14C141.765 107.14 142.605 107.919 142.794 109.478ZM140.275 108.275C139.995 108.275 139.76 108.347 139.571 108.49C139.389 108.626 139.261 108.819 139.185 109.069C139.14 109.198 139.109 109.364 139.094 109.569C139.079 109.606 139.094 109.625 139.14 109.625H141.444C141.482 109.625 141.5 109.606 141.5 109.569C141.485 109.379 141.463 109.236 141.432 109.137C141.364 108.865 141.228 108.653 141.024 108.502C140.827 108.35 140.577 108.275 140.275 108.275ZM146.201 107.14C146.678 107.14 147.097 107.223 147.461 107.389C147.824 107.556 148.104 107.787 148.301 108.082C148.497 108.369 148.596 108.698 148.596 109.069V112.894C148.596 112.932 148.581 112.966 148.55 112.996C148.528 113.019 148.497 113.03 148.459 113.03H147.415C147.377 113.03 147.343 113.019 147.313 112.996C147.29 112.966 147.279 112.932 147.279 112.894V112.531C147.279 112.508 147.272 112.497 147.256 112.497C147.241 112.489 147.226 112.493 147.211 112.508C146.84 112.917 146.303 113.121 145.599 113.121C145.032 113.121 144.563 112.977 144.192 112.69C143.829 112.402 143.647 111.975 143.647 111.407C143.647 110.817 143.851 110.359 144.26 110.034C144.676 109.701 145.259 109.534 146.008 109.534H147.222C147.26 109.534 147.279 109.516 147.279 109.478V109.205C147.279 108.91 147.192 108.683 147.018 108.524C146.844 108.358 146.583 108.275 146.235 108.275C145.947 108.275 145.713 108.328 145.531 108.434C145.357 108.532 145.247 108.672 145.202 108.853C145.179 108.944 145.126 108.982 145.043 108.967L143.942 108.831C143.904 108.823 143.87 108.812 143.84 108.797C143.817 108.774 143.81 108.748 143.817 108.717C143.878 108.256 144.124 107.877 144.555 107.582C144.994 107.287 145.543 107.14 146.201 107.14ZM145.928 112.077C146.299 112.077 146.617 111.979 146.882 111.782C147.147 111.585 147.279 111.335 147.279 111.033V110.499C147.279 110.461 147.26 110.442 147.222 110.442H146.269C145.868 110.442 145.55 110.518 145.316 110.669C145.089 110.821 144.975 111.036 144.975 111.316C144.975 111.559 145.062 111.748 145.236 111.884C145.418 112.013 145.648 112.077 145.928 112.077ZM152.905 108.161C152.905 108.199 152.89 108.233 152.859 108.263C152.837 108.286 152.806 108.297 152.768 108.297H151.611C151.573 108.297 151.554 108.316 151.554 108.354V111.089C151.554 111.377 151.615 111.585 151.736 111.714C151.864 111.842 152.065 111.907 152.337 111.907H152.678C152.716 111.907 152.746 111.922 152.768 111.952C152.799 111.975 152.814 112.005 152.814 112.043V112.894C152.814 112.977 152.768 113.026 152.678 113.042L152.087 113.053C151.49 113.053 151.043 112.951 150.748 112.747C150.453 112.542 150.302 112.156 150.294 111.589V108.354C150.294 108.316 150.275 108.297 150.237 108.297H149.59C149.553 108.297 149.519 108.286 149.488 108.263C149.466 108.233 149.454 108.199 149.454 108.161V107.367C149.454 107.329 149.466 107.299 149.488 107.276C149.519 107.246 149.553 107.23 149.59 107.23H150.237C150.275 107.23 150.294 107.212 150.294 107.174V105.846C150.294 105.808 150.306 105.778 150.328 105.755C150.359 105.725 150.393 105.71 150.43 105.71H151.418C151.456 105.71 151.486 105.725 151.509 105.755C151.539 105.778 151.554 105.808 151.554 105.846V107.174C151.554 107.212 151.573 107.23 151.611 107.23H152.768C152.806 107.23 152.837 107.246 152.859 107.276C152.89 107.299 152.905 107.329 152.905 107.367V108.161ZM154.823 106.436C154.589 106.436 154.396 106.36 154.244 106.209C154.093 106.058 154.017 105.865 154.017 105.63C154.017 105.396 154.093 105.203 154.244 105.051C154.396 104.9 154.589 104.824 154.823 104.824C155.058 104.824 155.251 104.9 155.402 105.051C155.553 105.203 155.629 105.396 155.629 105.63C155.629 105.865 155.553 106.058 155.402 106.209C155.251 106.36 155.058 106.436 154.823 106.436ZM154.278 113.03C154.24 113.03 154.206 113.019 154.176 112.996C154.153 112.966 154.142 112.932 154.142 112.894V107.355C154.142 107.317 154.153 107.287 154.176 107.264C154.206 107.234 154.24 107.219 154.278 107.219H155.323C155.36 107.219 155.391 107.234 155.413 107.264C155.444 107.287 155.459 107.317 155.459 107.355V112.894C155.459 112.932 155.444 112.966 155.413 112.996C155.391 113.019 155.36 113.03 155.323 113.03H154.278ZM158.533 113.03C158.458 113.03 158.408 112.992 158.386 112.917L156.558 107.378C156.551 107.363 156.547 107.344 156.547 107.321C156.547 107.253 156.589 107.219 156.672 107.219H157.83C157.913 107.219 157.966 107.257 157.988 107.333L159.089 111.123C159.097 111.146 159.108 111.158 159.123 111.158C159.139 111.158 159.15 111.146 159.157 111.123L160.258 107.333C160.281 107.257 160.334 107.219 160.417 107.219L161.575 107.242C161.62 107.242 161.654 107.257 161.677 107.287C161.7 107.31 161.704 107.348 161.689 107.401L159.873 112.917C159.85 112.992 159.801 113.03 159.725 113.03H158.533ZM167.268 109.478C167.298 109.667 167.313 109.879 167.313 110.113L167.302 110.465C167.302 110.556 167.256 110.601 167.166 110.601H163.613C163.575 110.601 163.556 110.62 163.556 110.658C163.579 110.908 163.613 111.078 163.658 111.169C163.84 111.714 164.283 111.99 164.986 111.997C165.501 111.997 165.91 111.786 166.212 111.362C166.242 111.316 166.28 111.294 166.326 111.294C166.356 111.294 166.382 111.305 166.405 111.328L167.109 111.907C167.177 111.96 167.188 112.02 167.143 112.088C166.908 112.421 166.594 112.678 166.201 112.86C165.815 113.042 165.384 113.132 164.907 113.132C164.317 113.132 163.814 113 163.397 112.735C162.989 112.47 162.69 112.1 162.501 111.623C162.327 111.214 162.24 110.647 162.24 109.92C162.24 109.482 162.285 109.126 162.376 108.853C162.527 108.324 162.811 107.908 163.227 107.605C163.651 107.295 164.158 107.14 164.748 107.14C166.239 107.14 167.079 107.919 167.268 109.478ZM164.748 108.275C164.468 108.275 164.234 108.347 164.044 108.49C163.863 108.626 163.734 108.819 163.658 109.069C163.613 109.198 163.583 109.364 163.568 109.569C163.553 109.606 163.568 109.625 163.613 109.625H165.917C165.955 109.625 165.974 109.606 165.974 109.569C165.959 109.379 165.936 109.236 165.906 109.137C165.838 108.865 165.701 108.653 165.497 108.502C165.3 108.35 165.051 108.275 164.748 108.275ZM176.293 106.084C176.293 106.122 176.278 106.156 176.248 106.186C176.225 106.209 176.195 106.22 176.157 106.22H172.287C172.249 106.22 172.23 106.239 172.23 106.277V108.399C172.23 108.437 172.249 108.456 172.287 108.456H174.886C174.924 108.456 174.954 108.471 174.977 108.502C175.007 108.524 175.022 108.555 175.022 108.592V109.455C175.022 109.493 175.007 109.527 174.977 109.557C174.954 109.58 174.924 109.591 174.886 109.591H172.287C172.249 109.591 172.23 109.61 172.23 109.648V111.839C172.23 111.876 172.249 111.895 172.287 111.895H176.157C176.195 111.895 176.225 111.91 176.248 111.941C176.278 111.963 176.293 111.994 176.293 112.031V112.894C176.293 112.932 176.278 112.966 176.248 112.996C176.225 113.019 176.195 113.03 176.157 113.03H171.05C171.012 113.03 170.978 113.019 170.948 112.996C170.925 112.966 170.914 112.932 170.914 112.894V105.221C170.914 105.184 170.925 105.153 170.948 105.131C170.978 105.1 171.012 105.085 171.05 105.085H176.157C176.195 105.085 176.225 105.1 176.248 105.131C176.278 105.153 176.293 105.184 176.293 105.221V106.084ZM179.923 113.121C179.34 113.121 178.837 112.974 178.414 112.678C177.99 112.376 177.695 111.971 177.528 111.464C177.407 111.123 177.347 110.669 177.347 110.102C177.347 109.557 177.407 109.111 177.528 108.763C177.687 108.263 177.978 107.87 178.402 107.582C178.833 107.287 179.34 107.14 179.923 107.14C180.513 107.14 181.028 107.287 181.467 107.582C181.906 107.877 182.197 108.248 182.341 108.695C182.378 108.816 182.405 108.937 182.42 109.058V109.08C182.42 109.156 182.378 109.202 182.295 109.217L181.274 109.364H181.251C181.183 109.364 181.138 109.326 181.115 109.251C181.115 109.213 181.111 109.183 181.103 109.16C181.088 109.099 181.073 109.046 181.058 109.001C180.99 108.789 180.854 108.615 180.649 108.479C180.445 108.343 180.203 108.275 179.923 108.275C179.636 108.275 179.39 108.35 179.185 108.502C178.989 108.645 178.856 108.846 178.788 109.103C178.712 109.345 178.675 109.682 178.675 110.113C178.675 110.529 178.709 110.866 178.777 111.123C178.852 111.388 178.989 111.6 179.185 111.759C179.382 111.91 179.628 111.986 179.923 111.986C180.211 111.986 180.457 111.914 180.661 111.77C180.873 111.619 181.009 111.419 181.069 111.169C181.077 111.154 181.081 111.135 181.081 111.112C181.088 111.105 181.092 111.093 181.092 111.078C181.115 110.987 181.168 110.949 181.251 110.965L182.273 111.123C182.31 111.131 182.341 111.15 182.363 111.18C182.394 111.203 182.405 111.237 182.397 111.282C182.375 111.403 182.356 111.49 182.341 111.543C182.197 112.028 181.906 112.414 181.467 112.701C181.028 112.981 180.513 113.121 179.923 113.121ZM185.943 113.121C185.345 113.121 184.83 112.97 184.399 112.667C183.975 112.364 183.677 111.944 183.503 111.407C183.374 110.999 183.31 110.567 183.31 110.113C183.31 109.629 183.37 109.198 183.491 108.819C183.665 108.29 183.968 107.877 184.399 107.582C184.83 107.287 185.349 107.14 185.954 107.14C186.529 107.14 187.025 107.287 187.441 107.582C187.865 107.877 188.164 108.286 188.338 108.808C188.474 109.171 188.542 109.603 188.542 110.102C188.542 110.579 188.478 111.01 188.349 111.396C188.175 111.933 187.876 112.357 187.452 112.667C187.029 112.97 186.525 113.121 185.943 113.121ZM185.943 111.986C186.223 111.986 186.461 111.907 186.658 111.748C186.862 111.589 187.01 111.366 187.1 111.078C187.176 110.828 187.214 110.511 187.214 110.125C187.214 109.716 187.176 109.398 187.1 109.171C187.017 108.884 186.873 108.664 186.669 108.513C186.465 108.354 186.215 108.275 185.92 108.275C185.64 108.275 185.398 108.354 185.194 108.513C184.989 108.664 184.842 108.884 184.751 109.171C184.675 109.436 184.638 109.754 184.638 110.125C184.638 110.495 184.675 110.813 184.751 111.078C184.834 111.366 184.978 111.589 185.182 111.748C185.394 111.907 185.648 111.986 185.943 111.986ZM192.567 107.14C193.18 107.14 193.668 107.321 194.032 107.684C194.402 108.048 194.588 108.543 194.588 109.171V112.894C194.588 112.932 194.573 112.966 194.542 112.996C194.52 113.019 194.489 113.03 194.451 113.03H193.407C193.369 113.03 193.335 113.019 193.305 112.996C193.282 112.966 193.271 112.932 193.271 112.894V109.444C193.271 109.096 193.173 108.816 192.976 108.604C192.779 108.384 192.518 108.275 192.193 108.275C191.867 108.275 191.603 108.381 191.398 108.592C191.202 108.804 191.103 109.084 191.103 109.432V112.894C191.103 112.932 191.088 112.966 191.058 112.996C191.035 113.019 191.005 113.03 190.967 113.03H189.923C189.885 113.03 189.851 113.019 189.821 112.996C189.798 112.966 189.787 112.932 189.787 112.894V107.367C189.787 107.329 189.798 107.299 189.821 107.276C189.851 107.246 189.885 107.23 189.923 107.23H190.967C191.005 107.23 191.035 107.246 191.058 107.276C191.088 107.299 191.103 107.329 191.103 107.367V107.73C191.103 107.753 191.111 107.768 191.126 107.775C191.141 107.783 191.152 107.775 191.16 107.753C191.47 107.344 191.939 107.14 192.567 107.14ZM198.379 113.121C197.781 113.121 197.267 112.97 196.835 112.667C196.412 112.364 196.113 111.944 195.939 111.407C195.81 110.999 195.746 110.567 195.746 110.113C195.746 109.629 195.806 109.198 195.927 108.819C196.101 108.29 196.404 107.877 196.835 107.582C197.267 107.287 197.785 107.14 198.39 107.14C198.965 107.14 199.461 107.287 199.877 107.582C200.301 107.877 200.6 108.286 200.774 108.808C200.91 109.171 200.978 109.603 200.978 110.102C200.978 110.579 200.914 111.01 200.785 111.396C200.611 111.933 200.312 112.357 199.889 112.667C199.465 112.97 198.962 113.121 198.379 113.121ZM198.379 111.986C198.659 111.986 198.897 111.907 199.094 111.748C199.298 111.589 199.446 111.366 199.537 111.078C199.612 110.828 199.65 110.511 199.65 110.125C199.65 109.716 199.612 109.398 199.537 109.171C199.453 108.884 199.31 108.664 199.105 108.513C198.901 108.354 198.651 108.275 198.356 108.275C198.076 108.275 197.834 108.354 197.63 108.513C197.426 108.664 197.278 108.884 197.187 109.171C197.112 109.436 197.074 109.754 197.074 110.125C197.074 110.495 197.112 110.813 197.187 111.078C197.27 111.366 197.414 111.589 197.619 111.748C197.83 111.907 198.084 111.986 198.379 111.986ZM208.431 107.14C209.014 107.14 209.468 107.317 209.793 107.673C210.126 108.021 210.293 108.509 210.293 109.137V112.894C210.293 112.932 210.278 112.966 210.247 112.996C210.225 113.019 210.194 113.03 210.156 113.03H209.124C209.086 113.03 209.052 113.019 209.021 112.996C208.999 112.966 208.987 112.932 208.987 112.894V109.41C208.987 109.062 208.893 108.785 208.704 108.581C208.522 108.377 208.276 108.275 207.966 108.275C207.656 108.275 207.402 108.377 207.205 108.581C207.009 108.785 206.91 109.058 206.91 109.398V112.894C206.91 112.932 206.895 112.966 206.865 112.996C206.842 113.019 206.812 113.03 206.774 113.03H205.741C205.704 113.03 205.669 113.019 205.639 112.996C205.616 112.966 205.605 112.932 205.605 112.894V109.41C205.605 109.062 205.511 108.785 205.321 108.581C205.132 108.377 204.883 108.275 204.572 108.275C204.285 108.275 204.046 108.358 203.857 108.524C203.676 108.691 203.57 108.918 203.539 109.205V112.894C203.539 112.932 203.524 112.966 203.494 112.996C203.471 113.019 203.441 113.03 203.403 113.03H202.359C202.321 113.03 202.287 113.019 202.257 112.996C202.234 112.966 202.223 112.932 202.223 112.894V107.367C202.223 107.329 202.234 107.299 202.257 107.276C202.287 107.246 202.321 107.23 202.359 107.23H203.403C203.441 107.23 203.471 107.246 203.494 107.276C203.524 107.299 203.539 107.329 203.539 107.367V107.741C203.539 107.764 203.547 107.779 203.562 107.787C203.577 107.794 203.592 107.787 203.608 107.764C203.774 107.552 203.978 107.397 204.22 107.299C204.47 107.193 204.746 107.14 205.049 107.14C205.42 107.14 205.745 107.215 206.025 107.367C206.305 107.518 206.521 107.737 206.672 108.025C206.695 108.055 206.721 108.055 206.751 108.025C206.918 107.722 207.149 107.499 207.444 107.355C207.739 107.212 208.068 107.14 208.431 107.14ZM211.32 115.289C211.297 115.289 211.279 115.274 211.263 115.244C211.248 115.221 211.241 115.191 211.241 115.153V114.336C211.241 114.298 211.252 114.264 211.275 114.233C211.305 114.211 211.339 114.199 211.377 114.199H211.388C211.698 114.192 211.941 114.158 212.115 114.097C212.289 114.044 212.432 113.938 212.546 113.779C212.659 113.62 212.762 113.382 212.852 113.064C212.86 113.049 212.86 113.026 212.852 112.996L210.98 107.378C210.972 107.363 210.968 107.344 210.968 107.321C210.968 107.253 211.006 107.219 211.082 107.219H212.194C212.277 107.219 212.33 107.257 212.353 107.333L213.488 111.328C213.496 111.35 213.507 111.362 213.522 111.362C213.537 111.362 213.549 111.35 213.556 111.328L214.691 107.333C214.714 107.257 214.767 107.219 214.85 107.219H215.928C215.974 107.219 216.004 107.234 216.019 107.264C216.042 107.287 216.046 107.325 216.03 107.378L214.033 113.348C213.844 113.885 213.658 114.286 213.477 114.551C213.295 114.816 213.045 115.005 212.728 115.119C212.417 115.232 211.975 115.289 211.4 115.289H211.32Z" fill="#231F20"/>
<path d="M227.865 112.71C227.703 112.71 227.622 112.629 227.622 112.466V111.462C227.622 111.35 227.662 111.254 227.743 111.172C228.22 110.665 229.017 109.762 230.133 108.463L231.108 107.336C232.041 106.25 232.508 105.428 232.508 104.87C232.508 104.454 232.361 104.114 232.067 103.85C231.772 103.586 231.392 103.454 230.925 103.454C230.458 103.454 230.078 103.586 229.783 103.85C229.499 104.114 229.357 104.464 229.357 104.9V105.235C229.357 105.398 229.276 105.479 229.113 105.479H227.819C227.657 105.479 227.576 105.398 227.576 105.235V104.642C227.596 104.094 227.753 103.617 228.048 103.211C228.342 102.805 228.738 102.49 229.235 102.267C229.743 102.043 230.306 101.932 230.925 101.932C231.605 101.932 232.199 102.059 232.706 102.312C233.214 102.566 233.604 102.916 233.878 103.363C234.152 103.799 234.289 104.291 234.289 104.839C234.289 105.672 233.848 106.631 232.965 107.717C232.64 108.133 232.254 108.595 231.808 109.102C231.361 109.609 230.915 110.112 230.468 110.609L230.042 111.081C230.012 111.112 230.001 111.137 230.012 111.157C230.022 111.177 230.047 111.188 230.088 111.188H234.289C234.452 111.188 234.533 111.269 234.533 111.431V112.466C234.533 112.629 234.452 112.71 234.289 112.71H227.865ZM239.553 112.877C238.488 112.877 237.64 112.578 237.011 111.979C236.392 111.37 236.082 110.553 236.082 109.528V105.235C236.082 104.22 236.392 103.419 237.011 102.83C237.64 102.231 238.488 101.932 239.553 101.932C240.619 101.932 241.466 102.231 242.096 102.83C242.735 103.419 243.055 104.22 243.055 105.235V109.528C243.055 110.553 242.735 111.37 242.096 111.979C241.466 112.578 240.619 112.877 239.553 112.877ZM239.553 111.34C240.081 111.34 240.502 111.188 240.817 110.883C241.131 110.569 241.289 110.147 241.289 109.62V105.174C241.289 104.647 241.131 104.231 240.817 103.926C240.502 103.611 240.081 103.454 239.553 103.454C239.036 103.454 238.62 103.611 238.305 103.926C238.001 104.231 237.848 104.647 237.848 105.174V109.62C237.848 110.147 238.001 110.569 238.305 110.883C238.62 111.188 239.036 111.34 239.553 111.34ZM244.902 112.71C244.74 112.71 244.659 112.629 244.659 112.466V111.462C244.659 111.35 244.699 111.254 244.78 111.172C245.257 110.665 246.054 109.762 247.17 108.463L248.145 107.336C249.078 106.25 249.545 105.428 249.545 104.87C249.545 104.454 249.398 104.114 249.104 103.85C248.809 103.586 248.429 103.454 247.962 103.454C247.495 103.454 247.115 103.586 246.82 103.85C246.536 104.114 246.394 104.464 246.394 104.9V105.235C246.394 105.398 246.313 105.479 246.15 105.479H244.856C244.694 105.479 244.613 105.398 244.613 105.235V104.642C244.633 104.094 244.791 103.617 245.085 103.211C245.379 102.805 245.775 102.49 246.272 102.267C246.78 102.043 247.343 101.932 247.962 101.932C248.642 101.932 249.236 102.059 249.743 102.312C250.251 102.566 250.641 102.916 250.915 103.363C251.189 103.799 251.326 104.291 251.326 104.839C251.326 105.672 250.885 106.631 250.002 107.717C249.677 108.133 249.292 108.595 248.845 109.102C248.398 109.609 247.952 110.112 247.505 110.609L247.079 111.081C247.049 111.112 247.038 111.137 247.049 111.157C247.059 111.177 247.084 111.188 247.125 111.188H251.326C251.489 111.188 251.57 111.269 251.57 111.431V112.466C251.57 112.629 251.489 112.71 251.326 112.71H244.902ZM260.168 108.326C260.33 108.326 260.411 108.407 260.411 108.569V109.665C260.411 109.828 260.33 109.909 260.168 109.909H259.62C259.559 109.909 259.528 109.939 259.528 110V112.466C259.528 112.629 259.447 112.71 259.285 112.71H258.006C257.844 112.71 257.763 112.629 257.763 112.466V110C257.763 109.939 257.732 109.909 257.671 109.909H253.104C252.942 109.909 252.861 109.828 252.861 109.665V108.782C252.861 108.671 252.881 108.574 252.922 108.493L255.784 102.236C255.834 102.115 255.926 102.054 256.058 102.054H257.412C257.554 102.054 257.626 102.109 257.626 102.221L257.595 102.343L254.931 108.219C254.901 108.29 254.926 108.326 255.007 108.326H257.671C257.732 108.326 257.763 108.295 257.763 108.234V106.24C257.763 106.078 257.844 105.996 258.006 105.996H259.285C259.447 105.996 259.528 106.078 259.528 106.24V108.234C259.528 108.295 259.559 108.326 259.62 108.326H260.168Z" fill="#151515"/>
<path d="M291.36 125V0" stroke="black"/>
<path d="M333.879 70.6006H329.956L325.077 63.5706V70.6006H321.86V54.5491H325.077V61.4895L329.587 54.5491H333.312L328.163 62.4056L333.879 70.6006Z" fill="#221F1F"/>
<path d="M345.101 57.7255H338.649V60.8621H344.185V64.0784H338.649V67.3943H345.101V70.6006H335.423V54.5491H345.101V57.7255Z" fill="#221F1F"/>
<path d="M359.759 70.6006H355.816L350.707 63.013V70.6006H347.481L347.471 54.5491H352.709C355.706 54.5491 358.166 56.8592 358.166 59.7469C358.166 61.8081 356.921 63.6104 355.198 64.2178L359.759 70.6006ZM350.697 57.7454V61.7782L352.769 61.7882C353.864 61.7982 354.84 60.9119 354.84 59.7668C354.84 58.6217 353.854 57.7454 352.769 57.7454H350.697Z" fill="#221F1F"/>
<path d="M372.056 70.6007L371.041 68.3603H364.618L363.592 70.6007H360.107L367.775 54.1509H367.874L375.551 70.6007H372.056ZM365.873 65.612H369.786L367.834 61.3203L365.873 65.612Z" fill="#221F1F"/>
<path d="M380.391 67.3943H386.843V70.6006H377.165V54.5491H380.391V67.3943Z" fill="#221F1F"/>
<path d="M399.42 70.6007L398.404 68.3603H391.981L390.956 70.6007H387.471L395.138 54.1509H395.238L402.915 70.6007H399.42ZM393.236 65.612H397.149L395.198 61.3203L393.236 65.612Z" fill="#221F1F"/>
<path d="M415.312 70.9192C412.683 70.9192 410.741 69.8238 409.666 67.8323L412.245 66.0202C412.952 67.1553 413.978 67.6731 415.362 67.6731C416.875 67.6731 417.891 67.0557 417.891 66.1994C417.891 65.0244 415.969 64.0984 414.286 63.2619C412.484 62.3657 410.502 61.3799 410.502 58.8208C410.502 56.0427 412.852 54.2104 415.8 54.2104C417.991 54.2104 419.803 55.1165 420.53 57.0583L418.15 58.7212C417.672 57.7652 416.746 57.3769 415.85 57.3769C414.645 57.3769 413.749 58.074 413.749 58.9005C413.749 59.8564 414.963 60.185 416.806 61.0513C419.464 62.306 421.137 63.6602 421.137 66.1297C421.137 69.0572 418.747 70.9192 415.312 70.9192Z" fill="#221F1F"/>
<path d="M433.246 54.5491V57.7454H429.302V70.6006H426.066V57.7454H422.113V54.5491H433.246Z" fill="#221F1F"/>
<path d="M443.83 70.6007L442.815 68.3603H436.392L435.366 70.6007H431.881L439.549 54.1509H439.648L447.326 70.6007H443.83ZM437.647 65.612H441.56L439.608 61.3203L437.647 65.612Z" fill="#221F1F"/>
<path d="M461.226 70.6006H457.283L452.175 63.013V70.6006H448.949L448.939 54.5491H454.176C457.174 54.5491 459.633 56.8592 459.633 59.7469C459.633 61.8081 458.388 63.6104 456.666 64.2178L461.226 70.6006ZM452.165 57.7454V61.7782L454.236 61.7882C455.331 61.7982 456.307 60.9119 456.307 59.7668C456.307 58.6217 455.321 57.7454 454.236 57.7454H452.165Z" fill="#221F1F"/>
<path d="M472.518 54.5491V57.7454H468.575V70.6006H465.339V57.7454H461.386V54.5491H472.518Z" fill="#221F1F"/>
<path d="M480.385 70.9491C476.969 70.9491 474.191 68.3004 474.191 64.6659V54.5491H477.437V64.656C477.437 66.4085 478.821 67.6831 480.375 67.6831C481.928 67.6831 483.332 66.3985 483.332 64.656V54.5491H486.578V64.6659C486.578 68.3004 483.8 70.9491 480.385 70.9491Z" fill="#221F1F"/>
<path d="M489.227 70.6006V54.5491H494.863C497.97 54.5491 500.509 56.9887 500.509 59.9759C500.509 62.9532 497.97 65.3829 494.863 65.3829H492.453V70.6006H489.227ZM494.863 62.1965C496.197 62.2064 497.283 61.1907 497.283 59.9461C497.283 58.7312 496.197 57.7454 494.863 57.7454H492.453V62.1865L494.863 62.1965Z" fill="#221F1F"/>
<path d="M523.849 54.1509H524.029V70.6007H520.802V63.6105L516.182 70.3319H516.162L511.532 63.6105V70.6007H508.306V54.1509H508.485L516.172 64.7557L523.849 54.1509Z" fill="#221F1F"/>
<path d="M526.827 70.6006V54.5491H530.053V70.6006H526.827Z" fill="#221F1F"/>
<path d="M537.65 70.9192C535.022 70.9192 533.08 69.8238 532.005 67.8323L534.584 66.0202C535.29 67.1553 536.316 67.6731 537.7 67.6731C539.214 67.6731 540.229 67.0557 540.229 66.1994C540.229 65.0244 538.308 64.0984 536.625 63.2619C534.823 62.3657 532.841 61.3799 532.841 58.8208C532.841 56.0427 535.191 54.2104 538.138 54.2104C540.329 54.2104 542.141 55.1165 542.868 57.0583L540.488 58.7212C540.01 57.7652 539.084 57.3769 538.188 57.3769C536.983 57.3769 536.087 58.074 536.087 58.9005C536.087 59.8564 537.302 60.185 539.144 61.0513C541.803 62.306 543.476 63.6602 543.476 66.1297C543.476 69.0572 541.086 70.9192 537.65 70.9192Z" fill="#221F1F"/>
<path d="M550.237 70.9192C547.608 70.9192 545.666 69.8238 544.591 67.8323L547.17 66.0202C547.877 67.1553 548.902 67.6731 550.287 67.6731C551.8 67.6731 552.816 67.0557 552.816 66.1994C552.816 65.0244 550.894 64.0984 549.211 63.2619C547.409 62.3657 545.427 61.3799 545.427 58.8208C545.427 56.0427 547.777 54.2104 550.725 54.2104C552.915 54.2104 554.728 55.1165 555.455 57.0583L553.075 58.7212C552.597 57.7652 551.671 57.3769 550.774 57.3769C549.57 57.3769 548.673 58.074 548.673 58.9005C548.673 59.8564 549.888 60.185 551.73 61.0513C554.389 62.306 556.062 63.6602 556.062 66.1297C556.062 69.0572 553.672 70.9192 550.237 70.9192Z" fill="#221F1F"/>
<path d="M558.014 70.6006V54.5491H561.24V70.6006H558.014Z" fill="#221F1F"/>
<path d="M571.665 70.9093C567.085 70.9093 563.331 67.1653 563.331 62.5948C563.331 57.9844 567.085 54.2205 571.675 54.2205C576.266 54.2205 580.03 57.9844 580.03 62.5948C580.03 67.1653 576.266 70.9093 571.665 70.9093ZM571.665 67.6432C574.473 67.6432 576.764 65.363 576.764 62.5748C576.764 59.7668 574.473 57.4766 571.665 57.4766C568.867 57.4766 566.587 59.7668 566.587 62.5748C566.587 65.363 568.867 67.6432 571.665 67.6432Z" fill="#221F1F"/>
<path d="M591.8 54.5091H595.036V70.8993H594.886L585.357 61.6288V70.6204H582.131V54.2502H582.29L591.8 63.5008V54.5091Z" fill="#221F1F"/>
<path d="M321.86 92.6006V76.5491H325.087V92.6006H321.86Z" fill="#221F1F"/>
<path d="M337.543 76.5091H340.78V92.8993H340.63L331.101 83.6288V92.6204H327.875V76.2502H328.034L337.543 85.5008V76.5091Z" fill="#221F1F"/>
<path d="M360.306 92.6007L359.291 90.3603H352.868L351.843 92.6007H348.357L356.025 76.1509H356.124L363.802 92.6007H360.306ZM354.123 87.612H358.036L356.084 83.3203L354.123 87.612Z" fill="#221F1F"/>
<path d="M369.726 92.9192C367.098 92.9192 365.156 91.8238 364.08 89.8323L366.659 88.0201C367.366 89.1552 368.392 89.673 369.776 89.673C371.29 89.673 372.305 89.0556 372.305 88.1993C372.305 87.0243 370.383 86.0983 368.701 85.2618C366.898 84.3656 364.917 83.3798 364.917 80.8208C364.917 78.0426 367.267 76.2104 370.214 76.2104C372.405 76.2104 374.217 77.1165 374.944 79.0583L372.564 80.7212C372.086 79.7653 371.16 79.3769 370.264 79.3769C369.059 79.3769 368.163 80.0739 368.163 80.9004C368.163 81.8563 369.378 82.1849 371.22 83.0512C373.879 84.3059 375.551 85.6601 375.551 88.1296C375.551 91.0571 373.162 92.9192 369.726 92.9192Z" fill="#221F1F"/>
<path d="M382.313 92.9192C379.684 92.9192 377.742 91.8238 376.667 89.8323L379.246 88.0201C379.953 89.1552 380.978 89.673 382.362 89.673C383.876 89.673 384.892 89.0556 384.892 88.1993C384.892 87.0243 382.97 86.0983 381.287 85.2618C379.485 84.3656 377.503 83.3798 377.503 80.8208C377.503 78.0426 379.853 76.2104 382.801 76.2104C384.991 76.2104 386.804 77.1165 387.53 79.0583L385.151 80.7212C384.673 79.7653 383.747 79.3769 382.85 79.3769C381.645 79.3769 380.749 80.0739 380.749 80.9004C380.749 81.8563 381.964 82.1849 383.806 83.0512C386.465 84.3059 388.138 85.6601 388.138 88.1296C388.138 91.0571 385.748 92.9192 382.313 92.9192Z" fill="#221F1F"/>
<path d="M397.727 92.9093C393.146 92.9093 389.392 89.1653 389.392 84.5948C389.392 79.9844 393.146 76.2205 397.737 76.2205C402.327 76.2205 406.091 79.9844 406.091 84.5948C406.091 89.1653 402.327 92.9093 397.727 92.9093ZM397.727 89.6432C400.535 89.6432 402.825 87.363 402.825 84.5748C402.825 81.7668 400.535 79.4766 397.727 79.4766C394.929 79.4766 392.649 81.7668 392.649 84.5748C392.649 87.363 394.929 89.6432 397.727 89.6432Z" fill="#221F1F"/>
<path d="M415.89 92.9093C411.259 92.9093 407.495 89.0956 407.495 84.5848C407.495 80.0541 411.309 76.2205 415.83 76.2205C417.921 76.2503 419.773 77.0768 421.456 78.6999L419.594 81.2391C418.498 80.1637 417.184 79.5065 415.8 79.5065C413.221 79.5065 410.761 81.7967 410.761 84.6047C410.761 87.4625 413.311 89.6731 415.79 89.6731C417.264 89.6731 418.538 88.8865 419.604 87.8409L421.456 90.4498C420.042 91.8538 418.319 92.9093 415.89 92.9093Z" fill="#221F1F"/>
<path d="M423.268 92.6006V76.5491H426.494V92.6006H423.268Z" fill="#221F1F"/>
<path d="M440.047 92.6007L439.031 90.3603H432.608L431.583 92.6007H428.097L435.765 76.1509H435.864L443.542 92.6007H440.047ZM433.863 87.612H437.776L435.825 83.3203L433.863 87.612Z" fill="#221F1F"/>
<path d="M453.32 76.5491V79.7454H449.378V92.6006H446.141V79.7454H442.188V76.5491H453.32Z" fill="#221F1F"/>
<path d="M455.132 92.6006V76.5491H458.358V92.6006H455.132Z" fill="#221F1F"/>
<path d="M468.784 92.9093C464.204 92.9093 460.45 89.1653 460.45 84.5948C460.45 79.9844 464.204 76.2205 468.794 76.2205C473.384 76.2205 477.148 79.9844 477.148 84.5948C477.148 89.1653 473.384 92.9093 468.784 92.9093ZM468.784 89.6432C471.592 89.6432 473.882 87.363 473.882 84.5748C473.882 81.7668 471.592 79.4766 468.784 79.4766C465.986 79.4766 463.706 81.7668 463.706 84.5748C463.706 87.363 465.986 89.6432 468.784 89.6432Z" fill="#221F1F"/>
<path d="M488.918 76.5091H492.154V92.8993H492.005L482.476 83.6288V92.6204H479.249V76.2502H479.409L488.918 85.5008V76.5091Z" fill="#221F1F"/>
<path d="M504.96 92.7998L499.732 76.5491H503.207L505.677 84.6446L509.122 76.6088H509.182L512.617 84.6346L515.077 76.5491H518.562L513.334 92.7998H513.145L509.112 84.077L505.139 92.7998H504.96Z" fill="#221F1F"/>
<path d="M520.175 92.6006V76.5491H523.401V92.6006H520.175Z" fill="#221F1F"/>
<path d="M536.346 76.5491V79.7454H532.403V92.6006H529.167V79.7454H525.213V76.5491H536.346Z" fill="#221F1F"/>
<path d="M547.14 76.5491H550.356V92.6006H547.14V86.1681H541.375V92.6006H538.158V76.5491H541.375V82.9717H547.14V76.5491Z" fill="#221F1F"/>
<path d="M569.286 76.5491V79.7454H565.342V92.6006H562.106V79.7454H558.153V76.5491H569.286Z" fill="#221F1F"/>
<path d="M579.87 92.6007L578.855 90.3603H572.432L571.407 92.6007H567.921L575.589 76.1509H575.688L583.366 92.6007H579.87ZM573.687 87.612H577.6L575.648 83.3203L573.687 87.612Z" fill="#221F1F"/>
<path d="M591.122 92.9093C586.542 92.9093 582.788 89.1653 582.788 84.5948C582.788 79.9844 586.542 76.2205 591.132 76.2205C595.723 76.2205 599.487 79.9844 599.487 84.5948C599.487 89.1653 595.723 92.9093 591.122 92.9093ZM591.122 89.6432C593.931 89.6432 596.221 87.363 596.221 84.5748C596.221 81.7668 593.931 79.4766 591.122 79.4766C588.324 79.4766 586.044 81.7668 586.044 84.5748C586.044 87.363 588.324 89.6432 591.122 89.6432Z" fill="#221F1F"/>
<path d="M606.397 92.9192C603.769 92.9192 601.827 91.8238 600.751 89.8323L603.33 88.0201C604.037 89.1552 605.063 89.673 606.447 89.673C607.961 89.673 608.976 89.0556 608.976 88.1993C608.976 87.0243 607.055 86.0983 605.372 85.2618C603.569 84.3656 601.588 83.3798 601.588 80.8208C601.588 78.0426 603.938 76.2104 606.885 76.2104C609.076 76.2104 610.888 77.1165 611.615 79.0583L609.235 80.7212C608.757 79.7653 607.831 79.3769 606.935 79.3769C605.73 79.3769 604.834 80.0739 604.834 80.9004C604.834 81.8563 606.049 82.1849 607.891 83.0512C610.55 84.3059 612.223 85.6601 612.223 88.1296C612.223 91.0571 609.833 92.9192 606.397 92.9192Z" fill="#221F1F"/>
<path d="M331.539 35.7256H325.087V38.9618H330.623V42.1781H325.087V48.6206H321.86V32.5093H331.539V35.7256Z" fill="#221F1F"/>
<path d="M333.351 48.6006V32.5491H336.578V48.6006H333.351Z" fill="#221F1F"/>
<path d="M347.063 48.9093C342.433 48.9093 338.669 45.0956 338.669 40.5848C338.669 36.0541 342.482 32.2205 347.003 32.2205C349.094 32.2503 350.946 33.0768 352.629 34.6999L350.767 37.2391C349.672 36.1637 348.357 35.5065 346.973 35.5065C344.394 35.5065 341.935 37.7967 341.935 40.6047C341.935 43.4625 344.484 45.6731 346.963 45.6731C348.437 45.6731 349.712 44.8865 350.777 43.8409L352.629 46.4498C351.215 47.8538 349.493 48.9093 347.063 48.9093Z" fill="#221F1F"/>
<path d="M361.442 48.9093C356.811 48.9093 353.047 45.0956 353.047 40.5848C353.047 36.0541 356.861 32.2205 361.382 32.2205C363.473 32.2503 365.325 33.0768 367.008 34.6999L365.146 37.2391C364.05 36.1637 362.736 35.5065 361.352 35.5065C358.773 35.5065 356.313 37.7967 356.313 40.6047C356.313 43.4625 358.863 45.6731 361.342 45.6731C362.816 45.6731 364.09 44.8865 365.156 43.8409L367.008 46.4498C365.594 47.8538 363.871 48.9093 361.442 48.9093Z" fill="#221F1F"/>
<path d="M368.82 48.6006V32.5491H372.046V48.6006H368.82Z" fill="#221F1F"/>
<path d="M394.162 45.7627L394.152 48.75C393.027 48.74 391.583 48.1426 390.08 47.1767C388.915 48.3417 387.381 48.9591 385.609 48.9591C381.855 48.9591 380.112 46.161 380.112 44.0202C380.112 42.1681 381.407 40.2861 382.611 39.4795C381.974 38.3444 381.596 37.259 381.596 36.3528C381.596 34.2717 383.607 32.0811 386.097 32.0811C388.317 32.0811 390.089 33.8435 390.488 35.6857L387.401 36.3031C387.232 35.616 386.594 35.0484 385.987 35.0484C385.39 35.0484 384.782 35.606 384.782 36.4723C384.782 38.0655 386.803 40.7541 389.084 42.8253C389.303 42.1481 389.422 41.3914 389.462 40.5848L392.479 40.545C392.439 42.178 392.141 43.6019 391.643 44.7968C392.609 45.3943 393.495 45.7627 394.162 45.7627ZM385.439 45.8026C386.236 45.8026 386.913 45.5935 387.471 45.2051C386.286 44.1795 385.161 43.0144 384.215 41.8195C383.637 42.3075 383.169 42.9149 383.169 43.7812C383.169 45.0259 383.906 45.8026 385.439 45.8026Z" fill="#221F1F"/>
</g>
<defs>
<clipPath id="clip0_4_131">
<rect width="613" height="125" fill="white"/>
</clipPath>
</defs>
</svg>
