<svg width="613" height="125" viewBox="0 0 613 125" fill="none" xmlns="http://www.w3.org/2000/svg">
<path d="M2.34008 48.6799V11.9199H16.2001C27.0201 11.9199 32.0101 13.8099 32.0101 19.6899C32.0101 22.2599 30.8501 23.7899 28.7001 24.6799C33.3201 25.8899 36.0001 28.6199 36.0001 34.4499C36.0001 44.0599 28.8601 48.6299 16.5201 48.6799V33.0299C21.8201 33.0299 23.9201 31.6099 23.9201 29.7199C23.9201 28.1399 22.8201 25.8899 20.0301 25.8899H14.4101V45.0599L4.54008 48.6799H2.33008H2.34008ZM16.5701 23.7899C18.8301 23.7899 19.9301 21.2699 19.9301 18.5399C19.9301 15.2299 18.4101 14.0199 15.9901 14.0199H14.4201V23.7899H16.5701Z" fill="#151515"/>
<path d="M39.1504 35.5499C39.1504 27.1999 44.4504 21.6299 52.3804 21.6299C60.3104 21.6299 65.6104 26.1999 65.6104 30.6099C65.6104 33.6599 60.9404 34.9699 56.0004 35.5499L50.9104 36.1799C51.3304 38.8599 52.4804 41.0599 55.5304 41.0599C57.8904 41.0599 59.5204 40.4299 62.9304 38.6399L67.4504 45.9399C62.7804 49.0899 59.4704 49.4599 54.8004 49.4599C44.7704 49.4599 39.1504 43.8899 39.1504 35.5399V35.5499ZM51.8504 33.8699C53.5804 33.6099 54.0604 31.9299 54.0604 29.4099C54.0604 26.8899 53.5404 23.7399 52.3804 23.7399C50.7004 23.7399 50.7004 29.4599 50.7004 32.3999C50.7004 32.9299 50.7004 33.4999 50.7504 34.0299L51.8504 33.8699Z" fill="#151515"/>
<path d="M80.2102 61.2301C75.7502 61.2301 73.2802 60.7001 69.8102 58.7101L73.3801 51.4101C76.0101 52.4601 80.1001 52.8301 82.5201 52.8301C86.1401 52.8301 88.7201 50.8901 89.7701 48.6301C82.7901 48.2101 78.9002 46.3701 76.0602 39.4401L72.0702 29.6701C70.8602 26.6801 69.7102 24.3101 66.6602 21.6401C76.3202 21.6401 79.7302 21.7501 82.6202 28.7801L85.0901 34.8201C86.7201 38.7601 89.1901 39.7601 95.3801 39.7601V48.7901C95.3801 55.7701 89.3401 61.2301 80.2001 61.2301H80.2102Z" fill="#151515"/>
<path d="M91.1796 21.6401C94.7996 21.6401 97.2197 24.1101 97.2197 27.6801C97.2197 31.2501 94.7996 33.7201 91.1796 33.7201C87.5596 33.7201 85.1396 31.3001 85.1396 27.6801C85.1396 24.0601 87.6096 21.6401 91.1796 21.6401Z" fill="black"/>
<path d="M157.24 48.6799H145.69V38.4899C145.69 30.0899 145.06 24.1499 143.85 24.1499C142.43 24.1499 141.43 27.3499 141.33 33.5499V48.6699H129.78V22.4199H131.88L140.75 25.8299C142.01 22.4199 144.06 21.6299 146.21 21.6299C153.77 21.6299 157.24 27.6699 157.24 36.5399V48.6699V48.6799Z" fill="#151515"/>
<path d="M177.77 45.32C176.51 48.73 174.2 49.47 170.79 49.47C163.91 49.47 160.39 43.9 160.39 35.55C160.39 27.2 163.91 21.63 170.79 21.63C173.68 21.63 175.78 22.21 177.09 24.47V9.29004H188.64V48.67H186.54L177.77 45.31V45.32ZM174.57 41.07C176.04 41.07 177.09 37.66 177.09 32.72C177.09 27.78 176.04 24.42 174.57 24.42C172.99 24.42 171.94 27.78 171.94 32.77C171.94 37.76 172.99 41.07 174.57 41.07Z" fill="#151515"/>
<path d="M0 58.7502H28.51V69.2502H16.75C14.96 71.3502 14.7 72.5002 14.7 75.5502C14.7 78.0202 16.59 80.6402 19.32 80.6402C21.26 80.6402 22.21 80.1702 24.2 78.5902L27.09 92.7102C23.21 95.4402 21.89 96.2802 17.27 96.2802C8.29 96.2802 2.68 89.8202 2.68 82.0502C2.68 72.8102 10.87 69.2402 14.7 69.2402H0V58.7402V58.7502Z" fill="#151515"/>
<path d="M87.5196 95.5H75.9696V82.22C75.9696 73.82 75.4396 70.99 74.4996 70.99C73.3996 70.99 72.6596 74.4 72.6096 80.96V95.5H61.0596V69.25H63.1596L71.9296 72.61C73.0296 69.25 74.9696 68.46 77.5496 68.46C82.1196 68.46 84.8996 70.09 86.3696 73.87C87.2596 69.46 89.1496 68.46 92.2996 68.46C98.0196 68.46 102.43 71.35 102.43 81.27V95.5H90.8796V82.22C90.8796 73.82 90.3596 70.99 89.4096 70.99C88.1996 70.99 87.4696 74.87 87.5196 82.38V95.51V95.5Z" fill="#151515"/>
<path d="M146.53 72.87V95.5H134.98V69.25H137.08L146.53 72.87ZM154.15 68.46C157.77 68.46 160.19 70.93 160.19 74.5C160.19 78.07 157.77 80.54 154.15 80.54C150.53 80.54 148.11 78.12 148.11 74.5C148.11 70.88 150.58 68.46 154.15 68.46Z" fill="#151515"/>
<path d="M173.83 72.87V95.5H162.28V69.25H164.38L173.83 72.87ZM181.45 68.46C185.07 68.46 187.49 70.93 187.49 74.5C187.49 78.07 185.07 80.54 181.45 80.54C177.83 80.54 175.41 78.12 175.41 74.5C175.41 70.88 177.88 68.46 181.45 68.46Z" fill="#151515"/>
<path d="M226.6 88.99L222.09 77.7C220.73 74.23 219.41 71.61 216.1 68.46C226.13 68.46 229.7 68.57 232.69 76.07L237.05 87.04C238.47 90.61 241.14 94.18 245.66 96.28C235.11 96.28 229.44 96.07 226.6 88.98V88.99Z" fill="#591CBC"/>
<path d="M240.77 88.99L236.26 77.7C234.9 74.23 233.58 71.61 230.27 68.46C240.3 68.46 243.87 68.57 246.86 76.07L249.43 82.53C251.43 87.46 254.79 87.25 258.99 87.25L260.83 96.28C250.28 96.28 243.61 96.07 240.77 88.98V88.99Z" fill="#11A24A"/>
<path d="M255.21 68.46C258.83 68.46 261.25 70.93 261.25 74.5C261.25 78.07 258.83 80.54 255.21 80.54C251.59 80.54 249.17 78.12 249.17 74.5C249.17 70.88 251.64 68.46 255.21 68.46Z" fill="#F15A29"/>
<path d="M202.71 68.46C194.83 68.46 189.58 74.02 189.58 82.37C189.58 90.72 194.83 96.28 202.71 96.28C210.59 96.28 215.83 90.71 215.83 82.37C215.83 74.03 210.58 68.46 202.71 68.46ZM202.26 88.41C198.69 88.41 196.22 85.99 196.22 82.37C196.22 78.75 198.69 76.33 202.26 76.33C205.83 76.33 208.3 78.8 208.3 82.37C208.3 85.94 205.88 88.41 202.26 88.41Z" fill="#151515"/>
<path d="M113.5 21.6401C105.62 21.6401 100.37 27.2101 100.37 35.5601C100.37 43.9101 105.62 49.4801 113.5 49.4801C121.38 49.4801 126.63 43.9101 126.63 35.5601C126.63 27.2101 121.38 21.6401 113.5 21.6401ZM113.5 41.5901C109.93 41.5901 107.46 39.1701 107.46 35.5501C107.46 31.9301 109.93 29.5101 113.5 29.5101C117.07 29.5101 119.54 31.9801 119.54 35.5501C119.54 39.1201 117.12 41.5901 113.5 41.5901Z" fill="#151515"/>
<path d="M44.7804 68.46C36.9004 68.46 31.6504 74.02 31.6504 82.37C31.6504 90.72 36.9004 96.28 44.7804 96.28C52.6604 96.28 57.9004 90.71 57.9004 82.37C57.9004 74.03 52.6504 68.46 44.7804 68.46ZM44.7804 88.41C41.2104 88.41 38.7404 85.99 38.7404 82.37C38.7404 78.75 41.2104 76.33 44.7804 76.33C48.3504 76.33 50.8204 78.8 50.8204 82.37C50.8204 85.94 48.4004 88.41 44.7804 88.41Z" fill="#151515"/>
<path d="M118.71 68.46C110.83 68.46 105.58 74.02 105.58 82.37C105.58 90.72 110.83 96.28 118.71 96.28C126.59 96.28 131.83 90.71 131.83 82.37C131.83 74.03 126.58 68.46 118.71 68.46ZM118.71 88.41C115.14 88.41 112.67 85.99 112.67 82.37C112.67 78.75 115.14 76.33 118.71 76.33C122.28 76.33 124.75 78.8 124.75 82.37C124.75 85.94 122.33 88.41 118.71 88.41Z" fill="#151515"/>
<path d="M4.29379 113.122C3.6948 113.122 3.17261 113.026 2.72721 112.834C2.2818 112.642 1.93623 112.374 1.6905 112.028C1.45244 111.683 1.33341 111.276 1.33341 110.807V110.519C1.33341 110.481 1.34493 110.45 1.36796 110.427C1.39868 110.396 1.43324 110.381 1.47163 110.381H2.49683C2.53522 110.381 2.56594 110.396 2.58898 110.427C2.61969 110.45 2.63505 110.481 2.63505 110.519V110.738C2.63505 111.091 2.79248 111.387 3.10733 111.625C3.42218 111.855 3.85223 111.971 4.39746 111.971C4.8659 111.971 5.21915 111.871 5.45721 111.671C5.69527 111.471 5.81429 111.214 5.81429 110.899C5.81429 110.684 5.74902 110.504 5.61847 110.358C5.48792 110.204 5.29978 110.066 5.05404 109.943C4.81598 109.82 4.45505 109.667 3.97126 109.482C3.42602 109.283 2.98446 109.095 2.64657 108.918C2.30868 108.741 2.02455 108.503 1.79417 108.204C1.57147 107.897 1.46012 107.517 1.46012 107.063C1.46012 106.388 1.70585 105.854 2.19733 105.462C2.68881 105.071 3.34539 104.875 4.16708 104.875C4.74303 104.875 5.24986 104.975 5.68759 105.174C6.13299 105.374 6.47856 105.654 6.7243 106.015C6.97003 106.368 7.0929 106.779 7.0929 107.248V107.444C7.0929 107.482 7.07754 107.517 7.04683 107.547C7.02379 107.57 6.99307 107.582 6.95468 107.582H5.91797C5.87957 107.582 5.84501 107.57 5.81429 107.547C5.79126 107.517 5.77974 107.482 5.77974 107.444V107.317C5.77974 106.956 5.62999 106.653 5.3305 106.407C5.03868 106.153 4.63168 106.027 4.10948 106.027C3.68712 106.027 3.35691 106.115 3.11885 106.292C2.88847 106.468 2.77328 106.718 2.77328 107.04C2.77328 107.271 2.83472 107.459 2.95758 107.605C3.08045 107.751 3.26476 107.885 3.5105 108.008C3.75624 108.123 4.13636 108.273 4.65088 108.457C5.19611 108.665 5.62999 108.853 5.95252 109.022C6.28273 109.191 6.56303 109.429 6.79341 109.736C7.03147 110.035 7.1505 110.412 7.1505 110.865C7.1505 111.556 6.89324 112.105 6.37873 112.512C5.87189 112.919 5.17691 113.122 4.29379 113.122ZM11.1916 107.052C11.8136 107.052 12.3089 107.236 12.6775 107.605C13.0538 107.973 13.242 108.476 13.242 109.114V112.892C13.242 112.93 13.2266 112.965 13.1959 112.996C13.1729 113.019 13.1421 113.03 13.1037 113.03H12.044C12.0056 113.03 11.971 113.019 11.9403 112.996C11.9173 112.965 11.9058 112.93 11.9058 112.892V109.39C11.9058 109.037 11.8059 108.753 11.6063 108.538C11.4066 108.315 11.1417 108.204 10.8115 108.204C10.4813 108.204 10.2125 108.311 10.0051 108.526C9.80548 108.741 9.70564 109.026 9.70564 109.379V112.892C9.70564 112.93 9.69029 112.965 9.65957 112.996C9.63653 113.019 9.60581 113.03 9.56742 113.03H8.50767C8.46927 113.03 8.43472 113.019 8.404 112.996C8.38096 112.965 8.36944 112.93 8.36944 112.892V105.105C8.36944 105.067 8.38096 105.036 8.404 105.013C8.43472 104.982 8.46927 104.967 8.50767 104.967H9.56742C9.60581 104.967 9.63653 104.982 9.65957 105.013C9.69029 105.036 9.70564 105.067 9.70564 105.105V107.651C9.70564 107.674 9.71332 107.689 9.72868 107.697C9.74404 107.705 9.75556 107.697 9.76324 107.674C10.0781 107.259 10.5542 107.052 11.1916 107.052ZM16.8813 107.052C17.3651 107.052 17.7913 107.136 18.16 107.305C18.5286 107.474 18.8127 107.708 19.0124 108.008C19.212 108.3 19.3119 108.634 19.3119 109.01V112.892C19.3119 112.93 19.2965 112.965 19.2658 112.996C19.2427 113.019 19.212 113.03 19.1736 113.03H18.1139C18.0755 113.03 18.0409 113.019 18.0102 112.996C17.9872 112.965 17.9757 112.93 17.9757 112.892V112.523C17.9757 112.5 17.968 112.489 17.9526 112.489C17.9373 112.481 17.9219 112.485 17.9065 112.5C17.5302 112.915 16.985 113.122 16.2708 113.122C15.6949 113.122 15.2188 112.977 14.8425 112.685C14.4739 112.393 14.2896 111.959 14.2896 111.383C14.2896 110.784 14.4969 110.319 14.9116 109.989C15.334 109.651 15.9253 109.482 16.6855 109.482H17.9181C17.9565 109.482 17.9757 109.463 17.9757 109.425V109.148C17.9757 108.849 17.8873 108.618 17.7107 108.457C17.5341 108.288 17.2692 108.204 16.9159 108.204C16.6241 108.204 16.386 108.258 16.2017 108.365C16.0251 108.465 15.9138 108.607 15.8677 108.791C15.8446 108.883 15.7909 108.922 15.7064 108.906L14.5891 108.768C14.5507 108.761 14.5161 108.749 14.4854 108.734C14.4624 108.711 14.4547 108.684 14.4624 108.653C14.5238 108.185 14.7734 107.801 15.2111 107.501C15.6565 107.202 16.2132 107.052 16.8813 107.052ZM16.6049 112.063C16.9812 112.063 17.3037 111.963 17.5725 111.763C17.8413 111.564 17.9757 111.31 17.9757 111.003V110.462C17.9757 110.423 17.9565 110.404 17.9181 110.404H16.9505C16.5435 110.404 16.2209 110.481 15.9829 110.634C15.7525 110.788 15.6373 111.007 15.6373 111.291C15.6373 111.537 15.7256 111.729 15.9022 111.867C16.0865 111.997 16.3208 112.063 16.6049 112.063ZM25.6411 108.665C25.7793 109.056 25.8484 109.536 25.8484 110.104C25.8484 110.65 25.7832 111.118 25.6526 111.51C25.4837 112.017 25.211 112.412 24.8348 112.696C24.4662 112.98 23.9977 113.122 23.4294 113.122C22.8842 113.122 22.4465 112.927 22.1163 112.535C22.1009 112.52 22.0856 112.516 22.0702 112.523C22.0548 112.531 22.0472 112.546 22.0472 112.57V115.069C22.0472 115.108 22.0318 115.138 22.0011 115.161C21.978 115.192 21.9473 115.207 21.9089 115.207H20.8492C20.8108 115.207 20.7762 115.192 20.7455 115.161C20.7225 115.138 20.711 115.108 20.711 115.069V107.282C20.711 107.244 20.7225 107.213 20.7455 107.19C20.7762 107.159 20.8108 107.144 20.8492 107.144H21.9089C21.9473 107.144 21.978 107.159 22.0011 107.19C22.0318 107.213 22.0472 107.244 22.0472 107.282V107.628C22.0472 107.651 22.0548 107.666 22.0702 107.674C22.0856 107.682 22.1009 107.674 22.1163 107.651C22.4542 107.252 22.8957 107.052 23.441 107.052C23.9862 107.052 24.447 107.194 24.8232 107.478C25.1995 107.762 25.4721 108.158 25.6411 108.665ZM24.1436 111.487C24.374 111.133 24.4892 110.665 24.4892 110.081C24.4892 109.521 24.397 109.079 24.2127 108.757C23.9977 108.38 23.6713 108.192 23.2336 108.192C22.8343 108.192 22.5348 108.377 22.3351 108.745C22.1585 109.045 22.0702 109.49 22.0702 110.081C22.0702 110.688 22.1662 111.149 22.3582 111.464C22.5578 111.802 22.8458 111.971 23.2221 111.971C23.6291 111.971 23.9363 111.809 24.1436 111.487ZM27.9043 106.338C27.6662 106.338 27.4704 106.261 27.3168 106.107C27.1632 105.954 27.0865 105.758 27.0865 105.52C27.0865 105.282 27.1632 105.086 27.3168 104.932C27.4704 104.779 27.6662 104.702 27.9043 104.702C28.1424 104.702 28.3382 104.779 28.4918 104.932C28.6454 105.086 28.7222 105.282 28.7222 105.52C28.7222 105.758 28.6454 105.954 28.4918 106.107C28.3382 106.261 28.1424 106.338 27.9043 106.338ZM27.3514 113.03C27.313 113.03 27.2784 113.019 27.2477 112.996C27.2247 112.965 27.2132 112.93 27.2132 112.892V107.271C27.2132 107.232 27.2247 107.202 27.2477 107.179C27.2784 107.148 27.313 107.133 27.3514 107.133H28.4111C28.4495 107.133 28.4803 107.148 28.5033 107.179C28.534 107.202 28.5494 107.232 28.5494 107.271V112.892C28.5494 112.93 28.534 112.965 28.5033 112.996C28.4803 113.019 28.4495 113.03 28.4111 113.03H27.3514ZM32.9022 107.052C33.5242 107.052 34.0195 107.236 34.3881 107.605C34.7644 107.973 34.9526 108.476 34.9526 109.114V112.892C34.9526 112.93 34.9372 112.965 34.9065 112.996C34.8835 113.019 34.8527 113.03 34.8143 113.03H33.7546C33.7162 113.03 33.6816 113.019 33.6509 112.996C33.6279 112.965 33.6164 112.93 33.6164 112.892V109.39C33.6164 109.037 33.5165 108.753 33.3169 108.538C33.1172 108.315 32.8523 108.204 32.5221 108.204C32.1919 108.204 31.9231 108.311 31.7157 108.526C31.5161 108.741 31.4162 109.026 31.4162 109.379V112.892C31.4162 112.93 31.4009 112.965 31.3702 112.996C31.3471 113.019 31.3164 113.03 31.278 113.03H30.2183C30.1799 113.03 30.1453 113.019 30.1146 112.996C30.0916 112.965 30.08 112.93 30.08 112.892V107.282C30.08 107.244 30.0916 107.213 30.1146 107.19C30.1453 107.159 30.1799 107.144 30.2183 107.144H31.278C31.3164 107.144 31.3471 107.159 31.3702 107.19C31.4009 107.213 31.4162 107.244 31.4162 107.282V107.651C31.4162 107.674 31.4239 107.689 31.4393 107.697C31.4546 107.705 31.4662 107.697 31.4738 107.674C31.7887 107.259 32.2648 107.052 32.9022 107.052ZM39.9512 107.282C39.9512 107.244 39.9627 107.213 39.9857 107.19C40.0165 107.159 40.051 107.144 40.0894 107.144H41.1492C41.1876 107.144 41.2183 107.159 41.2413 107.19C41.272 107.213 41.2874 107.244 41.2874 107.282V112.639C41.2874 113.599 41.0109 114.282 40.458 114.689C39.9128 115.104 39.1948 115.311 38.304 115.311C38.0659 115.311 37.8317 115.3 37.6013 115.276C37.5168 115.269 37.4746 115.219 37.4746 115.127L37.5092 114.182C37.5092 114.098 37.5629 114.055 37.6704 114.055C37.8931 114.079 38.0928 114.09 38.2694 114.09C38.8454 114.09 39.2677 113.975 39.5365 113.744C39.813 113.522 39.9512 113.142 39.9512 112.604V112.512C39.9512 112.489 39.9435 112.477 39.9281 112.477C39.9128 112.47 39.8974 112.474 39.8821 112.489C39.5672 112.827 39.1218 112.996 38.5459 112.996C38.0467 112.996 37.5898 112.869 37.1751 112.616C36.7604 112.362 36.4725 111.974 36.3112 111.452C36.2114 111.091 36.1614 110.627 36.1614 110.058C36.1614 109.421 36.2229 108.933 36.3457 108.595C36.4993 108.127 36.7643 107.755 37.1406 107.478C37.5168 107.194 37.9584 107.052 38.4652 107.052C39.0719 107.052 39.5442 107.229 39.8821 107.582C39.8974 107.605 39.9128 107.613 39.9281 107.605C39.9435 107.597 39.9512 107.582 39.9512 107.559V107.282ZM39.8706 111.072C39.9013 110.957 39.9205 110.834 39.9281 110.703C39.9435 110.565 39.9512 110.346 39.9512 110.047C39.9512 109.755 39.9435 109.548 39.9281 109.425C39.9205 109.294 39.8974 109.168 39.859 109.045C39.7976 108.791 39.6709 108.588 39.4789 108.434C39.2946 108.281 39.0565 108.204 38.7647 108.204C38.4883 108.204 38.2541 108.281 38.0621 108.434C37.8701 108.588 37.7319 108.791 37.6474 109.045C37.5552 109.26 37.5092 109.598 37.5092 110.058C37.5092 110.534 37.5476 110.869 37.6244 111.061C37.7011 111.306 37.8394 111.51 38.039 111.671C38.2464 111.825 38.4921 111.901 38.7762 111.901C39.0757 111.901 39.3176 111.825 39.5019 111.671C39.6863 111.517 39.8091 111.318 39.8706 111.072ZM45.2243 113.03C45.1865 113.03 45.1524 113.019 45.1222 112.996C45.0995 112.966 45.0881 112.932 45.0881 112.894V105.221C45.0881 105.184 45.0995 105.153 45.1222 105.131C45.1524 105.1 45.1865 105.085 45.2243 105.085H46.2685C46.3063 105.085 46.3366 105.1 46.3593 105.131C46.3896 105.153 46.4047 105.184 46.4047 105.221V108.615C46.4047 108.638 46.4123 108.653 46.4274 108.661C46.4425 108.668 46.4577 108.664 46.4728 108.649L49.4238 105.165C49.4692 105.112 49.526 105.085 49.5941 105.085H50.7745C50.8501 105.085 50.888 105.112 50.888 105.165C50.888 105.187 50.8766 105.218 50.8539 105.256L48.2548 108.445C48.2321 108.475 48.2283 108.502 48.2434 108.524L51.0355 112.871C51.0506 112.917 51.0582 112.943 51.0582 112.951C51.0582 113.004 51.0204 113.03 50.9447 113.03H49.753C49.6849 113.03 49.6319 113 49.5941 112.939L47.3468 109.444C47.3165 109.398 47.29 109.394 47.2673 109.432L46.4274 110.408C46.4123 110.439 46.4047 110.465 46.4047 110.488V112.894C46.4047 112.932 46.3896 112.966 46.3593 112.996C46.3366 113.019 46.3063 113.03 46.2685 113.03H45.2243ZM56.572 109.478C56.6023 109.667 56.6174 109.879 56.6174 110.113L56.6061 110.465C56.6061 110.556 56.5607 110.601 56.4699 110.601H52.9173C52.8795 110.601 52.8606 110.62 52.8606 110.658C52.8833 110.908 52.9173 111.078 52.9627 111.169C53.1443 111.714 53.587 111.99 54.2907 111.997C54.8052 111.997 55.2138 111.786 55.5165 111.362C55.5467 111.316 55.5846 111.294 55.63 111.294C55.6602 111.294 55.6867 111.305 55.7094 111.328L56.4131 111.907C56.4812 111.96 56.4926 112.02 56.4472 112.088C56.2126 112.421 55.8986 112.678 55.5051 112.86C55.1192 113.042 54.6879 113.132 54.2112 113.132C53.621 113.132 53.1178 113 52.7017 112.735C52.2931 112.47 51.9942 112.1 51.805 111.623C51.631 111.214 51.544 110.647 51.544 109.92C51.544 109.482 51.5894 109.126 51.6802 108.853C51.8315 108.324 52.1152 107.908 52.5314 107.605C52.9551 107.295 53.4621 107.14 54.0523 107.14C55.5429 107.14 56.3828 107.919 56.572 109.478ZM54.0523 108.275C53.7723 108.275 53.5378 108.347 53.3486 108.49C53.167 108.626 53.0384 108.819 52.9627 109.069C52.9173 109.198 52.887 109.364 52.8719 109.569C52.8568 109.606 52.8719 109.625 52.9173 109.625H55.2214C55.2592 109.625 55.2781 109.606 55.2781 109.569C55.263 109.379 55.2403 109.236 55.21 109.137C55.1419 108.865 55.0057 108.653 54.8014 108.502C54.6047 108.35 54.355 108.275 54.0523 108.275ZM60.522 107.162C60.7641 107.162 60.976 107.212 61.1576 107.31C61.2181 107.34 61.2408 107.397 61.2257 107.48L61.0327 108.502C61.0252 108.592 60.9722 108.619 60.8738 108.581C60.7603 108.543 60.6279 108.524 60.4766 108.524C60.3782 108.524 60.3025 108.528 60.2496 108.536C59.9318 108.551 59.6669 108.664 59.4551 108.876C59.2432 109.08 59.1373 109.349 59.1373 109.682V112.894C59.1373 112.932 59.1221 112.966 59.0919 112.996C59.0692 113.019 59.0389 113.03 59.0011 113.03H57.9569C57.919 113.03 57.885 113.019 57.8547 112.996C57.832 112.966 57.8207 112.932 57.8207 112.894V107.367C57.8207 107.329 57.832 107.299 57.8547 107.276C57.885 107.246 57.919 107.23 57.9569 107.23H59.0011C59.0389 107.23 59.0692 107.246 59.0919 107.276C59.1221 107.299 59.1373 107.329 59.1373 107.367V107.877C59.1373 107.908 59.1411 107.927 59.1486 107.934C59.1638 107.934 59.1789 107.923 59.194 107.9C59.5118 107.408 59.9545 107.162 60.522 107.162ZM64.2458 107.14C64.7225 107.14 65.1425 107.223 65.5057 107.389C65.8689 107.556 66.1489 107.787 66.3456 108.082C66.5423 108.369 66.6407 108.698 66.6407 109.069V112.894C66.6407 112.932 66.6256 112.966 66.5953 112.996C66.5726 113.019 66.5423 113.03 66.5045 113.03H65.4603C65.4225 113.03 65.3884 113.019 65.3581 112.996C65.3354 112.966 65.3241 112.932 65.3241 112.894V112.531C65.3241 112.508 65.3165 112.497 65.3014 112.497C65.2863 112.489 65.2711 112.493 65.256 112.508C64.8852 112.917 64.348 113.121 63.6443 113.121C63.0768 113.121 62.6077 112.977 62.2369 112.69C61.8737 112.402 61.6921 111.975 61.6921 111.407C61.6921 110.817 61.8964 110.359 62.305 110.034C62.7212 109.701 63.3038 109.534 64.0529 109.534H65.2673C65.3052 109.534 65.3241 109.516 65.3241 109.478V109.205C65.3241 108.91 65.2371 108.683 65.063 108.524C64.889 108.358 64.628 108.275 64.2799 108.275C63.9924 108.275 63.7578 108.328 63.5762 108.434C63.4022 108.532 63.2924 108.672 63.247 108.853C63.2243 108.944 63.1714 108.982 63.0881 108.967L61.9872 108.831C61.9494 108.823 61.9153 108.812 61.885 108.797C61.8623 108.774 61.8548 108.748 61.8623 108.717C61.9229 108.256 62.1688 107.877 62.6001 107.582C63.039 107.287 63.5875 107.14 64.2458 107.14ZM63.9734 112.077C64.3442 112.077 64.662 111.979 64.9268 111.782C65.1917 111.585 65.3241 111.335 65.3241 111.033V110.499C65.3241 110.461 65.3052 110.442 65.2673 110.442H64.3139C63.9129 110.442 63.5951 110.518 63.3605 110.669C63.1335 110.821 63.02 111.036 63.02 111.316C63.02 111.559 63.1071 111.748 63.2811 111.884C63.4627 112.013 63.6935 112.077 63.9734 112.077ZM68.0987 113.03C68.0609 113.03 68.0268 113.019 67.9966 112.996C67.9739 112.966 67.9625 112.932 67.9625 112.894V105.221C67.9625 105.184 67.9739 105.153 67.9966 105.131C68.0268 105.1 68.0609 105.085 68.0987 105.085H69.1429C69.1808 105.085 69.211 105.1 69.2337 105.131C69.264 105.153 69.2791 105.184 69.2791 105.221V112.894C69.2791 112.932 69.264 112.966 69.2337 112.996C69.211 113.019 69.1808 113.03 69.1429 113.03H68.0987ZM72.8914 107.14C73.3681 107.14 73.788 107.223 74.1512 107.389C74.5144 107.556 74.7944 107.787 74.9911 108.082C75.1878 108.369 75.2862 108.698 75.2862 109.069V112.894C75.2862 112.932 75.2711 112.966 75.2408 112.996C75.2181 113.019 75.1878 113.03 75.15 113.03H74.1058C74.068 113.03 74.0339 113.019 74.0037 112.996C73.981 112.966 73.9696 112.932 73.9696 112.894V112.531C73.9696 112.508 73.962 112.497 73.9469 112.497C73.9318 112.489 73.9166 112.493 73.9015 112.508C73.5307 112.917 72.9935 113.121 72.2898 113.121C71.7223 113.121 71.2532 112.977 70.8824 112.69C70.5192 112.402 70.3376 111.975 70.3376 111.407C70.3376 110.817 70.5419 110.359 70.9505 110.034C71.3667 109.701 71.9493 109.534 72.6984 109.534H73.9129C73.9507 109.534 73.9696 109.516 73.9696 109.478V109.205C73.9696 108.91 73.8826 108.683 73.7086 108.524C73.5345 108.358 73.2735 108.275 72.9254 108.275C72.6379 108.275 72.4033 108.328 72.2217 108.434C72.0477 108.532 71.938 108.672 71.8926 108.853C71.8699 108.944 71.8169 108.982 71.7337 108.967L70.6327 108.831C70.5949 108.823 70.5608 108.812 70.5306 108.797C70.5079 108.774 70.5003 108.748 70.5079 108.717C70.5684 108.256 70.8143 107.877 71.2456 107.582C71.6845 107.287 72.2331 107.14 72.8914 107.14ZM72.619 112.077C72.9897 112.077 73.3075 111.979 73.5724 111.782C73.8372 111.585 73.9696 111.335 73.9696 111.033V110.499C73.9696 110.461 73.9507 110.442 73.9129 110.442H72.9595C72.5584 110.442 72.2406 110.518 72.0061 110.669C71.7791 110.821 71.6656 111.036 71.6656 111.316C71.6656 111.559 71.7526 111.748 71.9266 111.884C72.1082 112.013 72.339 112.077 72.619 112.077ZM77.6 105.085C77.653 105.085 77.687 105.1 77.7022 105.131C77.7173 105.161 77.7173 105.199 77.7022 105.244L76.8055 107.457C76.7828 107.526 76.7298 107.56 76.6466 107.56H75.8748C75.8294 107.56 75.7954 107.548 75.7727 107.526C75.7575 107.495 75.7537 107.457 75.7613 107.412L76.3969 105.199C76.4196 105.123 76.4726 105.085 76.5558 105.085H77.6ZM79.8508 113.098C79.3741 113.098 78.9541 113.03 78.5909 112.894C78.2353 112.75 77.9591 112.557 77.7624 112.315C77.5656 112.066 77.4673 111.789 77.4673 111.487V111.385C77.4673 111.347 77.4786 111.316 77.5013 111.294C77.5316 111.263 77.5656 111.248 77.6035 111.248H78.6023C78.6401 111.248 78.6704 111.263 78.6931 111.294C78.7233 111.316 78.7385 111.347 78.7385 111.385V111.407C78.7385 111.596 78.8406 111.763 79.0449 111.907C79.2568 112.043 79.5216 112.111 79.8394 112.111C80.1421 112.111 80.388 112.05 80.5772 111.929C80.7663 111.801 80.8609 111.642 80.8609 111.453C80.8609 111.279 80.7815 111.15 80.6226 111.067C80.4712 110.976 80.2215 110.881 79.8735 110.783L79.4422 110.647C79.0563 110.533 78.7309 110.412 78.4661 110.284C78.2012 110.155 77.978 109.981 77.7964 109.761C77.6148 109.534 77.524 109.247 77.524 108.899C77.524 108.369 77.7321 107.949 78.1483 107.639C78.5644 107.321 79.113 107.162 79.794 107.162C80.2556 107.162 80.6604 107.238 81.0085 107.389C81.3565 107.533 81.6251 107.737 81.8143 108.002C82.0035 108.259 82.0981 108.555 82.0981 108.888C82.0981 108.925 82.0829 108.959 82.0527 108.99C82.03 109.012 81.9997 109.024 81.9619 109.024H80.9971C80.9593 109.024 80.9252 109.012 80.895 108.99C80.8723 108.959 80.8609 108.925 80.8609 108.888C80.8609 108.691 80.7625 108.528 80.5658 108.399C80.3766 108.263 80.1156 108.195 79.7827 108.195C79.4876 108.195 79.2454 108.252 79.0563 108.365C78.8747 108.471 78.7839 108.623 78.7839 108.819C78.7839 109.001 78.8709 109.141 79.0449 109.239C79.2265 109.33 79.5254 109.432 79.9416 109.546L80.1913 109.614C80.5923 109.735 80.929 109.86 81.2014 109.988C81.4738 110.11 81.7046 110.284 81.8938 110.511C82.0829 110.73 82.1775 111.018 82.1775 111.373C82.1775 111.91 81.9656 112.334 81.5419 112.644C81.1182 112.947 80.5545 113.098 79.8508 113.098ZM88.3446 113.121C87.7771 113.121 87.2777 113.011 86.8464 112.792C86.4151 112.565 86.0822 112.251 85.8476 111.85C85.6131 111.449 85.4958 110.983 85.4958 110.454V107.65C85.4958 107.121 85.6131 106.655 85.8476 106.254C86.0822 105.853 86.4151 105.543 86.8464 105.324C87.2777 105.104 87.7771 104.994 88.3446 104.994C88.9046 104.994 89.4002 105.1 89.8315 105.312C90.2628 105.524 90.5957 105.823 90.8303 106.209C91.0649 106.595 91.1821 107.041 91.1821 107.548C91.1821 107.586 91.167 107.62 91.1367 107.65C91.114 107.673 91.0838 107.684 91.0459 107.684L90.0017 107.741C89.9109 107.741 89.8655 107.7 89.8655 107.616C89.8655 107.17 89.7256 106.81 89.4456 106.538C89.1732 106.266 88.8062 106.129 88.3446 106.129C87.8831 106.129 87.5123 106.266 87.2323 106.538C86.9524 106.81 86.8124 107.17 86.8124 107.616V110.511C86.8124 110.949 86.9524 111.305 87.2323 111.577C87.5123 111.85 87.8831 111.986 88.3446 111.986C88.8062 111.986 89.1732 111.854 89.4456 111.589C89.7256 111.316 89.8655 110.957 89.8655 110.511C89.8655 110.427 89.9109 110.386 90.0017 110.386L91.0459 110.431C91.0838 110.431 91.114 110.442 91.1367 110.465C91.167 110.488 91.1821 110.514 91.1821 110.545C91.1821 111.059 91.0649 111.513 90.8303 111.907C90.5957 112.293 90.2628 112.591 89.8315 112.803C89.4002 113.015 88.9046 113.121 88.3446 113.121ZM95.8969 107.367C95.8969 107.329 95.9083 107.299 95.931 107.276C95.9612 107.246 95.9953 107.23 96.0331 107.23H97.066C97.1038 107.23 97.1341 107.246 97.1568 107.276C97.187 107.299 97.2022 107.329 97.2022 107.367V112.894C97.2022 112.932 97.187 112.966 97.1568 112.996C97.1341 113.019 97.1038 113.03 97.066 113.03H96.0331C95.9953 113.03 95.9612 113.019 95.931 112.996C95.9083 112.966 95.8969 112.932 95.8969 112.894V112.531C95.8969 112.508 95.8894 112.493 95.8742 112.485C95.8591 112.478 95.844 112.485 95.8288 112.508C95.5186 112.909 95.0532 113.11 94.4328 113.11C93.8577 113.11 93.3734 112.943 92.98 112.61C92.5941 112.277 92.4011 111.804 92.4011 111.192V107.367C92.4011 107.329 92.4125 107.299 92.4352 107.276C92.4654 107.246 92.4995 107.23 92.5373 107.23H93.5815C93.6194 107.23 93.6496 107.246 93.6723 107.276C93.7026 107.299 93.7177 107.329 93.7177 107.367V110.817C93.7177 111.173 93.8085 111.456 93.9901 111.668C94.1793 111.88 94.4403 111.986 94.7733 111.986C95.1138 111.986 95.3862 111.88 95.5905 111.668C95.7948 111.456 95.8969 111.173 95.8969 110.817V107.367ZM98.7459 113.03C98.7081 113.03 98.6741 113.019 98.6438 112.996C98.6211 112.966 98.6097 112.932 98.6097 112.894V105.221C98.6097 105.184 98.6211 105.153 98.6438 105.131C98.6741 105.1 98.7081 105.085 98.7459 105.085H99.7901C99.828 105.085 99.8582 105.1 99.8809 105.131C99.9112 105.153 99.9263 105.184 99.9263 105.221V112.894C99.9263 112.932 99.9112 112.966 99.8809 112.996C99.8582 113.019 99.828 113.03 99.7901 113.03H98.7459ZM104.401 108.161C104.401 108.199 104.386 108.233 104.356 108.263C104.333 108.286 104.303 108.297 104.265 108.297H103.107C103.069 108.297 103.051 108.316 103.051 108.354V111.089C103.051 111.377 103.111 111.585 103.232 111.714C103.361 111.842 103.561 111.907 103.834 111.907H104.174C104.212 111.907 104.242 111.922 104.265 111.952C104.295 111.975 104.31 112.005 104.31 112.043V112.894C104.31 112.977 104.265 113.026 104.174 113.042L103.584 113.053C102.986 113.053 102.54 112.951 102.245 112.747C101.95 112.542 101.798 112.156 101.791 111.589V108.354C101.791 108.316 101.772 108.297 101.734 108.297H101.087C101.049 108.297 101.015 108.286 100.985 108.263C100.962 108.233 100.951 108.199 100.951 108.161V107.367C100.951 107.329 100.962 107.299 100.985 107.276C101.015 107.246 101.049 107.23 101.087 107.23H101.734C101.772 107.23 101.791 107.212 101.791 107.174V105.846C101.791 105.808 101.802 105.778 101.825 105.755C101.855 105.725 101.889 105.71 101.927 105.71H102.914C102.952 105.71 102.982 105.725 103.005 105.755C103.035 105.778 103.051 105.808 103.051 105.846V107.174C103.051 107.212 103.069 107.23 103.107 107.23H104.265C104.303 107.23 104.333 107.246 104.356 107.276C104.386 107.299 104.401 107.329 104.401 107.367V108.161ZM108.998 107.367C108.998 107.329 109.01 107.299 109.032 107.276C109.063 107.246 109.097 107.23 109.134 107.23H110.167C110.205 107.23 110.235 107.246 110.258 107.276C110.288 107.299 110.303 107.329 110.303 107.367V112.894C110.303 112.932 110.288 112.966 110.258 112.996C110.235 113.019 110.205 113.03 110.167 113.03H109.134C109.097 113.03 109.063 113.019 109.032 112.996C109.01 112.966 108.998 112.932 108.998 112.894V112.531C108.998 112.508 108.991 112.493 108.975 112.485C108.96 112.478 108.945 112.485 108.93 112.508C108.62 112.909 108.155 113.11 107.534 113.11C106.959 113.11 106.475 112.943 106.081 112.61C105.695 112.277 105.502 111.804 105.502 111.192V107.367C105.502 107.329 105.514 107.299 105.536 107.276C105.567 107.246 105.601 107.23 105.639 107.23H106.683C106.721 107.23 106.751 107.246 106.774 107.276C106.804 107.299 106.819 107.329 106.819 107.367V110.817C106.819 111.173 106.91 111.456 107.091 111.668C107.281 111.88 107.542 111.986 107.875 111.986C108.215 111.986 108.487 111.88 108.692 111.668C108.896 111.456 108.998 111.173 108.998 110.817V107.367ZM114.412 107.162C114.654 107.162 114.866 107.212 115.048 107.31C115.108 107.34 115.131 107.397 115.116 107.48L114.923 108.502C114.916 108.592 114.863 108.619 114.764 108.581C114.651 108.543 114.518 108.524 114.367 108.524C114.269 108.524 114.193 108.528 114.14 108.536C113.822 108.551 113.557 108.664 113.345 108.876C113.134 109.08 113.028 109.349 113.028 109.682V112.894C113.028 112.932 113.012 112.966 112.982 112.996C112.96 113.019 112.929 113.03 112.891 113.03H111.847C111.809 113.03 111.775 113.019 111.745 112.996C111.722 112.966 111.711 112.932 111.711 112.894V107.367C111.711 107.329 111.722 107.299 111.745 107.276C111.775 107.246 111.809 107.23 111.847 107.23H112.891C112.929 107.23 112.96 107.246 112.982 107.276C113.012 107.299 113.028 107.329 113.028 107.367V107.877C113.028 107.908 113.031 107.927 113.039 107.934C113.054 107.934 113.069 107.923 113.084 107.9C113.402 107.408 113.845 107.162 114.412 107.162ZM118.136 107.14C118.613 107.14 119.033 107.223 119.396 107.389C119.759 107.556 120.039 107.787 120.236 108.082C120.433 108.369 120.531 108.698 120.531 109.069V112.894C120.531 112.932 120.516 112.966 120.486 112.996C120.463 113.019 120.433 113.03 120.395 113.03H119.351C119.313 113.03 119.279 113.019 119.248 112.996C119.226 112.966 119.214 112.932 119.214 112.894V112.531C119.214 112.508 119.207 112.497 119.192 112.497C119.177 112.489 119.161 112.493 119.146 112.508C118.776 112.917 118.238 113.121 117.535 113.121C116.967 113.121 116.498 112.977 116.127 112.69C115.764 112.402 115.582 111.975 115.582 111.407C115.582 110.817 115.787 110.359 116.195 110.034C116.611 109.701 117.194 109.534 117.943 109.534H119.158C119.196 109.534 119.214 109.516 119.214 109.478V109.205C119.214 108.91 119.127 108.683 118.953 108.524C118.779 108.358 118.518 108.275 118.17 108.275C117.883 108.275 117.648 108.328 117.467 108.434C117.292 108.532 117.183 108.672 117.137 108.853C117.115 108.944 117.062 108.982 116.978 108.967L115.878 108.831C115.84 108.823 115.806 108.812 115.775 108.797C115.753 108.774 115.745 108.748 115.753 108.717C115.813 108.256 116.059 107.877 116.49 107.582C116.929 107.287 117.478 107.14 118.136 107.14ZM117.864 112.077C118.235 112.077 118.552 111.979 118.817 111.782C119.082 111.585 119.214 111.335 119.214 111.033V110.499C119.214 110.461 119.196 110.442 119.158 110.442H118.204C117.803 110.442 117.485 110.518 117.251 110.669C117.024 110.821 116.91 111.036 116.91 111.316C116.91 111.559 116.997 111.748 117.171 111.884C117.353 112.013 117.584 112.077 117.864 112.077ZM121.989 113.03C121.951 113.03 121.917 113.019 121.887 112.996C121.864 112.966 121.853 112.932 121.853 112.894V105.221C121.853 105.184 121.864 105.153 121.887 105.131C121.917 105.1 121.951 105.085 121.989 105.085H123.033C123.071 105.085 123.101 105.1 123.124 105.131C123.154 105.153 123.169 105.184 123.169 105.221V112.894C123.169 112.932 123.154 112.966 123.124 112.996C123.101 113.019 123.071 113.03 123.033 113.03H121.989ZM129.621 113.121C129.054 113.121 128.555 113.011 128.123 112.792C127.692 112.565 127.359 112.251 127.124 111.85C126.89 111.449 126.773 110.983 126.773 110.454V107.65C126.773 107.121 126.89 106.655 127.124 106.254C127.359 105.853 127.692 105.543 128.123 105.324C128.555 105.104 129.054 104.994 129.621 104.994C130.181 104.994 130.677 105.1 131.108 105.312C131.54 105.524 131.872 105.823 132.107 106.209C132.342 106.595 132.459 107.041 132.459 107.548C132.459 107.586 132.444 107.62 132.414 107.65C132.391 107.673 132.361 107.684 132.323 107.684L131.279 107.741C131.188 107.741 131.142 107.7 131.142 107.616C131.142 107.17 131.002 106.81 130.722 106.538C130.45 106.266 130.083 106.129 129.621 106.129C129.16 106.129 128.789 106.266 128.509 106.538C128.229 106.81 128.089 107.17 128.089 107.616V110.511C128.089 110.949 128.229 111.305 128.509 111.577C128.789 111.85 129.16 111.986 129.621 111.986C130.083 111.986 130.45 111.854 130.722 111.589C131.002 111.316 131.142 110.957 131.142 110.511C131.142 110.427 131.188 110.386 131.279 110.386L132.323 110.431C132.361 110.431 132.391 110.442 132.414 110.465C132.444 110.488 132.459 110.514 132.459 110.545C132.459 111.059 132.342 111.513 132.107 111.907C131.872 112.293 131.54 112.591 131.108 112.803C130.677 113.015 130.181 113.121 129.621 113.121ZM136.447 107.162C136.689 107.162 136.901 107.212 137.083 107.31C137.143 107.34 137.166 107.397 137.151 107.48L136.958 108.502C136.95 108.592 136.897 108.619 136.799 108.581C136.686 108.543 136.553 108.524 136.402 108.524C136.304 108.524 136.228 108.528 136.175 108.536C135.857 108.551 135.592 108.664 135.38 108.876C135.169 109.08 135.063 109.349 135.063 109.682V112.894C135.063 112.932 135.047 112.966 135.017 112.996C134.994 113.019 134.964 113.03 134.926 113.03H133.882C133.844 113.03 133.81 113.019 133.78 112.996C133.757 112.966 133.746 112.932 133.746 112.894V107.367C133.746 107.329 133.757 107.299 133.78 107.276C133.81 107.246 133.844 107.23 133.882 107.23H134.926C134.964 107.23 134.994 107.246 135.017 107.276C135.047 107.299 135.063 107.329 135.063 107.367V107.877C135.063 107.908 135.066 107.927 135.074 107.934C135.089 107.934 135.104 107.923 135.119 107.9C135.437 107.408 135.88 107.162 136.447 107.162ZM142.794 109.478C142.825 109.667 142.84 109.879 142.84 110.113L142.828 110.465C142.828 110.556 142.783 110.601 142.692 110.601H139.14C139.102 110.601 139.083 110.62 139.083 110.658C139.106 110.908 139.14 111.078 139.185 111.169C139.367 111.714 139.809 111.99 140.513 111.997C141.028 111.997 141.436 111.786 141.739 111.362C141.769 111.316 141.807 111.294 141.852 111.294C141.883 111.294 141.909 111.305 141.932 111.328L142.635 111.907C142.704 111.96 142.715 112.02 142.669 112.088C142.435 112.421 142.121 112.678 141.727 112.86C141.342 113.042 140.91 113.132 140.434 113.132C139.843 113.132 139.34 113 138.924 112.735C138.515 112.47 138.216 112.1 138.027 111.623C137.853 111.214 137.766 110.647 137.766 109.92C137.766 109.482 137.812 109.126 137.902 108.853C138.054 108.324 138.338 107.908 138.754 107.605C139.177 107.295 139.684 107.14 140.275 107.14C141.765 107.14 142.605 107.919 142.794 109.478ZM140.275 108.275C139.995 108.275 139.76 108.347 139.571 108.49C139.389 108.626 139.261 108.819 139.185 109.069C139.14 109.198 139.109 109.364 139.094 109.569C139.079 109.606 139.094 109.625 139.14 109.625H141.444C141.482 109.625 141.5 109.606 141.5 109.569C141.485 109.379 141.463 109.236 141.432 109.137C141.364 108.865 141.228 108.653 141.024 108.502C140.827 108.35 140.577 108.275 140.275 108.275ZM146.201 107.14C146.678 107.14 147.097 107.223 147.461 107.389C147.824 107.556 148.104 107.787 148.301 108.082C148.497 108.369 148.596 108.698 148.596 109.069V112.894C148.596 112.932 148.581 112.966 148.55 112.996C148.528 113.019 148.497 113.03 148.459 113.03H147.415C147.377 113.03 147.343 113.019 147.313 112.996C147.29 112.966 147.279 112.932 147.279 112.894V112.531C147.279 112.508 147.272 112.497 147.256 112.497C147.241 112.489 147.226 112.493 147.211 112.508C146.84 112.917 146.303 113.121 145.599 113.121C145.032 113.121 144.563 112.977 144.192 112.69C143.829 112.402 143.647 111.975 143.647 111.407C143.647 110.817 143.851 110.359 144.26 110.034C144.676 109.701 145.259 109.534 146.008 109.534H147.222C147.26 109.534 147.279 109.516 147.279 109.478V109.205C147.279 108.91 147.192 108.683 147.018 108.524C146.844 108.358 146.583 108.275 146.235 108.275C145.947 108.275 145.713 108.328 145.531 108.434C145.357 108.532 145.247 108.672 145.202 108.853C145.179 108.944 145.126 108.982 145.043 108.967L143.942 108.831C143.904 108.823 143.87 108.812 143.84 108.797C143.817 108.774 143.81 108.748 143.817 108.717C143.878 108.256 144.124 107.877 144.555 107.582C144.994 107.287 145.543 107.14 146.201 107.14ZM145.928 112.077C146.299 112.077 146.617 111.979 146.882 111.782C147.147 111.585 147.279 111.335 147.279 111.033V110.499C147.279 110.461 147.26 110.442 147.222 110.442H146.269C145.868 110.442 145.55 110.518 145.316 110.669C145.089 110.821 144.975 111.036 144.975 111.316C144.975 111.559 145.062 111.748 145.236 111.884C145.418 112.013 145.648 112.077 145.928 112.077ZM152.905 108.161C152.905 108.199 152.89 108.233 152.859 108.263C152.837 108.286 152.806 108.297 152.768 108.297H151.611C151.573 108.297 151.554 108.316 151.554 108.354V111.089C151.554 111.377 151.615 111.585 151.736 111.714C151.864 111.842 152.065 111.907 152.337 111.907H152.678C152.716 111.907 152.746 111.922 152.768 111.952C152.799 111.975 152.814 112.005 152.814 112.043V112.894C152.814 112.977 152.768 113.026 152.678 113.042L152.087 113.053C151.49 113.053 151.043 112.951 150.748 112.747C150.453 112.542 150.302 112.156 150.294 111.589V108.354C150.294 108.316 150.275 108.297 150.237 108.297H149.59C149.553 108.297 149.519 108.286 149.488 108.263C149.466 108.233 149.454 108.199 149.454 108.161V107.367C149.454 107.329 149.466 107.299 149.488 107.276C149.519 107.246 149.553 107.23 149.59 107.23H150.237C150.275 107.23 150.294 107.212 150.294 107.174V105.846C150.294 105.808 150.306 105.778 150.328 105.755C150.359 105.725 150.393 105.71 150.43 105.71H151.418C151.456 105.71 151.486 105.725 151.509 105.755C151.539 105.778 151.554 105.808 151.554 105.846V107.174C151.554 107.212 151.573 107.23 151.611 107.23H152.768C152.806 107.23 152.837 107.246 152.859 107.276C152.89 107.299 152.905 107.329 152.905 107.367V108.161ZM154.823 106.436C154.589 106.436 154.396 106.36 154.244 106.209C154.093 106.058 154.017 105.865 154.017 105.63C154.017 105.396 154.093 105.203 154.244 105.051C154.396 104.9 154.589 104.824 154.823 104.824C155.058 104.824 155.251 104.9 155.402 105.051C155.553 105.203 155.629 105.396 155.629 105.63C155.629 105.865 155.553 106.058 155.402 106.209C155.251 106.36 155.058 106.436 154.823 106.436ZM154.278 113.03C154.24 113.03 154.206 113.019 154.176 112.996C154.153 112.966 154.142 112.932 154.142 112.894V107.355C154.142 107.317 154.153 107.287 154.176 107.264C154.206 107.234 154.24 107.219 154.278 107.219H155.323C155.36 107.219 155.391 107.234 155.413 107.264C155.444 107.287 155.459 107.317 155.459 107.355V112.894C155.459 112.932 155.444 112.966 155.413 112.996C155.391 113.019 155.36 113.03 155.323 113.03H154.278ZM158.533 113.03C158.458 113.03 158.408 112.992 158.386 112.917L156.558 107.378C156.551 107.363 156.547 107.344 156.547 107.321C156.547 107.253 156.589 107.219 156.672 107.219H157.83C157.913 107.219 157.966 107.257 157.988 107.333L159.089 111.123C159.097 111.146 159.108 111.158 159.123 111.158C159.139 111.158 159.15 111.146 159.157 111.123L160.258 107.333C160.281 107.257 160.334 107.219 160.417 107.219L161.575 107.242C161.62 107.242 161.654 107.257 161.677 107.287C161.7 107.31 161.704 107.348 161.689 107.401L159.873 112.917C159.85 112.992 159.801 113.03 159.725 113.03H158.533ZM167.268 109.478C167.298 109.667 167.313 109.879 167.313 110.113L167.302 110.465C167.302 110.556 167.256 110.601 167.166 110.601H163.613C163.575 110.601 163.556 110.62 163.556 110.658C163.579 110.908 163.613 111.078 163.658 111.169C163.84 111.714 164.283 111.99 164.986 111.997C165.501 111.997 165.91 111.786 166.212 111.362C166.242 111.316 166.28 111.294 166.326 111.294C166.356 111.294 166.382 111.305 166.405 111.328L167.109 111.907C167.177 111.96 167.188 112.02 167.143 112.088C166.908 112.421 166.594 112.678 166.201 112.86C165.815 113.042 165.384 113.132 164.907 113.132C164.317 113.132 163.814 113 163.397 112.735C162.989 112.47 162.69 112.1 162.501 111.623C162.327 111.214 162.24 110.647 162.24 109.92C162.24 109.482 162.285 109.126 162.376 108.853C162.527 108.324 162.811 107.908 163.227 107.605C163.651 107.295 164.158 107.14 164.748 107.14C166.239 107.14 167.079 107.919 167.268 109.478ZM164.748 108.275C164.468 108.275 164.234 108.347 164.044 108.49C163.863 108.626 163.734 108.819 163.658 109.069C163.613 109.198 163.583 109.364 163.568 109.569C163.553 109.606 163.568 109.625 163.613 109.625H165.917C165.955 109.625 165.974 109.606 165.974 109.569C165.959 109.379 165.936 109.236 165.906 109.137C165.838 108.865 165.701 108.653 165.497 108.502C165.3 108.35 165.051 108.275 164.748 108.275ZM176.293 106.084C176.293 106.122 176.278 106.156 176.248 106.186C176.225 106.209 176.195 106.22 176.157 106.22H172.287C172.249 106.22 172.23 106.239 172.23 106.277V108.399C172.23 108.437 172.249 108.456 172.287 108.456H174.886C174.924 108.456 174.954 108.471 174.977 108.502C175.007 108.524 175.022 108.555 175.022 108.592V109.455C175.022 109.493 175.007 109.527 174.977 109.557C174.954 109.58 174.924 109.591 174.886 109.591H172.287C172.249 109.591 172.23 109.61 172.23 109.648V111.839C172.23 111.876 172.249 111.895 172.287 111.895H176.157C176.195 111.895 176.225 111.91 176.248 111.941C176.278 111.963 176.293 111.994 176.293 112.031V112.894C176.293 112.932 176.278 112.966 176.248 112.996C176.225 113.019 176.195 113.03 176.157 113.03H171.05C171.012 113.03 170.978 113.019 170.948 112.996C170.925 112.966 170.914 112.932 170.914 112.894V105.221C170.914 105.184 170.925 105.153 170.948 105.131C170.978 105.1 171.012 105.085 171.05 105.085H176.157C176.195 105.085 176.225 105.1 176.248 105.131C176.278 105.153 176.293 105.184 176.293 105.221V106.084ZM179.923 113.121C179.34 113.121 178.837 112.974 178.414 112.678C177.99 112.376 177.695 111.971 177.528 111.464C177.407 111.123 177.347 110.669 177.347 110.102C177.347 109.557 177.407 109.111 177.528 108.763C177.687 108.263 177.978 107.87 178.402 107.582C178.833 107.287 179.34 107.14 179.923 107.14C180.513 107.14 181.028 107.287 181.467 107.582C181.906 107.877 182.197 108.248 182.341 108.695C182.378 108.816 182.405 108.937 182.42 109.058V109.08C182.42 109.156 182.378 109.202 182.295 109.217L181.274 109.364H181.251C181.183 109.364 181.138 109.326 181.115 109.251C181.115 109.213 181.111 109.183 181.103 109.16C181.088 109.099 181.073 109.046 181.058 109.001C180.99 108.789 180.854 108.615 180.649 108.479C180.445 108.343 180.203 108.275 179.923 108.275C179.636 108.275 179.39 108.35 179.185 108.502C178.989 108.645 178.856 108.846 178.788 109.103C178.712 109.345 178.675 109.682 178.675 110.113C178.675 110.529 178.709 110.866 178.777 111.123C178.852 111.388 178.989 111.6 179.185 111.759C179.382 111.91 179.628 111.986 179.923 111.986C180.211 111.986 180.457 111.914 180.661 111.77C180.873 111.619 181.009 111.419 181.069 111.169C181.077 111.154 181.081 111.135 181.081 111.112C181.088 111.105 181.092 111.093 181.092 111.078C181.115 110.987 181.168 110.949 181.251 110.965L182.273 111.123C182.31 111.131 182.341 111.15 182.363 111.18C182.394 111.203 182.405 111.237 182.397 111.282C182.375 111.403 182.356 111.49 182.341 111.543C182.197 112.028 181.906 112.414 181.467 112.701C181.028 112.981 180.513 113.121 179.923 113.121ZM185.943 113.121C185.345 113.121 184.83 112.97 184.399 112.667C183.975 112.364 183.677 111.944 183.503 111.407C183.374 110.999 183.31 110.567 183.31 110.113C183.31 109.629 183.37 109.198 183.491 108.819C183.665 108.29 183.968 107.877 184.399 107.582C184.83 107.287 185.349 107.14 185.954 107.14C186.529 107.14 187.025 107.287 187.441 107.582C187.865 107.877 188.164 108.286 188.338 108.808C188.474 109.171 188.542 109.603 188.542 110.102C188.542 110.579 188.478 111.01 188.349 111.396C188.175 111.933 187.876 112.357 187.452 112.667C187.029 112.97 186.525 113.121 185.943 113.121ZM185.943 111.986C186.223 111.986 186.461 111.907 186.658 111.748C186.862 111.589 187.01 111.366 187.1 111.078C187.176 110.828 187.214 110.511 187.214 110.125C187.214 109.716 187.176 109.398 187.1 109.171C187.017 108.884 186.873 108.664 186.669 108.513C186.465 108.354 186.215 108.275 185.92 108.275C185.64 108.275 185.398 108.354 185.194 108.513C184.989 108.664 184.842 108.884 184.751 109.171C184.675 109.436 184.638 109.754 184.638 110.125C184.638 110.495 184.675 110.813 184.751 111.078C184.834 111.366 184.978 111.589 185.182 111.748C185.394 111.907 185.648 111.986 185.943 111.986ZM192.567 107.14C193.18 107.14 193.668 107.321 194.032 107.684C194.402 108.048 194.588 108.543 194.588 109.171V112.894C194.588 112.932 194.573 112.966 194.542 112.996C194.52 113.019 194.489 113.03 194.451 113.03H193.407C193.369 113.03 193.335 113.019 193.305 112.996C193.282 112.966 193.271 112.932 193.271 112.894V109.444C193.271 109.096 193.173 108.816 192.976 108.604C192.779 108.384 192.518 108.275 192.193 108.275C191.867 108.275 191.603 108.381 191.398 108.592C191.202 108.804 191.103 109.084 191.103 109.432V112.894C191.103 112.932 191.088 112.966 191.058 112.996C191.035 113.019 191.005 113.03 190.967 113.03H189.923C189.885 113.03 189.851 113.019 189.821 112.996C189.798 112.966 189.787 112.932 189.787 112.894V107.367C189.787 107.329 189.798 107.299 189.821 107.276C189.851 107.246 189.885 107.23 189.923 107.23H190.967C191.005 107.23 191.035 107.246 191.058 107.276C191.088 107.299 191.103 107.329 191.103 107.367V107.73C191.103 107.753 191.111 107.768 191.126 107.775C191.141 107.783 191.152 107.775 191.16 107.753C191.47 107.344 191.939 107.14 192.567 107.14ZM198.379 113.121C197.781 113.121 197.267 112.97 196.835 112.667C196.412 112.364 196.113 111.944 195.939 111.407C195.81 110.999 195.746 110.567 195.746 110.113C195.746 109.629 195.806 109.198 195.927 108.819C196.101 108.29 196.404 107.877 196.835 107.582C197.267 107.287 197.785 107.14 198.39 107.14C198.965 107.14 199.461 107.287 199.877 107.582C200.301 107.877 200.6 108.286 200.774 108.808C200.91 109.171 200.978 109.603 200.978 110.102C200.978 110.579 200.914 111.01 200.785 111.396C200.611 111.933 200.312 112.357 199.889 112.667C199.465 112.97 198.962 113.121 198.379 113.121ZM198.379 111.986C198.659 111.986 198.897 111.907 199.094 111.748C199.298 111.589 199.446 111.366 199.537 111.078C199.612 110.828 199.65 110.511 199.65 110.125C199.65 109.716 199.612 109.398 199.537 109.171C199.453 108.884 199.31 108.664 199.105 108.513C198.901 108.354 198.651 108.275 198.356 108.275C198.076 108.275 197.834 108.354 197.63 108.513C197.426 108.664 197.278 108.884 197.187 109.171C197.112 109.436 197.074 109.754 197.074 110.125C197.074 110.495 197.112 110.813 197.187 111.078C197.27 111.366 197.414 111.589 197.619 111.748C197.83 111.907 198.084 111.986 198.379 111.986ZM208.431 107.14C209.014 107.14 209.468 107.317 209.793 107.673C210.126 108.021 210.293 108.509 210.293 109.137V112.894C210.293 112.932 210.278 112.966 210.247 112.996C210.225 113.019 210.194 113.03 210.156 113.03H209.124C209.086 113.03 209.052 113.019 209.021 112.996C208.999 112.966 208.987 112.932 208.987 112.894V109.41C208.987 109.062 208.893 108.785 208.704 108.581C208.522 108.377 208.276 108.275 207.966 108.275C207.656 108.275 207.402 108.377 207.205 108.581C207.009 108.785 206.91 109.058 206.91 109.398V112.894C206.91 112.932 206.895 112.966 206.865 112.996C206.842 113.019 206.812 113.03 206.774 113.03H205.741C205.704 113.03 205.669 113.019 205.639 112.996C205.616 112.966 205.605 112.932 205.605 112.894V109.41C205.605 109.062 205.511 108.785 205.321 108.581C205.132 108.377 204.883 108.275 204.572 108.275C204.285 108.275 204.046 108.358 203.857 108.524C203.676 108.691 203.57 108.918 203.539 109.205V112.894C203.539 112.932 203.524 112.966 203.494 112.996C203.471 113.019 203.441 113.03 203.403 113.03H202.359C202.321 113.03 202.287 113.019 202.257 112.996C202.234 112.966 202.223 112.932 202.223 112.894V107.367C202.223 107.329 202.234 107.299 202.257 107.276C202.287 107.246 202.321 107.23 202.359 107.23H203.403C203.441 107.23 203.471 107.246 203.494 107.276C203.524 107.299 203.539 107.329 203.539 107.367V107.741C203.539 107.764 203.547 107.779 203.562 107.787C203.577 107.794 203.592 107.787 203.608 107.764C203.774 107.552 203.978 107.397 204.22 107.299C204.47 107.193 204.746 107.14 205.049 107.14C205.42 107.14 205.745 107.215 206.025 107.367C206.305 107.518 206.521 107.737 206.672 108.025C206.695 108.055 206.721 108.055 206.751 108.025C206.918 107.722 207.149 107.499 207.444 107.355C207.739 107.212 208.068 107.14 208.431 107.14ZM211.32 115.289C211.297 115.289 211.279 115.274 211.263 115.244C211.248 115.221 211.241 115.191 211.241 115.153V114.336C211.241 114.298 211.252 114.264 211.275 114.233C211.305 114.211 211.339 114.199 211.377 114.199H211.388C211.698 114.192 211.941 114.158 212.115 114.097C212.289 114.044 212.432 113.938 212.546 113.779C212.659 113.62 212.762 113.382 212.852 113.064C212.86 113.049 212.86 113.026 212.852 112.996L210.98 107.378C210.972 107.363 210.968 107.344 210.968 107.321C210.968 107.253 211.006 107.219 211.082 107.219H212.194C212.277 107.219 212.33 107.257 212.353 107.333L213.488 111.328C213.496 111.35 213.507 111.362 213.522 111.362C213.537 111.362 213.549 111.35 213.556 111.328L214.691 107.333C214.714 107.257 214.767 107.219 214.85 107.219H215.928C215.974 107.219 216.004 107.234 216.019 107.264C216.042 107.287 216.046 107.325 216.03 107.378L214.033 113.348C213.844 113.885 213.658 114.286 213.477 114.551C213.295 114.816 213.045 115.005 212.728 115.119C212.417 115.232 211.975 115.289 211.4 115.289H211.32Z" fill="#231F20"/>
<path d="M227.865 112.71C227.703 112.71 227.622 112.629 227.622 112.466V111.462C227.622 111.35 227.662 111.254 227.743 111.172C228.22 110.665 229.017 109.762 230.133 108.463L231.108 107.336C232.041 106.25 232.508 105.428 232.508 104.87C232.508 104.454 232.361 104.114 232.067 103.85C231.772 103.586 231.392 103.454 230.925 103.454C230.458 103.454 230.078 103.586 229.783 103.85C229.499 104.114 229.357 104.464 229.357 104.9V105.235C229.357 105.398 229.276 105.479 229.113 105.479H227.819C227.657 105.479 227.576 105.398 227.576 105.235V104.642C227.596 104.094 227.753 103.617 228.048 103.211C228.342 102.805 228.738 102.49 229.235 102.267C229.743 102.043 230.306 101.932 230.925 101.932C231.605 101.932 232.199 102.059 232.706 102.312C233.214 102.566 233.604 102.916 233.878 103.363C234.152 103.799 234.289 104.291 234.289 104.839C234.289 105.672 233.848 106.631 232.965 107.717C232.64 108.133 232.254 108.595 231.808 109.102C231.361 109.609 230.915 110.112 230.468 110.609L230.042 111.081C230.012 111.112 230.001 111.137 230.012 111.157C230.022 111.177 230.047 111.188 230.088 111.188H234.289C234.452 111.188 234.533 111.269 234.533 111.431V112.466C234.533 112.629 234.452 112.71 234.289 112.71H227.865ZM239.553 112.877C238.488 112.877 237.64 112.578 237.011 111.979C236.392 111.37 236.082 110.553 236.082 109.528V105.235C236.082 104.22 236.392 103.419 237.011 102.83C237.64 102.231 238.488 101.932 239.553 101.932C240.619 101.932 241.466 102.231 242.096 102.83C242.735 103.419 243.055 104.22 243.055 105.235V109.528C243.055 110.553 242.735 111.37 242.096 111.979C241.466 112.578 240.619 112.877 239.553 112.877ZM239.553 111.34C240.081 111.34 240.502 111.188 240.817 110.883C241.131 110.569 241.289 110.147 241.289 109.62V105.174C241.289 104.647 241.131 104.231 240.817 103.926C240.502 103.611 240.081 103.454 239.553 103.454C239.036 103.454 238.62 103.611 238.305 103.926C238.001 104.231 237.848 104.647 237.848 105.174V109.62C237.848 110.147 238.001 110.569 238.305 110.883C238.62 111.188 239.036 111.34 239.553 111.34ZM244.902 112.71C244.74 112.71 244.659 112.629 244.659 112.466V111.462C244.659 111.35 244.699 111.254 244.78 111.172C245.257 110.665 246.054 109.762 247.17 108.463L248.145 107.336C249.078 106.25 249.545 105.428 249.545 104.87C249.545 104.454 249.398 104.114 249.104 103.85C248.809 103.586 248.429 103.454 247.962 103.454C247.495 103.454 247.115 103.586 246.82 103.85C246.536 104.114 246.394 104.464 246.394 104.9V105.235C246.394 105.398 246.313 105.479 246.15 105.479H244.856C244.694 105.479 244.613 105.398 244.613 105.235V104.642C244.633 104.094 244.791 103.617 245.085 103.211C245.379 102.805 245.775 102.49 246.272 102.267C246.78 102.043 247.343 101.932 247.962 101.932C248.642 101.932 249.236 102.059 249.743 102.312C250.251 102.566 250.641 102.916 250.915 103.363C251.189 103.799 251.326 104.291 251.326 104.839C251.326 105.672 250.885 106.631 250.002 107.717C249.677 108.133 249.292 108.595 248.845 109.102C248.398 109.609 247.952 110.112 247.505 110.609L247.079 111.081C247.049 111.112 247.038 111.137 247.049 111.157C247.059 111.177 247.084 111.188 247.125 111.188H251.326C251.489 111.188 251.57 111.269 251.57 111.431V112.466C251.57 112.629 251.489 112.71 251.326 112.71H244.902ZM260.168 108.326C260.33 108.326 260.411 108.407 260.411 108.569V109.665C260.411 109.828 260.33 109.909 260.168 109.909H259.62C259.559 109.909 259.528 109.939 259.528 110V112.466C259.528 112.629 259.447 112.71 259.285 112.71H258.006C257.844 112.71 257.763 112.629 257.763 112.466V110C257.763 109.939 257.732 109.909 257.671 109.909H253.104C252.942 109.909 252.861 109.828 252.861 109.665V108.782C252.861 108.671 252.881 108.574 252.922 108.493L255.784 102.236C255.834 102.115 255.926 102.054 256.058 102.054H257.412C257.554 102.054 257.626 102.109 257.626 102.221L257.595 102.343L254.931 108.219C254.901 108.29 254.926 108.326 255.007 108.326H257.671C257.732 108.326 257.763 108.295 257.763 108.234V106.24C257.763 106.078 257.844 105.996 258.006 105.996H259.285C259.447 105.996 259.528 106.078 259.528 106.24V108.234C259.528 108.295 259.559 108.326 259.62 108.326H260.168Z" fill="#151515"/>
<line x1="291.36" y1="125" x2="291.36" stroke="black"/>
<path d="M333.879 70.6006H329.956L325.077 63.5706V70.6006H321.86V54.5491H325.077V61.4895L329.587 54.5491H333.312L328.163 62.4056L333.879 70.6006Z" fill="#221F1F"/>
<path d="M345.101 57.7255H338.649V60.8621H344.185V64.0784H338.649V67.3943H345.101V70.6006H335.423V54.5491H345.101V57.7255Z" fill="#221F1F"/>
<path d="M359.759 70.6006H355.816L350.707 63.013V70.6006H347.481L347.471 54.5491H352.709C355.706 54.5491 358.166 56.8592 358.166 59.7469C358.166 61.8081 356.921 63.6104 355.198 64.2178L359.759 70.6006ZM350.697 57.7454V61.7782L352.769 61.7882C353.864 61.7982 354.84 60.9119 354.84 59.7668C354.84 58.6217 353.854 57.7454 352.769 57.7454H350.697Z" fill="#221F1F"/>
<path d="M372.056 70.6006L371.041 68.3602H364.618L363.592 70.6006H360.107L367.775 54.1508H367.874L375.551 70.6006H372.056ZM365.873 65.6119H369.786L367.834 61.3202L365.873 65.6119Z" fill="#221F1F"/>
<path d="M380.391 67.3943H386.843V70.6006H377.165V54.5491H380.391V67.3943Z" fill="#221F1F"/>
<path d="M399.42 70.6006L398.404 68.3602H391.981L390.956 70.6006H387.471L395.138 54.1508H395.238L402.915 70.6006H399.42ZM393.236 65.6119H397.149L395.198 61.3202L393.236 65.6119Z" fill="#221F1F"/>
<path d="M415.312 70.9193C412.683 70.9193 410.741 69.8239 409.666 67.8324L412.245 66.0202C412.952 67.1553 413.978 67.6731 415.362 67.6731C416.875 67.6731 417.891 67.0557 417.891 66.1994C417.891 65.0244 415.969 64.0984 414.286 63.2619C412.484 62.3657 410.502 61.3799 410.502 58.8208C410.502 56.0427 412.852 54.2105 415.8 54.2105C417.991 54.2105 419.803 55.1166 420.53 57.0584L418.15 58.7213C417.672 57.7653 416.746 57.377 415.85 57.377C414.645 57.377 413.749 58.074 413.749 58.9005C413.749 59.8564 414.963 60.185 416.806 61.0513C419.464 62.306 421.137 63.6602 421.137 66.1297C421.137 69.0572 418.747 70.9193 415.312 70.9193Z" fill="#221F1F"/>
<path d="M433.246 54.5491V57.7454H429.302V70.6006H426.066V57.7454H422.113V54.5491H433.246Z" fill="#221F1F"/>
<path d="M443.83 70.6006L442.815 68.3602H436.392L435.366 70.6006H431.881L439.549 54.1508H439.648L447.326 70.6006H443.83ZM437.647 65.6119H441.56L439.608 61.3202L437.647 65.6119Z" fill="#221F1F"/>
<path d="M461.226 70.6006H457.283L452.175 63.013V70.6006H448.949L448.939 54.5491H454.176C457.174 54.5491 459.633 56.8592 459.633 59.7469C459.633 61.8081 458.388 63.6104 456.666 64.2178L461.226 70.6006ZM452.165 57.7454V61.7782L454.236 61.7882C455.331 61.7982 456.307 60.9119 456.307 59.7668C456.307 58.6217 455.321 57.7454 454.236 57.7454H452.165Z" fill="#221F1F"/>
<path d="M472.518 54.5491V57.7454H468.575V70.6006H465.339V57.7454H461.386V54.5491H472.518Z" fill="#221F1F"/>
<path d="M480.385 70.9491C476.969 70.9491 474.191 68.3004 474.191 64.6659V54.5491H477.437V64.656C477.437 66.4085 478.821 67.6831 480.375 67.6831C481.928 67.6831 483.332 66.3985 483.332 64.656V54.5491H486.578V64.6659C486.578 68.3004 483.8 70.9491 480.385 70.9491Z" fill="#221F1F"/>
<path d="M489.227 70.6006V54.5491H494.863C497.97 54.5491 500.509 56.9887 500.509 59.9759C500.509 62.9532 497.97 65.3829 494.863 65.3829H492.453V70.6006H489.227ZM494.863 62.1965C496.197 62.2064 497.283 61.1907 497.283 59.9461C497.283 58.7312 496.197 57.7454 494.863 57.7454H492.453V62.1865L494.863 62.1965Z" fill="#221F1F"/>
<path d="M523.849 54.1508H524.029V70.6006H520.802V63.6104L516.182 70.3318H516.162L511.532 63.6104V70.6006H508.306V54.1508H508.485L516.172 64.7556L523.849 54.1508Z" fill="#221F1F"/>
<path d="M526.827 70.6006V54.5491H530.053V70.6006H526.827Z" fill="#221F1F"/>
<path d="M537.65 70.9193C535.022 70.9193 533.08 69.8239 532.005 67.8324L534.584 66.0202C535.29 67.1553 536.316 67.6731 537.7 67.6731C539.214 67.6731 540.229 67.0557 540.229 66.1994C540.229 65.0244 538.308 64.0984 536.625 63.2619C534.823 62.3657 532.841 61.3799 532.841 58.8208C532.841 56.0427 535.191 54.2105 538.138 54.2105C540.329 54.2105 542.141 55.1166 542.868 57.0584L540.488 58.7213C540.01 57.7653 539.084 57.377 538.188 57.377C536.983 57.377 536.087 58.074 536.087 58.9005C536.087 59.8564 537.302 60.185 539.144 61.0513C541.803 62.306 543.476 63.6602 543.476 66.1297C543.476 69.0572 541.086 70.9193 537.65 70.9193Z" fill="#221F1F"/>
<path d="M550.237 70.9193C547.608 70.9193 545.666 69.8239 544.591 67.8324L547.17 66.0202C547.877 67.1553 548.902 67.6731 550.287 67.6731C551.8 67.6731 552.816 67.0557 552.816 66.1994C552.816 65.0244 550.894 64.0984 549.211 63.2619C547.409 62.3657 545.427 61.3799 545.427 58.8208C545.427 56.0427 547.777 54.2105 550.725 54.2105C552.915 54.2105 554.728 55.1166 555.455 57.0584L553.075 58.7213C552.597 57.7653 551.671 57.377 550.774 57.377C549.57 57.377 548.673 58.074 548.673 58.9005C548.673 59.8564 549.888 60.185 551.73 61.0513C554.389 62.306 556.062 63.6602 556.062 66.1297C556.062 69.0572 553.672 70.9193 550.237 70.9193Z" fill="#221F1F"/>
<path d="M558.014 70.6006V54.5491H561.24V70.6006H558.014Z" fill="#221F1F"/>
<path d="M571.665 70.9093C567.085 70.9093 563.331 67.1653 563.331 62.5948C563.331 57.9844 567.085 54.2205 571.675 54.2205C576.266 54.2205 580.03 57.9844 580.03 62.5948C580.03 67.1653 576.266 70.9093 571.665 70.9093ZM571.665 67.6432C574.473 67.6432 576.764 65.363 576.764 62.5748C576.764 59.7668 574.473 57.4766 571.665 57.4766C568.867 57.4766 566.587 59.7668 566.587 62.5748C566.587 65.363 568.867 67.6432 571.665 67.6432Z" fill="#221F1F"/>
<path d="M591.8 54.5092H595.036V70.8994H594.886L585.357 61.6289V70.6205H582.131V54.2503H582.29L591.8 63.5009V54.5092Z" fill="#221F1F"/>
<path d="M321.86 92.6006V76.5491H325.087V92.6006H321.86Z" fill="#221F1F"/>
<path d="M337.543 76.5092H340.78V92.8994H340.63L331.101 83.6289V92.6205H327.875V76.2503H328.034L337.543 85.5009V76.5092Z" fill="#221F1F"/>
<path d="M360.306 92.6006L359.291 90.3602H352.868L351.843 92.6006H348.357L356.025 76.1508H356.124L363.802 92.6006H360.306ZM354.123 87.6119H358.036L356.084 83.3202L354.123 87.6119Z" fill="#221F1F"/>
<path d="M369.726 92.9193C367.098 92.9193 365.156 91.8239 364.08 89.8324L366.659 88.0202C367.366 89.1553 368.392 89.6731 369.776 89.6731C371.29 89.6731 372.305 89.0557 372.305 88.1994C372.305 87.0244 370.383 86.0984 368.701 85.2619C366.898 84.3657 364.917 83.3799 364.917 80.8209C364.917 78.0427 367.267 76.2105 370.214 76.2105C372.405 76.2105 374.217 77.1166 374.944 79.0584L372.564 80.7213C372.086 79.7654 371.16 79.377 370.264 79.377C369.059 79.377 368.163 80.074 368.163 80.9005C368.163 81.8564 369.378 82.185 371.22 83.0513C373.879 84.306 375.551 85.6602 375.551 88.1297C375.551 91.0572 373.162 92.9193 369.726 92.9193Z" fill="#221F1F"/>
<path d="M382.313 92.9193C379.684 92.9193 377.742 91.8239 376.667 89.8324L379.246 88.0202C379.953 89.1553 380.978 89.6731 382.362 89.6731C383.876 89.6731 384.892 89.0557 384.892 88.1994C384.892 87.0244 382.97 86.0984 381.287 85.2619C379.485 84.3657 377.503 83.3799 377.503 80.8209C377.503 78.0427 379.853 76.2105 382.801 76.2105C384.991 76.2105 386.804 77.1166 387.53 79.0584L385.151 80.7213C384.673 79.7654 383.747 79.377 382.85 79.377C381.645 79.377 380.749 80.074 380.749 80.9005C380.749 81.8564 381.964 82.185 383.806 83.0513C386.465 84.306 388.138 85.6602 388.138 88.1297C388.138 91.0572 385.748 92.9193 382.313 92.9193Z" fill="#221F1F"/>
<path d="M397.727 92.9093C393.146 92.9093 389.392 89.1653 389.392 84.5948C389.392 79.9844 393.146 76.2205 397.737 76.2205C402.327 76.2205 406.091 79.9844 406.091 84.5948C406.091 89.1653 402.327 92.9093 397.727 92.9093ZM397.727 89.6432C400.535 89.6432 402.825 87.363 402.825 84.5748C402.825 81.7668 400.535 79.4766 397.727 79.4766C394.929 79.4766 392.649 81.7668 392.649 84.5748C392.649 87.363 394.929 89.6432 397.727 89.6432Z" fill="#221F1F"/>
<path d="M415.89 92.9093C411.259 92.9093 407.495 89.0956 407.495 84.5848C407.495 80.0541 411.309 76.2205 415.83 76.2205C417.921 76.2503 419.773 77.0768 421.456 78.6999L419.594 81.2391C418.498 80.1637 417.184 79.5065 415.8 79.5065C413.221 79.5065 410.761 81.7967 410.761 84.6047C410.761 87.4625 413.311 89.6731 415.79 89.6731C417.264 89.6731 418.538 88.8865 419.604 87.8409L421.456 90.4498C420.042 91.8538 418.319 92.9093 415.89 92.9093Z" fill="#221F1F"/>
<path d="M423.268 92.6006V76.5491H426.494V92.6006H423.268Z" fill="#221F1F"/>
<path d="M440.047 92.6006L439.031 90.3602H432.608L431.583 92.6006H428.097L435.765 76.1508H435.864L443.542 92.6006H440.047ZM433.863 87.6119H437.776L435.825 83.3202L433.863 87.6119Z" fill="#221F1F"/>
<path d="M453.32 76.5491V79.7454H449.377V92.6006H446.141V79.7454H442.187V76.5491H453.32Z" fill="#221F1F"/>
<path d="M455.132 92.6006V76.5491H458.358V92.6006H455.132Z" fill="#221F1F"/>
<path d="M468.784 92.9093C464.204 92.9093 460.45 89.1653 460.45 84.5948C460.45 79.9844 464.204 76.2205 468.794 76.2205C473.384 76.2205 477.148 79.9844 477.148 84.5948C477.148 89.1653 473.384 92.9093 468.784 92.9093ZM468.784 89.6432C471.592 89.6432 473.882 87.363 473.882 84.5748C473.882 81.7668 471.592 79.4766 468.784 79.4766C465.986 79.4766 463.706 81.7668 463.706 84.5748C463.706 87.363 465.986 89.6432 468.784 89.6432Z" fill="#221F1F"/>
<path d="M488.918 76.5092H492.154V92.8994H492.005L482.476 83.6289V92.6205H479.249V76.2503H479.409L488.918 85.5009V76.5092Z" fill="#221F1F"/>
<path d="M504.96 92.7998L499.732 76.5491H503.207L505.677 84.6446L509.122 76.6088H509.182L512.617 84.6346L515.077 76.5491H518.562L513.334 92.7998H513.145L509.112 84.077L505.139 92.7998H504.96Z" fill="#221F1F"/>
<path d="M520.175 92.6006V76.5491H523.401V92.6006H520.175Z" fill="#221F1F"/>
<path d="M536.346 76.5491V79.7454H532.403V92.6006H529.167V79.7454H525.213V76.5491H536.346Z" fill="#221F1F"/>
<path d="M547.14 76.5491H550.356V92.6006H547.14V86.1681H541.375V92.6006H538.158V76.5491H541.375V82.9717H547.14V76.5491Z" fill="#221F1F"/>
<path d="M569.286 76.5491V79.7454H565.342V92.6006H562.106V79.7454H558.153V76.5491H569.286Z" fill="#221F1F"/>
<path d="M579.87 92.6006L578.855 90.3602H572.432L571.407 92.6006H567.921L575.589 76.1508H575.688L583.366 92.6006H579.87ZM573.687 87.6119H577.6L575.648 83.3202L573.687 87.6119Z" fill="#221F1F"/>
<path d="M591.122 92.9093C586.542 92.9093 582.788 89.1653 582.788 84.5948C582.788 79.9844 586.542 76.2205 591.132 76.2205C595.723 76.2205 599.487 79.9844 599.487 84.5948C599.487 89.1653 595.723 92.9093 591.122 92.9093ZM591.122 89.6432C593.931 89.6432 596.221 87.363 596.221 84.5748C596.221 81.7668 593.931 79.4766 591.122 79.4766C588.324 79.4766 586.044 81.7668 586.044 84.5748C586.044 87.363 588.324 89.6432 591.122 89.6432Z" fill="#221F1F"/>
<path d="M606.397 92.9193C603.769 92.9193 601.827 91.8239 600.751 89.8324L603.33 88.0202C604.037 89.1553 605.063 89.6731 606.447 89.6731C607.961 89.6731 608.976 89.0557 608.976 88.1994C608.976 87.0244 607.055 86.0984 605.372 85.2619C603.569 84.3657 601.588 83.3799 601.588 80.8209C601.588 78.0427 603.938 76.2105 606.885 76.2105C609.076 76.2105 610.888 77.1166 611.615 79.0584L609.235 80.7213C608.757 79.7654 607.831 79.377 606.935 79.377C605.73 79.377 604.834 80.074 604.834 80.9005C604.834 81.8564 606.049 82.185 607.891 83.0513C610.55 84.306 612.223 85.6602 612.223 88.1297C612.223 91.0572 609.833 92.9193 606.397 92.9193Z" fill="#221F1F"/>
<path d="M331.539 35.7255H325.087V38.9617H330.623V42.178H325.087V48.6205H321.86V32.5092H331.539V35.7255Z" fill="#221F1F"/>
<path d="M333.351 48.6006V32.5491H336.578V48.6006H333.351Z" fill="#221F1F"/>
<path d="M347.063 48.9093C342.433 48.9093 338.669 45.0956 338.669 40.5848C338.669 36.0541 342.482 32.2205 347.003 32.2205C349.094 32.2503 350.946 33.0768 352.629 34.6999L350.767 37.2391C349.672 36.1637 348.357 35.5065 346.973 35.5065C344.394 35.5065 341.935 37.7967 341.935 40.6047C341.935 43.4625 344.484 45.6731 346.963 45.6731C348.437 45.6731 349.712 44.8865 350.777 43.8409L352.629 46.4498C351.215 47.8538 349.493 48.9093 347.063 48.9093Z" fill="#221F1F"/>
<path d="M361.442 48.9093C356.811 48.9093 353.047 45.0956 353.047 40.5848C353.047 36.0541 356.861 32.2205 361.382 32.2205C363.473 32.2503 365.325 33.0768 367.008 34.6999L365.146 37.2391C364.05 36.1637 362.736 35.5065 361.352 35.5065C358.773 35.5065 356.313 37.7967 356.313 40.6047C356.313 43.4625 358.863 45.6731 361.342 45.6731C362.816 45.6731 364.09 44.8865 365.156 43.8409L367.008 46.4498C365.594 47.8538 363.871 48.9093 361.442 48.9093Z" fill="#221F1F"/>
<path d="M368.82 48.6006V32.5491H372.046V48.6006H368.82Z" fill="#221F1F"/>
<path d="M394.162 45.7627L394.152 48.75C393.027 48.74 391.583 48.1426 390.08 47.1767C388.915 48.3417 387.381 48.9591 385.609 48.9591C381.855 48.9591 380.112 46.161 380.112 44.0202C380.112 42.1681 381.407 40.2861 382.611 39.4795C381.974 38.3444 381.596 37.259 381.596 36.3528C381.596 34.2717 383.607 32.0811 386.097 32.0811C388.317 32.0811 390.089 33.8435 390.488 35.6857L387.401 36.3031C387.232 35.616 386.594 35.0484 385.987 35.0484C385.39 35.0484 384.782 35.606 384.782 36.4723C384.782 38.0655 386.803 40.7541 389.084 42.8253C389.303 42.1481 389.422 41.3914 389.462 40.5848L392.479 40.545C392.439 42.178 392.141 43.6019 391.643 44.7968C392.609 45.3943 393.495 45.7627 394.162 45.7627ZM385.439 45.8026C386.236 45.8026 386.913 45.5935 387.471 45.2051C386.286 44.1795 385.161 43.0144 384.215 41.8195C383.637 42.3075 383.169 42.9149 383.169 43.7812C383.169 45.0259 383.906 45.8026 385.439 45.8026Z" fill="#221F1F"/>
</svg>
