<svg width="227" height="93" viewBox="0 0 227 93" fill="none" xmlns="http://www.w3.org/2000/svg">
<path d="M2.72152 34.1843V2.46729H14.6802C24.0158 2.46729 28.3212 4.09801 28.3212 9.17135C28.3212 11.3888 27.3204 12.7089 25.4653 13.4768C29.4516 14.5208 31.7639 16.8763 31.7639 21.9065C31.7639 30.1982 25.6034 34.1412 14.9562 34.1843V20.6813C19.5292 20.6813 21.3411 19.4561 21.3411 17.8254C21.3411 16.4621 20.392 14.5208 17.9847 14.5208H13.1357V31.061L4.61971 34.1843H2.71289H2.72152ZM14.9994 12.7089C16.9493 12.7089 17.8985 10.5346 17.8985 8.17909C17.8985 5.3232 16.5869 4.2792 14.4989 4.2792H13.1443V12.7089H14.9994Z" fill="white"/>
<path d="M34.4824 22.8551C34.4824 15.6506 39.0553 10.8447 45.8974 10.8447C52.7395 10.8447 57.3125 14.7878 57.3125 18.5928C57.3125 21.2244 53.2831 22.3547 49.0208 22.8551L44.6291 23.3987C44.9914 25.711 45.9837 27.6093 48.6153 27.6093C50.6515 27.6093 52.0579 27.0656 55.0002 25.5212L58.9001 31.8197C54.8707 34.5377 52.0148 34.8569 47.9854 34.8569C39.3314 34.8569 34.4824 30.051 34.4824 22.8465V22.8551ZM45.4402 21.4056C46.9328 21.1812 47.347 19.7317 47.347 17.5575C47.347 15.3831 46.8983 12.6653 45.8974 12.6653C44.4479 12.6653 44.4479 17.6005 44.4479 20.1372C44.4479 20.5945 44.4479 21.0863 44.4911 21.5436L45.4402 21.4056Z" fill="white"/>
<path d="M69.9084 45.0119C66.0603 45.0119 63.9291 44.5545 60.9351 42.8376L64.0154 36.539C66.2846 37.445 69.8135 37.7642 71.9015 37.7642C75.0249 37.7642 77.2509 36.0903 78.157 34.1404C72.1345 33.778 68.7781 32.1904 66.3277 26.2111L62.885 17.7814C61.8411 15.2016 60.8488 13.1568 58.2173 10.853C66.5521 10.853 69.4942 10.9479 71.9878 17.0135L74.1189 22.225C75.5253 25.6244 77.6562 26.4872 82.9976 26.4872V34.2784C82.9976 40.3009 77.7856 45.0119 69.8998 45.0119H69.9084Z" fill="white"/>
<path d="M79.3746 10.853C82.4984 10.853 84.5867 12.9842 84.5867 16.0644C84.5867 19.1446 82.4984 21.2758 79.3746 21.2758C76.2516 21.2758 74.1636 19.1878 74.1636 16.0644C74.1636 12.941 76.2945 10.853 79.3746 10.853Z" fill="white"/>
<path d="M136.372 34.1839H126.406V25.3918C126.406 18.1442 125.863 13.019 124.819 13.019C123.594 13.019 122.731 15.7801 122.644 21.1295V34.1753H112.679V11.5263H114.491L122.144 14.4686C123.231 11.5263 125 10.8447 126.855 10.8447C133.378 10.8447 136.372 16.0561 136.372 23.7093V34.1753V34.1839Z" fill="white"/>
<path d="M154.085 31.2854C152.997 34.2277 151.005 34.8661 148.062 34.8661C142.126 34.8661 139.089 30.0603 139.089 22.8558C139.089 15.6512 142.126 10.8454 148.062 10.8454C150.556 10.8454 152.368 11.3458 153.498 13.2958V0.198242H163.464V34.1759H161.651L154.085 31.2769V31.2854ZM151.324 27.6185C152.592 27.6185 153.498 24.6763 153.498 20.414C153.498 16.1517 152.592 13.2527 151.324 13.2527C149.96 13.2527 149.055 16.1517 149.055 20.4571C149.055 24.7626 149.96 27.6185 151.324 27.6185Z" fill="white"/>
<path d="M0.702637 42.8729H25.3015V51.9325H15.1548C13.6103 53.7444 13.386 54.7366 13.386 57.3682C13.386 59.4993 15.0168 61.7599 17.3722 61.7599C19.0461 61.7599 19.8658 61.3544 21.5828 59.9912L24.0763 72.1741C20.7286 74.5296 19.5896 75.2544 15.6035 75.2544C7.85537 75.2544 3.01498 69.6805 3.01498 62.9765C3.01498 55.004 10.0814 51.9238 13.386 51.9238H0.702637V42.8643V42.8729Z" fill="white"/>
<path d="M76.2159 74.581H66.2504V63.1229C66.2504 55.8752 65.7931 53.4334 64.982 53.4334C64.0329 53.4334 63.3945 56.3756 63.3513 62.0357V74.581H53.3857V51.9321H55.1977L62.7646 54.8312C63.7137 51.9321 65.3875 51.2505 67.6136 51.2505C71.5567 51.2505 73.9553 52.6569 75.2236 55.9183C75.9918 52.1133 77.6221 51.2505 80.3398 51.2505C85.2751 51.2505 89.0802 53.744 89.0802 62.3032V74.581H79.1148V63.1229C79.1148 55.8752 78.6666 53.4334 77.8469 53.4334C76.8024 53.4334 76.173 56.7812 76.2159 63.2609V74.5896V74.581Z" fill="white"/>
<path d="M127.13 55.0555V74.581H117.165V51.9321H118.977L127.13 55.0555ZM133.705 51.2505C136.828 51.2505 138.916 53.3816 138.916 56.4619C138.916 59.5422 136.828 61.6733 133.705 61.6733C130.581 61.6733 128.494 59.5853 128.494 56.4619C128.494 53.3385 130.625 51.2505 133.705 51.2505Z" fill="white"/>
<path d="M150.686 55.0555V74.581H140.721V51.9321H142.533L150.686 55.0555ZM157.261 51.2505C160.385 51.2505 162.473 53.3816 162.473 56.4619C162.473 59.5422 160.385 61.6733 157.261 61.6733C154.138 61.6733 152.049 59.5853 152.049 56.4619C152.049 53.3385 154.181 51.2505 157.261 51.2505Z" fill="white"/>
<path d="M196.218 68.9641L192.326 59.2229C191.153 56.2289 190.014 53.9683 187.158 51.2505C195.812 51.2505 198.893 51.3454 201.472 57.8165L205.234 67.2816C206.459 70.3618 208.763 73.4421 212.663 75.254C203.56 75.254 198.668 75.0728 196.218 68.9555V68.9641Z" fill="#591CBC"/>
<path d="M208.443 68.9641L204.551 59.2229C203.378 56.2289 202.239 53.9683 199.383 51.2505C208.037 51.2505 211.117 51.3454 213.697 57.8165L215.914 63.3903C217.64 67.644 220.539 67.4628 224.163 67.4628L225.75 75.254C216.648 75.254 210.893 75.0728 208.443 68.9555V68.9641Z" fill="#11A24A"/>
<path d="M220.902 51.2505C224.026 51.2505 226.113 53.3816 226.113 56.4619C226.113 59.5422 224.026 61.6733 220.902 61.6733C217.779 61.6733 215.69 59.5853 215.69 56.4619C215.69 53.3385 217.822 51.2505 220.902 51.2505Z" fill="#F15A29"/>
<path d="M175.604 51.2505C168.805 51.2505 164.275 56.0477 164.275 63.2523C164.275 70.4567 168.805 75.254 175.604 75.254C182.403 75.254 186.925 70.4481 186.925 63.2523C186.925 56.0564 182.395 51.2505 175.604 51.2505ZM175.216 68.4637C172.136 68.4637 170.005 66.3756 170.005 63.2523C170.005 60.1289 172.136 58.0408 175.216 58.0408C178.296 58.0408 180.427 60.172 180.427 63.2523C180.427 66.3325 178.339 68.4637 175.216 68.4637Z" fill="white"/>
<path d="M98.6325 10.853C91.8337 10.853 87.3037 15.6589 87.3037 22.8634C87.3037 30.0679 91.8337 34.8738 98.6325 34.8738C105.431 34.8738 109.961 30.0679 109.961 22.8634C109.961 15.6589 105.431 10.853 98.6325 10.853ZM98.6325 28.0662C95.5523 28.0662 93.4212 25.9781 93.4212 22.8547C93.4212 19.7313 95.5523 17.6434 98.6325 17.6434C101.713 17.6434 103.844 19.7745 103.844 22.8547C103.844 25.9351 101.756 28.0662 98.6325 28.0662Z" fill="white"/>
<path d="M39.34 51.2505C32.541 51.2505 28.0112 56.0477 28.0112 63.2522C28.0112 70.4567 32.541 75.254 39.34 75.254C46.139 75.254 50.6601 70.4481 50.6601 63.2522C50.6601 56.0563 46.1303 51.2505 39.34 51.2505ZM39.34 68.4636C36.2598 68.4636 34.1286 66.3756 34.1286 63.2522C34.1286 60.1288 36.2598 58.0408 39.34 58.0408C42.4202 58.0408 44.5514 60.172 44.5514 63.2522C44.5514 66.3324 42.4634 68.4636 39.34 68.4636Z" fill="white"/>
<path d="M103.128 51.2505C96.3293 51.2505 91.7993 56.0477 91.7993 63.2523C91.7993 70.4567 96.3293 75.254 103.128 75.254C109.928 75.254 114.449 70.4481 114.449 63.2523C114.449 56.0564 109.919 51.2505 103.128 51.2505ZM103.128 68.4637C100.048 68.4637 97.9168 66.3756 97.9168 63.2523C97.9168 60.1289 100.048 58.0408 103.128 58.0408C106.209 58.0408 108.34 60.172 108.34 63.2523C108.34 66.3325 106.252 68.4637 103.128 68.4637Z" fill="white"/>
<path d="M4.40778 90.9139C3.89096 90.9139 3.44041 90.8312 3.0561 90.665C2.6718 90.4996 2.37365 90.268 2.16161 89.9694C1.95622 89.6716 1.85352 89.3205 1.85352 88.9159V88.6677C1.85352 88.6346 1.86346 88.6083 1.88333 88.588C1.90983 88.5617 1.93965 88.5482 1.97278 88.5482H2.85733C2.89046 88.5482 2.91696 88.5617 2.93684 88.588C2.96334 88.6083 2.97659 88.6346 2.97659 88.6677V88.8565C2.97659 89.161 3.11243 89.4167 3.38408 89.622C3.65574 89.8205 4.02679 89.9198 4.49723 89.9198C4.9014 89.9198 5.20619 89.8341 5.41159 89.6619C5.61699 89.4889 5.7197 89.2671 5.7197 88.9956C5.7197 88.8098 5.66337 88.6542 5.55073 88.5286C5.4381 88.3963 5.27576 88.2767 5.06373 88.1707C4.85833 88.0646 4.54692 87.9323 4.12949 87.7728C3.65906 87.6006 3.27807 87.4382 2.98653 87.2863C2.69499 87.1337 2.44984 86.9284 2.25106 86.6697C2.05891 86.405 1.96284 86.0771 1.96284 85.6861C1.96284 85.1033 2.17487 84.6423 2.59892 84.3047C3.02298 83.9663 3.58948 83.7978 4.29845 83.7978C4.79538 83.7978 5.23269 83.8835 5.61036 84.0558C5.99466 84.228 6.29283 84.4701 6.50486 84.7814C6.71688 85.0867 6.8229 85.4409 6.8229 85.8447V86.0139C6.8229 86.047 6.80964 86.0771 6.78314 86.1034C6.76327 86.123 6.73676 86.1335 6.70363 86.1335H5.80914C5.77601 86.1335 5.7462 86.123 5.7197 86.1034C5.69981 86.0771 5.68988 86.047 5.68988 86.0139V85.9049C5.68988 85.5936 5.56067 85.3319 5.30226 85.1198C5.05048 84.901 4.69931 84.7912 4.24875 84.7912C3.88434 84.7912 3.59942 84.8679 3.39402 85.0198C3.19525 85.1725 3.09586 85.3875 3.09586 85.6658C3.09586 85.865 3.14887 86.0275 3.25488 86.1531C3.36089 86.2786 3.51992 86.3952 3.73194 86.5012C3.94397 86.6005 4.27194 86.7298 4.71588 86.8885C5.18631 87.0675 5.56067 87.2299 5.83895 87.3758C6.12387 87.5217 6.36571 87.727 6.56448 87.9917C6.76989 88.2504 6.87259 88.5752 6.87259 88.9655C6.87259 89.5618 6.65062 90.0356 6.20669 90.3868C5.76939 90.738 5.16975 90.9139 4.40778 90.9139ZM10.3593 85.6763C10.896 85.6763 11.3234 85.835 11.6414 86.1531C11.9661 86.4712 12.1284 86.9051 12.1284 87.4548V90.7146C12.1284 90.7485 12.1152 90.7778 12.0886 90.8041C12.0688 90.8244 12.0423 90.8342 12.0091 90.8342H11.0948C11.0616 90.8342 11.0318 90.8244 11.0053 90.8041C10.9855 90.7778 10.9755 90.7485 10.9755 90.7146V87.6939C10.9755 87.3886 10.8893 87.1434 10.7171 86.9584C10.5449 86.7659 10.3163 86.6697 10.0313 86.6697C9.7464 86.6697 9.51448 86.7629 9.33558 86.9479C9.16338 87.1337 9.0772 87.3788 9.0772 87.6834V90.7146C9.0772 90.7485 9.06396 90.7778 9.03742 90.8041C9.01756 90.8244 8.99109 90.8342 8.95793 90.8342H8.04358C8.01044 90.8342 7.98063 90.8244 7.95413 90.8041C7.93425 90.7778 7.92431 90.7485 7.92431 90.7146V83.9963C7.92431 83.9633 7.93425 83.9369 7.95413 83.9166C7.98063 83.8903 8.01044 83.8768 8.04358 83.8768H8.95793C8.99109 83.8768 9.01756 83.8903 9.03742 83.9166C9.06396 83.9369 9.0772 83.9633 9.0772 83.9963V86.1929C9.0772 86.2125 9.08382 86.226 9.09705 86.2328C9.11036 86.2395 9.12029 86.2328 9.1269 86.2125C9.39852 85.8553 9.80934 85.6763 10.3593 85.6763ZM15.2685 85.6763C15.6859 85.6763 16.0537 85.7492 16.3717 85.8944C16.6898 86.0403 16.9349 86.2426 17.1072 86.5012C17.2795 86.7524 17.3656 87.0412 17.3656 87.366V90.7146C17.3656 90.7485 17.3523 90.7778 17.3258 90.8041C17.3059 90.8244 17.2795 90.8342 17.2463 90.8342H16.332C16.2988 90.8342 16.269 90.8244 16.2425 90.8041C16.2226 90.7778 16.2127 90.7485 16.2127 90.7146V90.3973C16.2127 90.377 16.2061 90.3672 16.1928 90.3672C16.1795 90.3605 16.1663 90.3642 16.1531 90.377C15.8284 90.7349 15.358 90.9139 14.7417 90.9139C14.2448 90.9139 13.834 90.7876 13.5094 90.5364C13.1913 90.2845 13.0323 89.91 13.0323 89.4129C13.0323 88.8963 13.2112 88.4955 13.569 88.2105C13.9334 87.9187 14.4436 87.7728 15.0995 87.7728H16.163C16.1962 87.7728 16.2127 87.7563 16.2127 87.7232V87.4848C16.2127 87.2262 16.1365 87.0276 15.9841 86.8885C15.8317 86.7426 15.6031 86.6697 15.2984 86.6697C15.0465 86.6697 14.8411 86.7163 14.6821 86.8088C14.5297 86.8953 14.4336 87.0179 14.3939 87.1765C14.374 87.2562 14.3276 87.2893 14.2547 87.2765L13.2907 87.157C13.2576 87.1502 13.2277 87.1404 13.2013 87.1269C13.1813 87.1073 13.1747 87.084 13.1813 87.0577C13.2344 86.6531 13.4497 86.3223 13.8274 86.0636C14.2117 85.8056 14.6921 85.6763 15.2685 85.6763ZM15.03 89.9995C15.3547 89.9995 15.6329 89.913 15.8648 89.7408C16.0967 89.5686 16.2127 89.3498 16.2127 89.0851V88.6181C16.2127 88.585 16.1962 88.5685 16.163 88.5685H15.3281C14.977 88.5685 14.6987 88.6346 14.4933 88.767C14.2945 88.8993 14.1951 89.0881 14.1951 89.3332C14.1951 89.5453 14.2714 89.7115 14.4237 89.8303C14.5828 89.9431 14.7848 89.9995 15.03 89.9995ZM22.8265 87.0675C22.9458 87.4051 23.0054 87.8195 23.0054 88.3098C23.0054 88.7805 22.9491 89.1843 22.8365 89.5227C22.6907 89.9596 22.4555 90.301 22.1308 90.5462C21.8128 90.7913 21.4086 90.9139 20.9183 90.9139C20.4478 90.9139 20.0702 90.7447 19.7853 90.4071C19.772 90.3935 19.7588 90.3905 19.7456 90.3973C19.7323 90.4033 19.7256 90.4169 19.7256 90.4364V92.5931C19.7256 92.6262 19.7124 92.6533 19.6859 92.6728C19.666 92.6992 19.6395 92.7127 19.6064 92.7127H18.692C18.6589 92.7127 18.6291 92.6992 18.6026 92.6728C18.5827 92.6533 18.5728 92.6262 18.5728 92.5931V85.8748C18.5728 85.8417 18.5827 85.8154 18.6026 85.7951C18.6291 85.7688 18.6589 85.7553 18.692 85.7553H19.6064C19.6395 85.7553 19.666 85.7688 19.6859 85.7951C19.7124 85.8154 19.7256 85.8417 19.7256 85.8748V86.1734C19.7256 86.1929 19.7323 86.2064 19.7456 86.2125C19.7588 86.2192 19.772 86.2125 19.7853 86.1929C20.0768 85.8485 20.4578 85.6763 20.9282 85.6763C21.3987 85.6763 21.7962 85.7989 22.1209 86.044C22.4456 86.2892 22.6808 86.6298 22.8265 87.0675ZM21.5345 89.5024C21.7333 89.1979 21.8326 88.7933 21.8326 88.2902C21.8326 87.8059 21.7532 87.4254 21.5941 87.1472C21.4086 86.8223 21.127 86.6599 20.7493 86.6599C20.4048 86.6599 20.1464 86.8193 19.9741 87.1374C19.8217 87.3954 19.7456 87.7796 19.7456 88.2902C19.7456 88.8136 19.8284 89.2107 19.994 89.4829C20.1663 89.7739 20.4148 89.9198 20.7394 89.9198C21.0906 89.9198 21.3556 89.7807 21.5345 89.5024ZM24.7792 85.0597C24.5739 85.0597 24.4049 84.9935 24.2724 84.8611C24.1399 84.7288 24.0737 84.5596 24.0737 84.3543C24.0737 84.149 24.1399 83.9798 24.2724 83.8475C24.4049 83.7151 24.5739 83.6489 24.7792 83.6489C24.9847 83.6489 25.1537 83.7151 25.2862 83.8475C25.4187 83.9798 25.4849 84.149 25.4849 84.3543C25.4849 84.5596 25.4187 84.7288 25.2862 84.8611C25.1537 84.9935 24.9847 85.0597 24.7792 85.0597ZM24.3022 90.8342C24.2691 90.8342 24.2392 90.8244 24.2128 90.8041C24.1929 90.7778 24.1829 90.7485 24.1829 90.7146V85.865C24.1829 85.832 24.1929 85.8056 24.2128 85.7853C24.2392 85.759 24.2691 85.7455 24.3022 85.7455H25.2166C25.2497 85.7455 25.2762 85.759 25.2961 85.7853C25.3226 85.8056 25.3359 85.832 25.3359 85.865V90.7146C25.3359 90.7485 25.3226 90.7778 25.2961 90.8041C25.2762 90.8244 25.2497 90.8342 25.2166 90.8342H24.3022ZM29.0915 85.6763C29.6282 85.6763 30.0556 85.835 30.3736 86.1531C30.6983 86.4712 30.8606 86.9051 30.8606 87.4548V90.7146C30.8606 90.7485 30.8474 90.7778 30.8209 90.8041C30.801 90.8244 30.7745 90.8342 30.7413 90.8342H29.827C29.7939 90.8342 29.7641 90.8244 29.7376 90.8041C29.7177 90.7778 29.7077 90.7485 29.7077 90.7146V87.6939C29.7077 87.3886 29.6216 87.1434 29.4493 86.9584C29.2771 86.7659 29.0485 86.6697 28.7635 86.6697C28.4787 86.6697 28.2468 86.7629 28.0679 86.9479C27.8956 87.1337 27.8094 87.3788 27.8094 87.6834V90.7146C27.8094 90.7485 27.7962 90.7778 27.7697 90.8041C27.7498 90.8244 27.7233 90.8342 27.6902 90.8342H26.7758C26.7427 90.8342 26.7128 90.8244 26.6864 90.8041C26.6664 90.7778 26.6565 90.7485 26.6565 90.7146V85.8748C26.6565 85.8417 26.6664 85.8154 26.6864 85.7951C26.7128 85.7688 26.7427 85.7553 26.7758 85.7553H27.6902C27.7233 85.7553 27.7498 85.7688 27.7697 85.7951C27.7962 85.8154 27.8094 85.8417 27.8094 85.8748V86.1929C27.8094 86.2125 27.8161 86.226 27.8293 86.2328C27.8426 86.2395 27.8525 86.2328 27.8591 86.2125C28.1308 85.8553 28.5416 85.6763 29.0915 85.6763ZM35.1735 85.8748C35.1735 85.8417 35.1834 85.8154 35.2034 85.7951C35.2298 85.7688 35.2597 85.7553 35.2928 85.7553H36.2071C36.2403 85.7553 36.2668 85.7688 36.2867 85.7951C36.3132 85.8154 36.3264 85.8417 36.3264 85.8748V90.4966C36.3264 91.3245 36.0879 91.9141 35.6108 92.2652C35.1404 92.6232 34.5209 92.8022 33.7522 92.8022C33.5469 92.8022 33.3448 92.7924 33.146 92.7721C33.0731 92.7661 33.0366 92.7225 33.0366 92.6435L33.0665 91.8283C33.0665 91.7554 33.1129 91.7186 33.2056 91.7186C33.3978 91.7389 33.57 91.7486 33.7225 91.7486C34.2194 91.7486 34.5838 91.6494 34.8157 91.4508C35.0542 91.2583 35.1735 90.9305 35.1735 90.4665V90.3868C35.1735 90.3672 35.1669 90.3574 35.1537 90.3574C35.1404 90.3507 35.1271 90.3537 35.1139 90.3672C34.8423 90.659 34.4579 90.8041 33.961 90.8041C33.5303 90.8041 33.1361 90.6951 32.7783 90.4763C32.4205 90.2582 32.172 89.9236 32.0329 89.4724C31.9467 89.161 31.9037 88.7602 31.9037 88.2699C31.9037 87.7202 31.9566 87.2991 32.0627 87.0081C32.1952 86.6035 32.4238 86.2824 32.7485 86.044C33.0731 85.7989 33.4541 85.6763 33.8914 85.6763C34.4148 85.6763 34.8223 85.8282 35.1139 86.1335C35.1271 86.1531 35.1404 86.1598 35.1537 86.1531C35.1669 86.1463 35.1735 86.1335 35.1735 86.1132V85.8748ZM35.1039 89.1445C35.1304 89.0452 35.147 88.9392 35.1537 88.8264C35.1669 88.7076 35.1735 88.5188 35.1735 88.2601C35.1735 88.0082 35.1669 87.8293 35.1537 87.7232C35.147 87.6112 35.1271 87.5014 35.094 87.3953C35.041 87.1765 34.9317 87.0013 34.766 86.869C34.607 86.7358 34.4016 86.6697 34.1498 86.6697C33.9113 86.6697 33.7092 86.7358 33.5436 86.869C33.3779 87.0013 33.2586 87.1765 33.1858 87.3953C33.1063 87.5811 33.0665 87.8729 33.0665 88.2699C33.0665 88.6805 33.0996 88.9693 33.1659 89.1347C33.2322 89.3468 33.3514 89.5227 33.5237 89.6619C33.7026 89.7942 33.9146 89.8604 34.1597 89.8604C34.4181 89.8604 34.6269 89.7942 34.7859 89.6619C34.9449 89.5287 35.0509 89.3565 35.1039 89.1445ZM39.7232 90.8342C39.6906 90.8342 39.6612 90.8244 39.6351 90.8049C39.6155 90.7786 39.6057 90.7492 39.6057 90.7169V84.0964C39.6057 84.064 39.6155 84.0377 39.6351 84.0182C39.6612 83.9926 39.6906 83.9791 39.7232 83.9791H40.6242C40.6568 83.9791 40.683 83.9926 40.7025 84.0182C40.7286 84.0377 40.7417 84.064 40.7417 84.0964V87.0246C40.7417 87.0442 40.7482 87.0577 40.7613 87.0637C40.7743 87.0705 40.7874 87.0675 40.8004 87.0539L43.3466 84.0475C43.3858 84.0024 43.4347 83.9791 43.4935 83.9791H44.512C44.5772 83.9791 44.61 84.0024 44.61 84.0475C44.61 84.067 44.6001 84.0934 44.5806 84.1264L42.338 86.878C42.3184 86.9043 42.3151 86.9269 42.3282 86.9464L44.7373 90.6973C44.7503 90.7364 44.7568 90.759 44.7568 90.7658C44.7568 90.8117 44.7242 90.8342 44.6589 90.8342H43.6306C43.5719 90.8342 43.5262 90.8079 43.4935 90.756L41.5545 87.7398C41.5284 87.7007 41.5056 87.6969 41.486 87.73L40.7613 88.5722C40.7482 88.5985 40.7417 88.6211 40.7417 88.6406V90.7169C40.7417 90.7492 40.7286 90.7786 40.7025 90.8049C40.683 90.8244 40.6568 90.8342 40.6242 90.8342H39.7232ZM49.5142 87.7691C49.5403 87.9323 49.5534 88.115 49.5534 88.3173L49.5436 88.6211C49.5436 88.6993 49.5044 88.7384 49.4261 88.7384H46.3609C46.3283 88.7384 46.3119 88.7549 46.3119 88.7873C46.3315 89.0031 46.3609 89.1498 46.4001 89.228C46.5567 89.698 46.9386 89.9363 47.5458 89.9431C47.9898 89.9431 48.3423 89.7604 48.6035 89.3949C48.6296 89.3558 48.6622 89.3362 48.7014 89.3362C48.7275 89.3362 48.7503 89.346 48.7699 89.3656L49.3771 89.8649C49.4359 89.9108 49.4456 89.9627 49.4065 90.0213C49.2041 90.3086 48.9332 90.5304 48.5936 90.6876C48.2607 90.844 47.8886 90.9222 47.4773 90.9222C46.9681 90.9222 46.5339 90.8079 46.1748 90.58C45.8222 90.3514 45.5644 90.0311 45.4011 89.6197C45.251 89.2671 45.1759 88.7775 45.1759 88.1511C45.1759 87.7721 45.2151 87.4653 45.2934 87.2307C45.424 86.7735 45.6688 86.4148 46.0279 86.1531C46.3935 85.8854 46.831 85.7515 47.3401 85.7515C48.6263 85.7515 49.351 86.4245 49.5142 87.7691ZM47.3401 86.7313C47.0986 86.7313 46.8962 86.793 46.733 86.9171C46.5763 87.0344 46.4653 87.2013 46.4001 87.4164C46.3609 87.5277 46.3347 87.6713 46.3217 87.8473C46.3086 87.8804 46.3217 87.8962 46.3609 87.8962H48.3489C48.3815 87.8962 48.3978 87.8804 48.3978 87.8473C48.3847 87.6841 48.3652 87.56 48.3391 87.4751C48.2803 87.2404 48.1627 87.0577 47.9865 86.9269C47.8168 86.796 47.6013 86.7313 47.3401 86.7313ZM52.9223 85.771C53.1312 85.771 53.314 85.8139 53.4707 85.8989C53.5229 85.9245 53.5425 85.9741 53.5295 86.0455L53.363 86.9269C53.3564 87.0051 53.3107 87.0284 53.2259 86.9953C53.1279 86.963 53.0137 86.9464 52.8831 86.9464C52.7982 86.9464 52.733 86.9494 52.6873 86.9562C52.4131 86.969 52.1845 87.0675 52.0017 87.2502C51.8189 87.4262 51.7276 87.6578 51.7276 87.9451V90.7169C51.7276 90.7492 51.7145 90.7786 51.6884 90.8049C51.6688 90.8244 51.6427 90.8342 51.61 90.8342H50.7091C50.6764 90.8342 50.6471 90.8244 50.6209 90.8049C50.6014 90.7786 50.5916 90.7492 50.5916 90.7169V85.9478C50.5916 85.9147 50.6014 85.8891 50.6209 85.8696C50.6471 85.8432 50.6764 85.8305 50.7091 85.8305H51.61C51.6427 85.8305 51.6688 85.8432 51.6884 85.8696C51.7145 85.8891 51.7276 85.9147 51.7276 85.9478V86.3884C51.7276 86.4148 51.7308 86.4305 51.7373 86.4373C51.7504 86.4373 51.7634 86.4275 51.7765 86.408C52.0507 85.9839 52.4326 85.771 52.9223 85.771ZM56.1353 85.7515C56.5466 85.7515 56.9089 85.8237 57.2223 85.9673C57.5357 86.1109 57.7773 86.3102 57.947 86.5644C58.1167 86.8126 58.2016 87.0968 58.2016 87.4164V90.7169C58.2016 90.7492 58.1885 90.7786 58.1624 90.8049C58.1429 90.8244 58.1167 90.8342 58.0841 90.8342H57.1832C57.1505 90.8342 57.1212 90.8244 57.095 90.8049C57.0754 90.7786 57.0657 90.7492 57.0657 90.7169V90.4033C57.0657 90.3838 57.0591 90.374 57.046 90.374C57.033 90.3672 57.0199 90.371 57.0068 90.3838C56.687 90.7365 56.2234 90.9124 55.6163 90.9124C55.1266 90.9124 54.7218 90.7883 54.4019 90.5402C54.0886 90.2928 53.9319 89.9236 53.9319 89.434C53.9319 88.9249 54.1081 88.5294 54.4607 88.2489C54.8198 87.9616 55.3225 87.818 55.9688 87.818H57.0167C57.0493 87.818 57.0657 87.8014 57.0657 87.7691V87.5337C57.0657 87.2795 56.9905 87.0833 56.8404 86.9464C56.6903 86.8028 56.465 86.7313 56.1647 86.7313C55.9166 86.7313 55.7142 86.7765 55.5575 86.8682C55.4074 86.9532 55.3127 87.0735 55.2735 87.2307C55.254 87.3089 55.2082 87.3412 55.1364 87.3284L54.1865 87.2111C54.1539 87.2043 54.1245 87.1946 54.0984 87.1818C54.0788 87.1622 54.0723 87.1389 54.0788 87.1126C54.131 86.7148 54.3432 86.3884 54.7153 86.1335C55.094 85.8793 55.5673 85.7515 56.1353 85.7515ZM55.9003 90.0115C56.2202 90.0115 56.4944 89.9266 56.7229 89.7574C56.9514 89.5874 57.0657 89.3716 57.0657 89.1106V88.6504C57.0657 88.6181 57.0493 88.6015 57.0167 88.6015H56.1941C55.848 88.6015 55.5739 88.667 55.3715 88.7971C55.1756 88.9279 55.0777 89.1137 55.0777 89.3558C55.0777 89.5641 55.1527 89.728 55.3029 89.8453C55.4596 89.9559 55.6588 90.0115 55.9003 90.0115ZM59.4596 90.8342C59.427 90.8342 59.3976 90.8244 59.3715 90.8049C59.3519 90.7786 59.3421 90.7492 59.3421 90.7169V84.0964C59.3421 84.064 59.3519 84.0377 59.3715 84.0182C59.3976 83.9926 59.427 83.9791 59.4596 83.9791H60.3606C60.3932 83.9791 60.4193 83.9926 60.4389 84.0182C60.465 84.0377 60.4781 84.064 60.4781 84.0964V90.7169C60.4781 90.7492 60.465 90.7786 60.4389 90.8049C60.4193 90.8244 60.3932 90.8342 60.3606 90.8342H59.4596ZM63.5947 85.7515C64.0061 85.7515 64.3684 85.8237 64.6818 85.9673C64.9952 86.1109 65.2367 86.3102 65.4065 86.5644C65.5763 86.8126 65.6611 87.0968 65.6611 87.4164V90.7169C65.6611 90.7492 65.6481 90.7786 65.6219 90.8049C65.6023 90.8244 65.5762 90.8342 65.5436 90.8342H64.6427C64.61 90.8342 64.5806 90.8244 64.5545 90.8049C64.5349 90.7786 64.5251 90.7492 64.5251 90.7169V90.4033C64.5251 90.3838 64.5186 90.374 64.5056 90.374C64.4925 90.3672 64.4794 90.371 64.4664 90.3838C64.1465 90.7365 63.6829 90.9124 63.0757 90.9124C62.5861 90.9124 62.1813 90.7883 61.8614 90.5402C61.5481 90.2928 61.3913 89.9236 61.3913 89.434C61.3913 88.9249 61.5676 88.5294 61.9202 88.2489C62.2793 87.9616 62.782 87.818 63.4283 87.818H64.4762C64.5088 87.818 64.5251 87.8014 64.5251 87.7691V87.5337C64.5251 87.2795 64.4501 87.0833 64.2999 86.9464C64.1497 86.8028 63.9245 86.7313 63.6241 86.7313C63.3761 86.7313 63.1737 86.7765 63.017 86.8682C62.8668 86.9532 62.7721 87.0735 62.733 87.2307C62.7134 87.3089 62.6677 87.3412 62.5959 87.3284L61.646 87.2111C61.6133 87.2043 61.584 87.1946 61.5578 87.1818C61.5383 87.1622 61.5317 87.1389 61.5383 87.1126C61.5905 86.7148 61.8027 86.3884 62.1748 86.1335C62.5535 85.8793 63.0268 85.7515 63.5947 85.7515ZM63.3598 90.0115C63.6796 90.0115 63.9538 89.9266 64.1824 89.7574C64.4109 89.5874 64.5251 89.3716 64.5251 89.1106V88.6504C64.5251 88.6181 64.5088 88.6015 64.4762 88.6015H63.6536C63.3075 88.6015 63.0333 88.667 62.831 88.7971C62.6351 88.9279 62.5371 89.1137 62.5371 89.3558C62.5371 89.5641 62.6122 89.728 62.7624 89.8453C62.9191 89.9559 63.1182 90.0115 63.3598 90.0115ZM67.6575 83.9791C67.7032 83.9791 67.7326 83.9926 67.7456 84.0182C67.7587 84.0445 67.7587 84.0768 67.7456 84.1167L66.9719 86.026C66.9524 86.0846 66.9067 86.114 66.8349 86.114H66.169C66.1298 86.114 66.1004 86.1042 66.0808 86.0846C66.0677 86.0583 66.0645 86.026 66.071 85.9869L66.6194 84.0768C66.639 84.0121 66.6847 83.9791 66.7565 83.9791H67.6575ZM69.5995 90.8929C69.1881 90.8929 68.8258 90.8342 68.5125 90.7169C68.2056 90.5928 67.9673 90.4259 67.7976 90.2176C67.6278 90.0018 67.5429 89.7634 67.5429 89.5024V89.4145C67.5429 89.3814 67.5527 89.3558 67.5723 89.3362C67.5984 89.3099 67.6278 89.2971 67.6605 89.2971H68.5223C68.5549 89.2971 68.581 89.3099 68.6006 89.3362C68.6267 89.3558 68.6398 89.3814 68.6398 89.4145V89.434C68.6398 89.5972 68.7279 89.7408 68.9042 89.8649C69.087 89.9822 69.3155 90.0409 69.5897 90.0409C69.8508 90.0409 70.063 89.989 70.2262 89.8844C70.3895 89.7732 70.471 89.6363 70.471 89.4731C70.471 89.3227 70.4025 89.2122 70.2654 89.14C70.1348 89.0618 69.9194 88.9798 69.619 88.8956L69.2469 88.7775C68.914 88.6797 68.6332 88.5752 68.4047 88.4647C68.1763 88.3534 67.9836 88.203 67.827 88.0142C67.6702 87.818 67.5919 87.5698 67.5919 87.2698C67.5919 86.8126 67.7715 86.4501 68.1305 86.1824C68.4896 85.9087 68.9629 85.771 69.5505 85.771C69.9488 85.771 70.298 85.8365 70.5984 85.9673C70.8987 86.0914 71.1305 86.2674 71.2936 86.496C71.4568 86.7178 71.5385 86.9727 71.5385 87.26C71.5385 87.2923 71.5254 87.3217 71.4993 87.348C71.4797 87.3675 71.4536 87.3773 71.421 87.3773H70.5886C70.5559 87.3773 70.5265 87.3675 70.5004 87.348C70.4808 87.3217 70.471 87.2923 70.471 87.26C70.471 87.09 70.3861 86.9494 70.2164 86.8389C70.0532 86.7216 69.8279 86.6622 69.5407 86.6622C69.2861 86.6622 69.0771 86.7118 68.914 86.8096C68.7572 86.9005 68.679 87.0314 68.679 87.2013C68.679 87.3577 68.754 87.4788 68.9042 87.5638C69.0608 87.642 69.3188 87.73 69.6778 87.8277L69.8933 87.8864C70.2393 87.9909 70.5298 88.0985 70.7648 88.2098C70.9998 88.3143 71.199 88.4647 71.3622 88.6602C71.5254 88.8497 71.607 89.0979 71.607 89.4047C71.607 89.8679 71.4242 90.2334 71.0586 90.5011C70.693 90.7628 70.2066 90.8929 69.5995 90.8929ZM76.9283 90.9124C76.4388 90.9124 76.0079 90.8177 75.6354 90.6289C75.2633 90.4326 74.9761 90.1619 74.7736 89.816C74.5713 89.4701 74.4701 89.0685 74.4701 88.6113V86.1922C74.4701 85.7357 74.5713 85.3341 74.7736 84.9882C74.9761 84.6416 75.2633 84.3738 75.6354 84.1851C76.0079 83.9956 76.4388 83.9008 76.9283 83.9008C77.4111 83.9008 77.839 83.9926 78.2112 84.1753C78.5835 84.3581 78.8707 84.616 79.073 84.9484C79.2753 85.2815 79.3761 85.6665 79.3761 86.1042C79.3761 86.1373 79.3633 86.1666 79.337 86.1922C79.3174 86.2117 79.2918 86.2215 79.2588 86.2215L78.3579 86.2711C78.2797 86.2711 78.2405 86.235 78.2405 86.1628C78.2405 85.7778 78.1195 85.468 77.8781 85.2326C77.6427 84.998 77.3261 84.8799 76.9283 84.8799C76.5298 84.8799 76.2102 84.998 75.9688 85.2326C75.7269 85.468 75.6061 85.7778 75.6061 86.1628V88.6602C75.6061 89.0392 75.7269 89.346 75.9688 89.5806C76.2102 89.816 76.5298 89.9333 76.9283 89.9333C77.3261 89.9333 77.6427 89.819 77.8781 89.5904C78.1195 89.3558 78.2405 89.0452 78.2405 88.6602C78.2405 88.5888 78.2797 88.5527 78.3579 88.5527L79.2588 88.5918C79.2918 88.5918 79.3174 88.6015 79.337 88.6211C79.3633 88.6406 79.3761 88.6632 79.3761 88.6895C79.3761 89.1332 79.2753 89.525 79.073 89.8649C78.8707 90.198 78.5835 90.456 78.2112 90.6387C77.839 90.8214 77.4111 90.9124 76.9283 90.9124ZM83.4443 85.9478C83.4443 85.9147 83.4541 85.8891 83.4737 85.8696C83.5 85.8432 83.5293 85.8305 83.5617 85.8305H84.4528C84.4858 85.8305 84.5114 85.8432 84.5317 85.8696C84.5573 85.8891 84.5708 85.9147 84.5708 85.9478V90.7169C84.5708 90.7492 84.5573 90.7786 84.5317 90.8049C84.5114 90.8244 84.4858 90.8342 84.4528 90.8342H83.5617C83.5293 90.8342 83.5 90.8244 83.4737 90.8049C83.4541 90.7786 83.4443 90.7492 83.4443 90.7169V90.4033C83.4443 90.3838 83.4376 90.371 83.4248 90.3642C83.412 90.3575 83.3985 90.3642 83.3857 90.3838C83.118 90.7297 82.7164 90.9026 82.181 90.9026C81.6847 90.9026 81.2673 90.759 80.9274 90.4717C80.5943 90.1845 80.4281 89.7769 80.4281 89.2475V85.9478C80.4281 85.9147 80.4379 85.8891 80.4574 85.8696C80.4837 85.8432 80.5131 85.8305 80.5454 85.8305H81.4463C81.4794 85.8305 81.5057 85.8432 81.5253 85.8696C81.5508 85.8891 81.5644 85.9147 81.5644 85.9478V88.9249C81.5644 89.2317 81.6426 89.4761 81.799 89.6588C81.9622 89.8416 82.1878 89.9333 82.475 89.9333C82.7683 89.9333 83.0037 89.8416 83.1796 89.6588C83.3564 89.4761 83.4443 89.2317 83.4443 88.9249V85.9478ZM85.9026 90.8342C85.8695 90.8342 85.8402 90.8244 85.8146 90.8049C85.7951 90.7786 85.7853 90.7492 85.7853 90.7169V84.0964C85.7853 84.064 85.7951 84.0377 85.8146 84.0182C85.8402 83.9926 85.8695 83.9791 85.9026 83.9791H86.8035C86.8358 83.9791 86.8621 83.9926 86.8817 84.0182C86.908 84.0377 86.9208 84.064 86.9208 84.0964V90.7169C86.9208 90.7492 86.908 90.7786 86.8817 90.8049C86.8621 90.8244 86.8358 90.8342 86.8035 90.8342H85.9026ZM90.7823 86.6328C90.7823 86.6659 90.7687 86.6952 90.7424 86.7216C90.7229 86.7411 90.6973 86.7509 90.6642 86.7509H89.6656C89.6332 86.7509 89.6167 86.7667 89.6167 86.7998V89.1595C89.6167 89.4077 89.6686 89.5874 89.7731 89.698C89.8844 89.8092 90.0574 89.8649 90.292 89.8649H90.586C90.6183 89.8649 90.6447 89.8777 90.6642 89.904C90.6905 89.9236 90.7033 89.9499 90.7033 89.9822V90.7169C90.7033 90.7883 90.6642 90.8312 90.586 90.844L90.0769 90.8538C89.561 90.8538 89.176 90.7658 88.9211 90.5898C88.6669 90.4131 88.5361 90.08 88.5293 89.5904V86.7998C88.5293 86.7667 88.5135 86.7509 88.4804 86.7509H87.9225C87.8894 86.7509 87.86 86.7411 87.8345 86.7216C87.8149 86.6952 87.8051 86.6659 87.8051 86.6328V85.9478C87.8051 85.9147 87.8149 85.8891 87.8345 85.8696C87.86 85.8432 87.8894 85.8305 87.9225 85.8305H88.4804C88.5135 85.8305 88.5293 85.8139 88.5293 85.7808V84.6355C88.5293 84.6025 88.5391 84.5769 88.5586 84.5573C88.585 84.531 88.6143 84.5175 88.6474 84.5175H89.4994C89.5317 84.5175 89.558 84.531 89.5776 84.5573C89.6032 84.5769 89.6167 84.6025 89.6167 84.6355V85.7808C89.6167 85.8139 89.6332 85.8305 89.6656 85.8305H90.6642C90.6973 85.8305 90.7229 85.8432 90.7424 85.8696C90.7687 85.8891 90.7823 85.9147 90.7823 85.9478V86.6328ZM94.7483 85.9478C94.7483 85.9147 94.7581 85.8891 94.7776 85.8696C94.8039 85.8432 94.8333 85.8305 94.8656 85.8305H95.7567C95.7898 85.8305 95.8154 85.8432 95.8357 85.8696C95.8612 85.8891 95.8748 85.9147 95.8748 85.9478V90.7169C95.8748 90.7492 95.8612 90.7786 95.8357 90.8049C95.8154 90.8244 95.7898 90.8342 95.7567 90.8342H94.8656C94.8333 90.8342 94.8039 90.8244 94.7776 90.8049C94.7581 90.7786 94.7483 90.7492 94.7483 90.7169V90.4033C94.7483 90.3838 94.7415 90.371 94.7287 90.3642C94.716 90.3575 94.7024 90.3642 94.6896 90.3838C94.4219 90.7297 94.0204 90.9026 93.4849 90.9026C92.9886 90.9026 92.5713 90.759 92.2314 90.4717C91.8982 90.1845 91.732 89.7769 91.732 89.2475V85.9478C91.732 85.9147 91.7418 85.8891 91.7614 85.8696C91.7877 85.8432 91.817 85.8305 91.8493 85.8305H92.7502C92.7833 85.8305 92.8096 85.8432 92.8292 85.8696C92.8548 85.8891 92.8683 85.9147 92.8683 85.9478V88.9249C92.8683 89.2317 92.9465 89.4761 93.1029 89.6588C93.2661 89.8416 93.4917 89.9333 93.779 89.9333C94.0722 89.9333 94.3076 89.8416 94.4836 89.6588C94.6603 89.4761 94.7483 89.2317 94.7483 88.9249V85.9478ZM99.4197 85.771C99.6287 85.771 99.8115 85.8139 99.9679 85.8989C100.021 85.9245 100.04 85.9741 100.027 86.0455L99.8603 86.9269C99.8536 87.0051 99.8084 87.0284 99.7235 86.9953C99.6257 86.963 99.5114 86.9464 99.3806 86.9464C99.2956 86.9464 99.2302 86.9494 99.1843 86.9562C98.9106 86.969 98.682 87.0675 98.4992 87.2502C98.3165 87.4262 98.2247 87.6578 98.2247 87.9451V90.7169C98.2247 90.7492 98.212 90.7786 98.1856 90.8049C98.1661 90.8244 98.1398 90.8342 98.1074 90.8342H97.2065C97.1742 90.8342 97.1441 90.8244 97.1186 90.8049C97.099 90.7786 97.0892 90.7492 97.0892 90.7169V85.9478C97.0892 85.9147 97.099 85.8891 97.1186 85.8696C97.1441 85.8432 97.1742 85.8305 97.2065 85.8305H98.1074C98.1398 85.8305 98.1661 85.8432 98.1856 85.8696C98.212 85.8891 98.2247 85.9147 98.2247 85.9478V86.3884C98.2247 86.4148 98.2285 86.4305 98.2345 86.4373C98.2481 86.4373 98.2608 86.4275 98.2736 86.408C98.5481 85.9839 98.9301 85.771 99.4197 85.771ZM102.633 85.7515C103.044 85.7515 103.406 85.8237 103.72 85.9673C104.033 86.1109 104.275 86.3102 104.444 86.5644C104.614 86.8126 104.699 87.0968 104.699 87.4164V90.7169C104.699 90.7492 104.686 90.7786 104.66 90.8049C104.64 90.8244 104.614 90.8342 104.581 90.8342H103.68C103.648 90.8342 103.619 90.8244 103.592 90.8049C103.573 90.7786 103.563 90.7492 103.563 90.7169V90.4033C103.563 90.3838 103.556 90.374 103.544 90.374C103.53 90.3672 103.517 90.371 103.504 90.3838C103.184 90.7365 102.721 90.9124 102.114 90.9124C101.624 90.9124 101.219 90.7883 100.9 90.5402C100.586 90.2928 100.43 89.9236 100.43 89.434C100.43 88.9249 100.606 88.5294 100.958 88.2489C101.317 87.9616 101.82 87.818 102.466 87.818H103.514C103.547 87.818 103.563 87.8014 103.563 87.7691V87.5337C103.563 87.2795 103.488 87.0833 103.338 86.9464C103.188 86.8028 102.962 86.7313 102.662 86.7313C102.414 86.7313 102.212 86.7765 102.055 86.8682C101.905 86.9532 101.81 87.0735 101.771 87.2307C101.752 87.3089 101.706 87.3412 101.634 87.3284L100.684 87.2111C100.651 87.2043 100.622 87.1946 100.596 87.1818C100.576 87.1622 100.569 87.1389 100.576 87.1126C100.628 86.7148 100.841 86.3884 101.212 86.1335C101.591 85.8793 102.064 85.7515 102.633 85.7515ZM102.398 90.0115C102.718 90.0115 102.992 89.9266 103.22 89.7574C103.449 89.5874 103.563 89.3716 103.563 89.1106V88.6504C103.563 88.6181 103.547 88.6015 103.514 88.6015H102.692C102.346 88.6015 102.071 88.667 101.869 88.7971C101.673 88.9279 101.575 89.1137 101.575 89.3558C101.575 89.5641 101.65 89.728 101.8 89.8453C101.957 89.9559 102.156 90.0115 102.398 90.0115ZM105.957 90.8342C105.924 90.8342 105.895 90.8244 105.869 90.8049C105.849 90.7786 105.839 90.7492 105.839 90.7169V84.0964C105.839 84.064 105.849 84.0377 105.869 84.0182C105.895 83.9926 105.924 83.9791 105.957 83.9791H106.858C106.891 83.9791 106.917 83.9926 106.937 84.0182C106.962 84.0377 106.976 84.064 106.976 84.0964V90.7169C106.976 90.7492 106.962 90.7786 106.937 90.8049C106.917 90.8244 106.891 90.8342 106.858 90.8342H105.957ZM112.543 90.9124C112.052 90.9124 111.621 90.8177 111.25 90.6289C110.878 90.4326 110.591 90.1619 110.388 89.816C110.185 89.4701 110.084 89.0685 110.084 88.6113V86.1922C110.084 85.7357 110.185 85.3341 110.388 84.9882C110.591 84.6416 110.878 84.3738 111.25 84.1851C111.621 83.9956 112.052 83.9008 112.543 83.9008C113.025 83.9008 113.453 83.9926 113.825 84.1753C114.197 84.3581 114.484 84.616 114.687 84.9484C114.89 85.2815 114.99 85.6665 114.99 86.1042C114.99 86.1373 114.978 86.1666 114.951 86.1922C114.932 86.2117 114.905 86.2215 114.873 86.2215L113.972 86.2711C113.894 86.2711 113.855 86.235 113.855 86.1628C113.855 85.7778 113.734 85.468 113.492 85.2326C113.257 84.998 112.94 84.8799 112.543 84.8799C112.144 84.8799 111.825 84.998 111.582 85.2326C111.341 85.468 111.22 85.7778 111.22 86.1628V88.6602C111.22 89.0392 111.341 89.346 111.582 89.5806C111.825 89.816 112.144 89.9333 112.543 89.9333C112.94 89.9333 113.257 89.819 113.492 89.5904C113.734 89.3558 113.855 89.0452 113.855 88.6602C113.855 88.5888 113.894 88.5527 113.972 88.5527L114.873 88.5918C114.905 88.5918 114.932 88.6015 114.951 88.6211C114.978 88.6406 114.99 88.6632 114.99 88.6895C114.99 89.1332 114.89 89.525 114.687 89.8649C114.484 90.198 114.197 90.456 113.825 90.6387C113.453 90.8214 113.025 90.9124 112.543 90.9124ZM118.432 85.771C118.641 85.771 118.823 85.8139 118.98 85.8989C119.032 85.9245 119.052 85.9741 119.039 86.0455L118.872 86.9269C118.866 87.0051 118.82 87.0284 118.735 86.9953C118.638 86.963 118.523 86.9464 118.392 86.9464C118.307 86.9464 118.243 86.9494 118.197 86.9562C117.922 86.969 117.694 87.0675 117.511 87.2502C117.328 87.4262 117.237 87.6578 117.237 87.9451V90.7169C117.237 90.7492 117.224 90.7786 117.198 90.8049C117.178 90.8244 117.152 90.8342 117.119 90.8342H116.218C116.186 90.8342 116.157 90.8244 116.13 90.8049C116.111 90.7786 116.101 90.7492 116.101 90.7169V85.9478C116.101 85.9147 116.111 85.8891 116.13 85.8696C116.157 85.8432 116.186 85.8305 116.218 85.8305H117.119C117.152 85.8305 117.178 85.8432 117.198 85.8696C117.224 85.8891 117.237 85.9147 117.237 85.9478V86.3884C117.237 86.4148 117.24 86.4305 117.247 86.4373C117.26 86.4373 117.273 86.4275 117.286 86.408C117.56 85.9839 117.942 85.771 118.432 85.771ZM123.908 87.7691C123.934 87.9323 123.947 88.115 123.947 88.3173L123.938 88.6211C123.938 88.6993 123.899 88.7384 123.82 88.7384H120.754C120.722 88.7384 120.706 88.7549 120.706 88.7873C120.725 89.0031 120.754 89.1498 120.794 89.228C120.951 89.698 121.333 89.9363 121.94 89.9431C122.384 89.9431 122.736 89.7604 122.998 89.3949C123.023 89.3558 123.056 89.3362 123.095 89.3362C123.122 89.3362 123.144 89.346 123.164 89.3656L123.771 89.8649C123.83 89.9108 123.84 89.9627 123.801 90.0213C123.598 90.3086 123.327 90.5304 122.988 90.6876C122.655 90.844 122.282 90.9222 121.871 90.9222C121.362 90.9222 120.928 90.8079 120.569 90.58C120.216 90.3514 119.958 90.0311 119.795 89.6197C119.645 89.2671 119.57 88.7775 119.57 88.1511C119.57 87.7721 119.609 87.4653 119.687 87.2307C119.818 86.7735 120.063 86.4148 120.422 86.1531C120.788 85.8854 121.225 85.7515 121.734 85.7515C123.02 85.7515 123.745 86.4245 123.908 87.7691ZM121.734 86.7313C121.493 86.7313 121.29 86.793 121.127 86.9171C120.97 87.0344 120.859 87.2013 120.794 87.4164C120.754 87.5277 120.729 87.6713 120.715 87.8473C120.703 87.8804 120.715 87.8962 120.754 87.8962H122.743C122.775 87.8962 122.792 87.8804 122.792 87.8473C122.779 87.6841 122.759 87.56 122.733 87.4751C122.674 87.2404 122.557 87.0577 122.38 86.9269C122.211 86.796 121.995 86.7313 121.734 86.7313ZM126.847 85.7515C127.258 85.7515 127.621 85.8237 127.934 85.9673C128.248 86.1109 128.489 86.3102 128.659 86.5644C128.829 86.8126 128.914 87.0968 128.914 87.4164V90.7169C128.914 90.7492 128.901 90.7786 128.874 90.8049C128.855 90.8244 128.829 90.8342 128.796 90.8342H127.895C127.862 90.8342 127.833 90.8244 127.807 90.8049C127.787 90.7786 127.777 90.7492 127.777 90.7169V90.4033C127.777 90.3838 127.771 90.374 127.758 90.374C127.745 90.3672 127.732 90.371 127.719 90.3838C127.399 90.7365 126.936 90.9124 126.328 90.9124C125.839 90.9124 125.434 90.7883 125.114 90.5402C124.801 90.2928 124.644 89.9236 124.644 89.434C124.644 88.9249 124.82 88.5294 125.172 88.2489C125.532 87.9616 126.034 87.818 126.681 87.818H127.728C127.761 87.818 127.777 87.8014 127.777 87.7691V87.5337C127.777 87.2795 127.703 87.0833 127.552 86.9464C127.402 86.8028 127.177 86.7313 126.876 86.7313C126.628 86.7313 126.426 86.7765 126.27 86.8682C126.119 86.9532 126.024 87.0735 125.985 87.2307C125.966 87.3089 125.92 87.3412 125.848 87.3284L124.899 87.2111C124.866 87.2043 124.836 87.1946 124.811 87.1818C124.791 87.1622 124.784 87.1389 124.791 87.1126C124.843 86.7148 125.055 86.3884 125.427 86.1335C125.806 85.8793 126.279 85.7515 126.847 85.7515ZM126.612 90.0115C126.932 90.0115 127.207 89.9266 127.435 89.7574C127.664 89.5874 127.777 89.3716 127.777 89.1106V88.6504C127.777 88.6181 127.761 88.6015 127.728 88.6015H126.906C126.56 88.6015 126.286 88.667 126.084 88.7971C125.888 88.9279 125.79 89.1137 125.79 89.3558C125.79 89.5641 125.865 89.728 126.015 89.8453C126.172 89.9559 126.371 90.0115 126.612 90.0115ZM132.631 86.6328C132.631 86.6659 132.619 86.6952 132.592 86.7216C132.573 86.7411 132.546 86.7509 132.514 86.7509H131.515C131.482 86.7509 131.466 86.7667 131.466 86.7998V89.1595C131.466 89.4077 131.518 89.5874 131.623 89.698C131.734 89.8092 131.906 89.8649 132.142 89.8649H132.436C132.468 89.8649 132.495 89.8777 132.514 89.904C132.54 89.9236 132.553 89.9499 132.553 89.9822V90.7169C132.553 90.7883 132.514 90.8312 132.436 90.844L131.926 90.8538C131.411 90.8538 131.025 90.7658 130.771 90.5898C130.516 90.4131 130.386 90.08 130.379 89.5904V86.7998C130.379 86.7667 130.363 86.7509 130.33 86.7509H129.772C129.739 86.7509 129.71 86.7411 129.684 86.7216C129.664 86.6952 129.654 86.6659 129.654 86.6328V85.9478C129.654 85.9147 129.664 85.8891 129.684 85.8696C129.71 85.8432 129.739 85.8305 129.772 85.8305H130.33C130.363 85.8305 130.379 85.8139 130.379 85.7808V84.6355C130.379 84.6025 130.389 84.5769 130.409 84.5573C130.435 84.531 130.464 84.5175 130.496 84.5175H131.348C131.382 84.5175 131.407 84.531 131.427 84.5573C131.453 84.5769 131.466 84.6025 131.466 84.6355V85.7808C131.466 85.8139 131.482 85.8305 131.515 85.8305H132.514C132.546 85.8305 132.573 85.8432 132.592 85.8696C132.619 85.8891 132.631 85.9147 132.631 85.9478V86.6328ZM134.287 85.1446C134.084 85.1446 133.918 85.0792 133.787 84.9484C133.656 84.8183 133.592 84.6513 133.592 84.449C133.592 84.2468 133.656 84.0806 133.787 83.9497C133.918 83.8196 134.084 83.7542 134.287 83.7542C134.489 83.7542 134.656 83.8196 134.786 83.9497C134.917 84.0806 134.982 84.2468 134.982 84.449C134.982 84.6513 134.917 84.8183 134.786 84.9484C134.656 85.0792 134.489 85.1446 134.287 85.1446ZM133.817 90.8342C133.784 90.8342 133.755 90.8244 133.729 90.8049C133.709 90.7786 133.699 90.7492 133.699 90.7169V85.938C133.699 85.9049 133.709 85.8793 133.729 85.8598C133.755 85.8335 133.784 85.8199 133.817 85.8199H134.717C134.751 85.8199 134.776 85.8335 134.796 85.8598C134.822 85.8793 134.835 85.9049 134.835 85.938V90.7169C134.835 90.7492 134.822 90.7786 134.796 90.8049C134.776 90.8244 134.751 90.8342 134.717 90.8342H133.817ZM137.488 90.8342C137.422 90.8342 137.38 90.8019 137.361 90.7365L135.784 85.9575C135.778 85.944 135.774 85.9282 135.774 85.9087C135.774 85.85 135.81 85.8199 135.882 85.8199H136.881C136.952 85.8199 136.998 85.853 137.018 85.9184L137.968 89.1889C137.974 89.2084 137.984 89.2182 137.997 89.2182C138.01 89.2182 138.02 89.2084 138.026 89.1889L138.977 85.9184C138.996 85.853 139.041 85.8199 139.114 85.8199L140.112 85.8402C140.151 85.8402 140.181 85.853 140.2 85.8793C140.22 85.8989 140.224 85.9312 140.21 85.9771L138.644 90.7365C138.624 90.8019 138.581 90.8342 138.516 90.8342H137.488ZM145.024 87.7691C145.051 87.9323 145.063 88.115 145.063 88.3173L145.054 88.6211C145.054 88.6993 145.014 88.7384 144.936 88.7384H141.871C141.838 88.7384 141.821 88.7549 141.821 88.7873C141.842 89.0031 141.871 89.1498 141.91 89.228C142.067 89.698 142.449 89.9363 143.056 89.9431C143.5 89.9431 143.853 89.7604 144.114 89.3949C144.14 89.3558 144.172 89.3362 144.211 89.3362C144.238 89.3362 144.26 89.346 144.28 89.3656L144.887 89.8649C144.946 89.9108 144.956 89.9627 144.917 90.0213C144.714 90.3086 144.443 90.5304 144.104 90.6876C143.771 90.844 143.398 90.9222 142.987 90.9222C142.478 90.9222 142.044 90.8079 141.685 90.58C141.332 90.3514 141.074 90.0311 140.911 89.6197C140.761 89.2671 140.686 88.7775 140.686 88.1511C140.686 87.7721 140.725 87.4653 140.803 87.2307C140.934 86.7735 141.179 86.4148 141.538 86.1531C141.903 85.8854 142.341 85.7515 142.85 85.7515C144.136 85.7515 144.861 86.4245 145.024 87.7691ZM142.85 86.7313C142.609 86.7313 142.407 86.793 142.243 86.9171C142.086 87.0344 141.976 87.2013 141.91 87.4164C141.871 87.5277 141.845 87.6713 141.832 87.8473C141.818 87.8804 141.832 87.8962 141.871 87.8962H143.859C143.892 87.8962 143.908 87.8804 143.908 87.8473C143.895 87.6841 143.875 87.56 143.849 87.4751C143.79 87.2404 143.673 87.0577 143.496 86.9269C143.327 86.796 143.111 86.7313 142.85 86.7313ZM152.812 84.8408C152.812 84.8739 152.798 84.9033 152.773 84.9288C152.753 84.9484 152.727 84.9581 152.694 84.9581H149.355C149.322 84.9581 149.306 84.9747 149.306 85.0078V86.8389C149.306 86.8712 149.322 86.8878 149.355 86.8878H151.597C151.63 86.8878 151.656 86.9005 151.676 86.9269C151.702 86.9464 151.715 86.9727 151.715 87.0051V87.7495C151.715 87.7819 151.702 87.8112 151.676 87.8375C151.656 87.8571 151.63 87.8668 151.597 87.8668H149.355C149.322 87.8668 149.306 87.8834 149.306 87.9157V89.8062C149.306 89.8386 149.322 89.8551 149.355 89.8551H152.694C152.727 89.8551 152.753 89.8679 152.773 89.8942C152.798 89.9138 152.812 89.9401 152.812 89.9724V90.7169C152.812 90.7492 152.798 90.7786 152.773 90.8049C152.753 90.8244 152.727 90.8342 152.694 90.8342H148.287C148.255 90.8342 148.225 90.8244 148.199 90.8049C148.18 90.7786 148.17 90.7492 148.17 90.7169V84.0964C148.17 84.064 148.18 84.0377 148.199 84.0182C148.225 83.9926 148.255 83.9791 148.287 83.9791H152.694C152.727 83.9791 152.753 83.9926 152.773 84.0182C152.798 84.0377 152.812 84.064 152.812 84.0964V84.8408ZM155.943 90.9124C155.441 90.9124 155.006 90.7853 154.641 90.5304C154.275 90.2695 154.021 89.9205 153.877 89.4829C153.773 89.1888 153.72 88.7971 153.72 88.3075C153.72 87.8375 153.773 87.4525 153.877 87.1525C154.014 86.7216 154.265 86.3817 154.631 86.1335C155.003 85.8793 155.441 85.7515 155.943 85.7515C156.452 85.7515 156.897 85.8793 157.275 86.1335C157.654 86.3884 157.905 86.708 158.029 87.0931C158.062 87.1976 158.085 87.3021 158.098 87.4066V87.4262C158.098 87.4916 158.062 87.5307 157.99 87.5435L157.109 87.6713H157.089C157.031 87.6713 156.991 87.6382 156.972 87.5736C156.972 87.5405 156.968 87.5142 156.962 87.4946C156.949 87.4427 156.936 87.3969 156.923 87.3577C156.864 87.175 156.746 87.0246 156.57 86.9073C156.394 86.79 156.185 86.7313 155.943 86.7313C155.695 86.7313 155.483 86.796 155.307 86.9269C155.137 87.0509 155.023 87.2239 154.964 87.4457C154.899 87.6548 154.866 87.9451 154.866 88.3173C154.866 88.6767 154.896 88.967 154.954 89.1889C155.02 89.4175 155.137 89.6002 155.307 89.7378C155.477 89.8679 155.689 89.9333 155.943 89.9333C156.191 89.9333 156.403 89.8717 156.58 89.7476C156.763 89.6167 156.88 89.4438 156.933 89.228C156.939 89.2152 156.943 89.1986 156.943 89.1791C156.949 89.1731 156.952 89.1633 156.952 89.1497C156.972 89.0715 157.017 89.0392 157.089 89.052L157.971 89.1889C158.003 89.1956 158.029 89.2122 158.049 89.2377C158.075 89.2573 158.085 89.2874 158.078 89.3265C158.059 89.431 158.043 89.5054 158.029 89.5513C157.905 89.9694 157.654 90.3026 157.275 90.55C156.897 90.7921 156.452 90.9124 155.943 90.9124ZM161.137 90.9124C160.621 90.9124 160.178 90.7823 159.805 90.5206C159.44 90.2597 159.182 89.8972 159.032 89.434C158.921 89.0813 158.865 88.7091 158.865 88.3173C158.865 87.8999 158.917 87.5277 159.022 87.2013C159.172 86.7441 159.433 86.3884 159.805 86.1335C160.178 85.8793 160.625 85.7515 161.147 85.7515C161.643 85.7515 162.071 85.8793 162.43 86.1335C162.795 86.3884 163.053 86.7411 163.204 87.1916C163.321 87.5044 163.38 87.8766 163.38 88.3075C163.38 88.7189 163.324 89.0911 163.213 89.4242C163.063 89.8875 162.805 90.2529 162.44 90.5206C162.074 90.7823 161.64 90.9124 161.137 90.9124ZM161.137 89.9333C161.379 89.9333 161.585 89.8649 161.755 89.728C161.93 89.5904 162.058 89.3979 162.136 89.1497C162.201 88.9347 162.234 88.6602 162.234 88.3271C162.234 87.9744 162.201 87.7007 162.136 87.5044C162.064 87.2562 161.94 87.0675 161.764 86.9366C161.588 86.7998 161.373 86.7313 161.118 86.7313C160.876 86.7313 160.667 86.7998 160.491 86.9366C160.314 87.0675 160.187 87.2562 160.109 87.5044C160.044 87.733 160.011 88.0075 160.011 88.3271C160.011 88.6474 160.044 88.9211 160.109 89.1497C160.181 89.3979 160.305 89.5904 160.481 89.728C160.664 89.8649 160.883 89.9333 161.137 89.9333ZM166.853 85.7515C167.382 85.7515 167.803 85.9087 168.116 86.2215C168.436 86.5351 168.596 86.963 168.596 87.5044V90.7169C168.596 90.7492 168.583 90.7786 168.557 90.8049C168.538 90.8244 168.511 90.8342 168.479 90.8342H167.578C167.545 90.8342 167.516 90.8244 167.489 90.8049C167.47 90.7786 167.46 90.7492 167.46 90.7169V87.7398C167.46 87.4397 167.376 87.1976 167.206 87.0148C167.036 86.8253 166.811 86.7313 166.53 86.7313C166.249 86.7313 166.021 86.8223 165.845 87.0051C165.675 87.1878 165.59 87.4299 165.59 87.73V90.7169C165.59 90.7492 165.577 90.7786 165.551 90.8049C165.531 90.8244 165.505 90.8342 165.472 90.8342H164.571C164.538 90.8342 164.509 90.8244 164.483 90.8049C164.463 90.7786 164.453 90.7492 164.453 90.7169V85.9478C164.453 85.9147 164.463 85.8891 164.483 85.8696C164.509 85.8432 164.538 85.8305 164.571 85.8305H165.472C165.505 85.8305 165.531 85.8432 165.551 85.8696C165.577 85.8891 165.59 85.9147 165.59 85.9478V86.2613C165.59 86.2809 165.596 86.2937 165.609 86.3005C165.622 86.3065 165.632 86.3004 165.639 86.2809C165.906 85.9282 166.311 85.7515 166.853 85.7515ZM171.867 90.9124C171.351 90.9124 170.908 90.7823 170.536 90.5206C170.17 90.2597 169.912 89.8972 169.762 89.434C169.651 89.0813 169.596 88.7091 169.596 88.3173C169.596 87.8999 169.647 87.5277 169.752 87.2013C169.902 86.7441 170.163 86.3884 170.536 86.1335C170.908 85.8793 171.355 85.7515 171.877 85.7515C172.373 85.7515 172.801 85.8793 173.16 86.1335C173.525 86.3884 173.783 86.7411 173.934 87.1916C174.051 87.5044 174.11 87.8766 174.11 88.3075C174.11 88.7189 174.054 89.0911 173.944 89.4242C173.793 89.8875 173.535 90.2529 173.17 90.5206C172.804 90.7823 172.37 90.9124 171.867 90.9124ZM171.867 89.9333C172.109 89.9333 172.315 89.8649 172.485 89.728C172.661 89.5904 172.788 89.3979 172.866 89.1497C172.931 88.9347 172.964 88.6602 172.964 88.3271C172.964 87.9744 172.931 87.7007 172.866 87.5044C172.795 87.2562 172.67 87.0675 172.494 86.9366C172.318 86.7998 172.103 86.7313 171.848 86.7313C171.606 86.7313 171.397 86.7998 171.221 86.9366C171.045 87.0675 170.918 87.2562 170.839 87.5044C170.774 87.733 170.741 88.0075 170.741 88.3271C170.741 88.6474 170.774 88.9211 170.839 89.1497C170.911 89.3979 171.035 89.5904 171.212 89.728C171.394 89.8649 171.613 89.9333 171.867 89.9333ZM180.541 85.7515C181.043 85.7515 181.435 85.9049 181.716 86.2117C182.003 86.5125 182.147 86.9336 182.147 87.4751V90.7169C182.147 90.7492 182.134 90.7786 182.107 90.8049C182.088 90.8244 182.062 90.8342 182.029 90.8342H181.138C181.106 90.8342 181.076 90.8244 181.05 90.8049C181.03 90.7786 181.021 90.7492 181.021 90.7169V87.7104C181.021 87.4096 180.939 87.172 180.775 86.9953C180.619 86.8193 180.407 86.7313 180.139 86.7313C179.872 86.7313 179.653 86.8193 179.483 86.9953C179.314 87.172 179.229 87.4066 179.229 87.7007V90.7169C179.229 90.7492 179.215 90.7786 179.189 90.8049C179.17 90.8244 179.144 90.8342 179.111 90.8342H178.219C178.187 90.8342 178.158 90.8244 178.131 90.8049C178.112 90.7786 178.102 90.7492 178.102 90.7169V87.7104C178.102 87.4096 178.021 87.172 177.858 86.9953C177.695 86.8193 177.479 86.7313 177.211 86.7313C176.963 86.7313 176.758 86.8028 176.594 86.9464C176.437 87.09 176.346 87.2863 176.32 87.5337V90.7169C176.32 90.7492 176.307 90.7786 176.281 90.8049C176.261 90.8244 176.235 90.8342 176.203 90.8342H175.302C175.269 90.8342 175.239 90.8244 175.213 90.8049C175.193 90.7786 175.184 90.7492 175.184 90.7169V85.9478C175.184 85.9147 175.193 85.8891 175.213 85.8696C175.239 85.8432 175.269 85.8305 175.302 85.8305H176.203C176.235 85.8305 176.261 85.8432 176.281 85.8696C176.307 85.8891 176.32 85.9147 176.32 85.9478V86.2711C176.32 86.2907 176.327 86.3035 176.339 86.3102C176.352 86.3162 176.366 86.3102 176.379 86.2907C176.522 86.1072 176.699 85.9741 176.907 85.8891C177.123 85.7974 177.361 85.7515 177.622 85.7515C177.942 85.7515 178.223 85.8169 178.465 85.9478C178.706 86.0779 178.892 86.2674 179.023 86.5155C179.042 86.5418 179.065 86.5418 179.091 86.5155C179.235 86.2546 179.434 86.0621 179.689 85.938C179.943 85.8139 180.227 85.7515 180.541 85.7515ZM183.033 92.7834C183.013 92.7834 182.998 92.7698 182.984 92.7443C182.971 92.724 182.964 92.6984 182.964 92.6653V91.9607C182.964 91.9276 182.974 91.8983 182.994 91.872C183.02 91.8524 183.049 91.8426 183.083 91.8426H183.092C183.359 91.8366 183.568 91.8073 183.719 91.7547C183.869 91.7088 183.993 91.6178 184.091 91.4809C184.189 91.3433 184.277 91.138 184.355 90.8635C184.362 90.8508 184.362 90.8312 184.355 90.8049L182.74 85.9575C182.733 85.944 182.73 85.9282 182.73 85.9087C182.73 85.85 182.762 85.8199 182.828 85.8199H183.787C183.859 85.8199 183.904 85.853 183.924 85.9184L184.904 89.3656C184.91 89.3851 184.92 89.3949 184.933 89.3949C184.946 89.3949 184.956 89.3851 184.963 89.3656L185.942 85.9184C185.961 85.853 186.007 85.8199 186.078 85.8199H187.009C187.049 85.8199 187.074 85.8335 187.088 85.8598C187.107 85.8793 187.11 85.9117 187.097 85.9575L185.374 91.1087C185.211 91.5719 185.05 91.9178 184.894 92.1464C184.737 92.375 184.522 92.5382 184.247 92.636C183.98 92.7337 183.598 92.7834 183.102 92.7834H183.033Z" fill="white"/>
<path d="M194.494 89.1129C194.473 89.1345 194.467 89.1561 194.478 89.1776C194.489 89.1992 194.51 89.21 194.543 89.21H198.93C198.984 89.21 199.027 89.2316 199.059 89.2748C199.102 89.3071 199.124 89.3503 199.124 89.4043V90.9744C199.124 91.0284 199.102 91.077 199.059 91.1201C199.027 91.1525 198.984 91.1687 198.93 91.1687H191.645C191.591 91.1687 191.543 91.1525 191.5 91.1201C191.467 91.077 191.451 91.0284 191.451 90.9744V89.4852C191.451 89.3881 191.483 89.3071 191.548 89.2424C192.077 88.7244 192.616 88.1632 193.167 87.5589C193.717 86.9438 194.063 86.5607 194.203 86.4096C194.505 86.0535 194.813 85.7135 195.126 85.3898C196.108 84.2998 196.599 83.4905 196.599 82.9617C196.599 82.584 196.464 82.2764 196.194 82.039C195.924 81.7908 195.573 81.6667 195.142 81.6667C194.71 81.6667 194.359 81.7908 194.09 82.039C193.82 82.2764 193.685 82.5948 193.685 82.9941V83.3987C193.685 83.4527 193.663 83.5013 193.62 83.5444C193.588 83.5768 193.545 83.593 193.491 83.593H191.58C191.527 83.593 191.478 83.5768 191.435 83.5444C191.402 83.5013 191.386 83.4527 191.386 83.3987V82.6379C191.419 82.0552 191.602 81.5426 191.937 81.1001C192.271 80.6469 192.714 80.3015 193.264 80.0641C193.825 79.8267 194.451 79.708 195.142 79.708C195.908 79.708 196.572 79.8537 197.133 80.1451C197.705 80.4256 198.142 80.8088 198.444 81.2944C198.757 81.78 198.913 82.3196 198.913 82.9131C198.913 83.3664 198.8 83.8304 198.573 84.3052C198.347 84.7801 198.007 85.2927 197.554 85.843C197.219 86.2639 196.858 86.6794 196.469 87.0895C196.081 87.4995 195.503 88.0931 194.737 88.8701L194.494 89.1129Z" fill="white"/>
<path d="M204.378 91.3468C203.191 91.3468 202.252 91.0176 201.561 90.3593C200.87 89.6902 200.525 88.7837 200.525 87.6398V83.3664C200.525 82.244 200.87 81.3537 201.561 80.6954C202.252 80.0372 203.191 79.708 204.378 79.708C205.565 79.708 206.504 80.0372 207.194 80.6954C207.896 81.3537 208.247 82.244 208.247 83.3664V87.6398C208.247 88.7837 207.896 89.6902 207.194 90.3593C206.504 91.0176 205.565 91.3468 204.378 91.3468ZM204.378 89.3881C204.863 89.3881 205.246 89.2424 205.527 88.951C205.818 88.6488 205.964 88.2496 205.964 87.7531V83.3016C205.964 82.8052 205.818 82.4113 205.527 82.1199C205.246 81.8178 204.863 81.6667 204.378 81.6667C203.903 81.6667 203.52 81.8178 203.228 82.1199C202.948 82.4113 202.808 82.8052 202.808 83.3016V87.7531C202.808 88.2496 202.948 88.6488 203.228 88.951C203.52 89.2424 203.903 89.3881 204.378 89.3881Z" fill="white"/>
<path d="M212.784 89.1129C212.762 89.1345 212.757 89.1561 212.768 89.1776C212.779 89.1992 212.8 89.21 212.833 89.21H217.219C217.273 89.21 217.317 89.2316 217.349 89.2748C217.392 89.3071 217.414 89.3503 217.414 89.4043V90.9744C217.414 91.0284 217.392 91.077 217.349 91.1201C217.317 91.1525 217.273 91.1687 217.219 91.1687H209.935C209.881 91.1687 209.833 91.1525 209.789 91.1201C209.757 91.077 209.741 91.0284 209.741 90.9744V89.4852C209.741 89.3881 209.773 89.3071 209.838 89.2424C210.367 88.7244 210.906 88.1632 211.457 87.5589C212.007 86.9438 212.352 86.5607 212.493 86.4096C212.795 86.0535 213.102 85.7135 213.415 85.3898C214.397 84.2998 214.888 83.4905 214.888 82.9617C214.888 82.584 214.754 82.2764 214.484 82.039C214.214 81.7908 213.863 81.6667 213.432 81.6667C213 81.6667 212.649 81.7908 212.379 82.039C212.11 82.2764 211.975 82.5948 211.975 82.9941V83.3987C211.975 83.4527 211.953 83.5013 211.91 83.5444C211.878 83.5768 211.834 83.593 211.78 83.593H209.87C209.816 83.593 209.768 83.5768 209.725 83.5444C209.692 83.5013 209.676 83.4527 209.676 83.3987V82.6379C209.708 82.0552 209.892 81.5426 210.226 81.1001C210.561 80.6469 211.003 80.3015 211.554 80.0641C212.115 79.8267 212.741 79.708 213.432 79.708C214.198 79.708 214.861 79.8537 215.423 80.1451C215.995 80.4256 216.432 80.8088 216.734 81.2944C217.047 81.78 217.203 82.3196 217.203 82.9131C217.203 83.3664 217.09 83.8304 216.863 84.3052C216.637 84.7801 216.297 85.2927 215.844 85.843C215.509 86.2639 215.147 86.6794 214.759 87.0895C214.37 87.4995 213.793 88.0931 213.027 88.8701L212.784 89.1129Z" fill="white"/>
<path d="M226.018 86.0049C226.18 86.5337 226.261 87.0463 226.261 87.5427C226.261 88.0931 226.175 88.5895 226.002 89.032C225.754 89.7226 225.317 90.273 224.691 90.6831C224.065 91.0824 223.331 91.282 222.49 91.282C221.669 91.282 220.946 91.0878 220.32 90.6993C219.705 90.3 219.268 89.7604 219.009 89.0805C218.901 88.7999 218.82 88.5032 218.766 88.1902V88.1578C218.766 88.0391 218.831 87.9798 218.961 87.9798H220.919C221.027 87.9798 221.097 88.0391 221.13 88.1578C221.141 88.2226 221.157 88.2765 221.178 88.3197C221.2 88.3629 221.216 88.4006 221.227 88.433C221.335 88.7136 221.497 88.9294 221.713 89.0805C221.928 89.2316 222.182 89.3071 222.473 89.3071C222.776 89.3071 223.04 89.2262 223.267 89.0643C223.493 88.9025 223.66 88.6758 223.768 88.3845C223.876 88.1686 223.93 87.888 223.93 87.5427C223.93 87.2298 223.882 86.9492 223.785 86.701C223.709 86.4204 223.558 86.2046 223.331 86.0535C223.105 85.9024 222.84 85.8268 222.538 85.8268C222.236 85.8268 221.955 85.897 221.696 86.0373C221.437 86.1776 221.265 86.361 221.178 86.5877C221.146 86.6956 221.076 86.7495 220.968 86.7495H218.977C218.923 86.7495 218.874 86.7333 218.831 86.701C218.799 86.6578 218.783 86.6092 218.783 86.5553V80.0318C218.783 79.9778 218.799 79.9346 218.831 79.9023C218.874 79.8591 218.923 79.8375 218.977 79.8375H225.662C225.716 79.8375 225.759 79.8591 225.792 79.9023C225.835 79.9346 225.857 79.9778 225.857 80.0318V81.6019C225.857 81.6559 225.835 81.7045 225.792 81.7476C225.759 81.78 225.716 81.7962 225.662 81.7962H221.146C221.092 81.7962 221.065 81.8232 221.065 81.8771L221.049 84.2729C221.049 84.3484 221.081 84.3646 221.146 84.3214C221.632 84.0085 222.193 83.852 222.83 83.852C223.585 83.852 224.243 84.0462 224.804 84.4347C225.376 84.8124 225.781 85.3358 226.018 86.0049Z" fill="white"/>
</svg>
