<svg width="227" height="94" viewBox="0 0 227 94" fill="none" xmlns="http://www.w3.org/2000/svg">
<path d="M2.72152 34.783V3.06592H14.6802C24.0158 3.06592 28.3212 4.69664 28.3212 9.76998C28.3212 11.9875 27.3204 13.3075 25.4653 14.0754C29.4516 15.1194 31.7639 17.475 31.7639 22.5051C31.7639 30.7968 25.6034 34.7399 14.9562 34.783V21.28C19.5292 21.28 21.3411 20.0548 21.3411 18.4241C21.3411 17.0608 20.392 15.1194 17.9847 15.1194H13.1357V31.6596L4.61971 34.783H2.71289H2.72152ZM14.9994 13.3075C16.9493 13.3075 17.8985 11.1333 17.8985 8.77773C17.8985 5.92183 16.5869 4.87783 14.4989 4.87783H13.1443V13.3075H14.9994Z" fill="#151515"/>
<path d="M34.4824 23.4542C34.4824 16.2498 39.0553 11.4438 45.8974 11.4438C52.7395 11.4438 57.3125 15.3869 57.3125 19.1919C57.3125 21.8235 53.2831 22.9538 49.0208 23.4542L44.6291 23.9978C44.9914 26.3101 45.9837 28.2084 48.6153 28.2084C50.6515 28.2084 52.0579 27.6648 55.0002 26.1203L58.9001 32.4189C54.8707 35.1368 52.0148 35.456 47.9854 35.456C39.3314 35.456 34.4824 30.6501 34.4824 23.4456V23.4542ZM45.4402 22.0047C46.9328 21.7804 47.347 20.3308 47.347 18.1566C47.347 15.9823 46.8983 13.2644 45.8974 13.2644C44.4479 13.2644 44.4479 18.1997 44.4479 20.7364C44.4479 21.1937 44.4479 21.6855 44.4911 22.1427L45.4402 22.0047Z" fill="#151515"/>
<path d="M69.9084 45.611C66.0603 45.611 63.9291 45.1537 60.9351 43.4367L64.0154 37.1382C66.2846 38.0441 69.8135 38.3633 71.9015 38.3633C75.0249 38.3633 77.2509 36.6895 78.157 34.7395C72.1345 34.3772 68.7781 32.7896 66.3277 26.8102L62.885 18.3806C61.8411 15.8007 60.8488 13.7559 58.2173 11.4521C66.5521 11.4521 69.4942 11.547 71.9878 17.6126L74.1189 22.8241C75.5253 26.2235 77.6562 27.0864 82.9976 27.0864V34.8775C82.9976 40.9 77.7856 45.611 69.8998 45.611H69.9084Z" fill="#151515"/>
<path d="M79.3746 11.4521C82.4984 11.4521 84.5867 13.5833 84.5867 16.6635C84.5867 19.7438 82.4984 21.8749 79.3746 21.8749C76.2516 21.8749 74.1636 19.7869 74.1636 16.6635C74.1636 13.5401 76.2945 11.4521 79.3746 11.4521Z" fill="#151515"/>
<path d="M136.372 34.783H126.406V25.9909C126.406 18.7433 125.863 13.6182 124.819 13.6182C123.594 13.6182 122.731 16.3792 122.644 21.7286V34.7744H112.679V12.1255H114.491L122.144 15.0677C123.231 12.1255 125 11.4438 126.855 11.4438C133.378 11.4438 136.372 16.6552 136.372 24.3084V34.7744V34.783Z" fill="#151515"/>
<path d="M154.085 31.8841C152.997 34.8263 151.005 35.4648 148.062 35.4648C142.126 35.4648 139.089 30.6589 139.089 23.4544C139.089 16.2499 142.126 11.444 148.062 11.444C150.556 11.444 152.368 11.9445 153.498 13.8944V0.796875H163.464V34.7745H161.651L154.085 31.8755V31.8841ZM151.324 28.2171C152.592 28.2171 153.498 25.275 153.498 21.0126C153.498 16.7503 152.592 13.8513 151.324 13.8513C149.96 13.8513 149.055 16.7503 149.055 21.0558C149.055 25.3612 149.96 28.2171 151.324 28.2171Z" fill="#151515"/>
<path d="M0.702637 43.4715H25.3015V52.5311H15.1548C13.6103 54.343 13.386 55.3353 13.386 57.9668C13.386 60.0979 15.0168 62.3586 17.3722 62.3586C19.0461 62.3586 19.8658 61.953 21.5828 60.5898L24.0763 72.7728C20.7286 75.1282 19.5896 75.853 15.6035 75.853C7.85537 75.853 3.01498 70.2792 3.01498 63.5751C3.01498 55.6027 10.0814 52.5224 13.386 52.5224H0.702637V43.4629V43.4715Z" fill="#151515"/>
<path d="M76.2159 75.1797H66.2504V63.7215C66.2504 56.4738 65.7931 54.0321 64.982 54.0321C64.0329 54.0321 63.3945 56.9742 63.3513 62.6343V75.1797H53.3857V52.5307H55.1977L62.7646 55.4298C63.7137 52.5307 65.3875 51.8491 67.6136 51.8491C71.5567 51.8491 73.9553 53.2555 75.2236 56.517C75.9918 52.712 77.6221 51.8491 80.3398 51.8491C85.2751 51.8491 89.0802 54.3427 89.0802 62.9018V75.1797H79.1148V63.7215C79.1148 56.4738 78.6666 54.0321 77.8469 54.0321C76.8024 54.0321 76.173 57.3798 76.2159 63.8595V75.1883V75.1797Z" fill="#151515"/>
<path d="M127.13 55.6541V75.1796H117.165V52.5307H118.977L127.13 55.6541ZM133.705 51.8491C136.828 51.8491 138.916 53.9803 138.916 57.0605C138.916 60.1408 136.828 62.272 133.705 62.272C130.581 62.272 128.494 60.1839 128.494 57.0605C128.494 53.9371 130.625 51.8491 133.705 51.8491Z" fill="#151515"/>
<path d="M150.686 55.6541V75.1796H140.721V52.5307H142.533L150.686 55.6541ZM157.261 51.8491C160.385 51.8491 162.473 53.9803 162.473 57.0605C162.473 60.1408 160.385 62.272 157.261 62.272C154.138 62.272 152.049 60.1839 152.049 57.0605C152.049 53.9371 154.181 51.8491 157.261 51.8491Z" fill="#151515"/>
<path d="M196.218 69.5627L192.326 59.8215C191.153 56.8275 190.014 54.567 187.158 51.8491C195.812 51.8491 198.893 51.944 201.472 58.4151L205.234 67.8802C206.459 70.9605 208.763 74.0407 212.663 75.8526C203.56 75.8526 198.668 75.6715 196.218 69.5541V69.5627Z" fill="#591CBC"/>
<path d="M208.443 69.5627L204.551 59.8215C203.378 56.8275 202.239 54.567 199.383 51.8491C208.037 51.8491 211.117 51.944 213.697 58.4151L215.914 63.9889C217.64 68.2426 220.539 68.0614 224.163 68.0614L225.75 75.8526C216.648 75.8526 210.893 75.6715 208.443 69.5541V69.5627Z" fill="#11A24A"/>
<path d="M220.902 51.8491C224.026 51.8491 226.113 53.9803 226.113 57.0605C226.113 60.1408 224.026 62.272 220.902 62.272C217.779 62.272 215.69 60.1839 215.69 57.0605C215.69 53.9371 217.822 51.8491 220.902 51.8491Z" fill="#F15A29"/>
<path d="M175.604 51.8491C168.805 51.8491 164.275 56.6464 164.275 63.8509C164.275 71.0554 168.805 75.8526 175.604 75.8526C182.403 75.8526 186.925 71.0467 186.925 63.8509C186.925 56.655 182.395 51.8491 175.604 51.8491ZM175.216 69.0623C172.136 69.0623 170.005 66.9742 170.005 63.8509C170.005 60.7275 172.136 58.6395 175.216 58.6395C178.296 58.6395 180.427 60.7706 180.427 63.8509C180.427 66.9311 178.339 69.0623 175.216 69.0623Z" fill="#151515"/>
<path d="M98.6325 11.4521C91.8337 11.4521 87.3037 16.2581 87.3037 23.4625C87.3037 30.6671 91.8337 35.4729 98.6325 35.4729C105.431 35.4729 109.961 30.6671 109.961 23.4625C109.961 16.2581 105.431 11.4521 98.6325 11.4521ZM98.6325 28.6653C95.5523 28.6653 93.4212 26.5773 93.4212 23.4539C93.4212 20.3305 95.5523 18.2425 98.6325 18.2425C101.713 18.2425 103.844 20.3736 103.844 23.4539C103.844 26.5342 101.756 28.6653 98.6325 28.6653Z" fill="#151515"/>
<path d="M39.34 51.8491C32.541 51.8491 28.0112 56.6463 28.0112 63.8508C28.0112 71.0554 32.541 75.8526 39.34 75.8526C46.139 75.8526 50.6601 71.0467 50.6601 63.8508C50.6601 56.655 46.1303 51.8491 39.34 51.8491ZM39.34 69.0622C36.2598 69.0622 34.1286 66.9742 34.1286 63.8508C34.1286 60.7274 36.2598 58.6395 39.34 58.6395C42.4202 58.6395 44.5514 60.7706 44.5514 63.8508C44.5514 66.9311 42.4634 69.0622 39.34 69.0622Z" fill="#151515"/>
<path d="M103.128 51.8491C96.3293 51.8491 91.7993 56.6464 91.7993 63.8509C91.7993 71.0554 96.3293 75.8526 103.128 75.8526C109.928 75.8526 114.449 71.0467 114.449 63.8509C114.449 56.655 109.919 51.8491 103.128 51.8491ZM103.128 69.0623C100.048 69.0623 97.9168 66.9742 97.9168 63.8509C97.9168 60.7275 100.048 58.6395 103.128 58.6395C106.209 58.6395 108.34 60.7706 108.34 63.8509C108.34 66.9311 106.252 69.0623 103.128 69.0623Z" fill="#151515"/>
<path d="M4.40778 91.5126C3.89096 91.5126 3.44041 91.4298 3.0561 91.2636C2.6718 91.0982 2.37365 90.8666 2.16161 90.5681C1.95622 90.2703 1.85352 89.9191 1.85352 89.5145V89.2664C1.85352 89.2333 1.86346 89.207 1.88333 89.1866C1.90983 89.1603 1.93965 89.1468 1.97278 89.1468H2.85733C2.89046 89.1468 2.91696 89.1603 2.93684 89.1866C2.96334 89.207 2.97659 89.2333 2.97659 89.2664V89.4551C2.97659 89.7597 3.11243 90.0153 3.38408 90.2206C3.65574 90.4192 4.02679 90.5184 4.49723 90.5184C4.9014 90.5184 5.20619 90.4327 5.41159 90.2605C5.61699 90.0875 5.7197 89.8657 5.7197 89.5942C5.7197 89.4085 5.66337 89.2528 5.55073 89.1272C5.4381 88.9949 5.27576 88.8753 5.06373 88.7693C4.85833 88.6633 4.54692 88.5309 4.12949 88.3715C3.65906 88.1993 3.27807 88.0368 2.98653 87.8849C2.69499 87.7323 2.44984 87.527 2.25106 87.2683C2.05891 87.0036 1.96284 86.6757 1.96284 86.2847C1.96284 85.7019 2.17487 85.2409 2.59892 84.9033C3.02298 84.5649 3.58948 84.3965 4.29845 84.3965C4.79538 84.3965 5.23269 84.4822 5.61036 84.6544C5.99466 84.8266 6.29283 85.0687 6.50486 85.3801C6.71688 85.6854 6.8229 86.0396 6.8229 86.4434V86.6126C6.8229 86.6457 6.80964 86.6757 6.78314 86.7021C6.76327 86.7216 6.73676 86.7321 6.70363 86.7321H5.80914C5.77601 86.7321 5.7462 86.7216 5.7197 86.7021C5.69981 86.6757 5.68988 86.6457 5.68988 86.6126V86.5035C5.68988 86.1922 5.56067 85.9305 5.30226 85.7185C5.05048 85.4996 4.69931 85.3898 4.24875 85.3898C3.88434 85.3898 3.59942 85.4665 3.39402 85.6184C3.19525 85.7711 3.09586 85.9862 3.09586 86.2644C3.09586 86.4637 3.14887 86.6261 3.25488 86.7517C3.36089 86.8773 3.51992 86.9938 3.73194 87.0999C3.94397 87.1991 4.27194 87.3285 4.71588 87.4871C5.18631 87.6661 5.56067 87.8285 5.83895 87.9744C6.12387 88.1203 6.36571 88.3256 6.56448 88.5903C6.76989 88.849 6.87259 89.1739 6.87259 89.5641C6.87259 90.1605 6.65062 90.6342 6.20669 90.9854C5.76939 91.3366 5.16975 91.5126 4.40778 91.5126ZM10.3593 86.2749C10.896 86.2749 11.3234 86.4336 11.6414 86.7517C11.9661 87.0698 12.1284 87.5037 12.1284 88.0534V91.3133C12.1284 91.3471 12.1152 91.3764 12.0886 91.4028C12.0688 91.4231 12.0423 91.4328 12.0091 91.4328H11.0948C11.0616 91.4328 11.0318 91.4231 11.0053 91.4028C10.9855 91.3764 10.9755 91.3471 10.9755 91.3133V88.2925C10.9755 87.9872 10.8893 87.7421 10.7171 87.5571C10.5449 87.3646 10.3163 87.2683 10.0313 87.2683C9.7464 87.2683 9.51448 87.3616 9.33558 87.5465C9.16338 87.7323 9.0772 87.9774 9.0772 88.282V91.3133C9.0772 91.3471 9.06396 91.3764 9.03742 91.4028C9.01756 91.4231 8.99109 91.4328 8.95793 91.4328H8.04358C8.01044 91.4328 7.98063 91.4231 7.95413 91.4028C7.93425 91.3764 7.92431 91.3471 7.92431 91.3133V84.595C7.92431 84.5619 7.93425 84.5356 7.95413 84.5153C7.98063 84.489 8.01044 84.4754 8.04358 84.4754H8.95793C8.99109 84.4754 9.01756 84.489 9.03742 84.5153C9.06396 84.5356 9.0772 84.5619 9.0772 84.595V86.7915C9.0772 86.8111 9.08382 86.8246 9.09705 86.8314C9.11036 86.8382 9.12029 86.8314 9.1269 86.8111C9.39852 86.4539 9.80934 86.2749 10.3593 86.2749ZM15.2685 86.2749C15.6859 86.2749 16.0537 86.3479 16.3717 86.493C16.6898 86.6389 16.9349 86.8412 17.1072 87.0999C17.2795 87.351 17.3656 87.6398 17.3656 87.9647V91.3133C17.3656 91.3471 17.3523 91.3764 17.3258 91.4028C17.3059 91.4231 17.2795 91.4328 17.2463 91.4328H16.332C16.2988 91.4328 16.269 91.4231 16.2425 91.4028C16.2226 91.3764 16.2127 91.3471 16.2127 91.3133V90.9959C16.2127 90.9756 16.2061 90.9659 16.1928 90.9659C16.1795 90.9591 16.1663 90.9628 16.1531 90.9756C15.8284 91.3336 15.358 91.5126 14.7417 91.5126C14.2448 91.5126 13.834 91.3862 13.5094 91.1351C13.1913 90.8831 13.0323 90.5086 13.0323 90.0116C13.0323 89.495 13.2112 89.0942 13.569 88.8091C13.9334 88.5174 14.4436 88.3715 15.0995 88.3715H16.163C16.1962 88.3715 16.2127 88.3549 16.2127 88.3219V88.0835C16.2127 87.8248 16.1365 87.6263 15.9841 87.4871C15.8317 87.3413 15.6031 87.2683 15.2984 87.2683C15.0465 87.2683 14.8411 87.3149 14.6821 87.4074C14.5297 87.4939 14.4336 87.6165 14.3939 87.7752C14.374 87.8549 14.3276 87.888 14.2547 87.8752L13.2907 87.7556C13.2576 87.7488 13.2277 87.7391 13.2013 87.7255C13.1813 87.706 13.1747 87.6827 13.1813 87.6563C13.2344 87.2518 13.4497 86.9209 13.8274 86.6622C14.2117 86.4043 14.6921 86.2749 15.2685 86.2749ZM15.03 90.5981C15.3547 90.5981 15.6329 90.5117 15.8648 90.3394C16.0967 90.1672 16.2127 89.9484 16.2127 89.6837V89.2167C16.2127 89.1836 16.1962 89.1671 16.163 89.1671H15.3281C14.977 89.1671 14.6987 89.2333 14.4933 89.3656C14.2945 89.498 14.1951 89.6867 14.1951 89.9319C14.1951 90.1439 14.2714 90.3101 14.4237 90.4289C14.5828 90.5417 14.7848 90.5981 15.03 90.5981ZM22.8265 87.6661C22.9458 88.0038 23.0054 88.4181 23.0054 88.9084C23.0054 89.3792 22.9491 89.783 22.8365 90.1214C22.6907 90.5583 22.4555 90.8997 22.1308 91.1448C21.8128 91.39 21.4086 91.5126 20.9183 91.5126C20.4478 91.5126 20.0702 91.3434 19.7853 91.0057C19.772 90.9922 19.7588 90.9892 19.7456 90.9959C19.7323 91.002 19.7256 91.0155 19.7256 91.035V93.1918C19.7256 93.2248 19.7124 93.2519 19.6859 93.2715C19.666 93.2978 19.6395 93.3113 19.6064 93.3113H18.692C18.6589 93.3113 18.6291 93.2978 18.6026 93.2715C18.5827 93.2519 18.5728 93.2248 18.5728 93.1918V86.4735C18.5728 86.4404 18.5827 86.4141 18.6026 86.3937C18.6291 86.3674 18.6589 86.3539 18.692 86.3539H19.6064C19.6395 86.3539 19.666 86.3674 19.6859 86.3937C19.7124 86.4141 19.7256 86.4404 19.7256 86.4735V86.772C19.7256 86.7915 19.7323 86.8051 19.7456 86.8111C19.7588 86.8179 19.772 86.8111 19.7853 86.7915C20.0768 86.4471 20.4578 86.2749 20.9282 86.2749C21.3987 86.2749 21.7962 86.3975 22.1209 86.6427C22.4456 86.8878 22.6808 87.2285 22.8265 87.6661ZM21.5345 90.1011C21.7333 89.7965 21.8326 89.3919 21.8326 88.8889C21.8326 88.4046 21.7532 88.0241 21.5941 87.7458C21.4086 87.421 21.127 87.2585 20.7493 87.2585C20.4048 87.2585 20.1464 87.418 19.9741 87.7361C19.8217 87.994 19.7456 88.3782 19.7456 88.8889C19.7456 89.4122 19.8284 89.8093 19.994 90.0815C20.1663 90.3725 20.4148 90.5184 20.7394 90.5184C21.0906 90.5184 21.3556 90.3793 21.5345 90.1011ZM24.7792 85.6583C24.5739 85.6583 24.4049 85.5921 24.2724 85.4598C24.1399 85.3274 24.0737 85.1582 24.0737 84.9529C24.0737 84.7476 24.1399 84.5784 24.2724 84.4461C24.4049 84.3137 24.5739 84.2476 24.7792 84.2476C24.9847 84.2476 25.1537 84.3137 25.2862 84.4461C25.4187 84.5784 25.4849 84.7476 25.4849 84.9529C25.4849 85.1582 25.4187 85.3274 25.2862 85.4598C25.1537 85.5921 24.9847 85.6583 24.7792 85.6583ZM24.3022 91.4328C24.2691 91.4328 24.2392 91.4231 24.2128 91.4028C24.1929 91.3764 24.1829 91.3471 24.1829 91.3133V86.4637C24.1829 86.4306 24.1929 86.4043 24.2128 86.384C24.2392 86.3577 24.2691 86.3441 24.3022 86.3441H25.2166C25.2497 86.3441 25.2762 86.3577 25.2961 86.384C25.3226 86.4043 25.3359 86.4306 25.3359 86.4637V91.3133C25.3359 91.3471 25.3226 91.3764 25.2961 91.4028C25.2762 91.4231 25.2497 91.4328 25.2166 91.4328H24.3022ZM29.0915 86.2749C29.6282 86.2749 30.0556 86.4336 30.3736 86.7517C30.6983 87.0698 30.8606 87.5037 30.8606 88.0534V91.3133C30.8606 91.3471 30.8474 91.3764 30.8209 91.4028C30.801 91.4231 30.7745 91.4328 30.7413 91.4328H29.827C29.7939 91.4328 29.7641 91.4231 29.7376 91.4028C29.7177 91.3764 29.7077 91.3471 29.7077 91.3133V88.2925C29.7077 87.9872 29.6216 87.7421 29.4493 87.5571C29.2771 87.3646 29.0485 87.2683 28.7635 87.2683C28.4787 87.2683 28.2468 87.3616 28.0679 87.5465C27.8956 87.7323 27.8094 87.9774 27.8094 88.282V91.3133C27.8094 91.3471 27.7962 91.3764 27.7697 91.4028C27.7498 91.4231 27.7233 91.4328 27.6902 91.4328H26.7758C26.7427 91.4328 26.7128 91.4231 26.6864 91.4028C26.6664 91.3764 26.6565 91.3471 26.6565 91.3133V86.4735C26.6565 86.4404 26.6664 86.4141 26.6864 86.3937C26.7128 86.3674 26.7427 86.3539 26.7758 86.3539H27.6902C27.7233 86.3539 27.7498 86.3674 27.7697 86.3937C27.7962 86.4141 27.8094 86.4404 27.8094 86.4735V86.7915C27.8094 86.8111 27.8161 86.8246 27.8293 86.8314C27.8426 86.8382 27.8525 86.8314 27.8591 86.8111C28.1308 86.4539 28.5416 86.2749 29.0915 86.2749ZM35.1735 86.4735C35.1735 86.4404 35.1834 86.4141 35.2034 86.3937C35.2298 86.3674 35.2597 86.3539 35.2928 86.3539H36.2071C36.2403 86.3539 36.2668 86.3674 36.2867 86.3937C36.3132 86.4141 36.3264 86.4404 36.3264 86.4735V91.0952C36.3264 91.9231 36.0879 92.5127 35.6108 92.8639C35.1404 93.2218 34.5209 93.4008 33.7522 93.4008C33.5469 93.4008 33.3448 93.391 33.146 93.3707C33.0731 93.3647 33.0366 93.3211 33.0366 93.2421L33.0665 92.427C33.0665 92.354 33.1129 92.3172 33.2056 92.3172C33.3978 92.3375 33.57 92.3473 33.7225 92.3473C34.2194 92.3473 34.5838 92.248 34.8157 92.0495C35.0542 91.857 35.1735 91.5291 35.1735 91.0651V90.9854C35.1735 90.9659 35.1669 90.9561 35.1537 90.9561C35.1404 90.9493 35.1271 90.9523 35.1139 90.9659C34.8423 91.2576 34.4579 91.4028 33.961 91.4028C33.5303 91.4028 33.1361 91.2937 32.7783 91.0749C32.4205 90.8568 32.172 90.5222 32.0329 90.071C31.9467 89.7597 31.9037 89.3588 31.9037 88.8685C31.9037 88.3188 31.9566 87.8977 32.0627 87.6067C32.1952 87.2021 32.4238 86.881 32.7485 86.6427C33.0731 86.3975 33.4541 86.2749 33.8914 86.2749C34.4148 86.2749 34.8223 86.4268 35.1139 86.7321C35.1271 86.7517 35.1404 86.7585 35.1537 86.7517C35.1669 86.7449 35.1735 86.7321 35.1735 86.7118V86.4735ZM35.1039 89.7431C35.1304 89.6439 35.147 89.5378 35.1537 89.425C35.1669 89.3062 35.1735 89.1175 35.1735 88.8588C35.1735 88.6069 35.1669 88.4279 35.1537 88.3219C35.147 88.2098 35.1271 88.1 35.094 87.994C35.041 87.7751 34.9317 87.5999 34.766 87.4676C34.607 87.3345 34.4016 87.2683 34.1498 87.2683C33.9113 87.2683 33.7092 87.3345 33.5436 87.4676C33.3779 87.5999 33.2586 87.7751 33.1858 87.994C33.1063 88.1797 33.0665 88.4715 33.0665 88.8685C33.0665 89.2791 33.0996 89.5679 33.1659 89.7333C33.2322 89.9454 33.3514 90.1214 33.5237 90.2605C33.7026 90.3928 33.9146 90.459 34.1597 90.459C34.4181 90.459 34.6269 90.3928 34.7859 90.2605C34.9449 90.1274 35.0509 89.9552 35.1039 89.7431ZM39.7232 91.4328C39.6906 91.4328 39.6612 91.4231 39.6351 91.4035C39.6155 91.3772 39.6057 91.3479 39.6057 91.3155V84.695C39.6057 84.6627 39.6155 84.6363 39.6351 84.6168C39.6612 84.5912 39.6906 84.5777 39.7232 84.5777H40.6242C40.6568 84.5777 40.683 84.5912 40.7025 84.6168C40.7286 84.6363 40.7417 84.6627 40.7417 84.695V87.6233C40.7417 87.6428 40.7482 87.6563 40.7613 87.6624C40.7743 87.6691 40.7874 87.6661 40.8004 87.6526L43.3466 84.6461C43.3858 84.601 43.4347 84.5777 43.4935 84.5777H44.512C44.5772 84.5777 44.61 84.601 44.61 84.6461C44.61 84.6657 44.6001 84.692 44.5806 84.7251L42.338 87.4766C42.3184 87.5029 42.3151 87.5255 42.3282 87.545L44.7373 91.296C44.7503 91.3351 44.7568 91.3576 44.7568 91.3644C44.7568 91.4103 44.7242 91.4328 44.6589 91.4328H43.6306C43.5719 91.4328 43.5262 91.4065 43.4935 91.3546L41.5545 88.3384C41.5284 88.2993 41.5056 88.2955 41.486 88.3286L40.7613 89.1708C40.7482 89.1972 40.7417 89.2197 40.7417 89.2393V91.3155C40.7417 91.3479 40.7286 91.3772 40.7025 91.4035C40.683 91.4231 40.6568 91.4328 40.6242 91.4328H39.7232ZM49.5142 88.3677C49.5403 88.5309 49.5534 88.7136 49.5534 88.9159L49.5436 89.2197C49.5436 89.2979 49.5044 89.337 49.4261 89.337H46.3609C46.3283 89.337 46.3119 89.3536 46.3119 89.3859C46.3315 89.6017 46.3609 89.7484 46.4001 89.8266C46.5567 90.2966 46.9386 90.535 47.5458 90.5417C47.9898 90.5417 48.3423 90.359 48.6035 89.9935C48.6296 89.9544 48.6622 89.9349 48.7014 89.9349C48.7275 89.9349 48.7503 89.9447 48.7699 89.9642L49.3771 90.4635C49.4359 90.5094 49.4456 90.5613 49.4065 90.6199C49.2041 90.9072 48.9332 91.129 48.5936 91.2862C48.2607 91.4426 47.8886 91.5208 47.4773 91.5208C46.9681 91.5208 46.5339 91.4065 46.1748 91.1787C45.8222 90.9501 45.5644 90.6297 45.4011 90.2184C45.251 89.8657 45.1759 89.3761 45.1759 88.7497C45.1759 88.3707 45.2151 88.0639 45.2934 87.8293C45.424 87.3721 45.6688 87.0134 46.0279 86.7517C46.3935 86.484 46.831 86.3501 47.3401 86.3501C48.6263 86.3501 49.351 87.0232 49.5142 88.3677ZM47.3401 87.33C47.0986 87.33 46.8962 87.3916 46.733 87.5157C46.5763 87.633 46.4653 87.8 46.4001 88.015C46.3609 88.1263 46.3347 88.27 46.3217 88.4459C46.3086 88.479 46.3217 88.4948 46.3609 88.4948H48.3489C48.3815 88.4948 48.3978 88.479 48.3978 88.4459C48.3847 88.2827 48.3652 88.1587 48.3391 88.0737C48.2803 87.8391 48.1627 87.6563 47.9865 87.5255C47.8168 87.3946 47.6013 87.33 47.3401 87.33ZM52.9223 86.3697C53.1312 86.3697 53.314 86.4125 53.4707 86.4975C53.5229 86.5231 53.5425 86.5727 53.5295 86.6442L53.363 87.5255C53.3564 87.6037 53.3107 87.627 53.2259 87.5939C53.1279 87.5616 53.0137 87.545 52.8831 87.545C52.7982 87.545 52.733 87.5481 52.6873 87.5548C52.4131 87.5676 52.1845 87.6661 52.0017 87.8488C51.8189 88.0248 51.7276 88.2564 51.7276 88.5437V91.3155C51.7276 91.3479 51.7145 91.3772 51.6884 91.4035C51.6688 91.4231 51.6427 91.4328 51.61 91.4328H50.7091C50.6764 91.4328 50.6471 91.4231 50.6209 91.4035C50.6014 91.3772 50.5916 91.3479 50.5916 91.3155V86.5464C50.5916 86.5133 50.6014 86.4877 50.6209 86.4682C50.6471 86.4419 50.6764 86.4291 50.7091 86.4291H51.61C51.6427 86.4291 51.6688 86.4419 51.6884 86.4682C51.7145 86.4877 51.7276 86.5133 51.7276 86.5464V86.9871C51.7276 87.0134 51.7308 87.0292 51.7373 87.0359C51.7504 87.0359 51.7634 87.0262 51.7765 87.0066C52.0507 86.5825 52.4326 86.3697 52.9223 86.3697ZM56.1353 86.3501C56.5466 86.3501 56.9089 86.4223 57.2223 86.5659C57.5357 86.7096 57.7773 86.9089 57.947 87.163C58.1167 87.4112 58.2016 87.6954 58.2016 88.015V91.3155C58.2016 91.3479 58.1885 91.3772 58.1624 91.4035C58.1429 91.4231 58.1167 91.4328 58.0841 91.4328H57.1832C57.1505 91.4328 57.1212 91.4231 57.095 91.4035C57.0754 91.3772 57.0657 91.3479 57.0657 91.3155V91.0019C57.0657 90.9824 57.0591 90.9726 57.046 90.9726C57.033 90.9659 57.0199 90.9696 57.0068 90.9824C56.687 91.3351 56.2234 91.511 55.6163 91.511C55.1266 91.511 54.7218 91.387 54.4019 91.1388C54.0886 90.8914 53.9319 90.5222 53.9319 90.0326C53.9319 89.5235 54.1081 89.128 54.4607 88.8475C54.8198 88.5602 55.3225 88.4166 55.9688 88.4166H57.0167C57.0493 88.4166 57.0657 88.4001 57.0657 88.3677V88.1324C57.0657 87.8782 56.9905 87.6819 56.8404 87.545C56.6903 87.4014 56.465 87.33 56.1647 87.33C55.9166 87.33 55.7142 87.3751 55.5575 87.4668C55.4074 87.5518 55.3127 87.6721 55.2735 87.8293C55.254 87.9075 55.2082 87.9398 55.1364 87.9271L54.1865 87.8097C54.1539 87.803 54.1245 87.7932 54.0984 87.7804C54.0788 87.7609 54.0723 87.7376 54.0788 87.7112C54.131 87.3134 54.3432 86.9871 54.7153 86.7321C55.094 86.478 55.5673 86.3501 56.1353 86.3501ZM55.9003 90.6102C56.2202 90.6102 56.4944 90.5252 56.7229 90.356C56.9514 90.186 57.0657 89.9702 57.0657 89.7093V89.2491C57.0657 89.2167 57.0493 89.2002 57.0167 89.2002H56.1941C55.848 89.2002 55.5739 89.2656 55.3715 89.3957C55.1756 89.5265 55.0777 89.7123 55.0777 89.9544C55.0777 90.1627 55.1527 90.3267 55.3029 90.444C55.4596 90.5545 55.6588 90.6102 55.9003 90.6102ZM59.4596 91.4328C59.427 91.4328 59.3976 91.4231 59.3715 91.4035C59.3519 91.3772 59.3421 91.3479 59.3421 91.3155V84.695C59.3421 84.6627 59.3519 84.6363 59.3715 84.6168C59.3976 84.5912 59.427 84.5777 59.4596 84.5777H60.3606C60.3932 84.5777 60.4193 84.5912 60.4389 84.6168C60.465 84.6363 60.4781 84.6627 60.4781 84.695V91.3155C60.4781 91.3479 60.465 91.3772 60.4389 91.4035C60.4193 91.4231 60.3932 91.4328 60.3606 91.4328H59.4596ZM63.5947 86.3501C64.0061 86.3501 64.3684 86.4223 64.6818 86.5659C64.9952 86.7096 65.2367 86.9089 65.4065 87.163C65.5763 87.4112 65.6611 87.6954 65.6611 88.015V91.3155C65.6611 91.3479 65.6481 91.3772 65.6219 91.4035C65.6023 91.4231 65.5762 91.4328 65.5436 91.4328H64.6427C64.61 91.4328 64.5806 91.4231 64.5545 91.4035C64.5349 91.3772 64.5251 91.3479 64.5251 91.3155V91.0019C64.5251 90.9824 64.5186 90.9726 64.5056 90.9726C64.4925 90.9659 64.4794 90.9696 64.4664 90.9824C64.1465 91.3351 63.6829 91.511 63.0757 91.511C62.5861 91.511 62.1813 91.387 61.8614 91.1388C61.5481 90.8914 61.3913 90.5222 61.3913 90.0326C61.3913 89.5235 61.5676 89.128 61.9202 88.8475C62.2793 88.5602 62.782 88.4166 63.4283 88.4166H64.4762C64.5088 88.4166 64.5251 88.4001 64.5251 88.3677V88.1324C64.5251 87.8782 64.4501 87.6819 64.2999 87.545C64.1497 87.4014 63.9245 87.33 63.6241 87.33C63.3761 87.33 63.1737 87.3751 63.017 87.4668C62.8668 87.5518 62.7721 87.6721 62.733 87.8293C62.7134 87.9075 62.6677 87.9398 62.5959 87.9271L61.646 87.8097C61.6133 87.803 61.584 87.7932 61.5578 87.7804C61.5383 87.7609 61.5317 87.7376 61.5383 87.7112C61.5905 87.3134 61.8027 86.9871 62.1748 86.7321C62.5535 86.478 63.0268 86.3501 63.5947 86.3501ZM63.3598 90.6102C63.6796 90.6102 63.9538 90.5252 64.1824 90.356C64.4109 90.186 64.5251 89.9702 64.5251 89.7093V89.2491C64.5251 89.2167 64.5088 89.2002 64.4762 89.2002H63.6536C63.3075 89.2002 63.0333 89.2656 62.831 89.3957C62.6351 89.5265 62.5371 89.7123 62.5371 89.9544C62.5371 90.1627 62.6122 90.3267 62.7624 90.444C62.9191 90.5545 63.1182 90.6102 63.3598 90.6102ZM67.6575 84.5777C67.7032 84.5777 67.7326 84.5912 67.7456 84.6168C67.7587 84.6431 67.7587 84.6754 67.7456 84.7153L66.9719 86.6246C66.9524 86.6833 66.9067 86.7126 66.8349 86.7126H66.169C66.1298 86.7126 66.1004 86.7028 66.0808 86.6833C66.0677 86.6569 66.0645 86.6246 66.071 86.5855L66.6194 84.6754C66.639 84.6108 66.6847 84.5777 66.7565 84.5777H67.6575ZM69.5995 91.4915C69.1881 91.4915 68.8258 91.4328 68.5125 91.3155C68.2056 91.1915 67.9673 91.0245 67.7976 90.8162C67.6278 90.6004 67.5429 90.362 67.5429 90.1011V90.0131C67.5429 89.98 67.5527 89.9544 67.5723 89.9349C67.5984 89.9086 67.6278 89.8958 67.6605 89.8958H68.5223C68.5549 89.8958 68.581 89.9086 68.6006 89.9349C68.6267 89.9544 68.6398 89.98 68.6398 90.0131V90.0326C68.6398 90.1958 68.7279 90.3394 68.9042 90.4635C69.087 90.5808 69.3155 90.6395 69.5897 90.6395C69.8508 90.6395 70.063 90.5876 70.2262 90.4831C70.3895 90.3718 70.471 90.2349 70.471 90.0717C70.471 89.9213 70.4025 89.8108 70.2654 89.7386C70.1348 89.6604 69.9194 89.5784 69.619 89.4942L69.2469 89.3761C68.914 89.2784 68.6332 89.1739 68.4047 89.0633C68.1763 88.952 67.9836 88.8016 67.827 88.6129C67.6702 88.4166 67.5919 88.1684 67.5919 87.8684C67.5919 87.4112 67.7715 87.0487 68.1305 86.781C68.4896 86.5073 68.9629 86.3697 69.5505 86.3697C69.9488 86.3697 70.298 86.4351 70.5984 86.5659C70.8987 86.69 71.1305 86.866 71.2936 87.0946C71.4568 87.3164 71.5385 87.5714 71.5385 87.8586C71.5385 87.891 71.5254 87.9203 71.4993 87.9466C71.4797 87.9662 71.4536 87.9759 71.421 87.9759H70.5886C70.5559 87.9759 70.5265 87.9662 70.5004 87.9466C70.4808 87.9203 70.471 87.891 70.471 87.8586C70.471 87.6887 70.3861 87.5481 70.2164 87.4375C70.0532 87.3202 69.8279 87.2608 69.5407 87.2608C69.2861 87.2608 69.0771 87.3104 68.914 87.4082C68.7572 87.4992 68.679 87.63 68.679 87.8C68.679 87.9564 68.754 88.0775 68.9042 88.1624C69.0608 88.2406 69.3188 88.3286 69.6778 88.4264L69.8933 88.485C70.2393 88.5896 70.5298 88.6971 70.7648 88.8084C70.9998 88.9129 71.199 89.0633 71.3622 89.2588C71.5254 89.4483 71.607 89.6965 71.607 90.0033C71.607 90.4665 71.4242 90.832 71.0586 91.0997C70.693 91.3614 70.2066 91.4915 69.5995 91.4915ZM76.9283 91.511C76.4388 91.511 76.0079 91.4163 75.6354 91.2275C75.2633 91.0313 74.9761 90.7606 74.7736 90.4146C74.5713 90.0687 74.4701 89.6672 74.4701 89.21V86.7908C74.4701 86.3343 74.5713 85.9328 74.7736 85.5869C74.9761 85.2402 75.2633 84.9725 75.6354 84.7837C76.0079 84.5942 76.4388 84.4995 76.9283 84.4995C77.4111 84.4995 77.839 84.5912 78.2112 84.774C78.5835 84.9567 78.8707 85.2146 79.073 85.547C79.2753 85.8801 79.3761 86.2652 79.3761 86.7028C79.3761 86.7359 79.3633 86.7652 79.337 86.7908C79.3174 86.8103 79.2918 86.8201 79.2588 86.8201L78.3579 86.8698C78.2797 86.8698 78.2405 86.8337 78.2405 86.7615C78.2405 86.3765 78.1195 86.0666 77.8781 85.8313C77.6427 85.5966 77.3261 85.4786 76.9283 85.4786C76.5298 85.4786 76.2102 85.5966 75.9688 85.8313C75.7269 86.0666 75.6061 86.3765 75.6061 86.7615V89.2588C75.6061 89.6378 75.7269 89.9447 75.9688 90.1793C76.2102 90.4146 76.5298 90.532 76.9283 90.532C77.3261 90.532 77.6427 90.4177 77.8781 90.189C78.1195 89.9544 78.2405 89.6439 78.2405 89.2588C78.2405 89.1874 78.2797 89.1513 78.3579 89.1513L79.2588 89.1904C79.2918 89.1904 79.3174 89.2002 79.337 89.2197C79.3633 89.2393 79.3761 89.2618 79.3761 89.2882C79.3761 89.7318 79.2753 90.1236 79.073 90.4635C78.8707 90.7967 78.5835 91.0546 78.2112 91.2373C77.839 91.4201 77.4111 91.511 76.9283 91.511ZM83.4443 86.5464C83.4443 86.5133 83.4541 86.4877 83.4737 86.4682C83.5 86.4419 83.5293 86.4291 83.5617 86.4291H84.4528C84.4858 86.4291 84.5114 86.4419 84.5317 86.4682C84.5573 86.4877 84.5708 86.5133 84.5708 86.5464V91.3155C84.5708 91.3479 84.5573 91.3772 84.5317 91.4035C84.5114 91.4231 84.4858 91.4328 84.4528 91.4328H83.5617C83.5293 91.4328 83.5 91.4231 83.4737 91.4035C83.4541 91.3772 83.4443 91.3479 83.4443 91.3155V91.0019C83.4443 90.9824 83.4376 90.9696 83.4248 90.9629C83.412 90.9561 83.3985 90.9629 83.3857 90.9824C83.118 91.3283 82.7164 91.5013 82.181 91.5013C81.6847 91.5013 81.2673 91.3576 80.9274 91.0704C80.5943 90.7831 80.4281 90.3755 80.4281 89.8461V86.5464C80.4281 86.5133 80.4379 86.4877 80.4574 86.4682C80.4837 86.4419 80.5131 86.4291 80.5454 86.4291H81.4463C81.4794 86.4291 81.5057 86.4419 81.5253 86.4682C81.5508 86.4877 81.5644 86.5133 81.5644 86.5464V89.5235C81.5644 89.8304 81.6426 90.0747 81.799 90.2575C81.9622 90.4402 82.1878 90.532 82.475 90.532C82.7683 90.532 83.0037 90.4402 83.1796 90.2575C83.3564 90.0747 83.4443 89.8304 83.4443 89.5235V86.5464ZM85.9026 91.4328C85.8695 91.4328 85.8402 91.4231 85.8146 91.4035C85.7951 91.3772 85.7853 91.3479 85.7853 91.3155V84.695C85.7853 84.6627 85.7951 84.6363 85.8146 84.6168C85.8402 84.5912 85.8695 84.5777 85.9026 84.5777H86.8035C86.8358 84.5777 86.8621 84.5912 86.8817 84.6168C86.908 84.6363 86.9208 84.6627 86.9208 84.695V91.3155C86.9208 91.3479 86.908 91.3772 86.8817 91.4035C86.8621 91.4231 86.8358 91.4328 86.8035 91.4328H85.9026ZM90.7823 87.2315C90.7823 87.2646 90.7687 87.2939 90.7424 87.3202C90.7229 87.3397 90.6973 87.3495 90.6642 87.3495H89.6656C89.6332 87.3495 89.6167 87.3653 89.6167 87.3984V89.7582C89.6167 90.0063 89.6686 90.186 89.7731 90.2966C89.8844 90.4079 90.0574 90.4635 90.292 90.4635H90.586C90.6183 90.4635 90.6447 90.4763 90.6642 90.5026C90.6905 90.5222 90.7033 90.5485 90.7033 90.5808V91.3155C90.7033 91.387 90.6642 91.4298 90.586 91.4426L90.0769 91.4524C89.561 91.4524 89.176 91.3644 88.9211 91.1884C88.6669 91.0117 88.5361 90.6786 88.5293 90.189V87.3984C88.5293 87.3653 88.5135 87.3495 88.4804 87.3495H87.9225C87.8894 87.3495 87.86 87.3397 87.8345 87.3202C87.8149 87.2939 87.8051 87.2646 87.8051 87.2315V86.5464C87.8051 86.5133 87.8149 86.4877 87.8345 86.4682C87.86 86.4419 87.8894 86.4291 87.9225 86.4291H88.4804C88.5135 86.4291 88.5293 86.4125 88.5293 86.3795V85.2342C88.5293 85.2011 88.5391 85.1755 88.5586 85.156C88.585 85.1296 88.6143 85.1161 88.6474 85.1161H89.4994C89.5317 85.1161 89.558 85.1296 89.5776 85.156C89.6032 85.1755 89.6167 85.2011 89.6167 85.2342V86.3795C89.6167 86.4125 89.6332 86.4291 89.6656 86.4291H90.6642C90.6973 86.4291 90.7229 86.4419 90.7424 86.4682C90.7687 86.4877 90.7823 86.5133 90.7823 86.5464V87.2315ZM94.7483 86.5464C94.7483 86.5133 94.7581 86.4877 94.7776 86.4682C94.8039 86.4419 94.8333 86.4291 94.8656 86.4291H95.7567C95.7898 86.4291 95.8154 86.4419 95.8357 86.4682C95.8612 86.4877 95.8748 86.5133 95.8748 86.5464V91.3155C95.8748 91.3479 95.8612 91.3772 95.8357 91.4035C95.8154 91.4231 95.7898 91.4328 95.7567 91.4328H94.8656C94.8333 91.4328 94.8039 91.4231 94.7776 91.4035C94.7581 91.3772 94.7483 91.3479 94.7483 91.3155V91.0019C94.7483 90.9824 94.7415 90.9696 94.7287 90.9629C94.716 90.9561 94.7024 90.9629 94.6896 90.9824C94.4219 91.3283 94.0204 91.5013 93.4849 91.5013C92.9886 91.5013 92.5713 91.3576 92.2314 91.0704C91.8982 90.7831 91.732 90.3755 91.732 89.8461V86.5464C91.732 86.5133 91.7418 86.4877 91.7614 86.4682C91.7877 86.4419 91.817 86.4291 91.8493 86.4291H92.7502C92.7833 86.4291 92.8096 86.4419 92.8292 86.4682C92.8548 86.4877 92.8683 86.5133 92.8683 86.5464V89.5235C92.8683 89.8304 92.9465 90.0747 93.1029 90.2575C93.2661 90.4402 93.4917 90.532 93.779 90.532C94.0722 90.532 94.3076 90.4402 94.4836 90.2575C94.6603 90.0747 94.7483 89.8304 94.7483 89.5235V86.5464ZM99.4197 86.3697C99.6287 86.3697 99.8115 86.4125 99.9679 86.4975C100.021 86.5231 100.04 86.5727 100.027 86.6442L99.8603 87.5255C99.8536 87.6037 99.8084 87.627 99.7235 87.5939C99.6257 87.5616 99.5114 87.545 99.3806 87.545C99.2956 87.545 99.2302 87.5481 99.1843 87.5548C98.9106 87.5676 98.682 87.6661 98.4992 87.8488C98.3165 88.0248 98.2247 88.2564 98.2247 88.5437V91.3155C98.2247 91.3479 98.212 91.3772 98.1856 91.4035C98.1661 91.4231 98.1398 91.4328 98.1074 91.4328H97.2065C97.1742 91.4328 97.1441 91.4231 97.1186 91.4035C97.099 91.3772 97.0892 91.3479 97.0892 91.3155V86.5464C97.0892 86.5133 97.099 86.4877 97.1186 86.4682C97.1441 86.4419 97.1742 86.4291 97.2065 86.4291H98.1074C98.1398 86.4291 98.1661 86.4419 98.1856 86.4682C98.212 86.4877 98.2247 86.5133 98.2247 86.5464V86.9871C98.2247 87.0134 98.2285 87.0292 98.2345 87.0359C98.2481 87.0359 98.2608 87.0262 98.2736 87.0066C98.5481 86.5825 98.9301 86.3697 99.4197 86.3697ZM102.633 86.3501C103.044 86.3501 103.406 86.4223 103.72 86.5659C104.033 86.7096 104.275 86.9089 104.444 87.163C104.614 87.4112 104.699 87.6954 104.699 88.015V91.3155C104.699 91.3479 104.686 91.3772 104.66 91.4035C104.64 91.4231 104.614 91.4328 104.581 91.4328H103.68C103.648 91.4328 103.619 91.4231 103.592 91.4035C103.573 91.3772 103.563 91.3479 103.563 91.3155V91.0019C103.563 90.9824 103.556 90.9726 103.544 90.9726C103.53 90.9659 103.517 90.9696 103.504 90.9824C103.184 91.3351 102.721 91.511 102.114 91.511C101.624 91.511 101.219 91.387 100.9 91.1388C100.586 90.8914 100.43 90.5222 100.43 90.0326C100.43 89.5235 100.606 89.128 100.958 88.8475C101.317 88.5602 101.82 88.4166 102.466 88.4166H103.514C103.547 88.4166 103.563 88.4001 103.563 88.3677V88.1324C103.563 87.8782 103.488 87.6819 103.338 87.545C103.188 87.4014 102.962 87.33 102.662 87.33C102.414 87.33 102.212 87.3751 102.055 87.4668C101.905 87.5518 101.81 87.6721 101.771 87.8293C101.752 87.9075 101.706 87.9398 101.634 87.9271L100.684 87.8097C100.651 87.803 100.622 87.7932 100.596 87.7804C100.576 87.7609 100.569 87.7376 100.576 87.7112C100.628 87.3134 100.841 86.9871 101.212 86.7321C101.591 86.478 102.064 86.3501 102.633 86.3501ZM102.398 90.6102C102.718 90.6102 102.992 90.5252 103.22 90.356C103.449 90.186 103.563 89.9702 103.563 89.7093V89.2491C103.563 89.2167 103.547 89.2002 103.514 89.2002H102.692C102.346 89.2002 102.071 89.2656 101.869 89.3957C101.673 89.5265 101.575 89.7123 101.575 89.9544C101.575 90.1627 101.65 90.3267 101.8 90.444C101.957 90.5545 102.156 90.6102 102.398 90.6102ZM105.957 91.4328C105.924 91.4328 105.895 91.4231 105.869 91.4035C105.849 91.3772 105.839 91.3479 105.839 91.3155V84.695C105.839 84.6627 105.849 84.6363 105.869 84.6168C105.895 84.5912 105.924 84.5777 105.957 84.5777H106.858C106.891 84.5777 106.917 84.5912 106.937 84.6168C106.962 84.6363 106.976 84.6627 106.976 84.695V91.3155C106.976 91.3479 106.962 91.3772 106.937 91.4035C106.917 91.4231 106.891 91.4328 106.858 91.4328H105.957ZM112.543 91.511C112.052 91.511 111.621 91.4163 111.25 91.2275C110.878 91.0313 110.591 90.7606 110.388 90.4146C110.185 90.0687 110.084 89.6672 110.084 89.21V86.7908C110.084 86.3343 110.185 85.9328 110.388 85.5869C110.591 85.2402 110.878 84.9725 111.25 84.7837C111.621 84.5942 112.052 84.4995 112.543 84.4995C113.025 84.4995 113.453 84.5912 113.825 84.774C114.197 84.9567 114.484 85.2146 114.687 85.547C114.89 85.8801 114.99 86.2652 114.99 86.7028C114.99 86.7359 114.978 86.7652 114.951 86.7908C114.932 86.8103 114.905 86.8201 114.873 86.8201L113.972 86.8698C113.894 86.8698 113.855 86.8337 113.855 86.7615C113.855 86.3765 113.734 86.0666 113.492 85.8313C113.257 85.5966 112.94 85.4786 112.543 85.4786C112.144 85.4786 111.825 85.5966 111.582 85.8313C111.341 86.0666 111.22 86.3765 111.22 86.7615V89.2588C111.22 89.6378 111.341 89.9447 111.582 90.1793C111.825 90.4146 112.144 90.532 112.543 90.532C112.94 90.532 113.257 90.4177 113.492 90.189C113.734 89.9544 113.855 89.6439 113.855 89.2588C113.855 89.1874 113.894 89.1513 113.972 89.1513L114.873 89.1904C114.905 89.1904 114.932 89.2002 114.951 89.2197C114.978 89.2393 114.99 89.2618 114.99 89.2882C114.99 89.7318 114.89 90.1236 114.687 90.4635C114.484 90.7967 114.197 91.0546 113.825 91.2373C113.453 91.4201 113.025 91.511 112.543 91.511ZM118.432 86.3697C118.641 86.3697 118.823 86.4125 118.98 86.4975C119.032 86.5231 119.052 86.5727 119.039 86.6442L118.872 87.5255C118.866 87.6037 118.82 87.627 118.735 87.5939C118.638 87.5616 118.523 87.545 118.392 87.545C118.307 87.545 118.243 87.5481 118.197 87.5548C117.922 87.5676 117.694 87.6661 117.511 87.8488C117.328 88.0248 117.237 88.2564 117.237 88.5437V91.3155C117.237 91.3479 117.224 91.3772 117.198 91.4035C117.178 91.4231 117.152 91.4328 117.119 91.4328H116.218C116.186 91.4328 116.157 91.4231 116.13 91.4035C116.111 91.3772 116.101 91.3479 116.101 91.3155V86.5464C116.101 86.5133 116.111 86.4877 116.13 86.4682C116.157 86.4419 116.186 86.4291 116.218 86.4291H117.119C117.152 86.4291 117.178 86.4419 117.198 86.4682C117.224 86.4877 117.237 86.5133 117.237 86.5464V86.9871C117.237 87.0134 117.24 87.0292 117.247 87.0359C117.26 87.0359 117.273 87.0262 117.286 87.0066C117.56 86.5825 117.942 86.3697 118.432 86.3697ZM123.908 88.3677C123.934 88.5309 123.947 88.7136 123.947 88.9159L123.938 89.2197C123.938 89.2979 123.899 89.337 123.82 89.337H120.754C120.722 89.337 120.706 89.3536 120.706 89.3859C120.725 89.6017 120.754 89.7484 120.794 89.8266C120.951 90.2966 121.333 90.535 121.94 90.5417C122.384 90.5417 122.736 90.359 122.998 89.9935C123.023 89.9544 123.056 89.9349 123.095 89.9349C123.122 89.9349 123.144 89.9447 123.164 89.9642L123.771 90.4635C123.83 90.5094 123.84 90.5613 123.801 90.6199C123.598 90.9072 123.327 91.129 122.988 91.2862C122.655 91.4426 122.282 91.5208 121.871 91.5208C121.362 91.5208 120.928 91.4065 120.569 91.1787C120.216 90.9501 119.958 90.6297 119.795 90.2184C119.645 89.8657 119.57 89.3761 119.57 88.7497C119.57 88.3707 119.609 88.0639 119.687 87.8293C119.818 87.3721 120.063 87.0134 120.422 86.7517C120.788 86.484 121.225 86.3501 121.734 86.3501C123.02 86.3501 123.745 87.0232 123.908 88.3677ZM121.734 87.33C121.493 87.33 121.29 87.3916 121.127 87.5157C120.97 87.633 120.859 87.8 120.794 88.015C120.754 88.1263 120.729 88.27 120.715 88.4459C120.703 88.479 120.715 88.4948 120.754 88.4948H122.743C122.775 88.4948 122.792 88.479 122.792 88.4459C122.779 88.2827 122.759 88.1587 122.733 88.0737C122.674 87.8391 122.557 87.6563 122.38 87.5255C122.211 87.3946 121.995 87.33 121.734 87.33ZM126.847 86.3501C127.258 86.3501 127.621 86.4223 127.934 86.5659C128.248 86.7096 128.489 86.9089 128.659 87.163C128.829 87.4112 128.914 87.6954 128.914 88.015V91.3155C128.914 91.3479 128.901 91.3772 128.874 91.4035C128.855 91.4231 128.829 91.4328 128.796 91.4328H127.895C127.862 91.4328 127.833 91.4231 127.807 91.4035C127.787 91.3772 127.777 91.3479 127.777 91.3155V91.0019C127.777 90.9824 127.771 90.9726 127.758 90.9726C127.745 90.9659 127.732 90.9696 127.719 90.9824C127.399 91.3351 126.936 91.511 126.328 91.511C125.839 91.511 125.434 91.387 125.114 91.1388C124.801 90.8914 124.644 90.5222 124.644 90.0326C124.644 89.5235 124.82 89.128 125.172 88.8475C125.532 88.5602 126.034 88.4166 126.681 88.4166H127.728C127.761 88.4166 127.777 88.4001 127.777 88.3677V88.1324C127.777 87.8782 127.703 87.6819 127.552 87.545C127.402 87.4014 127.177 87.33 126.876 87.33C126.628 87.33 126.426 87.3751 126.27 87.4668C126.119 87.5518 126.024 87.6721 125.985 87.8293C125.966 87.9075 125.92 87.9398 125.848 87.9271L124.899 87.8097C124.866 87.803 124.836 87.7932 124.811 87.7804C124.791 87.7609 124.784 87.7376 124.791 87.7112C124.843 87.3134 125.055 86.9871 125.427 86.7321C125.806 86.478 126.279 86.3501 126.847 86.3501ZM126.612 90.6102C126.932 90.6102 127.207 90.5252 127.435 90.356C127.664 90.186 127.777 89.9702 127.777 89.7093V89.2491C127.777 89.2167 127.761 89.2002 127.728 89.2002H126.906C126.56 89.2002 126.286 89.2656 126.084 89.3957C125.888 89.5265 125.79 89.7123 125.79 89.9544C125.79 90.1627 125.865 90.3267 126.015 90.444C126.172 90.5545 126.371 90.6102 126.612 90.6102ZM132.631 87.2315C132.631 87.2646 132.619 87.2939 132.592 87.3202C132.573 87.3397 132.546 87.3495 132.514 87.3495H131.515C131.482 87.3495 131.466 87.3653 131.466 87.3984V89.7582C131.466 90.0063 131.518 90.186 131.623 90.2966C131.734 90.4079 131.906 90.4635 132.142 90.4635H132.436C132.468 90.4635 132.495 90.4763 132.514 90.5026C132.54 90.5222 132.553 90.5485 132.553 90.5808V91.3155C132.553 91.387 132.514 91.4298 132.436 91.4426L131.926 91.4524C131.411 91.4524 131.025 91.3644 130.771 91.1884C130.516 91.0117 130.386 90.6786 130.379 90.189V87.3984C130.379 87.3653 130.363 87.3495 130.33 87.3495H129.772C129.739 87.3495 129.71 87.3397 129.684 87.3202C129.664 87.2939 129.654 87.2646 129.654 87.2315V86.5464C129.654 86.5133 129.664 86.4877 129.684 86.4682C129.71 86.4419 129.739 86.4291 129.772 86.4291H130.33C130.363 86.4291 130.379 86.4125 130.379 86.3795V85.2342C130.379 85.2011 130.389 85.1755 130.409 85.156C130.435 85.1296 130.464 85.1161 130.496 85.1161H131.348C131.382 85.1161 131.407 85.1296 131.427 85.156C131.453 85.1755 131.466 85.2011 131.466 85.2342V86.3795C131.466 86.4125 131.482 86.4291 131.515 86.4291H132.514C132.546 86.4291 132.573 86.4419 132.592 86.4682C132.619 86.4877 132.631 86.5133 132.631 86.5464V87.2315ZM134.287 85.7433C134.084 85.7433 133.918 85.6778 133.787 85.547C133.656 85.4169 133.592 85.25 133.592 85.0477C133.592 84.8454 133.656 84.6792 133.787 84.5484C133.918 84.4183 134.084 84.3528 134.287 84.3528C134.489 84.3528 134.656 84.4183 134.786 84.5484C134.917 84.6792 134.982 84.8454 134.982 85.0477C134.982 85.25 134.917 85.4169 134.786 85.547C134.656 85.6778 134.489 85.7433 134.287 85.7433ZM133.817 91.4328C133.784 91.4328 133.755 91.4231 133.729 91.4035C133.709 91.3772 133.699 91.3479 133.699 91.3155V86.5366C133.699 86.5035 133.709 86.478 133.729 86.4584C133.755 86.4321 133.784 86.4186 133.817 86.4186H134.717C134.751 86.4186 134.776 86.4321 134.796 86.4584C134.822 86.478 134.835 86.5035 134.835 86.5366V91.3155C134.835 91.3479 134.822 91.3772 134.796 91.4035C134.776 91.4231 134.751 91.4328 134.717 91.4328H133.817ZM137.488 91.4328C137.422 91.4328 137.38 91.4005 137.361 91.3351L135.784 86.5562C135.778 86.5426 135.774 86.5269 135.774 86.5073C135.774 86.4486 135.81 86.4186 135.882 86.4186H136.881C136.952 86.4186 136.998 86.4517 137.018 86.5171L137.968 89.7875C137.974 89.807 137.984 89.8168 137.997 89.8168C138.01 89.8168 138.02 89.807 138.026 89.7875L138.977 86.5171C138.996 86.4517 139.041 86.4186 139.114 86.4186L140.112 86.4389C140.151 86.4389 140.181 86.4516 140.2 86.478C140.22 86.4975 140.224 86.5299 140.21 86.5757L138.644 91.3351C138.624 91.4005 138.581 91.4328 138.516 91.4328H137.488ZM145.024 88.3677C145.051 88.5309 145.063 88.7136 145.063 88.9159L145.054 89.2197C145.054 89.2979 145.014 89.337 144.936 89.337H141.871C141.838 89.337 141.821 89.3536 141.821 89.3859C141.842 89.6017 141.871 89.7484 141.91 89.8266C142.067 90.2966 142.449 90.535 143.056 90.5417C143.5 90.5417 143.853 90.359 144.114 89.9935C144.14 89.9544 144.172 89.9349 144.211 89.9349C144.238 89.9349 144.26 89.9447 144.28 89.9642L144.887 90.4635C144.946 90.5094 144.956 90.5613 144.917 90.6199C144.714 90.9072 144.443 91.129 144.104 91.2862C143.771 91.4426 143.398 91.5208 142.987 91.5208C142.478 91.5208 142.044 91.4065 141.685 91.1787C141.332 90.9501 141.074 90.6297 140.911 90.2184C140.761 89.8657 140.686 89.3761 140.686 88.7497C140.686 88.3707 140.725 88.0639 140.803 87.8293C140.934 87.3721 141.179 87.0134 141.538 86.7517C141.903 86.484 142.341 86.3501 142.85 86.3501C144.136 86.3501 144.861 87.0232 145.024 88.3677ZM142.85 87.33C142.609 87.33 142.407 87.3916 142.243 87.5157C142.086 87.633 141.976 87.8 141.91 88.015C141.871 88.1263 141.845 88.27 141.832 88.4459C141.818 88.479 141.832 88.4948 141.871 88.4948H143.859C143.892 88.4948 143.908 88.479 143.908 88.4459C143.895 88.2827 143.875 88.1587 143.849 88.0737C143.79 87.8391 143.673 87.6563 143.496 87.5255C143.327 87.3946 143.111 87.33 142.85 87.33ZM152.812 85.4395C152.812 85.4726 152.798 85.5019 152.773 85.5275C152.753 85.547 152.727 85.5568 152.694 85.5568H149.355C149.322 85.5568 149.306 85.5733 149.306 85.6064V87.4375C149.306 87.4698 149.322 87.4864 149.355 87.4864H151.597C151.63 87.4864 151.656 87.4992 151.676 87.5255C151.702 87.545 151.715 87.5714 151.715 87.6037V88.3482C151.715 88.3805 151.702 88.4098 151.676 88.4362C151.656 88.4557 151.63 88.4655 151.597 88.4655H149.355C149.322 88.4655 149.306 88.482 149.306 88.5144V90.4049C149.306 90.4372 149.322 90.4538 149.355 90.4538H152.694C152.727 90.4538 152.753 90.4665 152.773 90.4929C152.798 90.5124 152.812 90.5387 152.812 90.5711V91.3155C152.812 91.3479 152.798 91.3772 152.773 91.4035C152.753 91.4231 152.727 91.4328 152.694 91.4328H148.287C148.255 91.4328 148.225 91.4231 148.199 91.4035C148.18 91.3772 148.17 91.3479 148.17 91.3155V84.695C148.17 84.6627 148.18 84.6363 148.199 84.6168C148.225 84.5912 148.255 84.5777 148.287 84.5777H152.694C152.727 84.5777 152.753 84.5912 152.773 84.6168C152.798 84.6363 152.812 84.6627 152.812 84.695V85.4395ZM155.943 91.511C155.441 91.511 155.006 91.384 154.641 91.129C154.275 90.8681 154.021 90.5192 153.877 90.0815C153.773 89.7875 153.72 89.3957 153.72 88.9061C153.72 88.4362 153.773 88.0511 153.877 87.7511C154.014 87.3202 154.265 86.9803 154.631 86.7321C155.003 86.478 155.441 86.3501 155.943 86.3501C156.452 86.3501 156.897 86.478 157.275 86.7321C157.654 86.9871 157.905 87.3067 158.029 87.6917C158.062 87.7962 158.085 87.9007 158.098 88.0053V88.0248C158.098 88.0902 158.062 88.1293 157.99 88.1421L157.109 88.27H157.089C157.031 88.27 156.991 88.2369 156.972 88.1722C156.972 88.1391 156.968 88.1128 156.962 88.0932C156.949 88.0414 156.936 87.9955 156.923 87.9564C156.864 87.7736 156.746 87.6232 156.57 87.5059C156.394 87.3886 156.185 87.33 155.943 87.33C155.695 87.33 155.483 87.3946 155.307 87.5255C155.137 87.6496 155.023 87.8225 154.964 88.0444C154.899 88.2534 154.866 88.5437 154.866 88.9159C154.866 89.2754 154.896 89.5656 154.954 89.7875C155.02 90.0161 155.137 90.1988 155.307 90.3364C155.477 90.4665 155.689 90.532 155.943 90.532C156.191 90.532 156.403 90.4703 156.58 90.3462C156.763 90.2154 156.88 90.0424 156.933 89.8266C156.939 89.8138 156.943 89.7973 156.943 89.7777C156.949 89.7717 156.952 89.7619 156.952 89.7484C156.972 89.6702 157.017 89.6378 157.089 89.6506L157.971 89.7875C158.003 89.7943 158.029 89.8108 158.049 89.8364C158.075 89.8559 158.085 89.886 158.078 89.9251C158.059 90.0296 158.043 90.1041 158.029 90.1499C157.905 90.5681 157.654 90.9012 157.275 91.1486C156.897 91.3907 156.452 91.511 155.943 91.511ZM161.137 91.511C160.621 91.511 160.178 91.381 159.805 91.1193C159.44 90.8583 159.182 90.4959 159.032 90.0326C158.921 89.68 158.865 89.3077 158.865 88.9159C158.865 88.4986 158.917 88.1263 159.022 87.8C159.172 87.3428 159.433 86.9871 159.805 86.7321C160.178 86.478 160.625 86.3501 161.147 86.3501C161.643 86.3501 162.071 86.478 162.43 86.7321C162.795 86.9871 163.053 87.3397 163.204 87.7902C163.321 88.103 163.38 88.4753 163.38 88.9061C163.38 89.3175 163.324 89.6897 163.213 90.0229C163.063 90.4861 162.805 90.8516 162.44 91.1193C162.074 91.381 161.64 91.511 161.137 91.511ZM161.137 90.532C161.379 90.532 161.585 90.4635 161.755 90.3267C161.93 90.189 162.058 89.9965 162.136 89.7484C162.201 89.5333 162.234 89.2588 162.234 88.9257C162.234 88.573 162.201 88.2993 162.136 88.103C162.064 87.8549 161.94 87.6661 161.764 87.5353C161.588 87.3984 161.373 87.33 161.118 87.33C160.876 87.33 160.667 87.3984 160.491 87.5353C160.314 87.6661 160.187 87.8549 160.109 88.103C160.044 88.3316 160.011 88.6061 160.011 88.9257C160.011 89.246 160.044 89.5198 160.109 89.7484C160.181 89.9965 160.305 90.189 160.481 90.3267C160.664 90.4635 160.883 90.532 161.137 90.532ZM166.853 86.3501C167.382 86.3501 167.803 86.5073 168.116 86.8201C168.436 87.1337 168.596 87.5616 168.596 88.103V91.3155C168.596 91.3479 168.583 91.3772 168.557 91.4035C168.538 91.4231 168.511 91.4328 168.479 91.4328H167.578C167.545 91.4328 167.516 91.4231 167.489 91.4035C167.47 91.3772 167.46 91.3479 167.46 91.3155V88.3384C167.46 88.0384 167.376 87.7962 167.206 87.6135C167.036 87.424 166.811 87.33 166.53 87.33C166.249 87.33 166.021 87.421 165.845 87.6037C165.675 87.7864 165.59 88.0286 165.59 88.3286V91.3155C165.59 91.3479 165.577 91.3772 165.551 91.4035C165.531 91.4231 165.505 91.4328 165.472 91.4328H164.571C164.538 91.4328 164.509 91.4231 164.483 91.4035C164.463 91.3772 164.453 91.3479 164.453 91.3155V86.5464C164.453 86.5133 164.463 86.4877 164.483 86.4682C164.509 86.4419 164.538 86.4291 164.571 86.4291H165.472C165.505 86.4291 165.531 86.4419 165.551 86.4682C165.577 86.4877 165.59 86.5133 165.59 86.5464V86.86C165.59 86.8795 165.596 86.8923 165.609 86.8991C165.622 86.9051 165.632 86.8991 165.639 86.8795C165.906 86.5268 166.311 86.3501 166.853 86.3501ZM171.867 91.511C171.351 91.511 170.908 91.381 170.536 91.1193C170.17 90.8583 169.912 90.4959 169.762 90.0326C169.651 89.68 169.596 89.3077 169.596 88.9159C169.596 88.4986 169.647 88.1263 169.752 87.8C169.902 87.3428 170.163 86.9871 170.536 86.7321C170.908 86.478 171.355 86.3501 171.877 86.3501C172.373 86.3501 172.801 86.478 173.16 86.7321C173.525 86.9871 173.783 87.3397 173.934 87.7902C174.051 88.103 174.11 88.4753 174.11 88.9061C174.11 89.3175 174.054 89.6897 173.944 90.0229C173.793 90.4861 173.535 90.8516 173.17 91.1193C172.804 91.381 172.37 91.511 171.867 91.511ZM171.867 90.532C172.109 90.532 172.315 90.4635 172.485 90.3267C172.661 90.189 172.788 89.9965 172.866 89.7484C172.931 89.5333 172.964 89.2588 172.964 88.9257C172.964 88.573 172.931 88.2993 172.866 88.103C172.795 87.8549 172.67 87.6661 172.494 87.5353C172.318 87.3984 172.103 87.33 171.848 87.33C171.606 87.33 171.397 87.3984 171.221 87.5353C171.045 87.6661 170.918 87.8549 170.839 88.103C170.774 88.3316 170.741 88.6061 170.741 88.9257C170.741 89.246 170.774 89.5198 170.839 89.7484C170.911 89.9965 171.035 90.189 171.212 90.3267C171.394 90.4635 171.613 90.532 171.867 90.532ZM180.541 86.3501C181.043 86.3501 181.435 86.5035 181.716 86.8103C182.003 87.1111 182.147 87.5323 182.147 88.0737V91.3155C182.147 91.3479 182.134 91.3772 182.107 91.4035C182.088 91.4231 182.062 91.4328 182.029 91.4328H181.138C181.106 91.4328 181.076 91.4231 181.05 91.4035C181.03 91.3772 181.021 91.3479 181.021 91.3155V88.3091C181.021 88.0083 180.939 87.7706 180.775 87.5939C180.619 87.418 180.407 87.33 180.139 87.33C179.872 87.33 179.653 87.418 179.483 87.5939C179.314 87.7706 179.229 88.0053 179.229 88.2993V91.3155C179.229 91.3479 179.215 91.3772 179.189 91.4035C179.17 91.4231 179.144 91.4328 179.111 91.4328H178.219C178.187 91.4328 178.158 91.4231 178.131 91.4035C178.112 91.3772 178.102 91.3479 178.102 91.3155V88.3091C178.102 88.0083 178.021 87.7706 177.858 87.5939C177.695 87.418 177.479 87.33 177.211 87.33C176.963 87.33 176.758 87.4014 176.594 87.545C176.437 87.6887 176.346 87.8849 176.32 88.1324V91.3155C176.32 91.3479 176.307 91.3772 176.281 91.4035C176.261 91.4231 176.235 91.4328 176.203 91.4328H175.302C175.269 91.4328 175.239 91.4231 175.213 91.4035C175.193 91.3772 175.184 91.3479 175.184 91.3155V86.5464C175.184 86.5133 175.193 86.4877 175.213 86.4682C175.239 86.4419 175.269 86.4291 175.302 86.4291H176.203C176.235 86.4291 176.261 86.4419 176.281 86.4682C176.307 86.4877 176.32 86.5133 176.32 86.5464V86.8698C176.32 86.8893 176.327 86.9021 176.339 86.9089C176.352 86.9149 176.366 86.9089 176.379 86.8893C176.522 86.7058 176.699 86.5727 176.907 86.4877C177.123 86.396 177.361 86.3501 177.622 86.3501C177.942 86.3501 178.223 86.4155 178.465 86.5464C178.706 86.6765 178.892 86.866 179.023 87.1142C179.042 87.1405 179.065 87.1405 179.091 87.1142C179.235 86.8532 179.434 86.6607 179.689 86.5366C179.943 86.4125 180.227 86.3501 180.541 86.3501ZM183.033 93.382C183.013 93.382 182.998 93.3685 182.984 93.3429C182.971 93.3226 182.964 93.297 182.964 93.2639V92.5593C182.964 92.5262 182.974 92.4969 182.994 92.4706C183.02 92.451 183.049 92.4413 183.083 92.4413H183.092C183.359 92.4352 183.568 92.4059 183.719 92.3533C183.869 92.3074 183.993 92.2164 184.091 92.0796C184.189 91.9419 184.277 91.7367 184.355 91.4622C184.362 91.4494 184.362 91.4298 184.355 91.4035L182.74 86.5562C182.733 86.5426 182.73 86.5269 182.73 86.5073C182.73 86.4486 182.762 86.4186 182.828 86.4186H183.787C183.859 86.4186 183.904 86.4517 183.924 86.5171L184.904 89.9642C184.91 89.9838 184.92 89.9935 184.933 89.9935C184.946 89.9935 184.956 89.9838 184.963 89.9642L185.942 86.5171C185.961 86.4517 186.007 86.4186 186.078 86.4186H187.009C187.049 86.4186 187.074 86.4321 187.088 86.4584C187.107 86.478 187.11 86.5103 187.097 86.5562L185.374 91.7073C185.211 92.1705 185.05 92.5165 184.894 92.7451C184.737 92.9737 184.522 93.1369 184.247 93.2346C183.98 93.3324 183.598 93.382 183.102 93.382H183.033Z" fill="#151515"/>
<path d="M194.494 89.712C194.473 89.7336 194.467 89.7552 194.478 89.7768C194.489 89.7983 194.51 89.8091 194.543 89.8091H198.93C198.984 89.8091 199.027 89.8307 199.059 89.8739C199.102 89.9063 199.124 89.9494 199.124 90.0034V91.5736C199.124 91.6275 199.102 91.6761 199.059 91.7192C199.027 91.7516 198.984 91.7678 198.93 91.7678H191.645C191.591 91.7678 191.543 91.7516 191.5 91.7192C191.467 91.6761 191.451 91.6275 191.451 91.5736V90.0843C191.451 89.9872 191.483 89.9063 191.548 89.8415C192.077 89.3235 192.616 88.7623 193.167 88.158C193.717 87.5429 194.063 87.1598 194.203 87.0087C194.505 86.6526 194.813 86.3127 195.126 85.9889C196.108 84.899 196.599 84.0896 196.599 83.5608C196.599 83.1831 196.464 82.8755 196.194 82.6381C195.924 82.3899 195.573 82.2658 195.142 82.2658C194.71 82.2658 194.359 82.3899 194.09 82.6381C193.82 82.8755 193.685 83.1939 193.685 83.5932V83.9979C193.685 84.0518 193.663 84.1004 193.62 84.1435C193.588 84.1759 193.545 84.1921 193.491 84.1921H191.58C191.527 84.1921 191.478 84.1759 191.435 84.1435C191.402 84.1004 191.386 84.0518 191.386 83.9979V83.237C191.419 82.6543 191.602 82.1417 191.937 81.6992C192.271 81.246 192.714 80.9007 193.264 80.6633C193.825 80.4258 194.451 80.3071 195.142 80.3071C195.908 80.3071 196.572 80.4528 197.133 80.7442C197.705 81.0248 198.142 81.4079 198.444 81.8935C198.757 82.3791 198.913 82.9187 198.913 83.5122C198.913 83.9655 198.8 84.4295 198.573 84.9044C198.347 85.3792 198.007 85.8918 197.554 86.4422C197.219 86.863 196.858 87.2785 196.469 87.6886C196.081 88.0987 195.503 88.6922 194.737 89.4692L194.494 89.712Z" fill="#151515"/>
<path d="M204.378 91.9459C203.191 91.9459 202.252 91.6167 201.561 90.9584C200.87 90.2894 200.525 89.3829 200.525 88.239V83.9655C200.525 82.8432 200.87 81.9528 201.561 81.2946C202.252 80.6363 203.191 80.3071 204.378 80.3071C205.565 80.3071 206.504 80.6363 207.194 81.2946C207.896 81.9528 208.247 82.8432 208.247 83.9655V88.239C208.247 89.3829 207.896 90.2894 207.194 90.9584C206.504 91.6167 205.565 91.9459 204.378 91.9459ZM204.378 89.9872C204.863 89.9872 205.246 89.8415 205.527 89.5501C205.818 89.248 205.964 88.8487 205.964 88.3523V83.9007C205.964 83.4043 205.818 83.0104 205.527 82.7191C205.246 82.4169 204.863 82.2658 204.378 82.2658C203.903 82.2658 203.52 82.4169 203.228 82.7191C202.948 83.0104 202.808 83.4043 202.808 83.9007V88.3523C202.808 88.8487 202.948 89.248 203.228 89.5501C203.52 89.8415 203.903 89.9872 204.378 89.9872Z" fill="#151515"/>
<path d="M212.784 89.712C212.762 89.7336 212.757 89.7552 212.768 89.7768C212.779 89.7983 212.8 89.8091 212.833 89.8091H217.219C217.273 89.8091 217.317 89.8307 217.349 89.8739C217.392 89.9063 217.414 89.9494 217.414 90.0034V91.5736C217.414 91.6275 217.392 91.6761 217.349 91.7192C217.317 91.7516 217.273 91.7678 217.219 91.7678H209.935C209.881 91.7678 209.833 91.7516 209.789 91.7192C209.757 91.6761 209.741 91.6275 209.741 91.5736V90.0843C209.741 89.9872 209.773 89.9063 209.838 89.8415C210.367 89.3235 210.906 88.7623 211.457 88.158C212.007 87.5429 212.352 87.1598 212.493 87.0087C212.795 86.6526 213.102 86.3127 213.415 85.9889C214.397 84.899 214.888 84.0896 214.888 83.5608C214.888 83.1831 214.754 82.8755 214.484 82.6381C214.214 82.3899 213.863 82.2658 213.432 82.2658C213 82.2658 212.649 82.3899 212.379 82.6381C212.11 82.8755 211.975 83.1939 211.975 83.5932V83.9979C211.975 84.0518 211.953 84.1004 211.91 84.1435C211.878 84.1759 211.834 84.1921 211.78 84.1921H209.87C209.816 84.1921 209.768 84.1759 209.725 84.1435C209.692 84.1004 209.676 84.0518 209.676 83.9979V83.237C209.708 82.6543 209.892 82.1417 210.226 81.6992C210.561 81.246 211.003 80.9007 211.554 80.6633C212.115 80.4258 212.741 80.3071 213.432 80.3071C214.198 80.3071 214.861 80.4528 215.423 80.7442C215.995 81.0248 216.432 81.4079 216.734 81.8935C217.047 82.3791 217.203 82.9187 217.203 83.5122C217.203 83.9655 217.09 84.4295 216.863 84.9044C216.637 85.3792 216.297 85.8918 215.844 86.4422C215.509 86.863 215.147 87.2785 214.759 87.6886C214.37 88.0987 213.793 88.6922 213.027 89.4692L212.784 89.712Z" fill="#151515"/>
<path d="M226.018 86.604C226.18 87.1328 226.261 87.6454 226.261 88.1418C226.261 88.6922 226.175 89.1886 226.002 89.6311C225.754 90.3217 225.317 90.8721 224.691 91.2822C224.065 91.6815 223.331 91.8811 222.49 91.8811C221.669 91.8811 220.946 91.6869 220.32 91.2984C219.705 90.8991 219.268 90.3595 219.009 89.6796C218.901 89.3991 218.82 89.1023 218.766 88.7893V88.757C218.766 88.6382 218.831 88.5789 218.961 88.5789H220.919C221.027 88.5789 221.097 88.6382 221.13 88.757C221.141 88.8217 221.157 88.8757 221.178 88.9188C221.2 88.962 221.216 88.9998 221.227 89.0321C221.335 89.3127 221.497 89.5286 221.713 89.6796C221.928 89.8307 222.182 89.9063 222.473 89.9063C222.776 89.9063 223.04 89.8253 223.267 89.6634C223.493 89.5016 223.66 89.275 223.768 88.9836C223.876 88.7677 223.93 88.4872 223.93 88.1418C223.93 87.8289 223.882 87.5483 223.785 87.3001C223.709 87.0195 223.558 86.8037 223.331 86.6526C223.105 86.5015 222.84 86.426 222.538 86.426C222.236 86.426 221.955 86.4961 221.696 86.6364C221.437 86.7767 221.265 86.9602 221.178 87.1868C221.146 87.2947 221.076 87.3486 220.968 87.3486H218.977C218.923 87.3486 218.874 87.3325 218.831 87.3001C218.799 87.2569 218.783 87.2084 218.783 87.1544V80.6309C218.783 80.5769 218.799 80.5338 218.831 80.5014C218.874 80.4582 218.923 80.4366 218.977 80.4366H225.662C225.716 80.4366 225.759 80.4582 225.792 80.5014C225.835 80.5338 225.857 80.5769 225.857 80.6309V82.2011C225.857 82.255 225.835 82.3036 225.792 82.3467C225.759 82.3791 225.716 82.3953 225.662 82.3953H221.146C221.092 82.3953 221.065 82.4223 221.065 82.4762L221.049 84.872C221.049 84.9475 221.081 84.9637 221.146 84.9205C221.632 84.6076 222.193 84.4511 222.83 84.4511C223.585 84.4511 224.243 84.6454 224.804 85.0339C225.376 85.4116 225.781 85.9349 226.018 86.604Z" fill="#151515"/>
</svg>
