<svg width="46" height="29" viewBox="0 0 46 29" fill="none" xmlns="http://www.w3.org/2000/svg">
<path d="M10.5996 20.99L6.0896 9.69996C4.7296 6.22996 3.40961 3.60996 0.0996094 0.459961C10.1296 0.459961 13.6996 0.569962 16.6896 8.06996L21.0496 19.04C22.4696 22.61 25.1396 26.18 29.6596 28.28C19.1096 28.28 13.4396 28.07 10.5996 20.98V20.99Z" fill="#591CBC"/>
<path d="M24.7695 20.99L20.2595 9.69996C18.8995 6.22996 17.5795 3.60996 14.2695 0.459961C24.2995 0.459961 27.8695 0.569962 30.8595 8.06996L33.4295 14.53C35.4295 19.46 38.7895 19.25 42.9895 19.25L44.8295 28.28C34.2795 28.28 27.6095 28.07 24.7695 20.98V20.99Z" fill="#11A24A"/>
<path d="M39.2099 0.459961C42.8299 0.459961 45.2499 2.92995 45.2499 6.49995C45.2499 10.07 42.8299 12.54 39.2099 12.54C35.5899 12.54 33.1699 10.12 33.1699 6.49995C33.1699 2.87995 35.6399 0.459961 39.2099 0.459961Z" fill="#F15A29"/>
</svg>
