<?xml version="1.0" encoding="UTF-8"?>
<svg id="Layer_2" data-name="Layer 2" xmlns="http://www.w3.org/2000/svg" viewBox="0 0 455.15 409.1">
  <defs>
    <style>
      .cls-1 {
        fill: #f58220;
      }

      .cls-1, .cls-2, .cls-3, .cls-4, .cls-5, .cls-6 {
        stroke-width: 0px;
      }

      .cls-1, .cls-2, .cls-4, .cls-5, .cls-6 {
        fill-rule: evenodd;
      }

      .cls-2 {
        fill: #fcaf17;
      }

      .cls-3, .cls-4 {
        fill: #231f20;
      }

      .cls-5 {
        fill: #0d9c4a;
      }

      .cls-6 {
        fill: #f15a22;
      }
    </style>
  </defs>
  <g id="Layer_1-2" data-name="Layer 1">
    <g>
      <path class="cls-5" d="M59.53,241.9S23.81,71.28,187.33,12.34c110.39-39.83,121.37,28.88,76.27,35.52-45.08,6.62-201.42,15.46-204.07,194.03Z"/>
      <path class="cls-6" d="M154.77,345.09S21.07,327.47,4.92,178.53c-13.38-123.05,51.84-100.8,46.7-62.59-5.11,38.21-34.62,191.83,103.15,229.15Z"/>
      <path class="cls-1" d="M263.24,339.79s-71.4,67.46-207.94,12.15c-93.59-37.94-45.22-80.71-21.54-59.97,23.69,20.67,114.4,108.68,229.48,47.82Z"/>
      <path class="cls-2" d="M304.76,292.33s-12.18,78.53-88.56,109.43c-54.81,22.13-52.27-12.96-36.75-12.03,22.39,1.35,98.76-14.92,125.31-97.4Z"/>
      <polygon class="cls-4" points="116.53 153.68 183.96 153.68 183.96 174.12 138.69 174.12 138.69 194.58 180.56 194.58 180.56 215.03 138.69 215.03 138.69 254.21 116.53 254.21 116.53 153.68"/>
      <rect class="cls-3" x="199.27" y="153.68" width="22.17" height="100.53"/>
      <path class="cls-4" d="M307.96,179.81c-4.42-5.26-10.8-8.23-19.01-8.23-16.78,0-29.15,13.62-29.15,32.37,0,18.75,12.36,32.37,28.41,32.37,8.95,0,16.21-3.99,20.76-10.8l18.45,13.79c-8.38,11.92-22.6,17.47-36.37,17.47-31.36,0-54.24-20.61-54.24-52.84s22.88-52.83,54.24-52.83c11.23,0,25.45,3.83,33.97,14.77l-17.06,13.91Z"/>
      <path class="cls-4" d="M402.05,179.81c-4.4-5.26-10.78-8.23-19.04-8.23-16.76,0-29.09,13.62-29.09,32.37,0,18.75,12.33,32.37,28.4,32.37,8.95,0,16.17-3.99,20.72-10.8l18.48,13.79c-8.38,11.92-22.59,17.47-36.38,17.47-31.36,0-54.23-20.61-54.23-52.84,0-32.25,22.87-52.83,54.23-52.83,11.24,0,25.43,3.83,33.94,14.77l-17.03,13.91Z"/>
      <rect class="cls-3" x="432.98" y="153.68" width="22.17" height="100.53"/>
    </g>
  </g>
</svg>