<svg width="262" height="107" viewBox="0 0 262 107" fill="none" xmlns="http://www.w3.org/2000/svg">
<path d="M2.34008 39.3899V2.62988H16.2001C27.0201 2.62988 32.0101 4.51988 32.0101 10.3999C32.0101 12.9699 30.8501 14.4999 28.7001 15.3899C33.3201 16.5999 36.0001 19.3299 36.0001 25.1599C36.0001 34.7699 28.8601 39.3399 16.5201 39.3899V23.7399C21.8201 23.7399 23.9201 22.3199 23.9201 20.4299C23.9201 18.8499 22.8201 16.5999 20.0301 16.5999H14.4101V35.7699L4.54008 39.3899H2.33008H2.34008ZM16.5701 14.4999C18.8301 14.4999 19.9301 11.9799 19.9301 9.24988C19.9301 5.93988 18.4101 4.72988 15.9901 4.72988H14.4201V14.4999H16.5701Z" fill="#151515"/>
<path d="M39.1504 26.2598C39.1504 17.9098 44.4504 12.3398 52.3804 12.3398C60.3104 12.3398 65.6104 16.9098 65.6104 21.3198C65.6104 24.3698 60.9404 25.6798 56.0004 26.2598L50.9104 26.8898C51.3304 29.5698 52.4804 31.7698 55.5304 31.7698C57.8904 31.7698 59.5204 31.1398 62.9304 29.3498L67.4504 36.6498C62.7804 39.7998 59.4704 40.1698 54.8004 40.1698C44.7704 40.1698 39.1504 34.5998 39.1504 26.2498V26.2598ZM51.8504 24.5798C53.5804 24.3198 54.0604 22.6398 54.0604 20.1198C54.0604 17.5998 53.5404 14.4498 52.3804 14.4498C50.7004 14.4498 50.7004 20.1698 50.7004 23.1098C50.7004 23.6398 50.7004 24.2098 50.7504 24.7398L51.8504 24.5798Z" fill="#151515"/>
<path d="M80.2102 51.9401C75.7502 51.9401 73.2802 51.4101 69.8102 49.4201L73.3801 42.1201C76.0101 43.1701 80.1001 43.5401 82.5201 43.5401C86.1401 43.5401 88.7201 41.6001 89.7701 39.3401C82.7901 38.9201 78.9002 37.0801 76.0602 30.1501L72.0702 20.3801C70.8602 17.3901 69.7102 15.0201 66.6602 12.3501C76.3202 12.3501 79.7302 12.4601 82.6202 19.4901L85.0901 25.5301C86.7201 29.4701 89.1901 30.4701 95.3801 30.4701V39.5001C95.3801 46.4801 89.3401 51.9401 80.2001 51.9401H80.2102Z" fill="#151515"/>
<path d="M91.1796 12.3501C94.7996 12.3501 97.2197 14.8201 97.2197 18.3901C97.2197 21.9601 94.7996 24.4301 91.1796 24.4301C87.5596 24.4301 85.1396 22.0101 85.1396 18.3901C85.1396 14.7701 87.6096 12.3501 91.1796 12.3501Z" fill="black"/>
<path d="M157.24 39.3898H145.69V29.1998C145.69 20.7998 145.06 14.8598 143.85 14.8598C142.43 14.8598 141.43 18.0598 141.33 24.2598V39.3798H129.78V13.1298H131.88L140.75 16.5398C142.01 13.1298 144.06 12.3398 146.21 12.3398C153.77 12.3398 157.24 18.3798 157.24 27.2498V39.3798V39.3898Z" fill="#151515"/>
<path d="M177.77 36.03C176.51 39.44 174.2 40.18 170.79 40.18C163.91 40.18 160.39 34.61 160.39 26.26C160.39 17.91 163.91 12.34 170.79 12.34C173.68 12.34 175.78 12.92 177.09 15.18V0H188.64V39.38H186.54L177.77 36.02V36.03ZM174.57 31.78C176.04 31.78 177.09 28.37 177.09 23.43C177.09 18.49 176.04 15.13 174.57 15.13C172.99 15.13 171.94 18.49 171.94 23.48C171.94 28.47 172.99 31.78 174.57 31.78Z" fill="#151515"/>
<path d="M0 49.4602H28.51V59.9602H16.75C14.96 62.0602 14.7 63.2102 14.7 66.2602C14.7 68.7302 16.59 71.3502 19.32 71.3502C21.26 71.3502 22.21 70.8802 24.2 69.3002L27.09 83.4202C23.21 86.1502 21.89 86.9902 17.27 86.9902C8.29 86.9902 2.68 80.5302 2.68 72.7602C2.68 63.5202 10.87 59.9502 14.7 59.9502H0V49.4502V49.4602Z" fill="#151515"/>
<path d="M87.5196 86.2099H75.9696V72.9299C75.9696 64.5299 75.4396 61.6999 74.4996 61.6999C73.3996 61.6999 72.6596 65.1099 72.6096 71.6699V86.2099H61.0596V59.9599H63.1596L71.9296 63.3199C73.0296 59.9599 74.9696 59.1699 77.5496 59.1699C82.1196 59.1699 84.8996 60.7999 86.3696 64.5799C87.2596 60.1699 89.1496 59.1699 92.2996 59.1699C98.0196 59.1699 102.43 62.0599 102.43 71.9799V86.2099H90.8796V72.9299C90.8796 64.5299 90.3596 61.6999 89.4096 61.6999C88.1996 61.6999 87.4696 65.5799 87.5196 73.0899V86.2199V86.2099Z" fill="#151515"/>
<path d="M146.53 63.5799V86.2099H134.98V59.9599H137.08L146.53 63.5799ZM154.15 59.1699C157.77 59.1699 160.19 61.6399 160.19 65.2099C160.19 68.7799 157.77 71.2499 154.15 71.2499C150.53 71.2499 148.11 68.8299 148.11 65.2099C148.11 61.5899 150.58 59.1699 154.15 59.1699Z" fill="#151515"/>
<path d="M173.83 63.5799V86.2099H162.28V59.9599H164.38L173.83 63.5799ZM181.45 59.1699C185.07 59.1699 187.49 61.6399 187.49 65.2099C187.49 68.7799 185.07 71.2499 181.45 71.2499C177.83 71.2499 175.41 68.8299 175.41 65.2099C175.41 61.5899 177.88 59.1699 181.45 59.1699Z" fill="#151515"/>
<path d="M226.6 79.6999L222.09 68.4099C220.73 64.9399 219.41 62.3199 216.1 59.1699C226.13 59.1699 229.7 59.2799 232.69 66.7799L237.05 77.7499C238.47 81.3199 241.14 84.8899 245.66 86.9899C235.11 86.9899 229.44 86.7799 226.6 79.6899V79.6999Z" fill="#591CBC"/>
<path d="M240.77 79.6999L236.26 68.4099C234.9 64.9399 233.58 62.3199 230.27 59.1699C240.3 59.1699 243.87 59.2799 246.86 66.7799L249.43 73.2399C251.43 78.1699 254.79 77.9599 258.99 77.9599L260.83 86.9899C250.28 86.9899 243.61 86.7799 240.77 79.6899V79.6999Z" fill="#11A24A"/>
<path d="M255.21 59.1699C258.83 59.1699 261.25 61.6399 261.25 65.2099C261.25 68.7799 258.83 71.2499 255.21 71.2499C251.59 71.2499 249.17 68.8299 249.17 65.2099C249.17 61.5899 251.64 59.1699 255.21 59.1699Z" fill="#F15A29"/>
<path d="M202.71 59.1699C194.83 59.1699 189.58 64.7299 189.58 73.0799C189.58 81.4299 194.83 86.9899 202.71 86.9899C210.59 86.9899 215.83 81.4199 215.83 73.0799C215.83 64.7399 210.58 59.1699 202.71 59.1699ZM202.26 79.1199C198.69 79.1199 196.22 76.6999 196.22 73.0799C196.22 69.4599 198.69 67.0399 202.26 67.0399C205.83 67.0399 208.3 69.5099 208.3 73.0799C208.3 76.6499 205.88 79.1199 202.26 79.1199Z" fill="#151515"/>
<path d="M113.5 12.3501C105.62 12.3501 100.37 17.9201 100.37 26.2701C100.37 34.6201 105.62 40.1901 113.5 40.1901C121.38 40.1901 126.63 34.6201 126.63 26.2701C126.63 17.9201 121.38 12.3501 113.5 12.3501ZM113.5 32.3001C109.93 32.3001 107.46 29.8801 107.46 26.2601C107.46 22.6401 109.93 20.2201 113.5 20.2201C117.07 20.2201 119.54 22.6901 119.54 26.2601C119.54 29.8301 117.12 32.3001 113.5 32.3001Z" fill="#151515"/>
<path d="M44.7804 59.1699C36.9004 59.1699 31.6504 64.7299 31.6504 73.0799C31.6504 81.4299 36.9004 86.9899 44.7804 86.9899C52.6604 86.9899 57.9004 81.4199 57.9004 73.0799C57.9004 64.7399 52.6504 59.1699 44.7804 59.1699ZM44.7804 79.1199C41.2104 79.1199 38.7404 76.6999 38.7404 73.0799C38.7404 69.4599 41.2104 67.0399 44.7804 67.0399C48.3504 67.0399 50.8204 69.5099 50.8204 73.0799C50.8204 76.6499 48.4004 79.1199 44.7804 79.1199Z" fill="#151515"/>
<path d="M118.71 59.1699C110.83 59.1699 105.58 64.7299 105.58 73.0799C105.58 81.4299 110.83 86.9899 118.71 86.9899C126.59 86.9899 131.83 81.4199 131.83 73.0799C131.83 64.7399 126.58 59.1699 118.71 59.1699ZM118.71 79.1199C115.14 79.1199 112.67 76.6999 112.67 73.0799C112.67 69.4599 115.14 67.0399 118.71 67.0399C122.28 67.0399 124.75 69.5099 124.75 73.0799C124.75 76.6499 122.33 79.1199 118.71 79.1199Z" fill="#151515"/>
<path d="M4.29379 103.832C3.6948 103.832 3.17261 103.736 2.72721 103.544C2.2818 103.352 1.93623 103.084 1.6905 102.738C1.45244 102.393 1.33341 101.986 1.33341 101.517V101.229C1.33341 101.191 1.34493 101.16 1.36796 101.137C1.39868 101.106 1.43324 101.091 1.47163 101.091H2.49683C2.53522 101.091 2.56594 101.106 2.58898 101.137C2.61969 101.16 2.63505 101.191 2.63505 101.229V101.448C2.63505 101.801 2.79248 102.097 3.10733 102.335C3.42218 102.565 3.85223 102.68 4.39746 102.68C4.8659 102.68 5.21915 102.581 5.45721 102.381C5.69527 102.181 5.81429 101.924 5.81429 101.609C5.81429 101.394 5.74902 101.214 5.61847 101.068C5.48792 100.914 5.29978 100.776 5.05404 100.653C4.81598 100.53 4.45505 100.377 3.97126 100.192C3.42602 99.9927 2.98446 99.8046 2.64657 99.628C2.30868 99.4513 2.02455 99.2133 1.79417 98.9138C1.57147 98.6066 1.46012 98.2265 1.46012 97.7734C1.46012 97.0976 1.70585 96.5639 2.19733 96.1723C2.68881 95.7806 3.34539 95.5848 4.16708 95.5848C4.74303 95.5848 5.24986 95.6846 5.68759 95.8843C6.13299 96.0839 6.47856 96.3642 6.7243 96.7252C6.97003 97.0784 7.0929 97.4893 7.0929 97.9577V98.1535C7.0929 98.1919 7.07754 98.2265 7.04683 98.2572C7.02379 98.2802 6.99307 98.2918 6.95468 98.2918H5.91797C5.87957 98.2918 5.84501 98.2802 5.81429 98.2572C5.79126 98.2265 5.77974 98.1919 5.77974 98.1535V98.0268C5.77974 97.6659 5.62999 97.3626 5.3305 97.1168C5.03868 96.8634 4.63168 96.7367 4.10948 96.7367C3.68712 96.7367 3.35691 96.825 3.11885 97.0016C2.88847 97.1782 2.77328 97.4278 2.77328 97.7504C2.77328 97.9807 2.83472 98.1689 2.95758 98.3148C3.08045 98.4607 3.26476 98.5951 3.5105 98.718C3.75624 98.8331 4.13636 98.9829 4.65088 99.1672C5.19611 99.3745 5.62999 99.5627 5.95252 99.7316C6.28273 99.9006 6.56303 100.139 6.79341 100.446C7.03147 100.745 7.1505 101.122 7.1505 101.575C7.1505 102.266 6.89324 102.815 6.37873 103.222C5.87189 103.629 5.17691 103.832 4.29379 103.832ZM11.1916 97.7619C11.8136 97.7619 12.3089 97.9462 12.6775 98.3148C13.0538 98.6834 13.242 99.1864 13.242 99.8238V103.602C13.242 103.64 13.2266 103.675 13.1959 103.706C13.1729 103.729 13.1421 103.74 13.1037 103.74H12.044C12.0056 103.74 11.971 103.729 11.9403 103.706C11.9173 103.675 11.9058 103.64 11.9058 103.602V100.1C11.9058 99.747 11.8059 99.4628 11.6063 99.2478C11.4066 99.0251 11.1417 98.9138 10.8115 98.9138C10.4813 98.9138 10.2125 99.0213 10.0051 99.2363C9.80548 99.4513 9.70564 99.7355 9.70564 100.089V103.602C9.70564 103.64 9.69029 103.675 9.65957 103.706C9.63653 103.729 9.60581 103.74 9.56742 103.74H8.50767C8.46927 103.74 8.43472 103.729 8.404 103.706C8.38096 103.675 8.36944 103.64 8.36944 103.602V95.8152C8.36944 95.7768 8.38096 95.7461 8.404 95.723C8.43472 95.6923 8.46927 95.6769 8.50767 95.6769H9.56742C9.60581 95.6769 9.63653 95.6923 9.65957 95.723C9.69029 95.7461 9.70564 95.7768 9.70564 95.8152V98.3609C9.70564 98.3839 9.71332 98.3993 9.72868 98.4069C9.74404 98.4146 9.75556 98.4069 9.76324 98.3839C10.0781 97.9692 10.5542 97.7619 11.1916 97.7619ZM16.8813 97.7619C17.3651 97.7619 17.7913 97.8463 18.16 98.0153C18.5286 98.1842 18.8127 98.4185 19.0124 98.718C19.212 99.0098 19.3119 99.3438 19.3119 99.7201V103.602C19.3119 103.64 19.2965 103.675 19.2658 103.706C19.2427 103.729 19.212 103.74 19.1736 103.74H18.1139C18.0755 103.74 18.0409 103.729 18.0102 103.706C17.9872 103.675 17.9757 103.64 17.9757 103.602V103.233C17.9757 103.21 17.968 103.199 17.9526 103.199C17.9373 103.191 17.9219 103.195 17.9065 103.21C17.5302 103.625 16.985 103.832 16.2708 103.832C15.6949 103.832 15.2188 103.686 14.8425 103.395C14.4739 103.103 14.2896 102.669 14.2896 102.093C14.2896 101.494 14.4969 101.029 14.9116 100.699C15.334 100.361 15.9253 100.192 16.6855 100.192H17.9181C17.9565 100.192 17.9757 100.173 17.9757 100.135V99.8583C17.9757 99.5588 17.8873 99.3285 17.7107 99.1672C17.5341 98.9982 17.2692 98.9138 16.9159 98.9138C16.6241 98.9138 16.386 98.9675 16.2017 99.075C16.0251 99.1749 15.9138 99.3169 15.8677 99.5012C15.8446 99.5934 15.7909 99.6318 15.7064 99.6164L14.5891 99.4782C14.5507 99.4705 14.5161 99.459 14.4854 99.4437C14.4624 99.4206 14.4547 99.3937 14.4624 99.363C14.5238 98.8946 14.7734 98.5106 15.2111 98.2111C15.6565 97.9116 16.2132 97.7619 16.8813 97.7619ZM16.6049 102.773C16.9812 102.773 17.3037 102.673 17.5725 102.473C17.8413 102.273 17.9757 102.02 17.9757 101.713V101.171C17.9757 101.133 17.9565 101.114 17.9181 101.114H16.9505C16.5435 101.114 16.2209 101.191 15.9829 101.344C15.7525 101.498 15.6373 101.717 15.6373 102.001C15.6373 102.247 15.7256 102.439 15.9022 102.577C16.0865 102.707 16.3208 102.773 16.6049 102.773ZM25.6411 99.3745C25.7793 99.7662 25.8484 100.246 25.8484 100.814C25.8484 101.36 25.7832 101.828 25.6526 102.22C25.4837 102.727 25.211 103.122 24.8348 103.406C24.4662 103.69 23.9977 103.832 23.4294 103.832C22.8842 103.832 22.4465 103.637 22.1163 103.245C22.1009 103.23 22.0856 103.226 22.0702 103.233C22.0548 103.241 22.0472 103.256 22.0472 103.279V105.779C22.0472 105.817 22.0318 105.848 22.0011 105.871C21.978 105.902 21.9473 105.917 21.9089 105.917H20.8492C20.8108 105.917 20.7762 105.902 20.7455 105.871C20.7225 105.848 20.711 105.817 20.711 105.779V97.9923C20.711 97.9539 20.7225 97.9231 20.7455 97.9001C20.7762 97.8694 20.8108 97.854 20.8492 97.854H21.9089C21.9473 97.854 21.978 97.8694 22.0011 97.9001C22.0318 97.9231 22.0472 97.9539 22.0472 97.9923V98.3378C22.0472 98.3609 22.0548 98.3762 22.0702 98.3839C22.0856 98.3916 22.1009 98.3839 22.1163 98.3609C22.4542 97.9615 22.8957 97.7619 23.441 97.7619C23.9862 97.7619 24.447 97.9039 24.8232 98.1881C25.1995 98.4722 25.4721 98.8677 25.6411 99.3745ZM24.1436 102.197C24.374 101.843 24.4892 101.375 24.4892 100.791C24.4892 100.231 24.397 99.7892 24.2127 99.4667C23.9977 99.0904 23.6713 98.9023 23.2336 98.9023C22.8343 98.9023 22.5348 99.0866 22.3351 99.4552C22.1585 99.7547 22.0702 100.2 22.0702 100.791C22.0702 101.398 22.1662 101.859 22.3582 102.174C22.5578 102.512 22.8458 102.68 23.2221 102.68C23.6291 102.68 23.9363 102.519 24.1436 102.197ZM27.9043 97.0477C27.6662 97.0477 27.4704 96.9709 27.3168 96.8173C27.1632 96.6637 27.0865 96.4679 27.0865 96.2299C27.0865 95.9918 27.1632 95.796 27.3168 95.6424C27.4704 95.4888 27.6662 95.412 27.9043 95.412C28.1424 95.412 28.3382 95.4888 28.4918 95.6424C28.6454 95.796 28.7222 95.9918 28.7222 96.2299C28.7222 96.4679 28.6454 96.6637 28.4918 96.8173C28.3382 96.9709 28.1424 97.0477 27.9043 97.0477ZM27.3514 103.74C27.313 103.74 27.2784 103.729 27.2477 103.706C27.2247 103.675 27.2132 103.64 27.2132 103.602V97.9807C27.2132 97.9423 27.2247 97.9116 27.2477 97.8886C27.2784 97.8579 27.313 97.8425 27.3514 97.8425H28.4111C28.4495 97.8425 28.4803 97.8579 28.5033 97.8886C28.534 97.9116 28.5494 97.9423 28.5494 97.9807V103.602C28.5494 103.64 28.534 103.675 28.5033 103.706C28.4803 103.729 28.4495 103.74 28.4111 103.74H27.3514ZM32.9022 97.7619C33.5242 97.7619 34.0195 97.9462 34.3881 98.3148C34.7644 98.6834 34.9526 99.1864 34.9526 99.8238V103.602C34.9526 103.64 34.9372 103.675 34.9065 103.706C34.8835 103.729 34.8527 103.74 34.8143 103.74H33.7546C33.7162 103.74 33.6816 103.729 33.6509 103.706C33.6279 103.675 33.6164 103.64 33.6164 103.602V100.1C33.6164 99.747 33.5165 99.4628 33.3169 99.2478C33.1172 99.0251 32.8523 98.9138 32.5221 98.9138C32.1919 98.9138 31.9231 99.0213 31.7157 99.2363C31.5161 99.4513 31.4162 99.7355 31.4162 100.089V103.602C31.4162 103.64 31.4009 103.675 31.3702 103.706C31.3471 103.729 31.3164 103.74 31.278 103.74H30.2183C30.1799 103.74 30.1453 103.729 30.1146 103.706C30.0916 103.675 30.08 103.64 30.08 103.602V97.9923C30.08 97.9539 30.0916 97.9231 30.1146 97.9001C30.1453 97.8694 30.1799 97.854 30.2183 97.854H31.278C31.3164 97.854 31.3471 97.8694 31.3702 97.9001C31.4009 97.9231 31.4162 97.9539 31.4162 97.9923V98.3609C31.4162 98.3839 31.4239 98.3993 31.4393 98.4069C31.4546 98.4146 31.4662 98.4069 31.4738 98.3839C31.7887 97.9692 32.2648 97.7619 32.9022 97.7619ZM39.9512 97.9923C39.9512 97.9539 39.9627 97.9231 39.9857 97.9001C40.0165 97.8694 40.051 97.854 40.0894 97.854H41.1492C41.1876 97.854 41.2183 97.8694 41.2413 97.9001C41.272 97.9231 41.2874 97.9539 41.2874 97.9923V103.349C41.2874 104.309 41.0109 104.992 40.458 105.399C39.9128 105.814 39.1948 106.021 38.304 106.021C38.0659 106.021 37.8317 106.009 37.6013 105.986C37.5168 105.979 37.4746 105.929 37.4746 105.837L37.5092 104.892C37.5092 104.808 37.5629 104.765 37.6704 104.765C37.8931 104.788 38.0928 104.8 38.2694 104.8C38.8454 104.8 39.2677 104.685 39.5365 104.454C39.813 104.232 39.9512 103.852 39.9512 103.314V103.222C39.9512 103.199 39.9435 103.187 39.9281 103.187C39.9128 103.18 39.8974 103.183 39.8821 103.199C39.5672 103.537 39.1218 103.706 38.5459 103.706C38.0467 103.706 37.5898 103.579 37.1751 103.326C36.7604 103.072 36.4725 102.684 36.3112 102.162C36.2114 101.801 36.1614 101.337 36.1614 100.768C36.1614 100.131 36.2229 99.6433 36.3457 99.3054C36.4993 98.837 36.7643 98.4645 37.1406 98.1881C37.5168 97.9039 37.9584 97.7619 38.4652 97.7619C39.0719 97.7619 39.5442 97.9385 39.8821 98.2918C39.8974 98.3148 39.9128 98.3225 39.9281 98.3148C39.9435 98.3071 39.9512 98.2918 39.9512 98.2687V97.9923ZM39.8706 101.782C39.9013 101.667 39.9205 101.544 39.9281 101.413C39.9435 101.275 39.9512 101.056 39.9512 100.757C39.9512 100.465 39.9435 100.258 39.9281 100.135C39.9205 100.004 39.8974 99.8775 39.859 99.7547C39.7976 99.5012 39.6709 99.2977 39.4789 99.1442C39.2946 98.9906 39.0565 98.9138 38.7647 98.9138C38.4883 98.9138 38.2541 98.9906 38.0621 99.1442C37.8701 99.2977 37.7319 99.5012 37.6474 99.7547C37.5552 99.9697 37.5092 100.308 37.5092 100.768C37.5092 101.244 37.5476 101.579 37.6244 101.77C37.7011 102.016 37.8394 102.22 38.039 102.381C38.2464 102.535 38.4921 102.611 38.7762 102.611C39.0757 102.611 39.3176 102.535 39.5019 102.381C39.6863 102.227 39.8091 102.028 39.8706 101.782ZM45.2243 103.74C45.1865 103.74 45.1524 103.729 45.1222 103.706C45.0995 103.676 45.0881 103.642 45.0881 103.604V95.9314C45.0881 95.8936 45.0995 95.8633 45.1222 95.8406C45.1524 95.8104 45.1865 95.7952 45.2243 95.7952H46.2685C46.3063 95.7952 46.3366 95.8104 46.3593 95.8406C46.3896 95.8633 46.4047 95.8936 46.4047 95.9314V99.3251C46.4047 99.3478 46.4123 99.3629 46.4274 99.3705C46.4425 99.3781 46.4577 99.3743 46.4728 99.3591L49.4238 95.8747C49.4692 95.8217 49.526 95.7952 49.5941 95.7952H50.7745C50.8501 95.7952 50.888 95.8217 50.888 95.8747C50.888 95.8974 50.8766 95.9277 50.8539 95.9655L48.2548 99.1548C48.2321 99.1851 48.2283 99.2116 48.2434 99.2343L51.0355 103.581C51.0506 103.627 51.0582 103.653 51.0582 103.661C51.0582 103.714 51.0204 103.74 50.9447 103.74H49.753C49.6849 103.74 49.6319 103.71 49.5941 103.649L47.3468 100.154C47.3165 100.108 47.29 100.104 47.2673 100.142L46.4274 101.118C46.4123 101.149 46.4047 101.175 46.4047 101.198V103.604C46.4047 103.642 46.3896 103.676 46.3593 103.706C46.3366 103.729 46.3063 103.74 46.2685 103.74H45.2243ZM56.572 100.188C56.6023 100.377 56.6174 100.589 56.6174 100.823L56.6061 101.175C56.6061 101.266 56.5607 101.311 56.4699 101.311H52.9173C52.8795 101.311 52.8606 101.33 52.8606 101.368C52.8833 101.618 52.9173 101.788 52.9627 101.879C53.1443 102.424 53.587 102.7 54.2907 102.707C54.8052 102.707 55.2138 102.496 55.5165 102.072C55.5467 102.026 55.5846 102.004 55.63 102.004C55.6602 102.004 55.6867 102.015 55.7094 102.038L56.4131 102.617C56.4812 102.67 56.4926 102.73 56.4472 102.798C56.2126 103.131 55.8986 103.388 55.5051 103.57C55.1192 103.752 54.6879 103.842 54.2112 103.842C53.621 103.842 53.1178 103.71 52.7017 103.445C52.2931 103.18 51.9942 102.81 51.805 102.333C51.631 101.924 51.544 101.357 51.544 100.63C51.544 100.191 51.5894 99.8358 51.6802 99.5634C51.8315 99.0338 52.1152 98.6176 52.5314 98.3149C52.9551 98.0047 53.4621 97.8496 54.0523 97.8496C55.5429 97.8496 56.3828 98.629 56.572 100.188ZM54.0523 98.9846C53.7723 98.9846 53.5378 99.0565 53.3486 99.2002C53.167 99.3364 53.0384 99.5294 52.9627 99.7791C52.9173 99.9077 52.887 100.074 52.8719 100.278C52.8568 100.316 52.8719 100.335 52.9173 100.335H55.2214C55.2592 100.335 55.2781 100.316 55.2781 100.278C55.263 100.089 55.2403 99.9456 55.21 99.8472C55.1419 99.5748 55.0057 99.3629 54.8014 99.2116C54.6047 99.0603 54.355 98.9846 54.0523 98.9846ZM60.522 97.8723C60.7641 97.8723 60.976 97.9215 61.1576 98.0198C61.2181 98.0501 61.2408 98.1069 61.2257 98.1901L61.0327 99.2116C61.0252 99.3024 60.9722 99.3289 60.8738 99.291C60.7603 99.2532 60.6279 99.2343 60.4766 99.2343C60.3782 99.2343 60.3025 99.2381 60.2496 99.2456C59.9318 99.2608 59.6669 99.3743 59.4551 99.5861C59.2432 99.7904 59.1373 100.059 59.1373 100.392V103.604C59.1373 103.642 59.1221 103.676 59.0919 103.706C59.0692 103.729 59.0389 103.74 59.0011 103.74H57.9569C57.919 103.74 57.885 103.729 57.8547 103.706C57.832 103.676 57.8207 103.642 57.8207 103.604V98.0766C57.8207 98.0388 57.832 98.0085 57.8547 97.9858C57.885 97.9555 57.919 97.9404 57.9569 97.9404H59.0011C59.0389 97.9404 59.0692 97.9555 59.0919 97.9858C59.1221 98.0085 59.1373 98.0388 59.1373 98.0766V98.5873C59.1373 98.6176 59.1411 98.6365 59.1486 98.6441C59.1638 98.6441 59.1789 98.6327 59.194 98.61C59.5118 98.1182 59.9545 97.8723 60.522 97.8723ZM64.2458 97.8496C64.7225 97.8496 65.1425 97.9328 65.5057 98.0993C65.8689 98.2658 66.1489 98.4965 66.3456 98.7916C66.5423 99.0792 66.6407 99.4083 66.6407 99.7791V103.604C66.6407 103.642 66.6256 103.676 66.5953 103.706C66.5726 103.729 66.5423 103.74 66.5045 103.74H65.4603C65.4225 103.74 65.3884 103.729 65.3581 103.706C65.3354 103.676 65.3241 103.642 65.3241 103.604V103.241C65.3241 103.218 65.3165 103.207 65.3014 103.207C65.2863 103.199 65.2711 103.203 65.256 103.218C64.8852 103.627 64.348 103.831 63.6443 103.831C63.0768 103.831 62.6077 103.687 62.2369 103.4C61.8737 103.112 61.6921 102.685 61.6921 102.117C61.6921 101.527 61.8964 101.069 62.305 100.744C62.7212 100.411 63.3038 100.244 64.0529 100.244H65.2673C65.3052 100.244 65.3241 100.226 65.3241 100.188V99.9153C65.3241 99.6202 65.2371 99.3932 65.063 99.2343C64.889 99.0678 64.628 98.9846 64.2799 98.9846C63.9924 98.9846 63.7578 99.0376 63.5762 99.1435C63.4022 99.2419 63.2924 99.3818 63.247 99.5634C63.2243 99.6542 63.1714 99.6921 63.0881 99.6769L61.9872 99.5407C61.9494 99.5332 61.9153 99.5218 61.885 99.5067C61.8623 99.484 61.8548 99.4575 61.8623 99.4272C61.9229 98.9657 62.1688 98.5873 62.6001 98.2922C63.039 97.9971 63.5875 97.8496 64.2458 97.8496ZM63.9734 102.787C64.3442 102.787 64.662 102.688 64.9268 102.492C65.1917 102.295 65.3241 102.045 65.3241 101.743V101.209C65.3241 101.171 65.3052 101.152 65.2673 101.152H64.3139C63.9129 101.152 63.5951 101.228 63.3605 101.379C63.1335 101.531 63.02 101.746 63.02 102.026C63.02 102.269 63.1071 102.458 63.2811 102.594C63.4627 102.723 63.6935 102.787 63.9734 102.787ZM68.0987 103.74C68.0609 103.74 68.0268 103.729 67.9966 103.706C67.9739 103.676 67.9625 103.642 67.9625 103.604V95.9314C67.9625 95.8936 67.9739 95.8633 67.9966 95.8406C68.0268 95.8104 68.0609 95.7952 68.0987 95.7952H69.1429C69.1808 95.7952 69.211 95.8104 69.2337 95.8406C69.264 95.8633 69.2791 95.8936 69.2791 95.9314V103.604C69.2791 103.642 69.264 103.676 69.2337 103.706C69.211 103.729 69.1808 103.74 69.1429 103.74H68.0987ZM72.8914 97.8496C73.3681 97.8496 73.788 97.9328 74.1512 98.0993C74.5144 98.2658 74.7944 98.4965 74.9911 98.7916C75.1878 99.0792 75.2862 99.4083 75.2862 99.7791V103.604C75.2862 103.642 75.2711 103.676 75.2408 103.706C75.2181 103.729 75.1878 103.74 75.15 103.74H74.1058C74.068 103.74 74.0339 103.729 74.0037 103.706C73.981 103.676 73.9696 103.642 73.9696 103.604V103.241C73.9696 103.218 73.962 103.207 73.9469 103.207C73.9318 103.199 73.9166 103.203 73.9015 103.218C73.5307 103.627 72.9935 103.831 72.2898 103.831C71.7223 103.831 71.2532 103.687 70.8824 103.4C70.5192 103.112 70.3376 102.685 70.3376 102.117C70.3376 101.527 70.5419 101.069 70.9505 100.744C71.3667 100.411 71.9493 100.244 72.6984 100.244H73.9129C73.9507 100.244 73.9696 100.226 73.9696 100.188V99.9153C73.9696 99.6202 73.8826 99.3932 73.7086 99.2343C73.5345 99.0678 73.2735 98.9846 72.9254 98.9846C72.6379 98.9846 72.4033 99.0376 72.2217 99.1435C72.0477 99.2419 71.938 99.3818 71.8926 99.5634C71.8699 99.6542 71.8169 99.6921 71.7337 99.6769L70.6327 99.5407C70.5949 99.5332 70.5608 99.5218 70.5306 99.5067C70.5079 99.484 70.5003 99.4575 70.5079 99.4272C70.5684 98.9657 70.8143 98.5873 71.2456 98.2922C71.6845 97.9971 72.2331 97.8496 72.8914 97.8496ZM72.619 102.787C72.9897 102.787 73.3075 102.688 73.5724 102.492C73.8372 102.295 73.9696 102.045 73.9696 101.743V101.209C73.9696 101.171 73.9507 101.152 73.9129 101.152H72.9595C72.5584 101.152 72.2406 101.228 72.0061 101.379C71.7791 101.531 71.6656 101.746 71.6656 102.026C71.6656 102.269 71.7526 102.458 71.9266 102.594C72.1082 102.723 72.339 102.787 72.619 102.787ZM77.6 95.7952C77.653 95.7952 77.687 95.8104 77.7022 95.8406C77.7173 95.8709 77.7173 95.9087 77.7022 95.9541L76.8055 98.1674C76.7828 98.2355 76.7298 98.2695 76.6466 98.2695H75.8748C75.8294 98.2695 75.7954 98.2582 75.7727 98.2355C75.7575 98.2052 75.7537 98.1674 75.7613 98.122L76.3969 95.9087C76.4196 95.8331 76.4726 95.7952 76.5558 95.7952H77.6ZM79.8508 103.808C79.3741 103.808 78.9541 103.74 78.5909 103.604C78.2353 103.46 77.9591 103.267 77.7624 103.025C77.5656 102.775 77.4673 102.499 77.4673 102.197V102.094C77.4673 102.057 77.4786 102.026 77.5013 102.004C77.5316 101.973 77.5656 101.958 77.6035 101.958H78.6023C78.6401 101.958 78.6704 101.973 78.6931 102.004C78.7233 102.026 78.7385 102.057 78.7385 102.094V102.117C78.7385 102.306 78.8406 102.473 79.0449 102.617C79.2568 102.753 79.5216 102.821 79.8394 102.821C80.1421 102.821 80.388 102.76 80.5772 102.639C80.7663 102.511 80.8609 102.352 80.8609 102.163C80.8609 101.989 80.7815 101.86 80.6226 101.777C80.4712 101.686 80.2215 101.591 79.8735 101.493L79.4422 101.357C79.0563 101.243 78.7309 101.122 78.4661 100.994C78.2012 100.865 77.978 100.691 77.7964 100.471C77.6148 100.244 77.524 99.9569 77.524 99.6088C77.524 99.0792 77.7321 98.6592 78.1483 98.349C78.5644 98.0312 79.113 97.8723 79.794 97.8723C80.2556 97.8723 80.6604 97.948 81.0085 98.0993C81.3565 98.2431 81.6251 98.4474 81.8143 98.7122C82.0035 98.9695 82.0981 99.2646 82.0981 99.5975C82.0981 99.6353 82.0829 99.6694 82.0527 99.6996C82.03 99.7223 81.9997 99.7337 81.9619 99.7337H80.9971C80.9593 99.7337 80.9252 99.7223 80.895 99.6996C80.8723 99.6694 80.8609 99.6353 80.8609 99.5975C80.8609 99.4008 80.7625 99.2381 80.5658 99.1094C80.3766 98.9732 80.1156 98.9051 79.7827 98.9051C79.4876 98.9051 79.2454 98.9619 79.0563 99.0754C78.8747 99.1813 78.7839 99.3327 78.7839 99.5294C78.7839 99.711 78.8709 99.851 79.0449 99.9493C79.2265 100.04 79.5254 100.142 79.9416 100.256L80.1913 100.324C80.5923 100.445 80.929 100.57 81.2014 100.698C81.4738 100.82 81.7046 100.994 81.8938 101.221C82.0829 101.44 82.1775 101.728 82.1775 102.083C82.1775 102.62 81.9656 103.044 81.5419 103.354C81.1182 103.657 80.5545 103.808 79.8508 103.808ZM88.3446 103.831C87.7771 103.831 87.2777 103.721 86.8464 103.502C86.4151 103.275 86.0822 102.961 85.8476 102.56C85.6131 102.159 85.4958 101.693 85.4958 101.164V98.3603C85.4958 97.8307 85.6131 97.3653 85.8476 96.9643C86.0822 96.5633 86.4151 96.253 86.8464 96.0336C87.2777 95.8142 87.7771 95.7044 88.3446 95.7044C88.9046 95.7044 89.4002 95.8104 89.8315 96.0222C90.2628 96.2341 90.5957 96.533 90.8303 96.9189C91.0649 97.3048 91.1821 97.7512 91.1821 98.2582C91.1821 98.296 91.167 98.3301 91.1367 98.3603C91.114 98.383 91.0838 98.3944 91.0459 98.3944L90.0017 98.4511C89.9109 98.4511 89.8655 98.4095 89.8655 98.3263C89.8655 97.8799 89.7256 97.5204 89.4456 97.248C89.1732 96.9756 88.8062 96.8394 88.3446 96.8394C87.8831 96.8394 87.5123 96.9756 87.2323 97.248C86.9524 97.5204 86.8124 97.8799 86.8124 98.3263V101.221C86.8124 101.659 86.9524 102.015 87.2323 102.287C87.5123 102.56 87.8831 102.696 88.3446 102.696C88.8062 102.696 89.1732 102.564 89.4456 102.299C89.7256 102.026 89.8655 101.667 89.8655 101.221C89.8655 101.137 89.9109 101.096 90.0017 101.096L91.0459 101.141C91.0838 101.141 91.114 101.152 91.1367 101.175C91.167 101.198 91.1821 101.224 91.1821 101.255C91.1821 101.769 91.0649 102.223 90.8303 102.617C90.5957 103.002 90.2628 103.301 89.8315 103.513C89.4002 103.725 88.9046 103.831 88.3446 103.831ZM95.8969 98.0766C95.8969 98.0388 95.9083 98.0085 95.931 97.9858C95.9612 97.9555 95.9953 97.9404 96.0331 97.9404H97.066C97.1038 97.9404 97.1341 97.9555 97.1568 97.9858C97.187 98.0085 97.2022 98.0388 97.2022 98.0766V103.604C97.2022 103.642 97.187 103.676 97.1568 103.706C97.1341 103.729 97.1038 103.74 97.066 103.74H96.0331C95.9953 103.74 95.9612 103.729 95.931 103.706C95.9083 103.676 95.8969 103.642 95.8969 103.604V103.241C95.8969 103.218 95.8894 103.203 95.8742 103.195C95.8591 103.188 95.844 103.195 95.8288 103.218C95.5186 103.619 95.0532 103.82 94.4328 103.82C93.8577 103.82 93.3734 103.653 92.98 103.32C92.5941 102.987 92.4011 102.514 92.4011 101.902V98.0766C92.4011 98.0388 92.4125 98.0085 92.4352 97.9858C92.4654 97.9555 92.4995 97.9404 92.5373 97.9404H93.5815C93.6194 97.9404 93.6496 97.9555 93.6723 97.9858C93.7026 98.0085 93.7177 98.0388 93.7177 98.0766V101.527C93.7177 101.883 93.8085 102.166 93.9901 102.378C94.1793 102.59 94.4403 102.696 94.7733 102.696C95.1138 102.696 95.3862 102.59 95.5905 102.378C95.7948 102.166 95.8969 101.883 95.8969 101.527V98.0766ZM98.7459 103.74C98.7081 103.74 98.6741 103.729 98.6438 103.706C98.6211 103.676 98.6097 103.642 98.6097 103.604V95.9314C98.6097 95.8936 98.6211 95.8633 98.6438 95.8406C98.6741 95.8104 98.7081 95.7952 98.7459 95.7952H99.7901C99.828 95.7952 99.8582 95.8104 99.8809 95.8406C99.9112 95.8633 99.9263 95.8936 99.9263 95.9314V103.604C99.9263 103.642 99.9112 103.676 99.8809 103.706C99.8582 103.729 99.828 103.74 99.7901 103.74H98.7459ZM104.401 98.8711C104.401 98.9089 104.386 98.943 104.356 98.9732C104.333 98.9959 104.303 99.0073 104.265 99.0073H103.107C103.069 99.0073 103.051 99.0262 103.051 99.064V101.799C103.051 102.087 103.111 102.295 103.232 102.424C103.361 102.552 103.561 102.617 103.834 102.617H104.174C104.212 102.617 104.242 102.632 104.265 102.662C104.295 102.685 104.31 102.715 104.31 102.753V103.604C104.31 103.687 104.265 103.736 104.174 103.752L103.584 103.763C102.986 103.763 102.54 103.661 102.245 103.456C101.95 103.252 101.798 102.866 101.791 102.299V99.064C101.791 99.0262 101.772 99.0073 101.734 99.0073H101.087C101.049 99.0073 101.015 98.9959 100.985 98.9732C100.962 98.943 100.951 98.9089 100.951 98.8711V98.0766C100.951 98.0388 100.962 98.0085 100.985 97.9858C101.015 97.9555 101.049 97.9404 101.087 97.9404H101.734C101.772 97.9404 101.791 97.9215 101.791 97.8836V96.5557C101.791 96.5179 101.802 96.4876 101.825 96.4649C101.855 96.4346 101.889 96.4195 101.927 96.4195H102.914C102.952 96.4195 102.982 96.4346 103.005 96.4649C103.035 96.4876 103.051 96.5179 103.051 96.5557V97.8836C103.051 97.9215 103.069 97.9404 103.107 97.9404H104.265C104.303 97.9404 104.333 97.9555 104.356 97.9858C104.386 98.0085 104.401 98.0388 104.401 98.0766V98.8711ZM108.998 98.0766C108.998 98.0388 109.01 98.0085 109.032 97.9858C109.063 97.9555 109.097 97.9404 109.134 97.9404H110.167C110.205 97.9404 110.235 97.9555 110.258 97.9858C110.288 98.0085 110.303 98.0388 110.303 98.0766V103.604C110.303 103.642 110.288 103.676 110.258 103.706C110.235 103.729 110.205 103.74 110.167 103.74H109.134C109.097 103.74 109.063 103.729 109.032 103.706C109.01 103.676 108.998 103.642 108.998 103.604V103.241C108.998 103.218 108.991 103.203 108.975 103.195C108.96 103.188 108.945 103.195 108.93 103.218C108.62 103.619 108.155 103.82 107.534 103.82C106.959 103.82 106.475 103.653 106.081 103.32C105.695 102.987 105.502 102.514 105.502 101.902V98.0766C105.502 98.0388 105.514 98.0085 105.536 97.9858C105.567 97.9555 105.601 97.9404 105.639 97.9404H106.683C106.721 97.9404 106.751 97.9555 106.774 97.9858C106.804 98.0085 106.819 98.0388 106.819 98.0766V101.527C106.819 101.883 106.91 102.166 107.091 102.378C107.281 102.59 107.542 102.696 107.875 102.696C108.215 102.696 108.487 102.59 108.692 102.378C108.896 102.166 108.998 101.883 108.998 101.527V98.0766ZM114.412 97.8723C114.654 97.8723 114.866 97.9215 115.048 98.0198C115.108 98.0501 115.131 98.1069 115.116 98.1901L114.923 99.2116C114.916 99.3024 114.863 99.3289 114.764 99.291C114.651 99.2532 114.518 99.2343 114.367 99.2343C114.269 99.2343 114.193 99.2381 114.14 99.2456C113.822 99.2608 113.557 99.3743 113.345 99.5861C113.134 99.7904 113.028 100.059 113.028 100.392V103.604C113.028 103.642 113.012 103.676 112.982 103.706C112.96 103.729 112.929 103.74 112.891 103.74H111.847C111.809 103.74 111.775 103.729 111.745 103.706C111.722 103.676 111.711 103.642 111.711 103.604V98.0766C111.711 98.0388 111.722 98.0085 111.745 97.9858C111.775 97.9555 111.809 97.9404 111.847 97.9404H112.891C112.929 97.9404 112.96 97.9555 112.982 97.9858C113.012 98.0085 113.028 98.0388 113.028 98.0766V98.5873C113.028 98.6176 113.031 98.6365 113.039 98.6441C113.054 98.6441 113.069 98.6327 113.084 98.61C113.402 98.1182 113.845 97.8723 114.412 97.8723ZM118.136 97.8496C118.613 97.8496 119.033 97.9328 119.396 98.0993C119.759 98.2658 120.039 98.4965 120.236 98.7916C120.433 99.0792 120.531 99.4083 120.531 99.7791V103.604C120.531 103.642 120.516 103.676 120.486 103.706C120.463 103.729 120.433 103.74 120.395 103.74H119.351C119.313 103.74 119.279 103.729 119.248 103.706C119.226 103.676 119.214 103.642 119.214 103.604V103.241C119.214 103.218 119.207 103.207 119.192 103.207C119.177 103.199 119.161 103.203 119.146 103.218C118.776 103.627 118.238 103.831 117.535 103.831C116.967 103.831 116.498 103.687 116.127 103.4C115.764 103.112 115.582 102.685 115.582 102.117C115.582 101.527 115.787 101.069 116.195 100.744C116.611 100.411 117.194 100.244 117.943 100.244H119.158C119.196 100.244 119.214 100.226 119.214 100.188V99.9153C119.214 99.6202 119.127 99.3932 118.953 99.2343C118.779 99.0678 118.518 98.9846 118.17 98.9846C117.883 98.9846 117.648 99.0376 117.467 99.1435C117.292 99.2419 117.183 99.3818 117.137 99.5634C117.115 99.6542 117.062 99.6921 116.978 99.6769L115.878 99.5407C115.84 99.5332 115.806 99.5218 115.775 99.5067C115.753 99.484 115.745 99.4575 115.753 99.4272C115.813 98.9657 116.059 98.5873 116.49 98.2922C116.929 97.9971 117.478 97.8496 118.136 97.8496ZM117.864 102.787C118.235 102.787 118.552 102.688 118.817 102.492C119.082 102.295 119.214 102.045 119.214 101.743V101.209C119.214 101.171 119.196 101.152 119.158 101.152H118.204C117.803 101.152 117.485 101.228 117.251 101.379C117.024 101.531 116.91 101.746 116.91 102.026C116.91 102.269 116.997 102.458 117.171 102.594C117.353 102.723 117.584 102.787 117.864 102.787ZM121.989 103.74C121.951 103.74 121.917 103.729 121.887 103.706C121.864 103.676 121.853 103.642 121.853 103.604V95.9314C121.853 95.8936 121.864 95.8633 121.887 95.8406C121.917 95.8104 121.951 95.7952 121.989 95.7952H123.033C123.071 95.7952 123.101 95.8104 123.124 95.8406C123.154 95.8633 123.169 95.8936 123.169 95.9314V103.604C123.169 103.642 123.154 103.676 123.124 103.706C123.101 103.729 123.071 103.74 123.033 103.74H121.989ZM129.621 103.831C129.054 103.831 128.555 103.721 128.123 103.502C127.692 103.275 127.359 102.961 127.124 102.56C126.89 102.159 126.773 101.693 126.773 101.164V98.3603C126.773 97.8307 126.89 97.3653 127.124 96.9643C127.359 96.5633 127.692 96.253 128.123 96.0336C128.555 95.8142 129.054 95.7044 129.621 95.7044C130.181 95.7044 130.677 95.8104 131.108 96.0222C131.54 96.2341 131.872 96.533 132.107 96.9189C132.342 97.3048 132.459 97.7512 132.459 98.2582C132.459 98.296 132.444 98.3301 132.414 98.3603C132.391 98.383 132.361 98.3944 132.323 98.3944L131.279 98.4511C131.188 98.4511 131.142 98.4095 131.142 98.3263C131.142 97.8799 131.002 97.5204 130.722 97.248C130.45 96.9756 130.083 96.8394 129.621 96.8394C129.16 96.8394 128.789 96.9756 128.509 97.248C128.229 97.5204 128.089 97.8799 128.089 98.3263V101.221C128.089 101.659 128.229 102.015 128.509 102.287C128.789 102.56 129.16 102.696 129.621 102.696C130.083 102.696 130.45 102.564 130.722 102.299C131.002 102.026 131.142 101.667 131.142 101.221C131.142 101.137 131.188 101.096 131.279 101.096L132.323 101.141C132.361 101.141 132.391 101.152 132.414 101.175C132.444 101.198 132.459 101.224 132.459 101.255C132.459 101.769 132.342 102.223 132.107 102.617C131.872 103.002 131.54 103.301 131.108 103.513C130.677 103.725 130.181 103.831 129.621 103.831ZM136.447 97.8723C136.689 97.8723 136.901 97.9215 137.083 98.0198C137.143 98.0501 137.166 98.1069 137.151 98.1901L136.958 99.2116C136.95 99.3024 136.897 99.3289 136.799 99.291C136.686 99.2532 136.553 99.2343 136.402 99.2343C136.304 99.2343 136.228 99.2381 136.175 99.2456C135.857 99.2608 135.592 99.3743 135.38 99.5861C135.169 99.7904 135.063 100.059 135.063 100.392V103.604C135.063 103.642 135.047 103.676 135.017 103.706C134.994 103.729 134.964 103.74 134.926 103.74H133.882C133.844 103.74 133.81 103.729 133.78 103.706C133.757 103.676 133.746 103.642 133.746 103.604V98.0766C133.746 98.0388 133.757 98.0085 133.78 97.9858C133.81 97.9555 133.844 97.9404 133.882 97.9404H134.926C134.964 97.9404 134.994 97.9555 135.017 97.9858C135.047 98.0085 135.063 98.0388 135.063 98.0766V98.5873C135.063 98.6176 135.066 98.6365 135.074 98.6441C135.089 98.6441 135.104 98.6327 135.119 98.61C135.437 98.1182 135.88 97.8723 136.447 97.8723ZM142.794 100.188C142.825 100.377 142.84 100.589 142.84 100.823L142.828 101.175C142.828 101.266 142.783 101.311 142.692 101.311H139.14C139.102 101.311 139.083 101.33 139.083 101.368C139.106 101.618 139.14 101.788 139.185 101.879C139.367 102.424 139.809 102.7 140.513 102.707C141.028 102.707 141.436 102.496 141.739 102.072C141.769 102.026 141.807 102.004 141.852 102.004C141.883 102.004 141.909 102.015 141.932 102.038L142.635 102.617C142.704 102.67 142.715 102.73 142.669 102.798C142.435 103.131 142.121 103.388 141.727 103.57C141.342 103.752 140.91 103.842 140.434 103.842C139.843 103.842 139.34 103.71 138.924 103.445C138.515 103.18 138.216 102.81 138.027 102.333C137.853 101.924 137.766 101.357 137.766 100.63C137.766 100.191 137.812 99.8358 137.902 99.5634C138.054 99.0338 138.338 98.6176 138.754 98.3149C139.177 98.0047 139.684 97.8496 140.275 97.8496C141.765 97.8496 142.605 98.629 142.794 100.188ZM140.275 98.9846C139.995 98.9846 139.76 99.0565 139.571 99.2002C139.389 99.3364 139.261 99.5294 139.185 99.7791C139.14 99.9077 139.109 100.074 139.094 100.278C139.079 100.316 139.094 100.335 139.14 100.335H141.444C141.482 100.335 141.5 100.316 141.5 100.278C141.485 100.089 141.463 99.9456 141.432 99.8472C141.364 99.5748 141.228 99.3629 141.024 99.2116C140.827 99.0603 140.577 98.9846 140.275 98.9846ZM146.201 97.8496C146.678 97.8496 147.097 97.9328 147.461 98.0993C147.824 98.2658 148.104 98.4965 148.301 98.7916C148.497 99.0792 148.596 99.4083 148.596 99.7791V103.604C148.596 103.642 148.581 103.676 148.55 103.706C148.528 103.729 148.497 103.74 148.459 103.74H147.415C147.377 103.74 147.343 103.729 147.313 103.706C147.29 103.676 147.279 103.642 147.279 103.604V103.241C147.279 103.218 147.272 103.207 147.256 103.207C147.241 103.199 147.226 103.203 147.211 103.218C146.84 103.627 146.303 103.831 145.599 103.831C145.032 103.831 144.563 103.687 144.192 103.4C143.829 103.112 143.647 102.685 143.647 102.117C143.647 101.527 143.851 101.069 144.26 100.744C144.676 100.411 145.259 100.244 146.008 100.244H147.222C147.26 100.244 147.279 100.226 147.279 100.188V99.9153C147.279 99.6202 147.192 99.3932 147.018 99.2343C146.844 99.0678 146.583 98.9846 146.235 98.9846C145.947 98.9846 145.713 99.0376 145.531 99.1435C145.357 99.2419 145.247 99.3818 145.202 99.5634C145.179 99.6542 145.126 99.6921 145.043 99.6769L143.942 99.5407C143.904 99.5332 143.87 99.5218 143.84 99.5067C143.817 99.484 143.81 99.4575 143.817 99.4272C143.878 98.9657 144.124 98.5873 144.555 98.2922C144.994 97.9971 145.543 97.8496 146.201 97.8496ZM145.928 102.787C146.299 102.787 146.617 102.688 146.882 102.492C147.147 102.295 147.279 102.045 147.279 101.743V101.209C147.279 101.171 147.26 101.152 147.222 101.152H146.269C145.868 101.152 145.55 101.228 145.316 101.379C145.089 101.531 144.975 101.746 144.975 102.026C144.975 102.269 145.062 102.458 145.236 102.594C145.418 102.723 145.648 102.787 145.928 102.787ZM152.905 98.8711C152.905 98.9089 152.89 98.943 152.859 98.9732C152.837 98.9959 152.806 99.0073 152.768 99.0073H151.611C151.573 99.0073 151.554 99.0262 151.554 99.064V101.799C151.554 102.087 151.615 102.295 151.736 102.424C151.864 102.552 152.065 102.617 152.337 102.617H152.678C152.716 102.617 152.746 102.632 152.768 102.662C152.799 102.685 152.814 102.715 152.814 102.753V103.604C152.814 103.687 152.768 103.736 152.678 103.752L152.087 103.763C151.49 103.763 151.043 103.661 150.748 103.456C150.453 103.252 150.302 102.866 150.294 102.299V99.064C150.294 99.0262 150.275 99.0073 150.237 99.0073H149.59C149.553 99.0073 149.519 98.9959 149.488 98.9732C149.466 98.943 149.454 98.9089 149.454 98.8711V98.0766C149.454 98.0388 149.466 98.0085 149.488 97.9858C149.519 97.9555 149.553 97.9404 149.59 97.9404H150.237C150.275 97.9404 150.294 97.9215 150.294 97.8836V96.5557C150.294 96.5179 150.306 96.4876 150.328 96.4649C150.359 96.4346 150.393 96.4195 150.43 96.4195H151.418C151.456 96.4195 151.486 96.4346 151.509 96.4649C151.539 96.4876 151.554 96.5179 151.554 96.5557V97.8836C151.554 97.9215 151.573 97.9404 151.611 97.9404H152.768C152.806 97.9404 152.837 97.9555 152.859 97.9858C152.89 98.0085 152.905 98.0388 152.905 98.0766V98.8711ZM154.823 97.1459C154.589 97.1459 154.396 97.0702 154.244 96.9189C154.093 96.7676 154.017 96.5746 154.017 96.34C154.017 96.1055 154.093 95.9125 154.244 95.7612C154.396 95.6099 154.589 95.5342 154.823 95.5342C155.058 95.5342 155.251 95.6099 155.402 95.7612C155.553 95.9125 155.629 96.1055 155.629 96.34C155.629 96.5746 155.553 96.7676 155.402 96.9189C155.251 97.0702 155.058 97.1459 154.823 97.1459ZM154.278 103.74C154.24 103.74 154.206 103.729 154.176 103.706C154.153 103.676 154.142 103.642 154.142 103.604V98.0652C154.142 98.0274 154.153 97.9971 154.176 97.9744C154.206 97.9442 154.24 97.929 154.278 97.929H155.323C155.36 97.929 155.391 97.9442 155.413 97.9744C155.444 97.9971 155.459 98.0274 155.459 98.0652V103.604C155.459 103.642 155.444 103.676 155.413 103.706C155.391 103.729 155.36 103.74 155.323 103.74H154.278ZM158.533 103.74C158.458 103.74 158.408 103.702 158.386 103.627L156.558 98.0879C156.551 98.0728 156.547 98.0539 156.547 98.0312C156.547 97.9631 156.589 97.929 156.672 97.929H157.83C157.913 97.929 157.966 97.9669 157.988 98.0425L159.089 101.833C159.097 101.856 159.108 101.867 159.123 101.867C159.139 101.867 159.15 101.856 159.157 101.833L160.258 98.0425C160.281 97.9669 160.334 97.929 160.417 97.929L161.575 97.9517C161.62 97.9517 161.654 97.9669 161.677 97.9971C161.7 98.0198 161.704 98.0577 161.689 98.1106L159.873 103.627C159.85 103.702 159.801 103.74 159.725 103.74H158.533ZM167.268 100.188C167.298 100.377 167.313 100.589 167.313 100.823L167.302 101.175C167.302 101.266 167.256 101.311 167.166 101.311H163.613C163.575 101.311 163.556 101.33 163.556 101.368C163.579 101.618 163.613 101.788 163.658 101.879C163.84 102.424 164.283 102.7 164.986 102.707C165.501 102.707 165.91 102.496 166.212 102.072C166.242 102.026 166.28 102.004 166.326 102.004C166.356 102.004 166.382 102.015 166.405 102.038L167.109 102.617C167.177 102.67 167.188 102.73 167.143 102.798C166.908 103.131 166.594 103.388 166.201 103.57C165.815 103.752 165.384 103.842 164.907 103.842C164.317 103.842 163.814 103.71 163.397 103.445C162.989 103.18 162.69 102.81 162.501 102.333C162.327 101.924 162.24 101.357 162.24 100.63C162.24 100.191 162.285 99.8358 162.376 99.5634C162.527 99.0338 162.811 98.6176 163.227 98.3149C163.651 98.0047 164.158 97.8496 164.748 97.8496C166.239 97.8496 167.079 98.629 167.268 100.188ZM164.748 98.9846C164.468 98.9846 164.234 99.0565 164.044 99.2002C163.863 99.3364 163.734 99.5294 163.658 99.7791C163.613 99.9077 163.583 100.074 163.568 100.278C163.553 100.316 163.568 100.335 163.613 100.335H165.917C165.955 100.335 165.974 100.316 165.974 100.278C165.959 100.089 165.936 99.9456 165.906 99.8472C165.838 99.5748 165.701 99.3629 165.497 99.2116C165.3 99.0603 165.051 98.9846 164.748 98.9846ZM176.293 96.794C176.293 96.8319 176.278 96.8659 176.248 96.8962C176.225 96.9189 176.195 96.9302 176.157 96.9302H172.287C172.249 96.9302 172.23 96.9492 172.23 96.987V99.1094C172.23 99.1473 172.249 99.1662 172.287 99.1662H174.886C174.924 99.1662 174.954 99.1813 174.977 99.2116C175.007 99.2343 175.022 99.2646 175.022 99.3024V100.165C175.022 100.203 175.007 100.237 174.977 100.267C174.954 100.29 174.924 100.301 174.886 100.301H172.287C172.249 100.301 172.23 100.32 172.23 100.358V102.548C172.23 102.586 172.249 102.605 172.287 102.605H176.157C176.195 102.605 176.225 102.62 176.248 102.651C176.278 102.673 176.293 102.704 176.293 102.741V103.604C176.293 103.642 176.278 103.676 176.248 103.706C176.225 103.729 176.195 103.74 176.157 103.74H171.05C171.012 103.74 170.978 103.729 170.948 103.706C170.925 103.676 170.914 103.642 170.914 103.604V95.9314C170.914 95.8936 170.925 95.8633 170.948 95.8406C170.978 95.8104 171.012 95.7952 171.05 95.7952H176.157C176.195 95.7952 176.225 95.8104 176.248 95.8406C176.278 95.8633 176.293 95.8936 176.293 95.9314V96.794ZM179.923 103.831C179.34 103.831 178.837 103.683 178.414 103.388C177.99 103.086 177.695 102.681 177.528 102.174C177.407 101.833 177.347 101.379 177.347 100.812C177.347 100.267 177.407 99.8207 177.528 99.4726C177.687 98.9732 177.978 98.5798 178.402 98.2922C178.833 97.9971 179.34 97.8496 179.923 97.8496C180.513 97.8496 181.028 97.9971 181.467 98.2922C181.906 98.5873 182.197 98.9581 182.341 99.4045C182.378 99.5256 182.405 99.6467 182.42 99.7677V99.7904C182.42 99.8661 182.378 99.9115 182.295 99.9266L181.274 100.074H181.251C181.183 100.074 181.138 100.036 181.115 99.9607C181.115 99.9229 181.111 99.8926 181.103 99.8699C181.088 99.8094 181.073 99.7564 181.058 99.711C180.99 99.4991 180.854 99.3251 180.649 99.1889C180.445 99.0527 180.203 98.9846 179.923 98.9846C179.636 98.9846 179.39 99.0603 179.185 99.2116C178.989 99.3554 178.856 99.5559 178.788 99.8131C178.712 100.055 178.675 100.392 178.675 100.823C178.675 101.239 178.709 101.576 178.777 101.833C178.852 102.098 178.989 102.31 179.185 102.469C179.382 102.62 179.628 102.696 179.923 102.696C180.211 102.696 180.457 102.624 180.661 102.48C180.873 102.329 181.009 102.129 181.069 101.879C181.077 101.864 181.081 101.845 181.081 101.822C181.088 101.815 181.092 101.803 181.092 101.788C181.115 101.697 181.168 101.659 181.251 101.675L182.273 101.833C182.31 101.841 182.341 101.86 182.363 101.89C182.394 101.913 182.405 101.947 182.397 101.992C182.375 102.113 182.356 102.2 182.341 102.253C182.197 102.738 181.906 103.124 181.467 103.411C181.028 103.691 180.513 103.831 179.923 103.831ZM185.943 103.831C185.345 103.831 184.83 103.68 184.399 103.377C183.975 103.074 183.677 102.654 183.503 102.117C183.374 101.709 183.31 101.277 183.31 100.823C183.31 100.339 183.37 99.9077 183.491 99.5294C183.665 98.9997 183.968 98.5873 184.399 98.2922C184.83 97.9971 185.349 97.8496 185.954 97.8496C186.529 97.8496 187.025 97.9971 187.441 98.2922C187.865 98.5873 188.164 98.9959 188.338 99.518C188.474 99.8812 188.542 100.313 188.542 100.812C188.542 101.289 188.478 101.72 188.349 102.106C188.175 102.643 187.876 103.067 187.452 103.377C187.029 103.68 186.525 103.831 185.943 103.831ZM185.943 102.696C186.223 102.696 186.461 102.617 186.658 102.458C186.862 102.299 187.01 102.076 187.1 101.788C187.176 101.538 187.214 101.221 187.214 100.835C187.214 100.426 187.176 100.108 187.1 99.8812C187.017 99.5937 186.873 99.3743 186.669 99.2229C186.465 99.064 186.215 98.9846 185.92 98.9846C185.64 98.9846 185.398 99.064 185.194 99.2229C184.989 99.3743 184.842 99.5937 184.751 99.8812C184.675 100.146 184.638 100.464 184.638 100.835C184.638 101.205 184.675 101.523 184.751 101.788C184.834 102.076 184.978 102.299 185.182 102.458C185.394 102.617 185.648 102.696 185.943 102.696ZM192.567 97.8496C193.18 97.8496 193.668 98.0312 194.032 98.3944C194.402 98.7576 194.588 99.2532 194.588 99.8812V103.604C194.588 103.642 194.573 103.676 194.542 103.706C194.52 103.729 194.489 103.74 194.451 103.74H193.407C193.369 103.74 193.335 103.729 193.305 103.706C193.282 103.676 193.271 103.642 193.271 103.604V100.154C193.271 99.8056 193.173 99.5256 192.976 99.3137C192.779 99.0943 192.518 98.9846 192.193 98.9846C191.867 98.9846 191.603 99.0905 191.398 99.3024C191.202 99.5143 191.103 99.7942 191.103 100.142V103.604C191.103 103.642 191.088 103.676 191.058 103.706C191.035 103.729 191.005 103.74 190.967 103.74H189.923C189.885 103.74 189.851 103.729 189.821 103.706C189.798 103.676 189.787 103.642 189.787 103.604V98.0766C189.787 98.0388 189.798 98.0085 189.821 97.9858C189.851 97.9555 189.885 97.9404 189.923 97.9404H190.967C191.005 97.9404 191.035 97.9555 191.058 97.9858C191.088 98.0085 191.103 98.0388 191.103 98.0766V98.4398C191.103 98.4625 191.111 98.4776 191.126 98.4852C191.141 98.4928 191.152 98.4852 191.16 98.4625C191.47 98.0539 191.939 97.8496 192.567 97.8496ZM198.379 103.831C197.781 103.831 197.267 103.68 196.835 103.377C196.412 103.074 196.113 102.654 195.939 102.117C195.81 101.709 195.746 101.277 195.746 100.823C195.746 100.339 195.806 99.9077 195.927 99.5294C196.101 98.9997 196.404 98.5873 196.835 98.2922C197.267 97.9971 197.785 97.8496 198.39 97.8496C198.965 97.8496 199.461 97.9971 199.877 98.2922C200.301 98.5873 200.6 98.9959 200.774 99.518C200.91 99.8812 200.978 100.313 200.978 100.812C200.978 101.289 200.914 101.72 200.785 102.106C200.611 102.643 200.312 103.067 199.889 103.377C199.465 103.68 198.962 103.831 198.379 103.831ZM198.379 102.696C198.659 102.696 198.897 102.617 199.094 102.458C199.298 102.299 199.446 102.076 199.537 101.788C199.612 101.538 199.65 101.221 199.65 100.835C199.65 100.426 199.612 100.108 199.537 99.8812C199.453 99.5937 199.31 99.3743 199.105 99.2229C198.901 99.064 198.651 98.9846 198.356 98.9846C198.076 98.9846 197.834 99.064 197.63 99.2229C197.426 99.3743 197.278 99.5937 197.187 99.8812C197.112 100.146 197.074 100.464 197.074 100.835C197.074 101.205 197.112 101.523 197.187 101.788C197.27 102.076 197.414 102.299 197.619 102.458C197.83 102.617 198.084 102.696 198.379 102.696ZM208.431 97.8496C209.014 97.8496 209.468 98.0274 209.793 98.383C210.126 98.7311 210.293 99.2192 210.293 99.8472V103.604C210.293 103.642 210.278 103.676 210.247 103.706C210.225 103.729 210.194 103.74 210.156 103.74H209.124C209.086 103.74 209.052 103.729 209.021 103.706C208.999 103.676 208.987 103.642 208.987 103.604V100.12C208.987 99.7715 208.893 99.4953 208.704 99.291C208.522 99.0867 208.276 98.9846 207.966 98.9846C207.656 98.9846 207.402 99.0867 207.205 99.291C207.009 99.4953 206.91 99.7677 206.91 100.108V103.604C206.91 103.642 206.895 103.676 206.865 103.706C206.842 103.729 206.812 103.74 206.774 103.74H205.741C205.704 103.74 205.669 103.729 205.639 103.706C205.616 103.676 205.605 103.642 205.605 103.604V100.12C205.605 99.7715 205.511 99.4953 205.321 99.291C205.132 99.0867 204.883 98.9846 204.572 98.9846C204.285 98.9846 204.046 99.0678 203.857 99.2343C203.676 99.4008 203.57 99.6278 203.539 99.9153V103.604C203.539 103.642 203.524 103.676 203.494 103.706C203.471 103.729 203.441 103.74 203.403 103.74H202.359C202.321 103.74 202.287 103.729 202.257 103.706C202.234 103.676 202.223 103.642 202.223 103.604V98.0766C202.223 98.0388 202.234 98.0085 202.257 97.9858C202.287 97.9555 202.321 97.9404 202.359 97.9404H203.403C203.441 97.9404 203.471 97.9555 203.494 97.9858C203.524 98.0085 203.539 98.0388 203.539 98.0766V98.4511C203.539 98.4738 203.547 98.489 203.562 98.4965C203.577 98.5041 203.592 98.4965 203.608 98.4738C203.774 98.262 203.978 98.1069 204.22 98.0085C204.47 97.9026 204.746 97.8496 205.049 97.8496C205.42 97.8496 205.745 97.9253 206.025 98.0766C206.305 98.2279 206.521 98.4474 206.672 98.7349C206.695 98.7652 206.721 98.7652 206.751 98.7349C206.918 98.4322 207.149 98.209 207.444 98.0652C207.739 97.9215 208.068 97.8496 208.431 97.8496ZM211.32 105.999C211.297 105.999 211.279 105.984 211.263 105.953C211.248 105.931 211.241 105.901 211.241 105.863V105.045C211.241 105.008 211.252 104.974 211.275 104.943C211.305 104.921 211.339 104.909 211.377 104.909H211.388C211.698 104.902 211.941 104.868 212.115 104.807C212.289 104.754 212.432 104.648 212.546 104.489C212.659 104.33 212.762 104.092 212.852 103.774C212.86 103.759 212.86 103.736 212.852 103.706L210.98 98.0879C210.972 98.0728 210.968 98.0539 210.968 98.0312C210.968 97.9631 211.006 97.929 211.082 97.929H212.194C212.277 97.929 212.33 97.9669 212.353 98.0425L213.488 102.038C213.496 102.06 213.507 102.072 213.522 102.072C213.537 102.072 213.549 102.06 213.556 102.038L214.691 98.0425C214.714 97.9669 214.767 97.929 214.85 97.929H215.928C215.974 97.929 216.004 97.9442 216.019 97.9744C216.042 97.9971 216.046 98.035 216.03 98.0879L214.033 104.058C213.844 104.595 213.658 104.996 213.477 105.261C213.295 105.526 213.045 105.715 212.728 105.829C212.417 105.942 211.975 105.999 211.4 105.999H211.32Z" fill="#231F20"/>
<path d="M227.865 103.42C227.703 103.42 227.622 103.339 227.622 103.176V102.172C227.622 102.06 227.662 101.964 227.743 101.882C228.22 101.375 229.017 100.472 230.133 99.1726L231.108 98.0461C232.041 96.9602 232.508 96.1381 232.508 95.5799C232.508 95.1638 232.361 94.8238 232.067 94.5599C231.772 94.2961 231.392 94.1641 230.925 94.1641C230.458 94.1641 230.078 94.2961 229.783 94.5599C229.499 94.8238 229.357 95.1739 229.357 95.6103V95.9453C229.357 96.1076 229.276 96.1888 229.113 96.1888H227.819C227.657 96.1888 227.576 96.1076 227.576 95.9453V95.3516C227.596 94.8035 227.753 94.3265 228.048 93.9206C228.342 93.5146 228.738 93.2 229.235 92.9767C229.743 92.7534 230.306 92.6418 230.925 92.6418C231.605 92.6418 232.199 92.7687 232.706 93.0224C233.214 93.2761 233.604 93.6262 233.878 94.0728C234.152 94.5092 234.289 95.0014 234.289 95.5495C234.289 96.3817 233.848 97.3407 232.965 98.4267C232.64 98.8428 232.254 99.3045 231.808 99.812C231.361 100.319 230.915 100.822 230.468 101.319L230.042 101.791C230.012 101.821 230.001 101.847 230.012 101.867C230.022 101.887 230.047 101.898 230.088 101.898H234.289C234.452 101.898 234.533 101.979 234.533 102.141V103.176C234.533 103.339 234.452 103.42 234.289 103.42H227.865ZM239.553 103.587C238.488 103.587 237.64 103.288 237.011 102.689C236.392 102.08 236.082 101.263 236.082 100.238V95.9453C236.082 94.9304 236.392 94.1286 237.011 93.54C237.64 92.9412 238.488 92.6418 239.553 92.6418C240.619 92.6418 241.466 92.9412 242.096 93.54C242.735 94.1286 243.055 94.9304 243.055 95.9453V100.238C243.055 101.263 242.735 102.08 242.096 102.689C241.466 103.288 240.619 103.587 239.553 103.587ZM239.553 102.05C240.081 102.05 240.502 101.898 240.817 101.593C241.131 101.279 241.289 100.857 241.289 100.33V95.8844C241.289 95.3566 241.131 94.9405 240.817 94.6361C240.502 94.3214 240.081 94.1641 239.553 94.1641C239.036 94.1641 238.62 94.3214 238.305 94.6361C238.001 94.9405 237.848 95.3566 237.848 95.8844V100.33C237.848 100.857 238.001 101.279 238.305 101.593C238.62 101.898 239.036 102.05 239.553 102.05ZM244.902 103.42C244.74 103.42 244.659 103.339 244.659 103.176V102.172C244.659 102.06 244.699 101.964 244.78 101.882C245.257 101.375 246.054 100.472 247.17 99.1726L248.145 98.0461C249.078 96.9602 249.545 96.1381 249.545 95.5799C249.545 95.1638 249.398 94.8238 249.104 94.5599C248.809 94.2961 248.429 94.1641 247.962 94.1641C247.495 94.1641 247.115 94.2961 246.82 94.5599C246.536 94.8238 246.394 95.1739 246.394 95.6103V95.9453C246.394 96.1076 246.313 96.1888 246.15 96.1888H244.856C244.694 96.1888 244.613 96.1076 244.613 95.9453V95.3516C244.633 94.8035 244.791 94.3265 245.085 93.9206C245.379 93.5146 245.775 93.2 246.272 92.9767C246.78 92.7534 247.343 92.6418 247.962 92.6418C248.642 92.6418 249.236 92.7687 249.743 93.0224C250.251 93.2761 250.641 93.6262 250.915 94.0728C251.189 94.5092 251.326 95.0014 251.326 95.5495C251.326 96.3817 250.885 97.3407 250.002 98.4267C249.677 98.8428 249.292 99.3045 248.845 99.812C248.398 100.319 247.952 100.822 247.505 101.319L247.079 101.791C247.049 101.821 247.038 101.847 247.049 101.867C247.059 101.887 247.084 101.898 247.125 101.898H251.326C251.489 101.898 251.57 101.979 251.57 102.141V103.176C251.57 103.339 251.489 103.42 251.326 103.42H244.902ZM260.168 99.0356C260.33 99.0356 260.411 99.1168 260.411 99.2792V100.375C260.411 100.538 260.33 100.619 260.168 100.619H259.62C259.559 100.619 259.528 100.649 259.528 100.71V103.176C259.528 103.339 259.447 103.42 259.285 103.42H258.006C257.844 103.42 257.763 103.339 257.763 103.176V100.71C257.763 100.649 257.732 100.619 257.671 100.619H253.104C252.942 100.619 252.861 100.538 252.861 100.375V99.4923C252.861 99.3807 252.881 99.2842 252.922 99.2031L255.784 92.9463C255.834 92.8245 255.926 92.7636 256.058 92.7636H257.412C257.554 92.7636 257.626 92.8194 257.626 92.931L257.595 93.0528L254.931 98.929C254.901 99.0001 254.926 99.0356 255.007 99.0356H257.671C257.732 99.0356 257.763 99.0052 257.763 98.9443V96.95C257.763 96.7876 257.844 96.7064 258.006 96.7064H259.285C259.447 96.7064 259.528 96.7876 259.528 96.95V98.9443C259.528 99.0052 259.559 99.0356 259.62 99.0356H260.168Z" fill="#151515"/>
</svg>
