<svg width="509" height="90" viewBox="0 0 509 90" fill="none" xmlns="http://www.w3.org/2000/svg">
<g clip-path="url(#clip0_4_70)">
<path d="M1.6815 34.1709V7.75781H11.6403C19.4148 7.75781 23.0003 9.11583 23.0003 13.3408C23.0003 15.1874 22.1668 16.2868 20.6219 16.9262C23.9415 17.7957 25.8672 19.7572 25.8672 23.9463C25.8672 30.8513 20.7369 34.135 11.8702 34.1709V22.926C15.6784 22.926 17.1874 21.9056 17.1874 20.5476C17.1874 19.4124 16.397 17.7957 14.3923 17.7957H10.3541V31.5699L3.26227 34.1709H1.67432H1.6815ZM11.9062 16.2868C13.53 16.2868 14.3204 14.4761 14.3204 12.5145C14.3204 10.1361 13.2283 9.26672 11.4894 9.26672H10.3613V16.2868H11.9062Z" fill="white"/>
<path d="M28.1304 24.7367C28.1304 18.7369 31.9386 14.7347 37.6365 14.7347C43.3344 14.7347 47.1426 18.0184 47.1426 21.1871C47.1426 23.3786 43.7871 24.3199 40.2376 24.7367L36.5803 25.1893C36.8821 27.115 37.7084 28.6958 39.8999 28.6958C41.5956 28.6958 42.7668 28.2431 45.217 26.9569L48.4647 32.2022C45.1092 34.4655 42.7309 34.7314 39.3753 34.7314C32.1685 34.7314 28.1304 30.7292 28.1304 24.7295V24.7367ZM37.2557 23.5295C38.4987 23.3427 38.8436 22.1356 38.8436 20.3249C38.8436 18.5142 38.47 16.2508 37.6365 16.2508C36.4294 16.2508 36.4294 20.3608 36.4294 22.4733C36.4294 22.8541 36.4294 23.2637 36.4653 23.6445L37.2557 23.5295Z" fill="white"/>
<path d="M57.6335 43.1885C54.4289 43.1885 52.6541 42.8077 50.1608 41.3778L52.726 36.1326C54.6157 36.887 57.5545 37.1529 59.2933 37.1529C61.8944 37.1529 63.7482 35.7589 64.5027 34.135C59.4873 33.8333 56.6923 32.5112 54.6516 27.5318L51.7847 20.5117C50.9153 18.3633 50.089 16.6604 47.8975 14.7419C54.8385 14.7419 57.2886 14.821 59.3652 19.8722L61.1399 24.2122C62.3111 27.0432 64.0859 27.7617 68.5336 27.7617V34.25C68.5336 39.2653 64.1937 43.1885 57.6263 43.1885H57.6335Z" fill="#11A24A"/>
<path d="M65.5157 14.7419C68.1168 14.7419 69.8556 16.5167 69.8556 19.0819C69.8556 21.647 68.1168 23.4218 65.5157 23.4218C62.9146 23.4218 61.1758 21.6829 61.1758 19.0819C61.1758 16.4808 62.9505 14.7419 65.5157 14.7419Z" fill="#F15A29"/>
<path d="M112.981 34.171H104.682V26.8491C104.682 20.8135 104.23 16.5454 103.36 16.5454C102.34 16.5454 101.621 18.8447 101.55 23.2996V34.1638H93.2505V15.3024H94.7594L101.133 17.7526C102.038 15.3024 103.511 14.7347 105.056 14.7347C110.488 14.7347 112.981 19.0747 112.981 25.448V34.1638V34.171Z" fill="white"/>
<path d="M127.733 31.7566C126.828 34.2068 125.168 34.7385 122.718 34.7385C117.774 34.7385 115.245 30.7363 115.245 24.7366C115.245 18.7369 117.774 14.7347 122.718 14.7347C124.794 14.7347 126.303 15.1514 127.245 16.7753V5.86804H135.544V34.1637H134.035L127.733 31.7495V31.7566ZM125.434 28.7029C126.49 28.7029 127.245 26.2527 127.245 22.7032C127.245 19.1536 126.49 16.7394 125.434 16.7394C124.299 16.7394 123.544 19.1536 123.544 22.7391C123.544 26.3246 124.299 28.7029 125.434 28.7029Z" fill="white"/>
<path d="M0 41.4066H20.4853V48.9511H12.0354C10.7492 50.4601 10.5624 51.2864 10.5624 53.4779C10.5624 55.2527 11.9204 57.1352 13.882 57.1352C15.2759 57.1352 15.9585 56.7975 17.3884 55.6622L19.465 65.8078C16.6771 67.7694 15.7286 68.373 12.409 68.373C5.95661 68.373 1.92566 63.7313 1.92566 58.1483C1.92566 51.5091 7.81041 48.944 10.5624 48.944H0V41.3994V41.4066Z" fill="white"/>
<path d="M62.8858 67.8126H54.5868V58.2705C54.5868 52.2349 54.206 50.2014 53.5306 50.2014C52.7402 50.2014 52.2085 52.6516 52.1725 57.3652V67.8126H43.8735V48.9512H45.3824L51.6839 51.3654C52.4743 48.9512 53.8683 48.3835 55.7221 48.3835C59.0058 48.3835 61.0033 49.5547 62.0595 52.2708C62.699 49.1021 64.057 48.3835 66.3204 48.3835C70.4304 48.3835 73.5991 50.4601 73.5991 57.5879V67.8126H65.3001V58.2705C65.3001 52.2349 64.9264 50.2014 64.2438 50.2014C63.3744 50.2014 62.8499 52.9893 62.8858 58.3855V67.8198V67.8126Z" fill="white"/>
<path d="M105.286 51.5523V67.8126H96.9868V48.9512H98.4957L105.286 51.5523ZM110.761 48.3835C113.362 48.3835 115.101 50.1583 115.101 52.7235C115.101 55.2886 113.362 57.0634 110.761 57.0634C108.16 57.0634 106.421 55.3245 106.421 52.7235C106.421 50.1224 108.196 48.3835 110.761 48.3835Z" fill="white"/>
<path d="M124.902 51.5523V67.8126H116.603V48.9512H118.111L124.902 51.5523ZM130.377 48.3835C132.978 48.3835 134.717 50.1583 134.717 52.7235C134.717 55.2886 132.978 57.0634 130.377 57.0634C127.776 57.0634 126.037 55.3245 126.037 52.7235C126.037 50.1224 127.812 48.3835 130.377 48.3835Z" fill="white"/>
<path d="M162.819 63.1349L159.578 55.0228C158.601 52.5295 157.653 50.6469 155.274 48.3835C162.481 48.3835 165.046 48.4626 167.195 53.8516L170.328 61.7338C171.348 64.299 173.266 66.8641 176.514 68.373C168.934 68.373 164.86 68.2221 162.819 63.1278V63.1349Z" fill="#BC1C86"/>
<path d="M173 63.1349L169.76 55.0228C168.782 52.5295 167.834 50.6469 165.456 48.3835C172.662 48.3835 175.228 48.4626 177.376 53.8516L179.223 58.4932C180.66 62.0356 183.074 61.8847 186.092 61.8847L187.414 68.373C179.833 68.373 175.041 68.2221 173 63.1278V63.1349Z" fill="#FF04C8"/>
<path d="M183.376 48.3835C185.977 48.3835 187.715 50.1583 187.715 52.7235C187.715 55.2886 185.977 57.0634 183.376 57.0634C180.774 57.0634 179.036 55.3245 179.036 52.7235C179.036 50.1224 180.81 48.3835 183.376 48.3835Z" fill="#11A24A"/>
<path d="M145.653 48.3835C139.991 48.3835 136.219 52.3786 136.219 58.3783C136.219 64.378 139.991 68.373 145.653 68.373C151.315 68.373 155.08 64.3708 155.08 58.3783C155.08 52.3857 151.308 48.3835 145.653 48.3835ZM145.33 62.7182C142.765 62.7182 140.99 60.9794 140.99 58.3783C140.99 55.7772 142.765 54.0384 145.33 54.0384C147.895 54.0384 149.67 55.8131 149.67 58.3783C149.67 60.9434 147.931 62.7182 145.33 62.7182Z" fill="white"/>
<path d="M81.5529 14.7419C75.8909 14.7419 72.1187 18.7442 72.1187 24.7439C72.1187 30.7436 75.8909 34.7458 81.5529 34.7458C87.2149 34.7458 90.9872 30.7436 90.9872 24.7439C90.9872 18.7442 87.2149 14.7419 81.5529 14.7419ZM81.5529 29.0766C78.9878 29.0766 77.213 27.3378 77.213 24.7367C77.213 22.1356 78.9878 20.3968 81.5529 20.3968C84.1181 20.3968 85.8929 22.1715 85.8929 24.7367C85.8929 27.3018 84.154 29.0766 81.5529 29.0766Z" fill="white"/>
<path d="M32.1755 48.3835C26.5135 48.3835 22.7412 52.3786 22.7412 58.3783C22.7412 64.378 26.5135 68.373 32.1755 68.373C37.8375 68.373 41.6026 64.3708 41.6026 58.3783C41.6026 52.3857 37.8303 48.3835 32.1755 48.3835ZM32.1755 62.7182C29.6103 62.7182 27.8356 60.9794 27.8356 58.3783C27.8356 55.7772 29.6103 54.0384 32.1755 54.0384C34.7406 54.0384 36.5154 55.8131 36.5154 58.3783C36.5154 60.9434 34.7766 62.7182 32.1755 62.7182Z" fill="white"/>
<path d="M85.2966 48.3835C79.6346 48.3835 75.8623 52.3786 75.8623 58.3783C75.8623 64.378 79.6346 68.373 85.2966 68.373C90.9586 68.373 94.7237 64.3708 94.7237 58.3783C94.7237 52.3857 90.9514 48.3835 85.2966 48.3835ZM85.2966 62.7182C82.7314 62.7182 80.9567 60.9794 80.9567 58.3783C80.9567 55.7772 82.7314 54.0384 85.2966 54.0384C87.8617 54.0384 89.6365 55.8131 89.6365 58.3783C89.6365 60.9434 87.8977 62.7182 85.2966 62.7182Z" fill="white"/>
<path d="M3.08558 79.8521C2.65519 79.8521 2.27998 79.7831 1.95995 79.6452C1.63991 79.5072 1.39161 79.3141 1.21504 79.0658C1.04399 78.8175 0.958466 78.5251 0.958466 78.1885V77.9816C0.958466 77.954 0.966742 77.9319 0.983296 77.9153C1.00536 77.8933 1.03019 77.8822 1.05778 77.8822H1.79441C1.822 77.8822 1.84407 77.8933 1.86063 77.9153C1.8827 77.9319 1.89373 77.954 1.89373 77.9816V78.1388C1.89373 78.3926 2.00685 78.6051 2.23308 78.7761C2.45931 78.9417 2.76831 79.0244 3.16007 79.0244C3.49666 79.0244 3.75048 78.9527 3.92153 78.8092C4.09258 78.6658 4.17811 78.4809 4.17811 78.2547C4.17811 78.1002 4.13121 77.9705 4.03741 77.8657C3.9436 77.7553 3.80842 77.656 3.63185 77.5677C3.46079 77.4794 3.20146 77.3691 2.85383 77.2367C2.46207 77.0932 2.14479 76.958 1.90201 76.8311C1.65923 76.7042 1.45507 76.5331 1.28953 76.3179C1.12951 76.0972 1.04951 75.8241 1.04951 75.4985C1.04951 75.013 1.22608 74.6295 1.57922 74.3481C1.93236 74.0667 2.40413 73.926 2.99454 73.926C3.40837 73.926 3.77255 73.9977 4.08707 74.1412C4.4071 74.2846 4.6554 74.486 4.83197 74.7454C5.00854 74.9992 5.09683 75.2944 5.09683 75.631V75.7717C5.09683 75.7993 5.08579 75.8241 5.06372 75.8462C5.04717 75.8627 5.0251 75.871 4.99751 75.871H4.2526C4.22501 75.871 4.20018 75.8627 4.17811 75.8462C4.16156 75.8241 4.15328 75.7993 4.15328 75.7717V75.6806C4.15328 75.4213 4.04568 75.2033 3.83049 75.0268C3.62081 74.8447 3.32837 74.7536 2.95315 74.7536C2.64967 74.7536 2.41241 74.8171 2.24136 74.944C2.07582 75.0709 1.99305 75.2502 1.99305 75.482C1.99305 75.6475 2.0372 75.7827 2.12548 75.8875C2.21377 75.9924 2.34619 76.0889 2.52276 76.1772C2.69933 76.26 2.97247 76.3676 3.34216 76.5C3.73393 76.649 4.04568 76.7842 4.27743 76.9056C4.5147 77.027 4.7161 77.198 4.88163 77.4187C5.05269 77.6339 5.13821 77.9043 5.13821 78.2299C5.13821 78.7265 4.95336 79.121 4.58367 79.4134C4.21949 79.7059 3.72013 79.8521 3.08558 79.8521ZM8.04186 75.4903C8.4888 75.4903 8.8447 75.6227 9.10955 75.8875C9.37993 76.1524 9.51511 76.5138 9.51511 76.9718V79.6866C9.51511 79.7142 9.50408 79.739 9.48201 79.7611C9.46545 79.7776 9.44338 79.7859 9.41579 79.7859H8.65433C8.62674 79.7859 8.60191 79.7776 8.57984 79.7611C8.56329 79.739 8.55501 79.7142 8.55501 79.6866V77.1704C8.55501 76.9166 8.48328 76.7125 8.33982 76.558C8.19635 76.3979 8.00599 76.3179 7.76872 76.3179C7.53146 76.3179 7.33833 76.3952 7.18935 76.5497C7.04589 76.7042 6.97416 76.9083 6.97416 77.1622V79.6866C6.97416 79.7142 6.96312 79.739 6.94105 79.7611C6.9245 79.7776 6.90243 79.7859 6.87484 79.7859H6.11338C6.08579 79.7859 6.06096 79.7776 6.03889 79.7611C6.02233 79.739 6.01406 79.7142 6.01406 79.6866V74.0915C6.01406 74.0639 6.02233 74.0418 6.03889 74.0253C6.06096 74.0032 6.08579 73.9922 6.11338 73.9922H6.87484C6.90243 73.9922 6.9245 74.0032 6.94105 74.0253C6.96312 74.0418 6.97416 74.0639 6.97416 74.0915V75.9207C6.97416 75.9372 6.97968 75.9482 6.99071 75.9538C7.00175 75.9593 7.01002 75.9538 7.01554 75.9372C7.24177 75.6392 7.58388 75.4903 8.04186 75.4903ZM12.1301 75.4903C12.4777 75.4903 12.784 75.551 13.0488 75.6724C13.3137 75.7937 13.5178 75.962 13.6613 76.1772C13.8048 76.3869 13.8765 76.6269 13.8765 76.8973V79.6866C13.8765 79.7142 13.8655 79.739 13.8434 79.7611C13.8268 79.7776 13.8048 79.7859 13.7772 79.7859H13.0157C12.9881 79.7859 12.9633 79.7776 12.9412 79.7611C12.9247 79.739 12.9164 79.7142 12.9164 79.6866V79.4217C12.9164 79.4052 12.9109 79.3969 12.8998 79.3969C12.8888 79.3914 12.8778 79.3941 12.8667 79.4052C12.5964 79.7031 12.2046 79.8521 11.6914 79.8521C11.2776 79.8521 10.9355 79.7473 10.6651 79.5376C10.4003 79.3279 10.2678 79.0162 10.2678 78.6023C10.2678 78.1719 10.4168 77.8381 10.7148 77.6008C11.0183 77.358 11.4431 77.2367 11.9894 77.2367H12.875C12.9026 77.2367 12.9164 77.2229 12.9164 77.1953V76.9966C12.9164 76.7814 12.8529 76.6159 12.726 76.5C12.5991 76.3786 12.4088 76.3179 12.1549 76.3179C11.9453 76.3179 11.7742 76.3566 11.6418 76.4338C11.5149 76.5055 11.4349 76.6076 11.4018 76.7401C11.3852 76.8063 11.3466 76.8339 11.2859 76.8228L10.483 76.7235C10.4554 76.718 10.4306 76.7097 10.4085 76.6987C10.392 76.6821 10.3865 76.6628 10.392 76.6407C10.4361 76.3041 10.6155 76.0283 10.93 75.8131C11.25 75.5979 11.6501 75.4903 12.1301 75.4903ZM11.9315 79.0906C12.2018 79.0906 12.4336 79.0189 12.6267 78.8754C12.8198 78.732 12.9164 78.5499 12.9164 78.3292V77.9402C12.9164 77.9126 12.9026 77.8988 12.875 77.8988H12.1798C11.8873 77.8988 11.6556 77.954 11.4845 78.0643C11.319 78.1747 11.2362 78.3319 11.2362 78.5361C11.2362 78.7127 11.2997 78.8506 11.4266 78.9499C11.559 79.0437 11.7273 79.0906 11.9315 79.0906ZM18.4242 76.649C18.5236 76.9304 18.5732 77.2753 18.5732 77.6836C18.5732 78.0754 18.5263 78.412 18.4325 78.6934C18.3111 79.0575 18.1152 79.3417 17.8449 79.5459C17.58 79.75 17.2434 79.8521 16.8351 79.8521C16.4433 79.8521 16.1288 79.7114 15.8916 79.43C15.8805 79.419 15.8695 79.4162 15.8585 79.4217C15.8474 79.4272 15.8419 79.4383 15.8419 79.4548V81.2509C15.8419 81.2785 15.8309 81.3005 15.8088 81.3171C15.7922 81.3392 15.7702 81.3502 15.7426 81.3502H14.9811C14.9535 81.3502 14.9287 81.3392 14.9066 81.3171C14.8901 81.3005 14.8818 81.2785 14.8818 81.2509V75.6558C14.8818 75.6282 14.8901 75.6061 14.9066 75.5896C14.9287 75.5675 14.9535 75.5565 14.9811 75.5565H15.7426C15.7702 75.5565 15.7922 75.5675 15.8088 75.5896C15.8309 75.6061 15.8419 75.6282 15.8419 75.6558V75.9041C15.8419 75.9207 15.8474 75.9317 15.8585 75.9372C15.8695 75.9427 15.8805 75.9372 15.8916 75.9207C16.1343 75.6337 16.4516 75.4903 16.8434 75.4903C17.2351 75.4903 17.5662 75.5923 17.8366 75.7965C18.107 76.0007 18.3028 76.2848 18.4242 76.649ZM17.3483 78.6768C17.5138 78.423 17.5966 78.0864 17.5966 77.667C17.5966 77.2642 17.5303 76.947 17.3979 76.7152C17.2434 76.4448 17.0089 76.3097 16.6944 76.3097C16.4075 76.3097 16.1923 76.4421 16.0488 76.7069C15.9219 76.9221 15.8585 77.2422 15.8585 77.667C15.8585 78.103 15.9274 78.434 16.0654 78.6603C16.2088 78.903 16.4158 79.0244 16.6861 79.0244C16.9786 79.0244 17.1993 78.9086 17.3483 78.6768ZM20.0504 74.9771C19.8794 74.9771 19.7387 74.9219 19.6283 74.8116C19.518 74.7012 19.4628 74.5605 19.4628 74.3895C19.4628 74.2184 19.518 74.0777 19.6283 73.9673C19.7387 73.857 19.8794 73.8018 20.0504 73.8018C20.2215 73.8018 20.3622 73.857 20.4725 73.9673C20.5829 74.0777 20.6381 74.2184 20.6381 74.3895C20.6381 74.5605 20.5829 74.7012 20.4725 74.8116C20.3622 74.9219 20.2215 74.9771 20.0504 74.9771ZM19.6531 79.7859C19.6255 79.7859 19.6007 79.7776 19.5786 79.7611C19.5621 79.739 19.5538 79.7142 19.5538 79.6866V75.6475C19.5538 75.6199 19.5621 75.5979 19.5786 75.5813C19.6007 75.5592 19.6255 75.5482 19.6531 75.5482H20.4146C20.4422 75.5482 20.4643 75.5592 20.4808 75.5813C20.5029 75.5979 20.5139 75.6199 20.5139 75.6475V79.6866C20.5139 79.7142 20.5029 79.739 20.4808 79.7611C20.4643 79.7776 20.4422 79.7859 20.4146 79.7859H19.6531ZM23.6416 75.4903C24.0885 75.4903 24.4444 75.6227 24.7092 75.8875C24.9796 76.1524 25.1148 76.5138 25.1148 76.9718V79.6866C25.1148 79.7142 25.1038 79.739 25.0817 79.7611C25.0651 79.7776 25.0431 79.7859 25.0155 79.7859H24.254C24.2264 79.7859 24.2016 79.7776 24.1795 79.7611C24.163 79.739 24.1547 79.7142 24.1547 79.6866V77.1704C24.1547 76.9166 24.083 76.7125 23.9395 76.558C23.7961 76.3979 23.6057 76.3179 23.3684 76.3179C23.1312 76.3179 22.938 76.3952 22.789 76.5497C22.6456 76.7042 22.5739 76.9083 22.5739 77.1622V79.6866C22.5739 79.7142 22.5628 79.739 22.5407 79.7611C22.5242 79.7776 22.5021 79.7859 22.4745 79.7859H21.7131C21.6855 79.7859 21.6607 79.7776 21.6386 79.7611C21.622 79.739 21.6138 79.7142 21.6138 79.6866V75.6558C21.6138 75.6282 21.622 75.6061 21.6386 75.5896C21.6607 75.5675 21.6855 75.5565 21.7131 75.5565H22.4745C22.5021 75.5565 22.5242 75.5675 22.5407 75.5896C22.5628 75.6061 22.5739 75.6282 22.5739 75.6558V75.9207C22.5739 75.9372 22.5794 75.9482 22.5904 75.9538C22.6014 75.9593 22.6097 75.9538 22.6152 75.9372C22.8415 75.6392 23.1836 75.4903 23.6416 75.4903ZM28.7065 75.6558C28.7065 75.6282 28.7147 75.6061 28.7313 75.5896C28.7534 75.5675 28.7782 75.5565 28.8058 75.5565H29.5672C29.5948 75.5565 29.6169 75.5675 29.6334 75.5896C29.6555 75.6061 29.6666 75.6282 29.6666 75.6558V79.5045C29.6666 80.1942 29.4679 80.6853 29.0706 80.9777C28.6789 81.2757 28.163 81.4247 27.5229 81.4247C27.3518 81.4247 27.1835 81.4164 27.018 81.3999C26.9573 81.3943 26.927 81.3585 26.927 81.2923L26.9518 80.6136C26.9518 80.5529 26.9904 80.5225 27.0677 80.5225C27.2277 80.5391 27.3711 80.5473 27.4981 80.5473C27.9119 80.5473 28.2154 80.4646 28.4085 80.299C28.6071 80.139 28.7065 79.8659 28.7065 79.4796V79.4134C28.7065 79.3969 28.7009 79.3886 28.6899 79.3886C28.6789 79.3831 28.6678 79.3858 28.6568 79.3969C28.4306 79.6397 28.1105 79.7611 27.6967 79.7611C27.338 79.7611 27.0097 79.67 26.7118 79.4879C26.4138 79.3058 26.2069 79.0272 26.091 78.652C26.0193 78.3926 25.9834 78.0588 25.9834 77.6505C25.9834 77.1925 26.0276 76.8421 26.1158 76.5993C26.2262 76.2628 26.4166 75.9951 26.6869 75.7965C26.9573 75.5923 27.2746 75.4903 27.6388 75.4903C28.0747 75.4903 28.414 75.6172 28.6568 75.871C28.6678 75.8875 28.6789 75.8931 28.6899 75.8875C28.7009 75.882 28.7065 75.871 28.7065 75.8544V75.6558ZM28.6485 78.3788C28.6706 78.2961 28.6844 78.2078 28.6899 78.114C28.7009 78.0147 28.7065 77.8574 28.7065 77.6422C28.7065 77.4325 28.7009 77.2836 28.6899 77.1953C28.6844 77.1015 28.6678 77.0104 28.6402 76.9221C28.5961 76.7401 28.5051 76.5938 28.3671 76.4835C28.2347 76.3731 28.0636 76.3179 27.854 76.3179C27.6553 76.3179 27.487 76.3731 27.3491 76.4835C27.2111 76.5938 27.1118 76.7401 27.0511 76.9221C26.9849 77.0766 26.9518 77.3194 26.9518 77.6505C26.9518 77.9926 26.9794 78.2326 27.0346 78.3706C27.0897 78.5471 27.1891 78.6934 27.3325 78.8092C27.4815 78.9196 27.6581 78.9748 27.8622 78.9748C28.0774 78.9748 28.2512 78.9196 28.3837 78.8092C28.5161 78.6989 28.6044 78.5554 28.6485 78.3788ZM32.4953 79.7859C32.4682 79.7859 32.4437 79.7777 32.422 79.7614C32.4056 79.7397 32.3975 79.7152 32.3975 79.688V74.175C32.3975 74.1479 32.4056 74.1261 32.422 74.1098C32.4437 74.088 32.4682 74.0772 32.4953 74.0772H33.2456C33.2728 74.0772 33.2946 74.088 33.3109 74.1098C33.3326 74.1261 33.3435 74.1479 33.3435 74.175V76.6135C33.3435 76.6298 33.3489 76.6407 33.3598 76.6461C33.3707 76.6515 33.3816 76.6488 33.3924 76.6379L35.5128 74.1343C35.5454 74.0962 35.5862 74.0772 35.6351 74.0772H36.4833C36.5377 74.0772 36.5648 74.0962 36.5648 74.1343C36.5648 74.1506 36.5567 74.1723 36.5404 74.1995L34.6728 76.4911C34.6565 76.5129 34.6538 76.5319 34.6647 76.5482L36.6709 79.6717C36.6817 79.7043 36.6872 79.7234 36.6872 79.7288C36.6872 79.7669 36.66 79.7859 36.6056 79.7859H35.7493C35.7004 79.7859 35.6623 79.7641 35.6351 79.7206L34.0204 77.2088C33.9986 77.1762 33.9796 77.1735 33.9633 77.2007L33.3598 77.902C33.3489 77.9238 33.3435 77.9428 33.3435 77.9591V79.688C33.3435 79.7152 33.3326 79.7397 33.3109 79.7614C33.2946 79.7777 33.2728 79.7859 33.2456 79.7859H32.4953ZM40.649 77.2333C40.6707 77.3692 40.6816 77.5214 40.6816 77.69L40.6735 77.9428C40.6735 78.008 40.6408 78.0407 40.5756 78.0407H38.023C37.9958 78.0407 37.9822 78.0542 37.9822 78.0814C37.9985 78.2608 38.023 78.3832 38.0556 78.4484C38.1861 78.8399 38.5041 79.0383 39.0098 79.0438C39.3795 79.0438 39.6731 78.8915 39.8906 78.5871C39.9123 78.5544 39.9395 78.5381 39.9721 78.5381C39.9939 78.5381 40.0129 78.5463 40.0292 78.5626L40.5348 78.9785C40.5838 79.0166 40.5919 79.0601 40.5593 79.109C40.3907 79.3482 40.1651 79.5331 39.8824 79.6636C39.6051 79.794 39.2952 79.8593 38.9527 79.8593C38.5286 79.8593 38.1671 79.7641 37.868 79.5739C37.5744 79.3836 37.3597 79.1172 37.2238 78.7746C37.0987 78.481 37.0362 78.0733 37.0362 77.5513C37.0362 77.236 37.0688 76.9805 37.1341 76.7847C37.2428 76.4042 37.4467 76.1051 37.7457 75.8877C38.0502 75.6647 38.4144 75.5533 38.8385 75.5533C39.9096 75.5533 40.5131 76.1133 40.649 77.2333ZM38.8385 76.3688C38.6374 76.3688 38.4688 76.4205 38.3329 76.5238C38.2024 76.6216 38.11 76.7603 38.0556 76.9397C38.023 77.0321 38.0012 77.1517 37.9904 77.2985C37.9795 77.3257 37.9904 77.3393 38.023 77.3393H39.6785C39.7057 77.3393 39.7193 77.3257 39.7193 77.2985C39.7084 77.1626 39.6921 77.0593 39.6704 76.9886C39.6214 76.7929 39.5236 76.6407 39.3768 76.5319C39.2354 76.4232 39.056 76.3688 38.8385 76.3688ZM43.4872 75.5696C43.6611 75.5696 43.8134 75.6049 43.9439 75.6756C43.9874 75.6974 44.0037 75.7381 43.9928 75.7979L43.8542 76.5319C43.8487 76.5972 43.8107 76.6162 43.74 76.589C43.6584 76.5618 43.5633 76.5482 43.4545 76.5482C43.3839 76.5482 43.3295 76.551 43.2914 76.5564C43.0631 76.5673 42.8728 76.6488 42.7206 76.801C42.5683 76.9478 42.4922 77.1409 42.4922 77.3801V79.688C42.4922 79.7152 42.4813 79.7397 42.4596 79.7614C42.4433 79.7777 42.4215 79.7859 42.3944 79.7859H41.6441C41.6169 79.7859 41.5924 79.7777 41.5707 79.7614C41.5544 79.7397 41.5462 79.7152 41.5462 79.688V75.7164C41.5462 75.6892 41.5544 75.6675 41.5707 75.6511C41.5924 75.6294 41.6169 75.6185 41.6441 75.6185H42.3944C42.4215 75.6185 42.4433 75.6294 42.4596 75.6511C42.4813 75.6675 42.4922 75.6892 42.4922 75.7164V76.0834C42.4922 76.1051 42.4949 76.1187 42.5004 76.1242C42.5113 76.1242 42.5221 76.116 42.533 76.0997C42.7613 75.7463 43.0794 75.5696 43.4872 75.5696ZM46.1629 75.5533C46.5054 75.5533 46.8071 75.6131 47.0681 75.7327C47.3291 75.8523 47.5302 76.0181 47.6716 76.2302C47.813 76.4368 47.8836 76.6733 47.8836 76.9397V79.688C47.8836 79.7152 47.8728 79.7397 47.851 79.7614C47.8347 79.7777 47.813 79.7859 47.7858 79.7859H47.0355C47.0083 79.7859 46.9838 79.7777 46.9621 79.7614C46.9458 79.7397 46.9376 79.7152 46.9376 79.688V79.4271C46.9376 79.4107 46.9322 79.4026 46.9213 79.4026C46.9104 79.3972 46.8996 79.3999 46.8887 79.4107C46.6223 79.7043 46.2363 79.8511 45.7306 79.8511C45.3229 79.8511 44.9858 79.7478 44.7194 79.5412C44.4584 79.3346 44.3279 79.0274 44.3279 78.6197C44.3279 78.1956 44.4747 77.8667 44.7683 77.6329C45.0673 77.3937 45.486 77.2741 46.0242 77.2741H46.8968C46.924 77.2741 46.9376 77.2605 46.9376 77.2333V77.0376C46.9376 76.8255 46.8751 76.6624 46.7501 76.5482C46.625 76.4286 46.4374 76.3688 46.1873 76.3688C45.9807 76.3688 45.8122 76.4069 45.6817 76.483C45.5567 76.5537 45.4778 76.6543 45.4452 76.7847C45.4289 76.85 45.3908 76.8772 45.331 76.8663L44.54 76.7684C44.5128 76.763 44.4883 76.7548 44.4666 76.744C44.4503 76.7276 44.4448 76.7086 44.4503 76.6869C44.4938 76.3552 44.6705 76.0834 44.9804 75.8713C45.2957 75.6593 45.6899 75.5533 46.1629 75.5533ZM45.9671 79.1008C46.2336 79.1008 46.4619 79.0302 46.6522 78.8888C46.8425 78.7474 46.9376 78.568 46.9376 78.3506V77.9673C46.9376 77.9401 46.924 77.9265 46.8968 77.9265H46.2118C45.9237 77.9265 45.6953 77.9808 45.5268 78.0896C45.3637 78.1983 45.2821 78.3533 45.2821 78.5544C45.2821 78.7284 45.3446 78.8643 45.4697 78.9622C45.6002 79.0546 45.766 79.1008 45.9671 79.1008ZM48.9313 79.7859C48.9041 79.7859 48.8796 79.7777 48.8579 79.7614C48.8416 79.7397 48.8334 79.7152 48.8334 79.688V74.175C48.8334 74.1479 48.8416 74.1261 48.8579 74.1098C48.8796 74.088 48.9041 74.0772 48.9313 74.0772H49.6816C49.7088 74.0772 49.7305 74.088 49.7468 74.1098C49.7686 74.1261 49.7794 74.1479 49.7794 74.175V79.688C49.7794 79.7152 49.7686 79.7397 49.7468 79.7614C49.7305 79.7777 49.7088 79.7859 49.6816 79.7859H48.9313ZM52.3749 75.5533C52.7174 75.5533 53.0192 75.6131 53.2802 75.7327C53.5411 75.8523 53.7423 76.0181 53.8837 76.2302C54.025 76.4368 54.0957 76.6733 54.0957 76.9397V79.688C54.0957 79.7152 54.0848 79.7397 54.0631 79.7614C54.0468 79.7777 54.025 79.7859 53.9978 79.7859H53.2475C53.2204 79.7859 53.1959 79.7777 53.1741 79.7614C53.1578 79.7397 53.1497 79.7152 53.1497 79.688V79.4271C53.1497 79.4107 53.1442 79.4026 53.1334 79.4026C53.1225 79.3972 53.1116 79.3999 53.1007 79.4107C52.8343 79.7043 52.4483 79.8511 51.9427 79.8511C51.5349 79.8511 51.1978 79.7478 50.9314 79.5412C50.6705 79.3346 50.54 79.0274 50.54 78.6197C50.54 78.1956 50.6868 77.8667 50.9804 77.6329C51.2794 77.3937 51.698 77.2741 52.2363 77.2741H53.1089C53.1361 77.2741 53.1497 77.2605 53.1497 77.2333V77.0376C53.1497 76.8255 53.0872 76.6624 52.9621 76.5482C52.8371 76.4286 52.6495 76.3688 52.3994 76.3688C52.1928 76.3688 52.0242 76.4069 51.8938 76.483C51.7687 76.5537 51.6899 76.6543 51.6573 76.7847C51.6409 76.85 51.6029 76.8772 51.5431 76.8663L50.752 76.7684C50.7248 76.763 50.7004 76.7548 50.6786 76.744C50.6623 76.7276 50.6569 76.7086 50.6623 76.6869C50.7058 76.3552 50.8825 76.0834 51.1924 75.8713C51.5077 75.6593 51.9019 75.5533 52.3749 75.5533ZM52.1792 79.1008C52.4456 79.1008 52.6739 79.0302 52.8642 78.8888C53.0545 78.7474 53.1497 78.568 53.1497 78.3506V77.9673C53.1497 77.9401 53.1361 77.9265 53.1089 77.9265H52.4239C52.1357 77.9265 51.9073 77.9808 51.7388 78.0896C51.5757 78.1983 51.4941 78.3533 51.4941 78.5544C51.4941 78.7284 51.5567 78.8643 51.6817 78.9622C51.8122 79.0546 51.978 79.1008 52.1792 79.1008ZM55.7582 74.0772C55.7963 74.0772 55.8208 74.088 55.8316 74.1098C55.8425 74.1315 55.8425 74.1587 55.8316 74.1913L55.1874 75.7816C55.171 75.8306 55.133 75.855 55.0732 75.855H54.5186C54.486 75.855 54.4615 75.8469 54.4452 75.8306C54.4343 75.8088 54.4316 75.7816 54.4371 75.749L54.8938 74.1587C54.9101 74.1044 54.9481 74.0772 55.0079 74.0772H55.7582ZM57.3755 79.8348C57.0329 79.8348 56.7312 79.7859 56.4702 79.688C56.2147 79.5847 56.0162 79.4461 55.8749 79.2721C55.7335 79.0927 55.6628 78.8942 55.6628 78.6768V78.6034C55.6628 78.5762 55.671 78.5544 55.6873 78.5381C55.7091 78.5164 55.7335 78.5055 55.7607 78.5055H56.4784C56.5056 78.5055 56.5273 78.5164 56.5436 78.5381C56.5654 78.5544 56.5762 78.5762 56.5762 78.6034V78.6197C56.5762 78.7556 56.6496 78.8752 56.7964 78.9785C56.9487 79.0764 57.139 79.1253 57.3673 79.1253C57.5848 79.1253 57.7615 79.0818 57.8974 78.9948C58.0333 78.9024 58.1013 78.7882 58.1013 78.6523C58.1013 78.5273 58.0442 78.4348 57.93 78.375C57.8213 78.3098 57.6419 78.2418 57.3918 78.1711L57.0819 78.0733C56.8046 77.9917 56.5708 77.9047 56.3805 77.8123C56.1902 77.7199 56.0298 77.5948 55.8994 77.4372C55.7689 77.2741 55.7036 77.0675 55.7036 76.8174C55.7036 76.4368 55.8531 76.135 56.1522 75.9121C56.4512 75.6838 56.8454 75.5696 57.3347 75.5696C57.6663 75.5696 57.9572 75.624 58.2073 75.7327C58.4574 75.836 58.6504 75.9828 58.7863 76.1731C58.9222 76.3579 58.9902 76.57 58.9902 76.8092C58.9902 76.8364 58.9793 76.8609 58.9576 76.8826C58.9413 76.8989 58.9195 76.9071 58.8923 76.9071H58.1991C58.172 76.9071 58.1475 76.8989 58.1257 76.8826C58.1094 76.8609 58.1013 76.8364 58.1013 76.8092C58.1013 76.6678 58.0306 76.551 57.8892 76.4585C57.7533 76.3607 57.5658 76.3117 57.3265 76.3117C57.1145 76.3117 56.9405 76.3525 56.8046 76.4341C56.6741 76.5102 56.6089 76.6189 56.6089 76.7603C56.6089 76.8908 56.6714 76.9913 56.7964 77.062C56.9269 77.1273 57.1417 77.2007 57.4407 77.2822L57.6201 77.3311C57.9083 77.4181 58.1502 77.5078 58.3459 77.6003C58.5417 77.6873 58.7075 77.8123 58.8434 77.9754C58.9793 78.1331 59.0473 78.3397 59.0473 78.5952C59.0473 78.9812 58.8951 79.2857 58.5906 79.5086C58.2861 79.7261 57.8811 79.8348 57.3755 79.8348ZM63.4786 79.8511C63.0708 79.8511 62.712 79.7723 62.4021 79.6146C62.0922 79.4515 61.8529 79.2259 61.6844 78.9377C61.5158 78.6496 61.4316 78.3152 61.4316 77.9346V75.9203C61.4316 75.5397 61.5158 75.2053 61.6844 74.9172C61.8529 74.629 62.0922 74.4061 62.4021 74.2484C62.712 74.0908 63.0708 74.0119 63.4786 74.0119C63.8809 74.0119 64.237 74.088 64.5469 74.2403C64.8568 74.3925 65.096 74.6073 65.2646 74.8846C65.4331 75.1618 65.5174 75.4826 65.5174 75.8469C65.5174 75.8741 65.5065 75.8985 65.4848 75.9203C65.4685 75.9366 65.4467 75.9447 65.4195 75.9447L64.6692 75.9855C64.604 75.9855 64.5714 75.9556 64.5714 75.8958C64.5714 75.575 64.4708 75.3168 64.2696 75.1211C64.0739 74.9253 63.8102 74.8275 63.4786 74.8275C63.1469 74.8275 62.8805 74.9253 62.6793 75.1211C62.4782 75.3168 62.3776 75.575 62.3776 75.8958V77.9754C62.3776 78.2907 62.4782 78.5463 62.6793 78.742C62.8805 78.9377 63.1469 79.0356 63.4786 79.0356C63.8102 79.0356 64.0739 78.9405 64.2696 78.7502C64.4708 78.5544 64.5714 78.2962 64.5714 77.9754C64.5714 77.9156 64.604 77.8857 64.6692 77.8857L65.4195 77.9183C65.4467 77.9183 65.4685 77.9265 65.4848 77.9428C65.5065 77.9591 65.5174 77.9781 65.5174 77.9999C65.5174 78.3696 65.4331 78.6958 65.2646 78.9785C65.096 79.2558 64.8568 79.4706 64.5469 79.6228C64.237 79.775 63.8809 79.8511 63.4786 79.8511ZM68.9051 75.7164C68.9051 75.6892 68.9132 75.6675 68.9296 75.6511C68.9513 75.6294 68.9758 75.6185 69.0029 75.6185H69.7451C69.7723 75.6185 69.794 75.6294 69.8103 75.6511C69.8321 75.6675 69.8429 75.6892 69.8429 75.7164V79.688C69.8429 79.7152 69.8321 79.7397 69.8103 79.7614C69.794 79.7777 69.7723 79.7859 69.7451 79.7859H69.0029C68.9758 79.7859 68.9513 79.7777 68.9296 79.7614C68.9132 79.7397 68.9051 79.7152 68.9051 79.688V79.4271C68.9051 79.4107 68.8996 79.3999 68.8888 79.3944C68.8779 79.389 68.867 79.3944 68.8562 79.4107C68.6332 79.6989 68.2989 79.843 67.8531 79.843C67.4398 79.843 67.0919 79.7234 66.8092 79.4841C66.5319 79.2449 66.3933 78.9051 66.3933 78.4647V75.7164C66.3933 75.6892 66.4014 75.6675 66.4177 75.6511C66.4395 75.6294 66.4639 75.6185 66.4911 75.6185H67.2414C67.2686 75.6185 67.2903 75.6294 67.3066 75.6511C67.3284 75.6675 67.3393 75.6892 67.3393 75.7164V78.1956C67.3393 78.4511 67.4045 78.655 67.535 78.8073C67.6709 78.9595 67.8585 79.0356 68.0977 79.0356C68.3424 79.0356 68.5381 78.9595 68.6849 78.8073C68.8317 78.655 68.9051 78.4511 68.9051 78.1956V75.7164ZM70.9522 79.7859C70.925 79.7859 70.9005 79.7777 70.8788 79.7614C70.8625 79.7397 70.8543 79.7152 70.8543 79.688V74.175C70.8543 74.1479 70.8625 74.1261 70.8788 74.1098C70.9005 74.088 70.925 74.0772 70.9522 74.0772H71.7025C71.7297 74.0772 71.7514 74.088 71.7677 74.1098C71.7895 74.1261 71.8003 74.1479 71.8003 74.175V79.688C71.8003 79.7152 71.7895 79.7397 71.7677 79.7614C71.7514 79.7777 71.7297 79.7859 71.7025 79.7859H70.9522ZM75.0156 76.2873C75.0156 76.3144 75.0048 76.3389 74.983 76.3607C74.9667 76.377 74.945 76.3851 74.9178 76.3851H74.0859C74.0587 76.3851 74.0452 76.3987 74.0452 76.4259V78.3913C74.0452 78.5979 74.0886 78.7474 74.1756 78.8399C74.2681 78.9323 74.4121 78.9785 74.6079 78.9785H74.8525C74.8797 78.9785 74.9015 78.9894 74.9178 79.0111C74.9395 79.0274 74.9504 79.0492 74.9504 79.0764V79.688C74.9504 79.7478 74.9178 79.7832 74.8525 79.794L74.4285 79.8022C73.9989 79.8022 73.6782 79.7288 73.4661 79.582C73.2541 79.4352 73.1454 79.1579 73.1399 78.7502V76.4259C73.1399 76.3987 73.1263 76.3851 73.0991 76.3851H72.6343C72.6071 76.3851 72.5826 76.377 72.5609 76.3607C72.5446 76.3389 72.5364 76.3144 72.5364 76.2873V75.7164C72.5364 75.6892 72.5446 75.6675 72.5609 75.6511C72.5826 75.6294 72.6071 75.6185 72.6343 75.6185H73.0991C73.1263 75.6185 73.1399 75.6049 73.1399 75.5778V74.6236C73.1399 74.5964 73.1481 74.5746 73.1644 74.5583C73.1861 74.5366 73.2106 74.5257 73.2378 74.5257H73.9473C73.9745 74.5257 73.9962 74.5366 74.0125 74.5583C74.0343 74.5746 74.0452 74.5964 74.0452 74.6236V75.5778C74.0452 75.6049 74.0587 75.6185 74.0859 75.6185H74.9178C74.945 75.6185 74.9667 75.6294 74.983 75.6511C75.0048 75.6675 75.0156 75.6892 75.0156 75.7164V76.2873ZM78.3187 75.7164C78.3187 75.6892 78.3269 75.6675 78.3432 75.6511C78.3649 75.6294 78.3894 75.6185 78.4166 75.6185H79.1587C79.1859 75.6185 79.2077 75.6294 79.224 75.6511C79.2457 75.6675 79.2566 75.6892 79.2566 75.7164V79.688C79.2566 79.7152 79.2457 79.7397 79.224 79.7614C79.2077 79.7777 79.1859 79.7859 79.1587 79.7859H78.4166C78.3894 79.7859 78.3649 79.7777 78.3432 79.7614C78.3269 79.7397 78.3187 79.7152 78.3187 79.688V79.4271C78.3187 79.4107 78.3133 79.3999 78.3024 79.3944C78.2915 79.389 78.2807 79.3944 78.2698 79.4107C78.0469 79.6989 77.7125 79.843 77.2667 79.843C76.8535 79.843 76.5055 79.7234 76.2228 79.4841C75.9455 79.2449 75.8069 78.9051 75.8069 78.4647V75.7164C75.8069 75.6892 75.815 75.6675 75.8314 75.6511C75.8531 75.6294 75.8776 75.6185 75.9048 75.6185H76.655C76.6822 75.6185 76.704 75.6294 76.7203 75.6511C76.742 75.6675 76.7529 75.6892 76.7529 75.7164V78.1956C76.7529 78.4511 76.8182 78.655 76.9486 78.8073C77.0846 78.9595 77.2721 79.0356 77.5114 79.0356C77.756 79.0356 77.9517 78.9595 78.0985 78.8073C78.2453 78.655 78.3187 78.4511 78.3187 78.1956V75.7164ZM82.2089 75.5696C82.3829 75.5696 82.5351 75.6049 82.6656 75.6756C82.7091 75.6974 82.7254 75.7381 82.7146 75.7979L82.5759 76.5319C82.5705 76.5972 82.5324 76.6162 82.4618 76.589C82.3802 76.5618 82.2851 76.5482 82.1763 76.5482C82.1056 76.5482 82.0513 76.551 82.0132 76.5564C81.7849 76.5673 81.5946 76.6488 81.4423 76.801C81.2901 76.9478 81.214 77.1409 81.214 77.3801V79.688C81.214 79.7152 81.2031 79.7397 81.1814 79.7614C81.1651 79.7777 81.1433 79.7859 81.1161 79.7859H80.3658C80.3387 79.7859 80.3142 79.7777 80.2924 79.7614C80.2761 79.7397 80.268 79.7152 80.268 79.688V75.7164C80.268 75.6892 80.2761 75.6675 80.2924 75.6511C80.3142 75.6294 80.3387 75.6185 80.3658 75.6185H81.1161C81.1433 75.6185 81.1651 75.6294 81.1814 75.6511C81.2031 75.6675 81.214 75.6892 81.214 75.7164V76.0834C81.214 76.1051 81.2167 76.1187 81.2221 76.1242C81.233 76.1242 81.2439 76.116 81.2548 76.0997C81.4831 75.7463 81.8012 75.5696 82.2089 75.5696ZM84.8846 75.5533C85.2272 75.5533 85.5289 75.6131 85.7899 75.7327C86.0508 75.8523 86.252 76.0181 86.3934 76.2302C86.5347 76.4368 86.6054 76.6733 86.6054 76.9397V79.688C86.6054 79.7152 86.5945 79.7397 86.5728 79.7614C86.5565 79.7777 86.5347 79.7859 86.5075 79.7859H85.7573C85.7301 79.7859 85.7056 79.7777 85.6839 79.7614C85.6675 79.7397 85.6594 79.7152 85.6594 79.688V79.4271C85.6594 79.4107 85.654 79.4026 85.6431 79.4026C85.6322 79.3972 85.6213 79.3999 85.6105 79.4107C85.3441 79.7043 84.958 79.8511 84.4524 79.8511C84.0446 79.8511 83.7076 79.7478 83.4412 79.5412C83.1802 79.3346 83.0497 79.0274 83.0497 78.6197C83.0497 78.1956 83.1965 77.8667 83.4901 77.6329C83.7891 77.3937 84.2077 77.2741 84.746 77.2741H85.6186C85.6458 77.2741 85.6594 77.2605 85.6594 77.2333V77.0376C85.6594 76.8255 85.5969 76.6624 85.4718 76.5482C85.3468 76.4286 85.1592 76.3688 84.9091 76.3688C84.7025 76.3688 84.534 76.4069 84.4035 76.483C84.2784 76.5537 84.1996 76.6543 84.167 76.7847C84.1507 76.85 84.1126 76.8772 84.0528 76.8663L83.2617 76.7684C83.2346 76.763 83.2101 76.7548 83.1883 76.744C83.172 76.7276 83.1666 76.7086 83.172 76.6869C83.2155 76.3552 83.3922 76.0834 83.7021 75.8713C84.0175 75.6593 84.4116 75.5533 84.8846 75.5533ZM84.6889 79.1008C84.9553 79.1008 85.1837 79.0302 85.374 78.8888C85.5642 78.7474 85.6594 78.568 85.6594 78.3506V77.9673C85.6594 77.9401 85.6458 77.9265 85.6186 77.9265H84.9336C84.6454 77.9265 84.4171 77.9808 84.2485 78.0896C84.0854 78.1983 84.0039 78.3533 84.0039 78.5544C84.0039 78.7284 84.0664 78.8643 84.1914 78.9622C84.3219 79.0546 84.4877 79.1008 84.6889 79.1008ZM87.653 79.7859C87.6259 79.7859 87.6014 79.7777 87.5796 79.7614C87.5633 79.7397 87.5552 79.7152 87.5552 79.688V74.175C87.5552 74.1479 87.5633 74.1261 87.5796 74.1098C87.6014 74.088 87.6259 74.0772 87.653 74.0772H88.4033C88.4305 74.0772 88.4523 74.088 88.4686 74.1098C88.4903 74.1261 88.5012 74.1479 88.5012 74.175V79.688C88.5012 79.7152 88.4903 79.7397 88.4686 79.7614C88.4523 79.7777 88.4305 79.7859 88.4033 79.7859H87.653ZM93.1371 79.8511C92.7293 79.8511 92.3705 79.7723 92.0606 79.6146C91.7507 79.4515 91.5115 79.2259 91.3429 78.9377C91.1744 78.6496 91.0901 78.3152 91.0901 77.9346V75.9203C91.0901 75.5397 91.1744 75.2053 91.3429 74.9172C91.5115 74.629 91.7507 74.4061 92.0606 74.2484C92.3705 74.0908 92.7293 74.0119 93.1371 74.0119C93.5394 74.0119 93.8956 74.088 94.2055 74.2403C94.5154 74.3925 94.7546 74.6073 94.9231 74.8846C95.0917 75.1618 95.1759 75.4826 95.1759 75.8469C95.1759 75.8741 95.1651 75.8985 95.1433 75.9203C95.127 75.9366 95.1053 75.9447 95.0781 75.9447L94.3278 75.9855C94.2625 75.9855 94.2299 75.9556 94.2299 75.8958C94.2299 75.575 94.1293 75.3168 93.9282 75.1211C93.7324 74.9253 93.4688 74.8275 93.1371 74.8275C92.8055 74.8275 92.5391 74.9253 92.3379 75.1211C92.1367 75.3168 92.0361 75.575 92.0361 75.8958V77.9754C92.0361 78.2907 92.1367 78.5463 92.3379 78.742C92.5391 78.9377 92.8055 79.0356 93.1371 79.0356C93.4688 79.0356 93.7324 78.9405 93.9282 78.7502C94.1293 78.5544 94.2299 78.2962 94.2299 77.9754C94.2299 77.9156 94.2625 77.8857 94.3278 77.8857L95.0781 77.9183C95.1053 77.9183 95.127 77.9265 95.1433 77.9428C95.1651 77.9591 95.1759 77.9781 95.1759 77.9999C95.1759 78.3696 95.0917 78.6958 94.9231 78.9785C94.7546 79.2558 94.5154 79.4706 94.2055 79.6228C93.8956 79.775 93.5394 79.8511 93.1371 79.8511ZM98.0417 75.5696C98.2157 75.5696 98.3679 75.6049 98.4984 75.6756C98.5419 75.6974 98.5582 75.7381 98.5473 75.7979L98.4087 76.5319C98.4032 76.5972 98.3652 76.6162 98.2945 76.589C98.213 76.5618 98.1178 76.5482 98.0091 76.5482C97.9384 76.5482 97.884 76.551 97.846 76.5564C97.6176 76.5673 97.4273 76.6488 97.2751 76.801C97.1229 76.9478 97.0467 77.1409 97.0467 77.3801V79.688C97.0467 79.7152 97.0359 79.7397 97.0141 79.7614C96.9978 79.7777 96.9761 79.7859 96.9489 79.7859H96.1986C96.1714 79.7859 96.1469 79.7777 96.1252 79.7614C96.1089 79.7397 96.1007 79.7152 96.1007 79.688V75.7164C96.1007 75.6892 96.1089 75.6675 96.1252 75.6511C96.1469 75.6294 96.1714 75.6185 96.1986 75.6185H96.9489C96.9761 75.6185 96.9978 75.6294 97.0141 75.6511C97.0359 75.6675 97.0467 75.6892 97.0467 75.7164V76.0834C97.0467 76.1051 97.0495 76.1187 97.0549 76.1242C97.0658 76.1242 97.0766 76.116 97.0875 76.0997C97.3159 75.7463 97.6339 75.5696 98.0417 75.5696ZM102.602 77.2333C102.624 77.3692 102.635 77.5214 102.635 77.69L102.627 77.9428C102.627 78.008 102.594 78.0407 102.529 78.0407H99.9762C99.949 78.0407 99.9354 78.0542 99.9354 78.0814C99.9518 78.2608 99.9762 78.3832 100.009 78.4484C100.139 78.8399 100.457 79.0383 100.963 79.0438C101.333 79.0438 101.626 78.8915 101.844 78.5871C101.866 78.5544 101.893 78.5381 101.925 78.5381C101.947 78.5381 101.966 78.5463 101.982 78.5626L102.488 78.9785C102.537 79.0166 102.545 79.0601 102.513 79.109C102.344 79.3482 102.118 79.5331 101.836 79.6636C101.558 79.794 101.248 79.8593 100.906 79.8593C100.482 79.8593 100.12 79.7641 99.8213 79.5739C99.5277 79.3836 99.3129 79.1172 99.177 78.7746C99.052 78.481 98.9894 78.0733 98.9894 77.5513C98.9894 77.236 99.0221 76.9805 99.0873 76.7847C99.196 76.4042 99.3999 76.1051 99.6989 75.8877C100.003 75.6647 100.368 75.5533 100.792 75.5533C101.863 75.5533 102.466 76.1133 102.602 77.2333ZM100.792 76.3688C100.591 76.3688 100.422 76.4205 100.286 76.5238C100.156 76.6216 100.063 76.7603 100.009 76.9397C99.9762 77.0321 99.9545 77.1517 99.9436 77.2985C99.9327 77.3257 99.9436 77.3393 99.9762 77.3393H101.632C101.659 77.3393 101.673 77.3257 101.673 77.2985C101.662 77.1626 101.645 77.0593 101.624 76.9886C101.575 76.7929 101.477 76.6407 101.33 76.5319C101.189 76.4232 101.009 76.3688 100.792 76.3688ZM105.05 75.5533C105.392 75.5533 105.694 75.6131 105.955 75.7327C106.216 75.8523 106.417 76.0181 106.559 76.2302C106.7 76.4368 106.771 76.6733 106.771 76.9397V79.688C106.771 79.7152 106.76 79.7397 106.738 79.7614C106.722 79.7777 106.7 79.7859 106.673 79.7859H105.923C105.895 79.7859 105.871 79.7777 105.849 79.7614C105.833 79.7397 105.825 79.7152 105.825 79.688V79.4271C105.825 79.4107 105.819 79.4026 105.808 79.4026C105.797 79.3972 105.787 79.3999 105.776 79.4107C105.509 79.7043 105.123 79.8511 104.618 79.8511C104.21 79.8511 103.873 79.7478 103.606 79.5412C103.345 79.3346 103.215 79.0274 103.215 78.6197C103.215 78.1956 103.362 77.8667 103.655 77.6329C103.954 77.3937 104.373 77.2741 104.911 77.2741H105.784C105.811 77.2741 105.825 77.2605 105.825 77.2333V77.0376C105.825 76.8255 105.762 76.6624 105.637 76.5482C105.512 76.4286 105.324 76.3688 105.074 76.3688C104.868 76.3688 104.699 76.4069 104.569 76.483C104.444 76.5537 104.365 76.6543 104.332 76.7847C104.316 76.85 104.278 76.8772 104.218 76.8663L103.427 76.7684C103.4 76.763 103.375 76.7548 103.354 76.744C103.337 76.7276 103.332 76.7086 103.337 76.6869C103.381 76.3552 103.557 76.0834 103.867 75.8713C104.183 75.6593 104.577 75.5533 105.05 75.5533ZM104.854 79.1008C105.121 79.1008 105.349 79.0302 105.539 78.8888C105.73 78.7474 105.825 78.568 105.825 78.3506V77.9673C105.825 77.9401 105.811 77.9265 105.784 77.9265H105.099C104.811 77.9265 104.582 77.9808 104.414 78.0896C104.251 78.1983 104.169 78.3533 104.169 78.5544C104.169 78.7284 104.232 78.8643 104.357 78.9622C104.487 79.0546 104.653 79.1008 104.854 79.1008ZM109.867 76.2873C109.867 76.3144 109.856 76.3389 109.834 76.3607C109.818 76.377 109.796 76.3851 109.769 76.3851H108.937C108.91 76.3851 108.896 76.3987 108.896 76.4259V78.3913C108.896 78.5979 108.94 78.7474 109.027 78.8399C109.119 78.9323 109.263 78.9785 109.459 78.9785H109.704C109.731 78.9785 109.753 78.9894 109.769 79.0111C109.791 79.0274 109.802 79.0492 109.802 79.0764V79.688C109.802 79.7478 109.769 79.7832 109.704 79.794L109.28 79.8022C108.85 79.8022 108.529 79.7288 108.317 79.582C108.105 79.4352 107.997 79.1579 107.991 78.7502V76.4259C107.991 76.3987 107.978 76.3851 107.95 76.3851H107.485C107.458 76.3851 107.434 76.377 107.412 76.3607C107.396 76.3389 107.388 76.3144 107.388 76.2873V75.7164C107.388 75.6892 107.396 75.6675 107.412 75.6511C107.434 75.6294 107.458 75.6185 107.485 75.6185H107.95C107.978 75.6185 107.991 75.6049 107.991 75.5778V74.6236C107.991 74.5964 107.999 74.5746 108.016 74.5583C108.037 74.5366 108.062 74.5257 108.089 74.5257H108.798C108.826 74.5257 108.847 74.5366 108.864 74.5583C108.885 74.5746 108.896 74.5964 108.896 74.6236V75.5778C108.896 75.6049 108.91 75.6185 108.937 75.6185H109.769C109.796 75.6185 109.818 75.6294 109.834 75.6511C109.856 75.6675 109.867 75.6892 109.867 75.7164V76.2873ZM111.245 75.0477C111.077 75.0477 110.938 74.9933 110.829 74.8846C110.721 74.7758 110.666 74.6372 110.666 74.4686C110.666 74.3001 110.721 74.1614 110.829 74.0527C110.938 73.944 111.077 73.8896 111.245 73.8896C111.414 73.8896 111.552 73.944 111.661 74.0527C111.77 74.1614 111.824 74.3001 111.824 74.4686C111.824 74.6372 111.77 74.7758 111.661 74.8846C111.552 74.9933 111.414 75.0477 111.245 75.0477ZM110.854 79.7859C110.827 79.7859 110.802 79.7777 110.78 79.7614C110.764 79.7397 110.756 79.7152 110.756 79.688V75.7082C110.756 75.6811 110.764 75.6593 110.78 75.643C110.802 75.6212 110.827 75.6104 110.854 75.6104H111.604C111.631 75.6104 111.653 75.6212 111.669 75.643C111.691 75.6593 111.702 75.6811 111.702 75.7082V79.688C111.702 79.7152 111.691 79.7397 111.669 79.7614C111.653 79.7777 111.631 79.7859 111.604 79.7859H110.854ZM113.911 79.7859C113.857 79.7859 113.821 79.7587 113.805 79.7043L112.492 75.7245C112.487 75.7137 112.484 75.7001 112.484 75.6838C112.484 75.6348 112.514 75.6104 112.574 75.6104H113.405C113.465 75.6104 113.503 75.6376 113.52 75.6919L114.311 78.4158C114.316 78.4321 114.324 78.4403 114.335 78.4403C114.346 78.4403 114.354 78.4321 114.36 78.4158L115.151 75.6919C115.167 75.6376 115.205 75.6104 115.265 75.6104L116.097 75.6267C116.129 75.6267 116.154 75.6376 116.17 75.6593C116.186 75.6756 116.189 75.7028 116.178 75.7409L114.873 79.7043C114.857 79.7587 114.822 79.7859 114.767 79.7859H113.911ZM120.187 77.2333C120.209 77.3692 120.22 77.5214 120.22 77.69L120.212 77.9428C120.212 78.008 120.179 78.0407 120.114 78.0407H117.561C117.534 78.0407 117.52 78.0542 117.52 78.0814C117.537 78.2608 117.561 78.3832 117.594 78.4484C117.724 78.8399 118.042 79.0383 118.548 79.0438C118.918 79.0438 119.211 78.8915 119.429 78.5871C119.45 78.5544 119.478 78.5381 119.51 78.5381C119.532 78.5381 119.551 78.5463 119.567 78.5626L120.073 78.9785C120.122 79.0166 120.13 79.0601 120.097 79.109C119.929 79.3482 119.703 79.5331 119.421 79.6636C119.143 79.794 118.833 79.8593 118.491 79.8593C118.067 79.8593 117.705 79.7641 117.406 79.5739C117.113 79.3836 116.898 79.1172 116.762 78.7746C116.637 78.481 116.574 78.0733 116.574 77.5513C116.574 77.236 116.607 76.9805 116.672 76.7847C116.781 76.4042 116.985 76.1051 117.284 75.8877C117.588 75.6647 117.953 75.5533 118.377 75.5533C119.448 75.5533 120.051 76.1133 120.187 77.2333ZM118.377 76.3688C118.175 76.3688 118.007 76.4205 117.871 76.5238C117.741 76.6216 117.648 76.7603 117.594 76.9397C117.561 77.0321 117.539 77.1517 117.528 77.2985C117.518 77.3257 117.528 77.3393 117.561 77.3393H119.217C119.244 77.3393 119.257 77.3257 119.257 77.2985C119.247 77.1626 119.23 77.0593 119.208 76.9886C119.16 76.7929 119.062 76.6407 118.915 76.5319C118.774 76.4232 118.594 76.3688 118.377 76.3688ZM126.672 74.7948C126.672 74.822 126.661 74.8465 126.64 74.8682C126.623 74.8846 126.602 74.8927 126.574 74.8927H123.793C123.766 74.8927 123.753 74.9063 123.753 74.9335V76.4585C123.753 76.4857 123.766 76.4993 123.793 76.4993H125.661C125.688 76.4993 125.71 76.5102 125.726 76.5319C125.748 76.5482 125.759 76.57 125.759 76.5972V77.217C125.759 77.2442 125.748 77.2686 125.726 77.2904C125.71 77.3067 125.688 77.3148 125.661 77.3148H123.793C123.766 77.3148 123.753 77.3284 123.753 77.3556V78.9296C123.753 78.9568 123.766 78.9704 123.793 78.9704H126.574C126.602 78.9704 126.623 78.9812 126.64 79.003C126.661 79.0193 126.672 79.041 126.672 79.0682V79.688C126.672 79.7152 126.661 79.7397 126.64 79.7614C126.623 79.7777 126.602 79.7859 126.574 79.7859H122.905C122.877 79.7859 122.853 79.7777 122.831 79.7614C122.815 79.7397 122.807 79.7152 122.807 79.688V74.175C122.807 74.1479 122.815 74.1261 122.831 74.1098C122.853 74.088 122.877 74.0772 122.905 74.0772H126.574C126.602 74.0772 126.623 74.088 126.64 74.1098C126.661 74.1261 126.672 74.1479 126.672 74.175V74.7948ZM129.28 79.8511C128.862 79.8511 128.5 79.7451 128.196 79.5331C127.891 79.3156 127.679 79.0247 127.56 78.6605C127.473 78.4158 127.429 78.0896 127.429 77.6818C127.429 77.2904 127.473 76.9696 127.56 76.7195C127.674 76.3607 127.883 76.0779 128.188 75.8713C128.497 75.6593 128.862 75.5533 129.28 75.5533C129.704 75.5533 130.074 75.6593 130.389 75.8713C130.705 76.0834 130.914 76.3498 131.017 76.6706C131.045 76.7576 131.064 76.8445 131.074 76.9315V76.9478C131.074 77.0022 131.045 77.0348 130.985 77.0457L130.251 77.1517H130.234C130.186 77.1517 130.153 77.1245 130.137 77.0702C130.137 77.043 130.134 77.0212 130.128 77.0049C130.118 76.9614 130.107 76.9234 130.096 76.8908C130.047 76.7385 129.949 76.6135 129.802 76.5156C129.655 76.4177 129.481 76.3688 129.28 76.3688C129.074 76.3688 128.897 76.4232 128.75 76.5319C128.609 76.6352 128.514 76.7793 128.465 76.9642C128.41 77.1381 128.383 77.3801 128.383 77.69C128.383 77.989 128.408 78.2309 128.457 78.4158C128.511 78.6061 128.609 78.7583 128.75 78.8725C128.892 78.9812 129.068 79.0356 129.28 79.0356C129.487 79.0356 129.664 78.984 129.81 78.8806C129.963 78.7719 130.061 78.6278 130.104 78.4484C130.109 78.4375 130.112 78.424 130.112 78.4076C130.118 78.4022 130.12 78.3941 130.12 78.3832C130.137 78.3179 130.175 78.2907 130.234 78.3016L130.968 78.4158C130.996 78.4212 131.017 78.4348 131.034 78.4566C131.055 78.4729 131.064 78.4974 131.058 78.53C131.042 78.617 131.028 78.6795 131.017 78.7175C130.914 79.0655 130.705 79.3428 130.389 79.5494C130.074 79.7505 129.704 79.8511 129.28 79.8511ZM133.606 79.8511C133.176 79.8511 132.806 79.7424 132.497 79.5249C132.192 79.3074 131.977 79.0057 131.852 78.6197C131.76 78.3261 131.714 78.0162 131.714 77.69C131.714 77.342 131.757 77.0321 131.844 76.7603C131.969 76.3797 132.187 76.0834 132.497 75.8713C132.806 75.6593 133.179 75.5533 133.614 75.5533C134.027 75.5533 134.383 75.6593 134.682 75.8713C134.987 76.0834 135.201 76.377 135.326 76.7521C135.424 77.0131 135.473 77.323 135.473 77.6818C135.473 78.0243 135.427 78.3342 135.335 78.6115C135.21 78.9975 134.995 79.302 134.69 79.5249C134.386 79.7424 134.024 79.8511 133.606 79.8511ZM133.606 79.0356C133.807 79.0356 133.978 78.9785 134.119 78.8643C134.266 78.7502 134.372 78.5898 134.437 78.3832C134.492 78.2038 134.519 77.9754 134.519 77.6981C134.519 77.4045 134.492 77.1762 134.437 77.0131C134.378 76.8065 134.274 76.6488 134.128 76.5401C133.981 76.4259 133.801 76.3688 133.589 76.3688C133.388 76.3688 133.214 76.4259 133.067 76.5401C132.921 76.6488 132.815 76.8065 132.749 77.0131C132.695 77.2034 132.668 77.4317 132.668 77.6981C132.668 77.9645 132.695 78.1929 132.749 78.3832C132.809 78.5898 132.912 78.7502 133.059 78.8643C133.211 78.9785 133.394 79.0356 133.606 79.0356ZM138.366 75.5533C138.806 75.5533 139.157 75.6838 139.418 75.9447C139.684 76.2057 139.817 76.5618 139.817 77.0131V79.688C139.817 79.7152 139.806 79.7397 139.785 79.7614C139.768 79.7777 139.747 79.7859 139.719 79.7859H138.969C138.942 79.7859 138.917 79.7777 138.896 79.7614C138.879 79.7397 138.871 79.7152 138.871 79.688V77.2088C138.871 76.9587 138.801 76.7576 138.659 76.6053C138.518 76.4477 138.33 76.3688 138.096 76.3688C137.863 76.3688 137.672 76.4449 137.526 76.5972C137.384 76.7494 137.314 76.9506 137.314 77.2007V79.688C137.314 79.7152 137.303 79.7397 137.281 79.7614C137.265 79.7777 137.243 79.7859 137.216 79.7859H136.465C136.438 79.7859 136.414 79.7777 136.392 79.7614C136.376 79.7397 136.368 79.7152 136.368 79.688V75.7164C136.368 75.6892 136.376 75.6675 136.392 75.6511C136.414 75.6294 136.438 75.6185 136.465 75.6185H137.216C137.243 75.6185 137.265 75.6294 137.281 75.6511C137.303 75.6675 137.314 75.6892 137.314 75.7164V75.9774C137.314 75.9937 137.319 76.0045 137.33 76.01C137.341 76.0154 137.349 76.01 137.354 75.9937C137.577 75.7001 137.914 75.5533 138.366 75.5533ZM142.541 79.8511C142.112 79.8511 141.742 79.7424 141.432 79.5249C141.128 79.3074 140.913 79.0057 140.788 78.6197C140.696 78.3261 140.649 78.0162 140.649 77.69C140.649 77.342 140.693 77.0321 140.78 76.7603C140.905 76.3797 141.122 76.0834 141.432 75.8713C141.742 75.6593 142.115 75.5533 142.55 75.5533C142.963 75.5533 143.319 75.6593 143.618 75.8713C143.922 76.0834 144.137 76.377 144.262 76.7521C144.36 77.0131 144.409 77.323 144.409 77.6818C144.409 78.0243 144.363 78.3342 144.27 78.6115C144.145 78.9975 143.931 79.302 143.626 79.5249C143.322 79.7424 142.96 79.8511 142.541 79.8511ZM142.541 79.0356C142.743 79.0356 142.914 78.9785 143.055 78.8643C143.202 78.7502 143.308 78.5898 143.373 78.3832C143.428 78.2038 143.455 77.9754 143.455 77.6981C143.455 77.4045 143.428 77.1762 143.373 77.0131C143.313 76.8065 143.21 76.6488 143.063 76.5401C142.917 76.4259 142.737 76.3688 142.525 76.3688C142.324 76.3688 142.15 76.4259 142.003 76.5401C141.856 76.6488 141.75 76.8065 141.685 77.0131C141.631 77.2034 141.604 77.4317 141.604 77.6981C141.604 77.9645 141.631 78.1929 141.685 78.3832C141.745 78.5898 141.848 78.7502 141.995 78.8643C142.147 78.9785 142.329 79.0356 142.541 79.0356ZM149.764 75.5533C150.183 75.5533 150.509 75.6811 150.743 75.9366C150.982 76.1867 151.102 76.5374 151.102 76.9886V79.688C151.102 79.7152 151.091 79.7397 151.069 79.7614C151.053 79.7777 151.031 79.7859 151.004 79.7859H150.262C150.235 79.7859 150.21 79.7777 150.188 79.7614C150.172 79.7397 150.164 79.7152 150.164 79.688V77.1843C150.164 76.9343 150.096 76.7358 149.96 76.589C149.83 76.4422 149.653 76.3688 149.43 76.3688C149.207 76.3688 149.025 76.4422 148.884 76.589C148.742 76.7358 148.671 76.9315 148.671 77.1762V79.688C148.671 79.7152 148.661 79.7397 148.639 79.7614C148.623 79.7777 148.601 79.7859 148.574 79.7859H147.831C147.804 79.7859 147.78 79.7777 147.758 79.7614C147.742 79.7397 147.734 79.7152 147.734 79.688V77.1843C147.734 76.9343 147.666 76.7358 147.53 76.589C147.394 76.4422 147.214 76.3688 146.991 76.3688C146.785 76.3688 146.614 76.4286 146.478 76.5482C146.347 76.6678 146.271 76.831 146.249 77.0376V79.688C146.249 79.7152 146.238 79.7397 146.217 79.7614C146.2 79.7777 146.179 79.7859 146.151 79.7859H145.401C145.374 79.7859 145.35 79.7777 145.328 79.7614C145.311 79.7397 145.303 79.7152 145.303 79.688V75.7164C145.303 75.6892 145.311 75.6675 145.328 75.6511C145.35 75.6294 145.374 75.6185 145.401 75.6185H146.151C146.179 75.6185 146.2 75.6294 146.217 75.6511C146.238 75.6675 146.249 75.6892 146.249 75.7164V75.9855C146.249 76.0018 146.255 76.0127 146.266 76.0181C146.277 76.0236 146.287 76.0181 146.298 76.0018C146.418 75.8496 146.565 75.7381 146.739 75.6675C146.918 75.5913 147.117 75.5533 147.334 75.5533C147.6 75.5533 147.834 75.6077 148.035 75.7164C148.237 75.8251 148.391 75.9828 148.5 76.1894C148.517 76.2111 148.536 76.2111 148.557 76.1894C148.677 75.9719 148.843 75.8115 149.055 75.7082C149.267 75.6049 149.503 75.5533 149.764 75.5533ZM151.84 81.4088C151.824 81.4088 151.81 81.3979 151.799 81.3762C151.788 81.3599 151.783 81.3381 151.783 81.3109V80.7237C151.783 80.6966 151.791 80.6721 151.807 80.6504C151.829 80.634 151.854 80.6259 151.881 80.6259H151.889C152.112 80.6204 152.286 80.596 152.411 80.5525C152.536 80.5144 152.639 80.4383 152.721 80.3241C152.802 80.21 152.876 80.0387 152.941 79.8104C152.946 79.7995 152.946 79.7832 152.941 79.7614L151.595 75.7245C151.59 75.7137 151.587 75.7001 151.587 75.6838C151.587 75.6348 151.614 75.6104 151.669 75.6104H152.468C152.528 75.6104 152.566 75.6376 152.582 75.6919L153.398 78.5626C153.403 78.5789 153.411 78.5871 153.422 78.5871C153.433 78.5871 153.441 78.5789 153.447 78.5626L154.262 75.6919C154.278 75.6376 154.316 75.6104 154.376 75.6104H155.151C155.184 75.6104 155.205 75.6212 155.216 75.643C155.233 75.6593 155.235 75.6865 155.224 75.7245L153.789 80.0142C153.653 80.4003 153.52 80.6884 153.39 80.8787C153.259 81.069 153.08 81.2049 152.851 81.2865C152.628 81.368 152.31 81.4088 151.897 81.4088H151.84Z" fill="white"/>
<path d="M160.104 79.5283C160.086 79.5461 160.077 79.564 160.077 79.5818C160.086 79.5997 160.104 79.6086 160.131 79.6086H163.948C163.993 79.6086 164.029 79.6265 164.055 79.6622C164.091 79.689 164.109 79.7247 164.109 79.7694V80.7874C164.109 80.832 164.091 80.8722 164.055 80.9079C164.029 80.9347 163.993 80.9481 163.948 80.9481H158.188C158.144 80.9481 158.104 80.9347 158.068 80.9079C158.041 80.8722 158.028 80.832 158.028 80.7874V79.823C158.028 79.7426 158.054 79.6756 158.108 79.622C158.787 78.8987 159.573 78.0102 160.466 76.9565L161.095 76.2197C161.917 75.2642 162.327 74.5409 162.327 74.0498C162.327 73.6836 162.198 73.3845 161.939 73.1523C161.68 72.9201 161.345 72.804 160.934 72.804C160.524 72.804 160.189 72.9201 159.93 73.1523C159.68 73.3845 159.555 73.6926 159.555 74.0766V74.4248C159.555 74.4695 159.537 74.5097 159.501 74.5454C159.474 74.5722 159.439 74.5856 159.394 74.5856H158.148C158.104 74.5856 158.063 74.5722 158.028 74.5454C158.001 74.5097 157.987 74.4695 157.987 74.4248V73.8488C158.005 73.3666 158.144 72.9469 158.403 72.5897C158.662 72.2325 159.01 71.9557 159.448 71.7592C159.894 71.5628 160.39 71.4646 160.934 71.4646C161.533 71.4646 162.055 71.5762 162.502 71.7994C162.948 72.0227 163.292 72.3308 163.533 72.7237C163.774 73.1077 163.895 73.5408 163.895 74.023C163.895 74.7552 163.506 75.5991 162.729 76.5546C162.301 77.0904 161.595 77.8941 160.613 78.9657L160.104 79.5283ZM168.526 81.0955C167.589 81.0955 166.843 80.832 166.289 80.3052C165.745 79.7694 165.472 79.0505 165.472 78.1486V74.3712C165.472 73.4783 165.745 72.7728 166.289 72.2549C166.843 71.728 167.589 71.4646 168.526 71.4646C169.464 71.4646 170.21 71.728 170.763 72.2549C171.326 72.7728 171.607 73.4783 171.607 74.3712V78.1486C171.607 79.0505 171.326 79.7694 170.763 80.3052C170.21 80.832 169.464 81.0955 168.526 81.0955ZM168.526 79.7426C168.991 79.7426 169.361 79.6086 169.638 79.3407C169.915 79.0639 170.053 78.6933 170.053 78.229V74.3177C170.053 73.8533 169.915 73.4872 169.638 73.2193C169.361 72.9425 168.991 72.804 168.526 72.804C168.071 72.804 167.705 72.9425 167.428 73.2193C167.16 73.4872 167.026 73.8533 167.026 74.3177V78.229C167.026 78.6933 167.16 79.0639 167.428 79.3407C167.705 79.6086 168.071 79.7426 168.526 79.7426ZM175.095 79.5283C175.077 79.5461 175.068 79.564 175.068 79.5818C175.077 79.5997 175.095 79.6086 175.121 79.6086H178.939C178.984 79.6086 179.019 79.6265 179.046 79.6622C179.082 79.689 179.1 79.7247 179.1 79.7694V80.7874C179.1 80.832 179.082 80.8722 179.046 80.9079C179.019 80.9347 178.984 80.9481 178.939 80.9481H173.179C173.134 80.9481 173.094 80.9347 173.059 80.9079C173.032 80.8722 173.018 80.832 173.018 80.7874V79.823C173.018 79.7426 173.045 79.6756 173.099 79.622C173.777 78.8987 174.563 78.0102 175.456 76.9565L176.086 76.2197C176.907 75.2642 177.318 74.5409 177.318 74.0498C177.318 73.6836 177.189 73.3845 176.93 73.1523C176.671 72.9201 176.336 72.804 175.925 72.804C175.514 72.804 175.179 72.9201 174.92 73.1523C174.67 73.3845 174.545 73.6926 174.545 74.0766V74.4248C174.545 74.4695 174.528 74.5097 174.492 74.5454C174.465 74.5722 174.429 74.5856 174.385 74.5856H173.139C173.094 74.5856 173.054 74.5722 173.018 74.5454C172.992 74.5097 172.978 74.4695 172.978 74.4248V73.8488C172.996 73.3666 173.134 72.9469 173.393 72.5897C173.652 72.2325 174.001 71.9557 174.438 71.7592C174.885 71.5628 175.38 71.4646 175.925 71.4646C176.523 71.4646 177.046 71.5762 177.492 71.7994C177.939 72.0227 178.283 72.3308 178.524 72.7237C178.765 73.1077 178.885 73.5408 178.885 74.023C178.885 74.7552 178.497 75.5991 177.72 76.5546C177.291 77.0904 176.586 77.8941 175.604 78.9657L175.095 79.5283ZM186.718 77.0904C186.763 77.0904 186.799 77.1083 186.826 77.144C186.861 77.1708 186.879 77.2065 186.879 77.2511V78.3227C186.879 78.3674 186.861 78.4076 186.826 78.4433C186.799 78.4701 186.763 78.4835 186.718 78.4835H186.156C186.111 78.4835 186.089 78.5058 186.089 78.5504V80.7874C186.089 80.832 186.071 80.8722 186.035 80.9079C186.008 80.9347 185.973 80.9481 185.928 80.9481H184.696C184.651 80.9481 184.611 80.9347 184.575 80.9079C184.548 80.8722 184.535 80.832 184.535 80.7874V78.5504C184.535 78.5058 184.513 78.4835 184.468 78.4835H180.396C180.351 78.4835 180.311 78.4701 180.275 78.4433C180.249 78.4076 180.235 78.3674 180.235 78.3227V77.4655C180.235 77.4119 180.249 77.3449 180.275 77.2645L182.807 71.6923C182.843 71.6119 182.905 71.5717 182.995 71.5717H184.307C184.37 71.5717 184.41 71.5896 184.428 71.6253C184.455 71.6521 184.455 71.6967 184.428 71.7592L182.044 77.01C182.035 77.0279 182.035 77.0457 182.044 77.0636C182.053 77.0815 182.066 77.0904 182.084 77.0904H184.468C184.513 77.0904 184.535 77.0681 184.535 77.0234V75.2017C184.535 75.1571 184.548 75.1214 184.575 75.0946C184.611 75.0588 184.651 75.041 184.696 75.041H185.928C185.973 75.041 186.008 75.0588 186.035 75.0946C186.071 75.1214 186.089 75.1571 186.089 75.2017V77.0234C186.089 77.0681 186.111 77.0904 186.156 77.0904H186.718Z" fill="#F15A29"/>
<path d="M209.554 89.8161V-2.28882e-05" stroke="white" stroke-width="0.718529"/>
<path d="M242.918 52.6239H239.181L234.533 45.9277V52.6239H231.47V37.3346H234.533V43.9454L238.83 37.3346H242.377L237.474 44.818L242.918 52.6239Z" fill="white"/>
<path d="M253.607 40.3602H247.461V43.3479H252.734V46.4114H247.461V49.5698H253.607V52.6239H244.388V37.3346H253.607V40.3602Z" fill="white"/>
<path d="M267.568 52.6239H263.812L258.947 45.3965V52.6239H255.874L255.864 37.3346H260.853C263.708 37.3346 266.051 39.535 266.051 42.2856C266.051 44.2489 264.865 45.9656 263.224 46.5442L267.568 52.6239ZM258.937 40.3792V44.2204L260.91 44.2299C261.953 44.2394 262.883 43.3953 262.883 42.3045C262.883 41.2138 261.944 40.3792 260.91 40.3792H258.937Z" fill="white"/>
<path d="M279.282 52.6239L278.314 50.4898H272.197L271.22 52.6239H267.9L275.203 36.9552H275.298L282.611 52.6239H279.282ZM273.392 47.872H277.119L275.26 43.7841L273.392 47.872Z" fill="white"/>
<path d="M287.221 49.5698H293.367V52.6239H284.148V37.3346H287.221V49.5698Z" fill="white"/>
<path d="M305.346 52.6239L304.378 50.4898H298.261L297.284 52.6239H293.964L301.267 36.9552H301.362L308.675 52.6239H305.346ZM299.456 47.872H303.183L301.324 43.7841L299.456 47.872Z" fill="white"/>
<path d="M320.483 52.9274C317.979 52.9274 316.13 51.884 315.105 49.9871L317.562 48.2609C318.235 49.3422 319.212 49.8354 320.531 49.8354C321.972 49.8354 322.94 49.2473 322.94 48.4316C322.94 47.3124 321.109 46.4304 319.506 45.6337C317.79 44.78 315.902 43.8411 315.902 41.4035C315.902 38.7573 318.141 37.0121 320.948 37.0121C323.035 37.0121 324.761 37.8752 325.453 39.7247L323.186 41.3087C322.731 40.3981 321.849 40.0282 320.995 40.0282C319.848 40.0282 318.994 40.6921 318.994 41.4794C318.994 42.3899 320.151 42.7029 321.906 43.5281C324.438 44.7231 326.032 46.013 326.032 48.3652C326.032 51.1537 323.755 52.9274 320.483 52.9274Z" fill="white"/>
<path d="M337.565 37.3346V40.3792H333.809V52.6239H330.727V40.3792H326.961V37.3346H337.565Z" fill="white"/>
<path d="M347.647 52.6239L346.68 50.4898H340.562L339.585 52.6239H336.266L343.569 36.9552H343.664L350.976 52.6239H347.647ZM341.757 47.872H345.485L343.626 43.7841L341.757 47.872Z" fill="white"/>
<path d="M364.217 52.6239H360.461L355.595 45.3965V52.6239H352.522L352.513 37.3346H357.502C360.357 37.3346 362.699 39.535 362.699 42.2856C362.699 44.2489 361.514 45.9656 359.873 46.5442L364.217 52.6239ZM355.586 40.3792V44.2204L357.559 44.2299C358.602 44.2394 359.532 43.3953 359.532 42.3045C359.532 41.2138 358.593 40.3792 357.559 40.3792H355.586Z" fill="white"/>
<path d="M374.973 37.3346V40.3792H371.217V52.6239H368.134V40.3792H364.369V37.3346H374.973Z" fill="white"/>
<path d="M382.466 52.9558C379.212 52.9558 376.566 50.4329 376.566 46.971V37.3346H379.658V46.9615C379.658 48.6308 380.976 49.8448 382.456 49.8448C383.936 49.8448 385.273 48.6213 385.273 46.9615V37.3346H388.365V46.971C388.365 50.4329 385.719 52.9558 382.466 52.9558Z" fill="white"/>
<path d="M390.888 52.6239V37.3346H396.256C399.215 37.3346 401.634 39.6583 401.634 42.5037C401.634 45.3396 399.215 47.6539 396.256 47.6539H393.961V52.6239H390.888ZM396.256 44.6188C397.527 44.6283 398.561 43.6608 398.561 42.4753C398.561 41.3181 397.527 40.3792 396.256 40.3792H393.961V44.6093L396.256 44.6188Z" fill="white"/>
<path d="M423.866 36.9552H424.037V52.6239H420.964V45.9656L416.563 52.3678H416.544L412.134 45.9656V52.6239H409.061V36.9552H409.231L416.553 47.0564L423.866 36.9552Z" fill="white"/>
<path d="M426.702 52.6239V37.3346H429.775V52.6239H426.702Z" fill="white"/>
<path d="M437.012 52.9274C434.508 52.9274 432.658 51.884 431.634 49.9871L434.091 48.2609C434.764 49.3422 435.741 49.8354 437.059 49.8354C438.501 49.8354 439.468 49.2473 439.468 48.4316C439.468 47.3124 437.638 46.4304 436.035 45.6337C434.318 44.78 432.431 43.8411 432.431 41.4035C432.431 38.7573 434.669 37.0121 437.477 37.0121C439.563 37.0121 441.289 37.8752 441.982 39.7247L439.715 41.3087C439.26 40.3981 438.378 40.0282 437.524 40.0282C436.376 40.0282 435.523 40.6921 435.523 41.4794C435.523 42.3899 436.68 42.7029 438.435 43.5281C440.967 44.7231 442.56 46.013 442.56 48.3652C442.56 51.1537 440.284 52.9274 437.012 52.9274Z" fill="white"/>
<path d="M449 52.9274C446.496 52.9274 444.647 51.884 443.623 49.9871L446.079 48.2609C446.753 49.3422 447.729 49.8354 449.048 49.8354C450.49 49.8354 451.457 49.2473 451.457 48.4316C451.457 47.3124 449.626 46.4304 448.024 45.6337C446.307 44.78 444.419 43.8411 444.419 41.4035C444.419 38.7573 446.658 37.0121 449.465 37.0121C451.552 37.0121 453.278 37.8752 453.97 39.7247L451.704 41.3087C451.248 40.3981 450.366 40.0282 449.513 40.0282C448.365 40.0282 447.511 40.6921 447.511 41.4794C447.511 42.3899 448.668 42.7029 450.423 43.5281C452.956 44.7231 454.549 46.013 454.549 48.3652C454.549 51.1537 452.273 52.9274 449 52.9274Z" fill="white"/>
<path d="M456.408 52.6239V37.3346H459.481V52.6239H456.408Z" fill="white"/>
<path d="M469.411 52.9179C465.048 52.9179 461.473 49.3516 461.473 44.9982C461.473 40.6068 465.048 37.0216 469.421 37.0216C473.793 37.0216 477.379 40.6068 477.379 44.9982C477.379 49.3516 473.793 52.9179 469.411 52.9179ZM469.411 49.8069C472.086 49.8069 474.268 47.6349 474.268 44.9792C474.268 42.3045 472.086 40.1231 469.411 40.1231C466.746 40.1231 464.574 42.3045 464.574 44.9792C464.574 47.6349 466.746 49.8069 469.411 49.8069Z" fill="white"/>
<path d="M488.589 37.2966H491.672V52.9084H491.53L482.453 44.0782V52.6428H479.38V37.05H479.532L488.589 45.8613V37.2966Z" fill="white"/>
<path d="M231.47 73.5791V58.2898H234.543V73.5791H231.47Z" fill="white"/>
<path d="M246.408 58.2518H249.491V73.8636H249.348L240.271 65.0334V73.598H237.198V58.0052H237.35L246.408 66.8165V58.2518Z" fill="white"/>
<path d="M268.09 73.5791L267.123 71.445H261.005L260.028 73.5791H256.708L264.012 57.9104H264.106L271.419 73.5791H268.09ZM262.2 68.8272H265.927L264.069 64.7394L262.2 68.8272Z" fill="white"/>
<path d="M277.062 73.8826C274.559 73.8826 272.709 72.8393 271.685 70.9423L274.141 69.2161C274.815 70.2974 275.792 70.7906 277.11 70.7906C278.552 70.7906 279.519 70.2025 279.519 69.3868C279.519 68.2676 277.688 67.3856 276.086 66.5889C274.369 65.7352 272.481 64.7963 272.481 62.3587C272.481 59.7125 274.72 57.9673 277.527 57.9673C279.614 57.9673 281.34 58.8304 282.032 60.6799L279.766 62.2639C279.31 61.3533 278.428 60.9834 277.575 60.9834C276.427 60.9834 275.573 61.6474 275.573 62.4346C275.573 63.3451 276.731 63.6581 278.485 64.4833C281.018 65.6783 282.611 66.9683 282.611 69.3204C282.611 72.1089 280.335 73.8826 277.062 73.8826Z" fill="white"/>
<path d="M289.051 73.8826C286.547 73.8826 284.698 72.8393 283.673 70.9423L286.13 69.2161C286.803 70.2974 287.78 70.7906 289.099 70.7906C290.54 70.7906 291.508 70.2025 291.508 69.3868C291.508 68.2676 289.677 67.3856 288.074 66.5889C286.357 65.7352 284.47 64.7963 284.47 62.3587C284.47 59.7125 286.708 57.9673 289.516 57.9673C291.602 57.9673 293.329 58.8304 294.021 60.6799L291.754 62.2639C291.299 61.3533 290.417 60.9834 289.563 60.9834C288.416 60.9834 287.562 61.6474 287.562 62.4346C287.562 63.3451 288.719 63.6581 290.474 64.4833C293.006 65.6783 294.6 66.9683 294.6 69.3204C294.6 72.1089 292.323 73.8826 289.051 73.8826Z" fill="white"/>
<path d="M303.733 73.8731C299.37 73.8731 295.795 70.3069 295.795 65.9534C295.795 61.562 299.37 57.9768 303.743 57.9768C308.115 57.9768 311.7 61.562 311.7 65.9534C311.7 70.3069 308.115 73.8731 303.733 73.8731ZM303.733 70.7621C306.408 70.7621 308.59 68.5901 308.59 65.9344C308.59 63.2597 306.408 61.0783 303.733 61.0783C301.068 61.0783 298.896 63.2597 298.896 65.9344C298.896 68.5901 301.068 70.7621 303.733 70.7621Z" fill="white"/>
<path d="M321.033 73.8731C316.623 73.8731 313.038 70.2405 313.038 65.9439C313.038 61.6284 316.67 57.9768 320.976 57.9768C322.968 58.0052 324.732 58.7925 326.335 60.3385L324.562 62.7571C323.518 61.7327 322.266 61.1067 320.948 61.1067C318.491 61.1067 316.149 63.2882 316.149 65.9629C316.149 68.685 318.577 70.7906 320.939 70.7906C322.342 70.7906 323.556 70.0413 324.571 69.0454L326.335 71.5304C324.988 72.8677 323.348 73.8731 321.033 73.8731Z" fill="white"/>
<path d="M328.062 73.5791V58.2898H331.135V73.5791H328.062Z" fill="white"/>
<path d="M344.043 73.5791L343.076 71.445H336.958L335.981 73.5791H332.662L339.965 57.9104H340.06L347.372 73.5791H344.043ZM338.153 68.8272H341.881L340.022 64.7394L338.153 68.8272Z" fill="white"/>
<path d="M356.686 58.2898V61.3344H352.93V73.5791H349.848V61.3344H346.082V58.2898H356.686Z" fill="white"/>
<path d="M358.412 73.5791V58.2898H361.485V73.5791H358.412Z" fill="white"/>
<path d="M371.416 73.8731C367.053 73.8731 363.477 70.3069 363.477 65.9534C363.477 61.562 367.053 57.9768 371.425 57.9768C375.798 57.9768 379.383 61.562 379.383 65.9534C379.383 70.3069 375.798 73.8731 371.416 73.8731ZM371.416 70.7621C374.091 70.7621 376.272 68.5901 376.272 65.9344C376.272 63.2597 374.091 61.0783 371.416 61.0783C368.751 61.0783 366.579 63.2597 366.579 65.9344C366.579 68.5901 368.751 70.7621 371.416 70.7621Z" fill="white"/>
<path d="M390.594 58.2518H393.676V73.8636H393.534L384.457 65.0334V73.598H381.384V58.0052H381.536L390.594 66.8165V58.2518Z" fill="white"/>
<path d="M405.874 73.7688L400.894 58.2898H404.204L406.557 66.0008L409.838 58.3467H409.895L413.167 65.9913L415.51 58.2898H418.83L413.85 73.7688H413.67L409.829 65.4602L406.044 73.7688H405.874Z" fill="white"/>
<path d="M420.366 73.5791V58.2898H423.439V73.5791H420.366Z" fill="white"/>
<path d="M435.769 58.2898V61.3344H432.013V73.5791H428.931V61.3344H425.165V58.2898H435.769Z" fill="white"/>
<path d="M446.051 58.2898H449.114V73.5791H446.051V67.452H440.559V73.5791H437.496V58.2898H440.559V64.4074H446.051V58.2898Z" fill="white"/>
<path d="M467.145 58.2898V61.3344H463.389V73.5791H460.306V61.3344H456.541V58.2898H467.145Z" fill="white"/>
<path d="M477.227 73.5791L476.259 71.445H470.142L469.165 73.5791H465.845L473.148 57.9104H473.243L480.556 73.5791H477.227ZM471.337 68.8272H475.064L473.205 64.7394L471.337 68.8272Z" fill="white"/>
<path d="M487.944 73.8731C483.581 73.8731 480.006 70.3069 480.006 65.9534C480.006 61.562 483.581 57.9768 487.954 57.9768C492.326 57.9768 495.912 61.562 495.912 65.9534C495.912 70.3069 492.326 73.8731 487.944 73.8731ZM487.944 70.7621C490.619 70.7621 492.801 68.5901 492.801 65.9344C492.801 63.2597 490.619 61.0783 487.944 61.0783C485.279 61.0783 483.107 63.2597 483.107 65.9344C483.107 68.5901 485.279 70.7621 487.944 70.7621Z" fill="white"/>
<path d="M502.494 73.8826C499.99 73.8826 498.14 72.8393 497.116 70.9423L499.573 69.2161C500.246 70.2974 501.223 70.7906 502.541 70.7906C503.983 70.7906 504.95 70.2025 504.95 69.3868C504.95 68.2676 503.12 67.3856 501.517 66.5889C499.8 65.7352 497.913 64.7963 497.913 62.3587C497.913 59.7125 500.151 57.9673 502.959 57.9673C505.045 57.9673 506.771 58.8304 507.464 60.6799L505.197 62.2639C504.742 61.3533 503.86 60.9834 503.006 60.9834C501.858 60.9834 501.005 61.6474 501.005 62.4346C501.005 63.3451 502.162 63.6581 503.917 64.4833C506.449 65.6783 508.042 66.9683 508.042 69.3204C508.042 72.1089 505.766 73.8826 502.494 73.8826Z" fill="white"/>
<path d="M240.689 19.405H234.543V22.4875H239.816V25.551H234.543V31.6876H231.47V16.3414H240.689V19.405Z" fill="white"/>
<path d="M242.415 31.6686V16.3794H245.488V31.6686H242.415Z" fill="white"/>
<path d="M255.475 31.9627C251.065 31.9627 247.48 28.33 247.48 24.0335C247.48 19.718 251.112 16.0664 255.418 16.0664C257.41 16.0948 259.174 16.8821 260.777 18.4281L259.004 20.8466C257.96 19.8223 256.708 19.1963 255.39 19.1963C252.934 19.1963 250.591 21.3778 250.591 24.0525C250.591 26.7746 253.019 28.8802 255.381 28.8802C256.784 28.8802 257.998 28.1309 259.013 27.135L260.777 29.62C259.431 30.9573 257.79 31.9627 255.475 31.9627Z" fill="white"/>
<path d="M269.171 31.9627C264.761 31.9627 261.176 28.33 261.176 24.0335C261.176 19.718 264.808 16.0664 269.114 16.0664C271.106 16.0948 272.87 16.8821 274.473 18.4281L272.7 20.8466C271.656 19.8223 270.404 19.1963 269.086 19.1963C266.629 19.1963 264.287 21.3778 264.287 24.0525C264.287 26.7746 266.715 28.8802 269.076 28.8802C270.48 28.8802 271.694 28.1309 272.709 27.135L274.473 29.62C273.126 30.9573 271.486 31.9627 269.171 31.9627Z" fill="white"/>
<path d="M276.199 31.6686V16.3794H279.272V31.6686H276.199Z" fill="white"/>
<path d="M300.338 28.9655L300.328 31.8109C299.257 31.8014 297.881 31.2324 296.449 30.3123C295.339 31.422 293.879 32.0101 292.191 32.0101C288.615 32.0101 286.955 29.3449 286.955 27.3057C286.955 25.5416 288.188 23.749 289.336 22.9807C288.729 21.8994 288.368 20.8656 288.368 20.0025C288.368 18.0202 290.284 15.9336 292.655 15.9336C294.77 15.9336 296.459 17.6124 296.838 19.367L293.898 19.9551C293.737 19.3006 293.13 18.76 292.551 18.76C291.982 18.76 291.403 19.2912 291.403 20.1163C291.403 21.6339 293.329 24.1947 295.501 26.1675C295.709 25.5226 295.823 24.8018 295.861 24.0335L298.735 23.9956C298.697 25.551 298.412 26.9073 297.938 28.0455C298.858 28.6146 299.702 28.9655 300.338 28.9655ZM292.029 29.0035C292.788 29.0035 293.433 28.8043 293.964 28.4344C292.835 27.4575 291.764 26.3478 290.863 25.2096C290.313 25.6743 289.867 26.2529 289.867 27.0781C289.867 28.2637 290.569 29.0035 292.029 29.0035Z" fill="white"/>
</g>
<defs>
<clipPath id="clip0_4_70">
<rect width="509" height="90" fill="white"/>
</clipPath>
</defs>
</svg>
