<svg width="439" height="153" viewBox="0 0 439 153" fill="none" xmlns="http://www.w3.org/2000/svg">
<path fill-rule="evenodd" clip-rule="evenodd" d="M291.233 90.3537C291.233 90.3537 277.891 26.6258 338.967 4.61118C380.199 -10.2657 384.3 15.3981 367.455 17.8782C350.617 20.3508 292.223 23.6526 291.233 90.35V90.3537Z" fill="#0D9C4A"/>
<path fill-rule="evenodd" clip-rule="evenodd" d="M326.806 128.896C326.806 128.896 276.868 122.315 270.836 66.6846C265.838 20.7244 290.198 29.0349 288.278 43.3067C286.37 57.5784 275.348 114.957 326.806 128.896Z" fill="#F15A22"/>
<path fill-rule="evenodd" clip-rule="evenodd" d="M367.32 126.917C367.32 126.917 340.652 152.113 289.653 131.455C254.696 117.284 272.763 101.309 281.607 109.055C290.456 116.776 324.337 149.648 367.32 126.917Z" fill="#F58220"/>
<path fill-rule="evenodd" clip-rule="evenodd" d="M382.828 109.19C382.828 109.19 378.279 138.521 349.751 150.063C329.279 158.328 330.227 145.222 336.024 145.569C344.387 146.074 372.912 139.997 382.828 109.19Z" fill="#FCAF17"/>
<path fill-rule="evenodd" clip-rule="evenodd" d="M312.523 57.4028H337.709V65.0373H320.8V72.6793H336.439V80.3176H320.8V94.9516H312.523V57.4028Z" fill="white"/>
<path d="M351.707 57.4028H343.427V94.9516H351.707V57.4028Z" fill="white"/>
<path fill-rule="evenodd" clip-rule="evenodd" d="M384.023 67.1626C382.372 65.1979 379.989 64.0886 376.923 64.0886C370.655 64.0886 366.035 69.1758 366.035 76.179C366.035 83.1823 370.652 88.2695 376.647 88.2695C379.989 88.2695 382.701 86.7792 384.401 84.2356L391.292 89.3863C388.162 93.8385 382.851 95.9115 377.707 95.9115C365.994 95.9115 357.448 88.2135 357.448 76.1753C357.448 64.1371 365.994 56.4429 377.707 56.4429C381.902 56.4429 387.213 57.8734 390.395 61.9596L384.023 67.1551V67.1626Z" fill="white"/>
<path fill-rule="evenodd" clip-rule="evenodd" d="M419.167 67.1626C417.523 65.1979 415.14 64.0886 412.055 64.0886C405.795 64.0886 401.19 69.1758 401.19 76.179C401.19 83.1823 405.795 88.2695 411.797 88.2695C415.14 88.2695 417.837 86.7792 419.536 84.2356L426.439 89.3863C423.309 93.8385 418.001 95.9115 412.851 95.9115C401.137 95.9115 392.595 88.2135 392.595 76.1753C392.595 64.1297 401.137 56.4429 412.851 56.4429C417.049 56.4429 422.349 57.8734 425.527 61.9596L419.167 67.1551V67.1626Z" fill="white"/>
<path d="M439 57.4028H430.72V94.9516H439V57.4028Z" fill="white"/>
<g clip-path="url(#clip0_3_58)">
<path d="M94.8336 42.9299L81.2598 50.8202L79.103 39.3447L92.1988 28.7466L94.8336 42.9299Z" fill="#00AEEF"/>
<path d="M120.783 27.0726L107.689 34.564L104.656 17.1916L117.749 6.59204L120.783 27.0726Z" fill="#00AEEF"/>
<path d="M137.871 42.0554L123.818 46.8347L120.783 27.1522L134.196 19.8213L137.871 42.0554Z" fill="#00AEEF"/>
<path d="M155.517 62.4549L140.903 63.8095L137.71 41.0174L151.842 37.6721L155.517 62.4549Z" fill="#00AEEF"/>
<path d="M127.491 65.8016L113.357 68.5903L110.643 51.5374L124.297 45.7996L127.491 65.8016Z" fill="#00AEEF"/>
<path d="M144.817 86.0407L130.207 85.6432L127.251 65.6411L141.381 63.2515L144.817 86.0407Z" fill="#00AEEF"/>
<path d="M110.722 51.6935L97.2279 57.1118L94.7539 42.771L107.928 34.4006L110.722 51.6935Z" fill="#00AEEF"/>
<path d="M99.9441 71.6146L85.8909 74.1676L83.4951 62.692L97.3093 57.3518L99.9441 71.6146Z" fill="#00AEEF"/>
<path d="M116.471 85.8804H102.259L99.7036 71.3776L113.597 68.6685L116.471 85.8804Z" fill="#00AEEF"/>
<path d="M88.2865 85.7214L73.8349 85.0838L71.7578 76.0008L85.811 73.9277L88.2865 85.7214Z" fill="#00AEEF"/>
<path d="M83.8935 62.692L70.1604 67.5523L67.8457 57.9893L81.3398 50.897L83.8935 62.692Z" fill="#00AEEF"/>
<path d="M72.0779 76.3984L57.8654 77.2744L56.1084 70.422L70.0805 67.4729L72.0779 76.3984Z" fill="#00AEEF"/>
<path d="M44.4697 94.4458H47.6405V100.69H47.7027C48.0185 100.145 48.3546 99.6415 48.6689 99.1384L51.8816 94.4458H55.8085L51.1255 100.46L56.0605 108.568H52.3234L48.8586 102.469L47.6405 103.957V108.565H44.4697V94.4458Z" fill="#0B9444"/>
<path d="M76.9591 102.598H71.7518V105.949H77.5675V108.57H68.5391V94.4443H77.2734V97.0653H71.7518V99.9971H76.9591V102.598Z" fill="#0B9444"/>
<path d="M90.9282 94.6324C91.9566 94.4661 93.4906 94.3403 95.1911 94.3403C97.2914 94.3403 98.7602 94.6555 99.7683 95.452C100.608 96.1243 101.069 97.1073 101.069 98.407C101.069 100.208 99.7886 101.447 98.5704 101.885V101.947C99.5568 102.343 100.103 103.29 100.461 104.589C100.901 106.182 101.341 108.025 101.615 108.57H98.3401C98.1084 108.172 97.7738 107.02 97.3537 105.281C96.9756 103.52 96.3658 103.037 95.0651 103.019H94.0989V108.573H90.9282V94.6324ZM94.0989 100.711H95.3591C96.9554 100.711 97.8998 99.9148 97.8998 98.6787C97.8998 97.3791 97.0176 96.7271 95.5474 96.7083C94.7696 96.7083 94.3293 96.7719 94.0989 96.8138V100.711Z" fill="#0B9444"/>
<path d="M118.041 104.944L117.034 108.57H113.716L118.041 94.4443H122.239L126.626 108.57H123.183L122.091 104.944H118.041ZM121.632 102.556L120.753 99.5605C120.501 98.722 120.248 97.6725 120.038 96.8354H119.998C119.786 97.6725 119.579 98.7408 119.348 99.5605L118.507 102.556H121.632Z" fill="#0B9444"/>
<path d="M139.697 94.4458H142.91V105.887H148.537V108.568H139.697V94.4458Z" fill="#0B9444"/>
<path d="M165.027 104.944L164.021 108.57H160.702L165.027 94.4443H169.225L173.612 108.57H170.169L169.077 104.944H165.027ZM168.615 102.556L167.735 99.5605C167.483 98.722 167.23 97.6725 167.022 96.8354H166.98C166.768 97.6725 166.561 98.7408 166.33 99.5605L165.489 102.556H168.615Z" fill="#0B9444"/>
<path d="M0.844467 132.435C1.96125 133.006 3.67625 133.575 5.4463 133.575C7.35251 133.575 8.35921 132.787 8.35921 131.592C8.35921 130.45 7.48722 129.798 5.28262 129.01C2.23356 127.953 0.244794 126.267 0.244794 123.603C0.244794 120.478 2.85931 118.088 7.18738 118.088C9.25727 118.088 10.7811 118.523 11.8703 119.013L10.9448 122.357C10.2089 122.004 8.90239 121.487 7.10627 121.487C5.3087 121.487 4.43671 122.301 4.43671 123.252C4.43671 124.423 5.47238 124.937 7.84065 125.835C11.0809 127.029 12.6062 128.715 12.6062 131.295C12.6062 134.366 10.2379 136.977 5.20006 136.977C3.1041 136.977 1.03422 136.435 0 135.862L0.844467 132.435Z" fill="white"/>
<path d="M18.6479 121.863H13.7188V118.384H27.8241V121.863H22.8138V136.701H18.6479V121.863Z" fill="white"/>
<path d="M32.0406 131.999L30.7327 136.701H26.4307L32.0392 118.384H37.4855L43.178 136.701H38.7124L37.2957 131.999H32.0406ZM36.6961 128.899L35.5518 125.013C35.2244 123.925 34.8985 122.568 34.6262 121.481H34.5712C34.2988 122.568 34.0265 123.954 33.7267 125.013L32.6374 128.899H36.6961Z" fill="white"/>
<path d="M45.3218 118.628C46.6558 118.413 48.6432 118.245 50.8492 118.245C53.5723 118.245 55.4771 118.654 56.7851 119.688C57.8743 120.558 58.474 121.832 58.474 123.518C58.474 125.854 56.8126 127.458 55.2338 128.028V128.11C56.5142 128.627 57.2211 129.85 57.6846 131.534C58.2568 133.603 58.8289 135.992 59.1823 136.698H54.9339C54.6341 136.183 54.1995 134.685 53.6549 132.432C53.1653 130.149 52.3759 129.523 50.687 129.497H49.4355V136.699H45.3218V118.628ZM49.4326 126.509H51.0665C53.1364 126.509 54.3603 125.477 54.3603 123.873C54.3603 122.188 53.216 121.346 51.3113 121.317C50.3046 121.317 49.7324 121.4 49.4326 121.455V126.509Z" fill="white"/>
<path d="M64.7021 121.863H59.7729V118.384H73.8783V121.863H68.868V136.701H64.7021V121.863Z" fill="white"/>
<path d="M79.9173 118.384V128.927C79.9173 132.082 81.1152 133.684 83.2387 133.684C85.4172 133.684 86.6151 132.16 86.6151 128.927V118.384H90.7534V128.656C90.7534 134.308 87.8941 136.998 83.1011 136.998C78.4731 136.998 75.75 134.441 75.75 128.599V118.384H79.9173Z" fill="white"/>
<path d="M94.043 118.628C95.322 118.413 97.121 118.245 99.6529 118.245C102.212 118.245 104.036 118.737 105.263 119.716C106.433 120.641 107.224 122.159 107.224 123.956C107.224 125.748 106.625 127.271 105.535 128.304C104.119 129.637 102.023 130.233 99.5718 130.233C99.0272 130.233 98.5376 130.205 98.1552 130.152V136.701H94.0444L94.043 118.628ZM98.1538 126.944C98.5086 127.028 98.9432 127.052 99.5429 127.052C101.747 127.052 103.11 125.938 103.11 124.064C103.11 122.378 101.939 121.375 99.8702 121.375C99.0257 121.375 98.4536 121.458 98.1538 121.536V126.944Z" fill="white"/>
<path d="M130.277 129.689C130.193 127.488 130.113 124.825 130.113 122.159H130.03C129.457 124.496 128.698 127.107 127.988 129.254L125.756 136.399H122.517L120.556 129.306C119.956 127.159 119.329 124.55 118.894 122.159H118.839C118.732 124.632 118.65 127.459 118.511 129.743L118.188 136.701H114.346L115.518 118.384H121.044L122.84 124.498C123.414 126.619 123.986 128.9 124.393 131.047H124.475C124.993 128.926 125.618 126.507 126.218 124.47L128.179 118.383H133.595L134.602 136.701H130.545L130.277 129.689Z" fill="white"/>
<path d="M141.65 118.384V136.701H137.483V118.384H141.65Z" fill="white"/>
<path d="M145.079 132.435C146.194 133.006 147.911 133.575 149.679 133.575C151.585 133.575 152.594 132.787 152.594 131.592C152.594 130.45 151.722 129.798 149.516 129.01C146.468 127.953 144.479 126.267 144.479 123.603C144.479 120.478 147.094 118.088 151.422 118.088C153.493 118.088 155.017 118.523 156.106 119.013L155.176 122.357C154.443 122.004 153.138 121.487 151.339 121.487C149.543 121.487 148.671 122.301 148.671 123.252C148.671 124.423 149.707 124.937 152.075 125.835C155.317 127.029 156.842 128.715 156.842 131.295C156.842 134.366 154.471 136.977 149.436 136.977C147.337 136.977 145.269 136.435 144.233 135.862L145.079 132.435Z" fill="white"/>
<path d="M159.477 132.435C160.594 133.006 162.309 133.575 164.08 133.575C165.983 133.575 166.996 132.787 166.996 131.592C166.996 130.45 166.122 129.798 163.918 129.01C160.87 127.953 158.879 126.267 158.879 123.603C158.879 120.478 161.495 118.088 165.824 118.088C167.894 118.088 169.416 118.523 170.506 119.013L169.58 122.357C168.844 122.004 167.538 121.487 165.742 121.487C163.945 121.487 163.073 122.301 163.073 123.252C163.073 124.423 164.106 124.937 166.477 125.835C169.716 127.029 171.241 128.715 171.241 131.295C171.241 134.366 168.873 136.977 163.835 136.977C161.741 136.977 159.668 136.435 158.635 135.862L159.477 132.435Z" fill="white"/>
<path d="M177.905 118.384V136.701H173.737V118.384H177.905Z" fill="white"/>
<path d="M197.996 127.352C197.996 133.357 194.345 137 188.981 137C183.535 137 180.35 132.896 180.35 127.678C180.35 122.188 183.865 118.085 189.281 118.085C194.918 118.085 197.996 122.298 197.996 127.352ZM184.737 127.596C184.737 131.183 186.423 133.71 189.201 133.71C192.008 133.71 193.612 131.045 193.612 127.485C193.612 124.197 192.033 121.371 189.175 121.371C186.37 121.371 184.737 124.037 184.737 127.596Z" fill="white"/>
<path d="M200.413 136.701V118.384H205.262L209.073 125.096C210.162 127.028 211.252 129.309 212.069 131.376H212.151C211.879 128.956 211.798 126.483 211.798 123.74V118.386H215.609V136.702H211.252L207.331 129.634C206.241 127.677 205.045 125.315 204.145 123.168L204.063 123.195C204.173 125.614 204.226 128.196 204.226 131.184V136.701H200.413Z" fill="white"/>
<path d="M226.009 130.551C229.457 130.551 232.253 127.761 232.253 124.319C232.253 120.877 229.457 118.086 226.009 118.086C222.56 118.086 219.764 120.877 219.764 124.319C219.764 127.761 222.56 130.551 226.009 130.551Z" stroke="white" stroke-width="0.58" stroke-miterlimit="10"/>
<path d="M223.749 127.691V121.482H226.507C227.062 121.482 227.483 121.539 227.771 121.648C228.06 121.761 228.29 121.958 228.464 122.24C228.638 122.522 228.723 122.834 228.723 123.175C228.723 123.616 228.58 123.987 228.294 124.29C228.009 124.592 227.567 124.784 226.97 124.865C227.188 124.969 227.354 125.073 227.467 125.174C227.708 125.394 227.935 125.67 228.151 126L229.233 127.69H228.197L227.375 126.397C227.134 126.024 226.936 125.74 226.781 125.542C226.626 125.344 226.485 125.206 226.364 125.127C226.239 125.047 226.114 124.992 225.987 124.962C225.894 124.942 225.741 124.932 225.529 124.932H224.575V127.688H223.749V127.691ZM224.572 124.222H226.342C226.718 124.222 227.012 124.184 227.224 124.105C227.435 124.028 227.598 123.904 227.708 123.732C227.818 123.562 227.873 123.376 227.873 123.175C227.873 122.882 227.766 122.64 227.551 122.451C227.337 122.261 227.001 122.167 226.54 122.167H224.572V124.222Z" fill="white"/>
</g>
<defs>
<clipPath id="clip0_3_58">
<rect width="239" height="133" fill="white" transform="translate(0 4)"/>
</clipPath>
</defs>
</svg>
