<svg width="4546" height="1846" viewBox="0 0 4546 1846" fill="none" xmlns="http://www.w3.org/2000/svg">
<path d="M1069.45 1021.43C1069.45 1089.85 1014.72 1151.43 915.82 1151.43C825.63 1151.43 755.966 1104.15 754.722 1022.05H848.022C850.51 1056.88 873.524 1079.9 913.954 1079.9C955.006 1079.9 979.264 1058.13 979.264 1027.03C979.264 933.104 755.344 989.706 755.966 832.34C755.966 753.968 819.41 706.696 908.978 706.696C997.924 706.696 1058.88 752.102 1064.48 830.474H968.69C966.824 801.862 943.81 779.47 906.49 778.848C872.28 777.604 846.778 794.398 846.778 829.852C846.778 916.932 1069.45 868.416 1069.45 1021.43ZM1296.72 712.916C1435.42 712.916 1525.61 798.752 1525.61 930.616C1525.61 1061.86 1435.42 1147.07 1296.72 1147.07H1144.95V712.916H1296.72ZM1232.03 1073.05H1293.61C1385.04 1073.05 1436.67 1020.81 1436.67 930.616C1436.67 840.426 1385.04 786.312 1293.61 786.312H1232.03V1073.05ZM1791.08 707.318C1888.11 707.318 1965.24 756.456 1993.23 843.536H1893.09C1873.18 806.838 1837.11 787.556 1791.08 787.556C1713.33 787.556 1659.22 842.914 1659.22 929.372C1659.22 1017.7 1713.95 1072.43 1794.81 1072.43C1861.99 1072.43 1904.91 1033.87 1917.97 972.29H1768.69V905.736H2003.8V981.62C1986.39 1069.94 1907.39 1150.8 1791.7 1150.8C1665.44 1150.8 1569.65 1059.37 1569.65 929.372C1569.65 799.374 1665.44 707.318 1791.08 707.318ZM2216.44 1147.07V712.916H2303.52V1147.07H2216.44ZM2389.56 1147.07V712.916H2488.45L2626.54 1035.73L2764.62 712.916H2862.9V1147.07H2775.82V864.684L2659.5 1147.07H2593.57L2476.64 864.684V1147.07H2389.56ZM3036.07 910.09H3105.11C3154.25 910.09 3176.02 885.832 3176.02 847.268C3176.02 807.46 3154.25 783.824 3105.11 783.824H3036.07V910.09ZM3265.59 847.268C3265.59 913.2 3220.81 980.376 3108.85 980.376H3036.07V1147.07H2948.99V712.916H3108.85C3213.34 712.916 3265.59 772.006 3265.59 847.268ZM3622.24 1147.07L3593.63 1064.35H3420.72L3392.1 1147.07H3300.67L3456.79 712.294H3558.18L3714.3 1147.07H3622.24ZM3570 994.682L3507.17 813.058L3444.35 994.682H3570ZM3751.51 929.372C3751.51 799.374 3846.67 707.318 3971.7 707.318C4068.11 707.318 4146.48 758.944 4175.71 847.89H4075.57C4055.04 806.216 4017.72 785.69 3971.07 785.69C3895.19 785.69 3841.08 841.048 3841.08 929.372C3841.08 1017.07 3895.19 1073.05 3971.07 1073.05C4017.72 1073.05 4055.04 1052.53 4075.57 1010.23H4175.71C4146.48 1099.8 4068.11 1150.8 3971.7 1150.8C3846.67 1150.8 3751.51 1059.37 3751.51 929.372ZM4227.08 783.202V712.916H4545.54V783.202H4429.85V1147.07H4342.77V783.202H4227.08Z" fill="#1A496A"/>
<path d="M3065.6 1486.8C3046.93 1486.8 3030.13 1483.6 3015.2 1477.2C3000.27 1470.53 2988.53 1461.2 2980 1449.2C2971.47 1437.2 2967.2 1423.2 2967.2 1407.2H3016C3017.07 1419.2 3021.73 1429.07 3030 1436.8C3038.53 1444.53 3050.4 1448.4 3065.6 1448.4C3081.33 1448.4 3093.6 1444.67 3102.4 1437.2C3111.2 1429.47 3115.6 1419.6 3115.6 1407.6C3115.6 1398.27 3112.8 1390.67 3107.2 1384.8C3101.87 1378.93 3095.07 1374.4 3086.8 1371.2C3078.8 1368 3067.6 1364.53 3053.2 1360.8C3035.07 1356 3020.27 1351.2 3008.8 1346.4C2997.6 1341.33 2988 1333.6 2980 1323.2C2972 1312.8 2968 1298.93 2968 1281.6C2968 1265.6 2972 1251.6 2980 1239.6C2988 1227.6 2999.2 1218.4 3013.6 1212C3028 1205.6 3044.67 1202.4 3063.6 1202.4C3090.53 1202.4 3112.53 1209.2 3129.6 1222.8C3146.93 1236.13 3156.53 1254.53 3158.4 1278H3108C3107.2 1267.87 3102.4 1259.2 3093.6 1252C3084.8 1244.8 3073.2 1241.2 3058.8 1241.2C3045.73 1241.2 3035.07 1244.53 3026.8 1251.2C3018.53 1257.87 3014.4 1267.47 3014.4 1280C3014.4 1288.53 3016.93 1295.6 3022 1301.2C3027.33 1306.53 3034 1310.8 3042 1314C3050 1317.2 3060.93 1320.67 3074.8 1324.4C3093.2 1329.47 3108.13 1334.53 3119.6 1339.6C3131.33 1344.67 3141.2 1352.53 3149.2 1363.2C3157.47 1373.6 3161.6 1387.6 3161.6 1405.2C3161.6 1419.33 3157.73 1432.67 3150 1445.2C3142.53 1457.73 3131.47 1467.87 3116.8 1475.6C3102.4 1483.07 3085.33 1486.8 3065.6 1486.8ZM3260.61 1206V1383.2C3260.61 1404.27 3266.07 1420.13 3277.01 1430.8C3288.21 1441.47 3303.67 1446.8 3323.41 1446.8C3343.41 1446.8 3358.87 1441.47 3369.81 1430.8C3381.01 1420.13 3386.61 1404.27 3386.61 1383.2V1206H3432.21V1382.4C3432.21 1405.07 3427.27 1424.27 3417.41 1440C3407.54 1455.73 3394.34 1467.47 3377.81 1475.2C3361.27 1482.93 3343.01 1486.8 3323.01 1486.8C3303.01 1486.8 3284.74 1482.93 3268.21 1475.2C3251.94 1467.47 3239.01 1455.73 3229.41 1440C3219.81 1424.27 3215.01 1405.07 3215.01 1382.4V1206H3260.61ZM3784.38 1206V1484H3738.78V1293.6L3653.98 1484H3622.38L3537.18 1293.6V1484H3491.58V1206H3540.78L3638.38 1424L3735.58 1206H3784.38ZM4137.11 1206V1484H4091.51V1293.6L4006.71 1484H3975.11L3889.91 1293.6V1484H3844.31V1206H3893.51L3991.11 1424L4088.31 1206H4137.11ZM4242.65 1206V1484H4197.05V1206H4242.65ZM4482.12 1206V1243.2H4408.12V1484H4362.52V1243.2H4288.12V1206H4482.12Z" fill="#1A496A"/>
<path d="M54.1835 782.682C42.7305 852.874 39.8495 924.397 45.7077 995.283L467.572 948.803C465.966 920.106 467.117 891.094 471.019 862.607L54.1835 782.682Z" fill="#3F7F45"/>
<path d="M508.709 733.986L133.969 534.76C102.308 598.458 78.5203 665.934 63.1979 735.408L479.99 815.357C486.958 787.443 496.599 760.069 508.709 733.986Z" fill="#1896D4"/>
<path d="M582.702 622.254L283.345 321.409C234.328 372.942 191.677 430.445 156.563 492.293L531.303 691.52C546.172 666.879 563.457 643.587 582.702 622.254Z" fill="#63B335"/>
<path d="M514.057 1124.15L124.67 1292.9C154.74 1357.38 192.684 1418.06 237.436 1473.33L559.792 1197.29C542.239 1174.5 526.889 1149.91 514.057 1124.15Z" fill="#F59D2D"/>
<path d="M268.705 1509.87C316.446 1562.62 370.559 1609.41 429.645 1649.04L656.33 1290.26C632.863 1273.63 610.941 1254.66 591.095 1233.84L268.705 1509.87Z" fill="#DE1868"/>
<path d="M686.34 537.249L488.955 161.531C426.931 196.329 369.237 238.668 317.453 287.439L616.811 588.284C638.252 569.118 661.633 551.979 686.34 537.249Z" fill="#02699E"/>
<path d="M50.9567 1043.12C60.6975 1113.59 79.027 1182.76 105.502 1248.76L494.889 1080C484.865 1053.06 477.442 1025.02 472.787 996.631L50.9567 1043.12Z" fill="#C99A2D"/>
<path d="M470.294 1674.8C531.45 1711.11 596.987 1739.9 665.11 1760.35L775.971 1350.68C748.679 1341.68 722.108 1330.03 696.988 1315.98L470.294 1674.8Z" fill="#ED6930"/>
<path d="M1644.37 440.302C1605.06 381.046 1558.49 326.674 1505.98 278.675L1228.35 599.654C1249.06 619.607 1267.95 641.634 1284.46 665.175L1644.37 440.302Z" fill="#C51C2E"/>
<path d="M810.437 486.592L732.561 69.411C663.017 84.3816 595.417 107.859 531.549 139.192L728.9 514.901C755.106 502.883 782.498 493.382 810.437 486.592Z" fill="#1A496A"/>
<path d="M1469.62 247.233C1414.55 202.203 1354.06 163.977 1289.76 133.582L1119.08 522.16C1144.75 535.111 1169.26 550.603 1191.99 568.212L1469.62 247.233Z" fill="#4C9F37"/>
<path d="M943.945 474.729L992.509 53.1041C921.659 46.9275 850.11 49.4211 779.885 60.5469L857.761 477.728C886.258 474.018 915.235 473 943.945 474.729Z" fill="#E6243C"/>
<path d="M1086.45 1339.85L1225.62 1740.78C1292.14 1715.61 1355.51 1682.32 1413.98 1641.84L1162.84 1299.75C1138.74 1315.48 1113.08 1328.97 1086.45 1339.85Z" fill="#2EBCE0"/>
<path d="M1201.58 1271.24L1452.73 1613.33C1508.87 1569.69 1559.62 1519.22 1603.53 1463.26L1262.71 1210.39C1244.38 1232.56 1223.84 1252.99 1201.58 1271.24Z" fill="#E8422E"/>
<path d="M956.186 1371.44L971.007 1795.58C1041.99 1791.14 1112.35 1778 1180.17 1756.56L1041 1355.63C1013.38 1363.56 984.84 1368.91 956.186 1371.44Z" fill="#FCC310"/>
<path d="M822.407 1363.25L711.547 1772.92C780.685 1789.61 851.763 1797.79 922.923 1797.28L908.101 1373.15C879.335 1372.57 850.536 1369.28 822.407 1363.25Z" fill="#A31B43"/>
<path d="M1040.32 58.6468L991.751 480.271C1020.1 485.087 1048.11 492.666 1075.02 502.803L1245.7 114.225C1179.81 87.4249 1110.73 68.7325 1040.32 58.6468Z" fill="#E5B735"/>
<path d="M1514.32 1246.66C1514.32 1237.98 1509.42 1232.52 1498.5 1232.52H1482.12V1261.22H1498.5C1509.42 1261.22 1514.32 1255.48 1514.32 1246.66ZM1462.52 1216.28H1499.2C1522.72 1216.28 1534.48 1229.86 1534.48 1246.24C1534.48 1258.14 1527.9 1270.18 1512.22 1274.38L1535.6 1314H1512.92L1491.36 1275.92H1482.12V1314H1462.52V1216.28ZM1647.55 1264.86C1647.55 1294.26 1625.29 1314.98 1597.57 1314.98C1569.99 1314.98 1547.45 1294.26 1547.45 1264.86C1547.45 1235.6 1569.99 1214.88 1597.57 1214.88C1625.43 1214.88 1647.55 1235.6 1647.55 1264.86ZM1567.61 1264.86C1567.61 1284.74 1579.79 1297.48 1597.57 1297.48C1615.21 1297.48 1627.39 1284.74 1627.39 1264.86C1627.39 1244.98 1615.21 1232.52 1597.57 1232.52C1579.79 1232.52 1567.61 1244.98 1567.61 1264.86ZM1728.49 1314L1722.05 1295.38H1683.13L1676.69 1314H1656.11L1691.25 1216.14H1714.07L1749.21 1314H1728.49ZM1716.73 1279.7L1702.59 1238.82L1688.45 1279.7H1716.73ZM1796.5 1216.28C1827.72 1216.28 1848.02 1235.6 1848.02 1265.28C1848.02 1294.82 1827.72 1314 1796.5 1314H1762.34V1216.28H1796.5ZM1781.94 1297.34H1795.8C1816.38 1297.34 1828 1285.58 1828 1265.28C1828 1244.98 1816.38 1232.8 1795.8 1232.8H1781.94V1297.34ZM1862.7 1314V1216.28H1884.96L1916.04 1288.94L1947.12 1216.28H1969.24V1314H1949.64V1250.44L1923.46 1314H1908.62L1882.3 1250.44V1314H1862.7ZM2054.97 1314L2048.53 1295.38H2009.61L2003.17 1314H1982.59L2017.73 1216.14H2040.55L2075.69 1314H2054.97ZM2043.21 1279.7L2029.07 1238.82L2014.93 1279.7H2043.21ZM2108.43 1260.66H2123.97C2135.03 1260.66 2139.93 1255.2 2139.93 1246.52C2139.93 1237.56 2135.03 1232.24 2123.97 1232.24H2108.43V1260.66ZM2160.09 1246.52C2160.09 1261.36 2150.01 1276.48 2124.81 1276.48H2108.43V1314H2088.83V1216.28H2124.81C2148.33 1216.28 2160.09 1229.58 2160.09 1246.52ZM2202.18 1232.1V1216.28H2273.86V1232.1H2247.82V1314H2228.22V1232.1H2202.18ZM2383.5 1264.86C2383.5 1294.26 2361.24 1314.98 2333.52 1314.98C2305.94 1314.98 2283.4 1294.26 2283.4 1264.86C2283.4 1235.6 2305.94 1214.88 2333.52 1214.88C2361.38 1214.88 2383.5 1235.6 2383.5 1264.86ZM2303.56 1264.86C2303.56 1284.74 2315.74 1297.48 2333.52 1297.48C2351.16 1297.48 2363.34 1284.74 2363.34 1264.86C2363.34 1244.98 2351.16 1232.52 2333.52 1232.52C2315.74 1232.52 2303.56 1244.98 2303.56 1264.86ZM2428.09 1312.6V1298.04C2451.19 1278.44 2475.41 1260.38 2475.41 1241.62C2475.41 1232.52 2471.35 1226.36 2461.69 1226.36C2452.31 1226.36 2447.13 1233.08 2446.99 1243.86H2427.95C2428.65 1220.48 2443.63 1209.7 2461.97 1209.7C2483.95 1209.7 2495.01 1222.72 2495.01 1240.5C2495.01 1264.16 2472.19 1282.64 2455.95 1296.36H2497.25V1312.6H2428.09ZM2509.6 1261.64C2509.6 1232.1 2518.56 1209.98 2547.4 1209.98C2576.24 1209.98 2585.2 1232.1 2585.2 1261.64C2585.2 1291.46 2576.24 1313.72 2547.4 1313.72C2518.56 1313.72 2509.6 1291.46 2509.6 1261.64ZM2565.88 1261.64C2565.88 1244.14 2563.92 1228.18 2547.4 1228.18C2530.88 1228.18 2528.92 1244.14 2528.92 1261.64C2528.92 1279.84 2530.88 1295.52 2547.4 1295.52C2563.92 1295.52 2565.88 1279.84 2565.88 1261.64ZM2600.38 1238.82C2601.36 1219.92 2614.8 1209.56 2634.4 1209.56C2655.4 1209.56 2666.6 1221.46 2666.6 1236.58C2666.6 1249.32 2658.62 1257.16 2651.2 1259.68V1260.24C2661.56 1263.46 2668.42 1271.86 2668.42 1285.72C2668.42 1302.38 2656.66 1314.7 2635.24 1314.7C2615.08 1314.7 2599.82 1304.62 2598.98 1283.2H2618.02C2618.44 1292.02 2624.32 1298.32 2634.82 1298.32C2644.62 1298.32 2649.66 1292.16 2649.66 1284.04C2649.66 1272.56 2642.38 1268.36 2627.82 1268.36H2623.76V1252.26H2627.82C2639.3 1252.26 2647.7 1249.04 2647.7 1238.96C2647.7 1230.98 2642.8 1226.22 2633.84 1226.22C2624.32 1226.22 2620.26 1232.38 2619.56 1238.82H2600.38ZM2683.91 1261.64C2683.91 1232.1 2692.87 1209.98 2721.71 1209.98C2750.55 1209.98 2759.51 1232.1 2759.51 1261.64C2759.51 1291.46 2750.55 1313.72 2721.71 1313.72C2692.87 1313.72 2683.91 1291.46 2683.91 1261.64ZM2740.19 1261.64C2740.19 1244.14 2738.23 1228.18 2721.71 1228.18C2705.19 1228.18 2703.23 1244.14 2703.23 1261.64C2703.23 1279.84 2705.19 1295.52 2721.71 1295.52C2738.23 1295.52 2740.19 1279.84 2740.19 1261.64Z" fill="#26602B"/>
</svg>
